<svg fill="none" height="297" viewBox="0 0 230 297" width="230" xmlns="http://www.w3.org/2000/svg" xmlns:xlink="http://www.w3.org/1999/xlink"><clipPath id="a"><path d="m0 0h230v296.38h-230z"/></clipPath><g clip-path="url(#a)"><path d="m209.052 16.8827c.582 1.1645 1.746 2.9114 2.329 4.0759 2.329 2.3291 4.658 4.6582 7.569 6.4051 1.165.5823 2.329 1.7468 4.076 2.3291-.582 1.7468-1.164 2.3291-2.329 2.3291-1.747 0-3.494 0-5.24-1.1646-.583 0-.583 0-1.747-.5822 1.747 2.3291 2.911 4.0759 4.658 5.8228 1.165 1.7468 2.911 2.9113 4.076 4.6582.582.5823 1.165 1.1645 1.747 1.7468 1.164 1.7469 0 3.4937-1.747 3.4937-1.165 0-2.329 0-2.911-.5823-.583-.5823-1.165-1.1646-1.747-.5823.582.5823.582 1.1646 1.164 1.7469 1.747 1.7468 2.912 4.0759 4.659 5.8227.582 1.1646 1.746 1.7469 2.911 2.3292.582 0 .582.5822 1.164.5822 1.165.5823 1.165 1.7469 1.165 2.9114-.582 1.1646-1.164 1.7469-2.329 1.7469-1.747 0-3.494-1.1646-5.241-2.3291-.582-.5823-1.164-1.1646-1.746-2.3292 0 0 0 0-.583 0 .583 1.1646.583 2.9114 1.165 4.076 1.164 2.9114 2.329 6.4051 4.076 9.3164.582 1.1646 1.747 1.7469 2.329 2.9114.582.5823 1.164 1.7469 1.747 2.9114.582.5823.582 1.7469 0 2.3291-.583.5823-1.747 1.1646-2.912 1.1646-1.164-.5823-2.329-1.1646-3.493-2.3291-.583-.5823-1.165-1.1646-1.747-1.1646 1.747 3.4937 4.076 6.9874 6.987 10.481.582.5823 1.165 1.7469 2.329 2.9114 0 .5823 0 .5823-.582 1.1646-.582 1.1646-1.165 1.7468-2.911 1.1646-.583-.5823-1.165-1.1646-2.329-.5823 1.746 3.4936 3.493 6.9873 5.822 9.8987.583.5818 1.165 1.7468 1.747 2.9118.582 1.164 0 2.329-.582 3.493-.582 1.165-1.747 1.165-2.912.583-.582-.583-1.746-.583-2.911-1.165v1.747c1.165 2.911 1.747 5.823 4.076 8.152.582.582 1.165 1.747 1.747 2.329s1.164 1.747.582 2.329-1.747 1.165-2.911.582c-.583-.582-1.747-1.164-2.329-1.164-.583-.583-1.165-1.165-1.747-1.747 0 1.747 0 3.494.582 4.658-1.164 1.165-1.164 2.911-1.164 4.658 0 5.241 0 11.064.582 16.304 0 4.076.582 8.734.582 12.81v13.393c0 5.822 0 11.063-.582 16.886-3.494 2.329-7.57 3.493-11.063 5.24 0-.582 0-1.164 0-1.164-.583-4.076-1.165-8.152-2.33-11.646-1.164-2.911-2.329-5.823-3.493-8.734-1.747-4.076-3.494-8.152-5.823-11.646 0-.582-.582-1.164-.582-1.164-.583-1.747-1.747-2.329-3.494-1.747-1.165.582-1.747.582-2.911 1.164-2.912 1.747-5.823 3.494-8.735 4.659-2.911 1.747-5.24 2.911-8.151 4.076-5.241 0-11.064 0-16.304 0-.583 2.911-1.165 5.822-1.165 8.734-.582 2.329-.582 4.658-1.164 7.569-1.165 1.747-2.329 3.494-4.076 5.241-2.912 3.494-5.823 6.405-8.152 9.899 0 0-.583-.583-.583 0-1.164 0-2.329.582-4.075.582-2.912.582-5.823.582-9.317 1.165-.582 0-1.747 0-2.329 0-2.329.582-5.241.582-7.57 0-.582 0-1.746-.583-1.746-1.165-.583-.582 0-1.747.582-1.747 1.747-1.164 2.911-2.329 4.658-2.911 2.329 0 3.494-.583 3.494-2.912 0-1.746 0-2.911 0-4.658-.583-2.911-.583-6.405-1.165-9.316 0-2.329-.582-4.659-.582-6.988 1.747 0 3.494 0 5.24-.582 4.076-.582 8.152-2.329 12.228-3.494 8.152-2.329 15.722-5.822 22.709-10.481 4.076-2.329 7.57-5.24 11.646-8.152 1.746-1.164 3.493-2.329 4.658-4.075 1.164-1.165 2.329-2.33 3.494-4.076 2.911-2.912 5.24-5.241 6.987-8.735 1.164-1.746 2.329-2.911 3.494-4.658 2.329-5.24 5.24-10.481 6.405-15.721 1.164-4.076 1.164-8.152 1.164-12.2282 0-.5823-.582-1.1645-1.164-1.1645-.583 2.9113-1.747 5.8227-2.329 8.1517-2.33 6.987-4.659 13.393-9.317 19.215-2.329 2.912-4.658 5.241-6.987 8.152-1.747 1.747-2.912 3.494-4.659 5.241-2.911 1.747-6.405 3.493-9.316 5.24-4.076 2.329-8.152 4.658-12.81 6.405-4.076 1.165-7.57 2.329-11.646 4.076-1.164.583-2.329.583-3.493 1.165-4.659 1.747-9.899 1.747-15.14 2.911l-.582-.582c2.912-2.911 5.241-5.823 8.152-8.152 0 0 .582 0 .582-.582.583 0 1.165 0 1.747-.583 3.494-1.746 7.57-3.493 11.063-5.24 4.076-2.329 8.152-5.241 11.646-8.734 1.747-1.747 2.911-2.912 4.076-4.658 2.911-3.494 5.823-6.988 8.152-11.064 1.747-3.493 3.494-6.987 5.24-11.063 2.329-4.076 4.076-8.7342 5.241-12.8101 0-.5823 0-1.1646 0-1.7469-1.165-.5822-1.747.5823-1.747 1.1646-2.329 3.4937-4.076 6.9873-6.405 10.4814-1.165 2.329-2.911 4.658-4.076 6.405-2.329 3.493-5.823 6.405-9.316 9.898-2.912 3.494-6.988 5.823-10.481 8.735-.583 0-1.165.582-1.165.582 0-2.912-1.747-4.658-4.076-5.823-1.165-.582-2.911-1.747-4.076-1.747-1.747-.582-4.076-.582-5.24 1.165-2.912 3.493-5.823 6.987-8.735 10.481l-.582.582c-1.164-5.24-1.164-9.899-1.747-15.139-.582-3.494-.582-7.57-.582-11.063 0-8.7346 0-17.4688-.582-26.203 0 0 0-.5823-.583-.5823-1.164 0-1.164 1.1646-1.164 1.7469-.582 1.1645-.582 2.3291-1.165 3.4936-.582 2.3292-1.164 4.076-1.746 6.4051-.583 3.4937-1.747 6.9874-1.747 10.4807 0 3.494-.583 6.405-1.165 9.899 0 2.329-.582 4.076-.582 6.405 0 1.747 0 3.494-.582 5.823-.583 3.494 0 6.987.582 9.899v4.076c0 2.329 0 4.658.582 6.405-1.747 1.746-3.494 4.076-5.24 5.822-.583-1.746-1.165-2.911-1.747-4.076-1.165-4.075-2.912-8.151-3.494-12.227 0-2.912-.582-5.823-.582-8.735 0-6.405 0-12.81-.582-19.215 0-.582 0-1.164-.583-1.747.583-2.329 1.165-5.2401 2.329-7.5692 1.747-6.405 4.076-12.8101 6.405-19.2152.583-.5823 1.165-1.1645.583-2.3291-4.076 2.3291-4.076 2.3291-5.823 1.7468 0-1.1645 0-1.7468.582-2.3291 1.747-1.7468 2.912-3.4936 4.076-5.2405 1.165-1.7468 1.747-3.4936 2.912-5.8228-1.165.5823-2.33.5823-2.912 1.1646-.582 0-1.164.5823-1.747 0-1.164-.5823-1.746-1.1646-1.164-2.3291.582-1.1646 1.747-1.7469 2.329-2.9114 2.911-2.3291 4.658-4.6582 6.987-8.1519-1.747 0-3.493.5823-4.658.5823-.582-.5823-.582-1.1646 0-1.7469.582-.5822 1.165-1.1645 2.329-1.7468 3.494-2.3291 6.405-5.8228 9.317-9.3165 0 0 0-.5822.582-1.1645-1.165 0-1.747 0-2.329.5823-1.165 0-1.747-.5823-2.329-1.1646 0-1.1645.582-2.9114 1.746-3.4937 1.747-1.1645 3.494-3.4936 4.659-5.2405 1.747-2.3291 2.911-4.6582 4.658-6.9873 2.911-4.076 5.823-7.5696 10.481-9.8987 0 0 0 0 0-.5823-2.911-1.16458-4.076.5823-5.823.5823-1.747-1.1646-2.329-1.74688-.582-2.91144 2.329-2.32911 4.658-4.07595 8.152-5.2405 4.076-1.16456 7.569-1.16456 11.645 1.16455 1.747 1.16456 2.912 2.32912 4.659 3.49367.582-.58227 1.746-1.16455 2.911-1.74683 2.911-1.74684 5.823-2.32911 8.734-2.32911 2.912 0 5.241 0 8.152-.58228 1.747 0 3.494-1.16456 5.241-2.32912 1.164-.582275 2.329-1.746832 4.076-1.16455374 1.164 2.32911374 1.164 2.91139374-.583 5.82278374 2.329.58228 4.658 0 6.988-.58228 2.329-.58228 4.658-1.74683 6.405-2.91139 1.164.58228 1.164 1.74684.582 2.32911-1.165 1.74684-2.911 3.49368-4.076 5.24051.582 1.16458 1.747.58228 2.329.58228 2.911 0 5.241 0 7.57 1.1646 1.164.5822 2.329 1.1645 3.493 1.7468 2.329 1.1645 2.912 2.3291 2.329 5.2405-.582 0-1.164 0-1.746 0-1.165-.5823-2.329-1.1646-3.494-1.7468-1.165.5822-1.747 0-2.911 0 0 0-.583 0-.583-.5823 0 .5823.583.5823.583.5823zm-69.874 18.6329h1.165c2.329-1.7469 5.24-1.7469 8.734-1.7469 1.747 0 2.911.5823 4.076 1.1646 2.329 1.1646 3.494 3.4937 3.494 5.8228 0 2.9114-1.747 5.2405-3.494 6.9873-2.912 2.9114-6.988 4.6583-10.481 6.4051-3.494 1.1645-5.823 3.4937-6.988 6.9873 1.165 3.4937 3.494 5.8228 6.988 7.5696 1.747.5823 3.493 1.1646 5.24 1.7469 3.494 1.1645 6.988 1.7468 10.481 2.3291 3.494.5823 6.405.5823 9.899 1.1646 0 1.7468 1.165 1.7468 2.911 1.7468 7.57 0 15.14 0 22.127-1.7468 1.165-.5823 2.911-.5823 4.076-1.7469 1.165-1.1645 2.329-2.3291 3.494-4.0759 1.164-2.3291 1.747-5.2405 2.329-8.1519 0-2.3291 0-4.6583 0-6.9874 0-2.9114-.582-5.2405-1.747-8.1519 0-.5823-.582-1.7468-1.747-1.7468 0 .5823-.582 1.1646-.582 1.1646-.582 3.4936-.582 6.405-.582 9.8987v3.4937c-1.165-1.1646-1.747-1.7469-2.912-2.9114-2.329-2.3292-5.823-2.9114-8.734-3.4937-2.329-.5823-4.076-1.1646-6.405-1.1646-2.329-.5822-4.658-1.1645-6.405-2.9114-.582-.5822-1.165-1.1645-2.329-.5822 1.164 1.7468 1.747 3.4936 1.164 5.2405-.582-.5823-1.747-1.1646-2.329-1.7469-1.747-.5822-2.911-.5822-4.658-.5822-2.911 0-5.241 0-7.57 1.1645-.582-2.3291.583-4.0759 1.165-5.8228 1.164-2.3291 3.494-3.4936 5.823-3.4936 1.747.5822 3.493 1.1645 5.24 2.9114 0-.5823 0-1.1646 0-1.7469-1.164-1.1645-.582-2.9114-.582-4.6582.582-5.2405 2.911-6.9874 7.57-8.1519h2.329c1.746 0 3.493 0 5.24.5823.582.5822 1.747.5822 2.912.5822 3.493.5823 6.987 1.7469 10.481 4.076.582.5823 1.164 1.1646 2.329 1.7468-.583-3.4936-1.165-6.405-2.912-8.7341-.582-1.1646-1.747-2.9114-2.911-4.076-2.329-1.7468-4.658-3.4937-7.57-4.0759-2.911-.5823-5.24-1.1646-8.152-1.7469 0-.5823 0-1.1645-.582-1.7468-4.076 1.7468-5.24 1.1645-6.405 1.1645-4.076 0-8.734 0-12.81.5823-2.329 0-5.241.5823-7.57 1.1646-4.076.5823-8.152 2.9114-11.645 5.2405-2.329 1.1645-3.494 3.4937-4.659 5.2405-2.329 4.0759-3.493 8.7342-4.658 13.3924-.582 2.3291-.582 5.2405-1.164 8.1519 0 1.1646.582 2.3291 1.164 2.3291 1.165 0 1.747 0 2.329-1.7468.583-1.1646.583-1.7469.583-2.9114 1.164-4.6583 2.911-8.7342 5.24-13.3924 0 .5823-.582.5823 0 0zm-2.329 68.1264c-2.329 0-4.658 0-6.987.582-1.747.583-1.747 1.165-1.747 2.33 0 .582.582.582.582 1.164 1.165 2.329 2.912 4.658 4.658 6.405 1.747 1.747 3.494 2.329 5.241.582.582-.582 1.164-1.164 1.747-2.329 1.164-1.747 2.911-3.493 3.493-5.822.583-1.747-.582-2.912-2.329-2.912s-3.493 0-4.658 0zm18.633-5.2404c-2.329 0-4.658.0001-6.987.5823-1.165 0-1.747 1.1641-1.747 2.3291 0 .582.582 1.165.582 1.165 1.165 2.329 2.911 4.658 4.658 6.405s3.494 2.329 5.241.582c.582-.582 1.164-1.165 1.747-2.329 1.164-1.747 2.911-3.494 3.493-5.823.583-1.7468-.582-2.9114-2.329-2.9114s-3.493 0-4.658 0zm-12.228-1.1645c.582-.5823 1.747-.5823 2.329-1.1646.582-.5822 1.165-1.1645 1.747-2.3291 1.165-1.7468 2.911-3.4936 3.494-5.8228.582-1.7468-.583-3.4936-2.329-3.4936-2.912 0-5.823 0-8.152 0-1.165 0-2.329 0-2.912.5822-1.164 0-1.164.5823-1.164 1.7469 0 .5823 0 1.1645.582 1.1645 1.165 2.9114 3.494 5.2405 5.241 7.5697 0 1.1645.582 1.7468 1.164 1.7468zm19.798-12.2279c-1.165 0-2.912 0-4.076.5823-1.165 0-1.747.5823-1.165 1.7469 0 .5822 0 1.1645.582 1.1645 1.165 2.9114 3.494 5.2405 5.241 7.5696.582 1.1646 1.747 1.1646 2.911.5823.583-.5823 1.747-1.1645 2.329-1.7468 1.165-1.1646 1.747-2.3291 2.912-3.4937.582-1.1645 1.164-2.3291 1.747-3.4937.582-1.1645-.583-2.3291-1.747-2.9114-3.494 0-6.405 0-8.734 0zm22.126-43.6708c.582-3.4937-2.329-6.4051-6.405-6.4051s-6.987 2.3291-6.987 5.8228c0 4.6582 3.493 6.9873 6.987 6.9873 4.076 0 6.405-2.3291 6.405-6.405zm-39.595 8.1519c2.329 0 4.076-1.1646 5.241-2.9114 1.164-1.7469 1.164-3.4937 1.164-4.6583 0-2.3291-1.164-4.0759-3.493-4.6582-3.494-1.1645-7.57 1.1646-8.735 4.6582-1.164 3.4937 1.165 7.5697 5.823 7.5697zm72.785 86.1767c0 .583-.582.583-.582 1.165-.583 1.747 0 2.911 0 4.658 0 3.494.582 6.988.582 11.064 0 1.164.582 1.746 1.747 2.329 1.164-1.165 1.747-1.165 1.164-2.329 0-.583 0-1.747-.582-2.33-.582-4.076-.582-8.151-.582-12.227-.582-1.165-.582-1.747-1.747-2.33zm-38.43-24.455c-.583 0-.583.582-.583.582-2.329 2.329-2.329 5.241-2.329 8.152 0 .582.583 1.165 1.165 1.165 2.329 1.164 5.24.582 7.569-1.165.583-.582 1.165-1.165 1.165-2.329-2.329.582-4.658 1.164-6.987.582-.583-1.747 0-3.494.582-4.658 0-.582 0-1.165-.582-2.329zm31.443 34.354c0 .582-.583 1.165-.583 1.747 0 3.494-.582 6.987-.582 10.481 0 1.747.582 2.329 1.747 2.329s1.747-.582 1.747-2.329c0-3.494 0-6.405-.582-9.899.582-1.747.582-1.747-1.747-2.329zm-4.659-64.0504c-.582 1.1645-1.164 1.7468-1.746 2.3291-.583 1.1645-1.747 1.1645-2.329.5823-.583 0-.583-.5823-.583-1.1646-.582-1.1645-.582-2.3291-1.164-3.4937 0-.5822-.583-1.1645-1.165-1.1645s-1.164 0-1.164 1.1645c0 .5823-.583 1.1646 0 1.7469 0 .5823.582 1.1645.582 1.7468 1.164 3.4937 2.911 4.6582 6.405 4.076 1.747 0 2.329-1.1646 2.911-2.3292 0-1.1645 0-2.3291-1.747-3.4936zm-18.05 4.0759c-1.165 1.1646-1.165 1.1646-1.165 2.3291v4.6583c0 1.7468 1.165 2.9114 2.912 2.9114 1.164 0 2.329 0 2.911-1.1646 1.165-1.1646 1.747-2.9114 1.747-4.0759 0-1.1646-1.165-1.1646-1.747-.5823-.582.5822-.582.5823-1.164 1.1645-.583.5823-1.165 1.1646-1.165 1.7469-1.165 0-1.165-.5823-1.165-1.7469 0-1.1645 0-2.3291 0-2.9114 0-1.1645 0-1.7468-1.164-2.3291zm17.468-20.3797c-1.164 0-1.747.5823-1.747 1.7468 0 1.7468.583 3.4937 1.747 4.6582.582.5823 1.165 1.1646 2.329 1.1646 1.165 0 1.747-1.1646 2.329-2.3291.583-2.3291.583-4.6582.583-6.9874 0-.5822-.583-.5822-.583-1.1645-1.746 1.7468-1.164 4.6582-2.329 6.405-1.164-.5822-1.747-2.3291-2.329-3.4936zm-34.354 66.9622c0-1.165 0-2.912-.583-4.076 0-.582-.582-1.165-1.164-1.165s-1.165.583-1.165.583v5.822c0 .583 0 .583.583 1.165 1.746 1.747 6.405 1.747 7.569-.582.583-.583 1.165-1.747 1.747-2.912-1.747 0-2.329 1.165-3.494 1.165-1.164 0-2.329 0-3.493 0zm19.797-25.038c-1.164-2.329.582-5.241-1.747-6.988l-.582.583c-1.164 2.329-1.164 4.658-1.164 6.987 0 .582.582 1.165 1.164 1.747 1.165 1.164 2.912.582 4.076 0 1.165-.582 1.747-2.329 1.165-4.076-.583.582-1.165.582-1.747 1.165 0 0-.582.582-1.165.582zm-80.354 11.063c0-.582-.582-1.164-.582-1.747 0-.582 0-1.164 0-2.329-.583 0-.583-.582-1.165-.582 0 0 0 0-.582 0-1.165 1.747-1.747 4.076-.583 5.823.583 1.164 1.747 1.747 2.912 1.747 1.164 0 1.747-1.165 1.747-2.33 0-1.164 0-1.746 0-2.911-.583 0-.583 1.747-1.747 2.329zm-.582 12.81c-.583-1.164-.583-1.164-1.747-1.747-1.165 1.165-1.747 1.747-1.165 3.494s1.747 2.911 2.912 2.329c1.164 0 2.329-1.164 2.329-2.911 0-.582 0-1.165 0-1.165.582-.582 0-1.164-.583-1.747-.582.583-1.164 1.165-1.746 1.747zm5.24-26.785c0-.582-.582-.582-.582-1.164-.583 0-1.747 0-2.329.582 0-1.164 0-1.747 0-2.911 0-.583-.583-.583-.583-1.1648 0 0-.582 0-1.164.5818 0 .583-.582.583-.582 1.165v2.911c0 1.747 1.746 2.912 3.493 2.33.582-.583 1.165-.583 1.747-2.33zm-.582-14.5565c1.164 0 1.747-.5823 1.747-1.7469.582-1.7468.582-3.4936.582-5.2405-.582 0-1.165-.5822-1.747 0-.582.5823-1.165.5823-1.747 1.1646-.582 1.1645-.582 2.3291-.582 3.4937.582 1.1645 1.164 1.7468 1.747 2.3291zm103.645 73.3675c-.582.582-1.164 1.164-1.164 1.746-.583 1.165-.583 2.33-.583 4.076 0 1.165.583 1.747 1.747 1.747 1.165 0 1.747-.582 1.747-2.329 0-1.164 0-2.329-.582-3.494 0-1.164-.582-1.164-1.165-1.746zm-56.481-19.216c-.582-1.746-1.747-2.911-2.329-4.658-1.747-.582-1.747 0-2.329.582-.582 1.165-.582 2.912.582 3.494 1.165 1.165 2.329 1.165 4.076.582zm-36.683-75.6958c-1.165-.5823-2.329 0-2.912 1.1645-.582.5823-1.164 1.7469-.582 3.4937 0 .5823.582.5823 1.165.5823.582 0 1.164-.5823 1.746-1.1646 1.165-1.1645 1.165-2.9114.583-4.0759z" fill="#f6c168"/><path d="m175.855 165.942c2.912-1.164 5.241-2.911 8.152-4.076 2.912-1.747 5.823-3.494 8.734-4.658 1.165-.582 1.747-1.165 2.912-1.165 1.747-.582 2.911 0 3.494 1.747 0 .583 0 1.165.582 1.165 2.911 3.493 4.076 7.569 5.823 11.645 1.164 2.912 2.329 5.823 3.493 8.735 1.165 3.493 2.329 7.569 2.329 11.645v1.165c3.494-1.747 7.57-2.912 11.064-5.241 0-5.24 0-11.063.582-16.886 0-4.658 0-8.734 0-13.392 0-4.076-.582-8.735-.582-12.81 0-5.241-.583-11.064-.583-16.304 0-1.747 0-3.494 1.165-4.658 0 .582.582 1.164.582 1.164.583 4.076 1.747 8.734 2.329 12.81 1.165 8.152 1.747 15.722 2.329 23.874.583 6.987.583 13.392.583 20.379v7.57c0 1.747-1.165 2.911-2.329 3.494-2.329 1.164-4.659 2.329-7.57 2.911-2.329.582-5.24 1.165-7.57 1.747v.582c-.582 4.658-3.493 8.152-5.822 11.063-5.241 6.406-10.481 12.228-15.722 18.633-5.823 6.988-11.645 13.975-17.468 20.962-5.823 6.988-11.646 13.975-17.469 21.545-1.746 2.329-3.493 4.658-5.24 6.405s-3.494 4.076-5.241 5.823c-1.746 2.329-4.076 4.658-5.822 6.987-.583.582-.583 1.164-1.165 1.747-1.747 2.911-4.658 3.493-8.152 4.076-5.823.582-11.645.582-16.886-.583-6.987-1.746-12.8101-5.24-17.4683-11.063-1.1646-1.164-1.7468-2.329-2.3291-4.076-.5823-.582-.5823-1.164-1.1646-1.747-1.7468 1.165-3.4936 2.329-5.2405 3.494-3.4936 2.329-7.5696 3.494-11.6455 4.658-1.7469.582-3.4937.582-5.2405 0-1.7469 0-2.9114-.582-4.6583-.582-3.4936-.582-6.405-2.329-8.7341-5.241-2.9114-3.493-5.8228-7.569-8.152-11.645-1.7468-3.494-4.0759-6.988-5.8227-11.063-4.076-8.152-8.1519-15.722-12.2279-23.874-4.0759-8.152-7.5696-16.304-11.6456-23.873-2.9113-5.823-6.405-11.646-9.31641-18.051-2.32911-4.076-4.07595-8.152-5.82278-12.81-1.74684-6.987-1.74684-13.975 1.16455-20.962 1.16456-3.494 2.91139-6.405 5.24051-9.317 1.74683-1.746 3.49363-3.493 5.82283-4.658.5822-.582 1.1645 0 1.7468-.582 1.1645 1.747 1.7468 4.076 2.9114 5.823 8.1519 15.721 16.8861 31.443 25.038 47.164 3.4936 6.988 6.9873 13.393 10.481 20.38 3.4936 6.987 6.9873 13.975 9.8987 20.962 1.7468 3.494 3.4937 6.405 5.2405 9.899 1.1646 1.747 1.7468 3.493 2.9114 4.658 0 .582-.5823.582-.5823 1.165-2.9114 2.911-4.6582 6.987-5.8228 11.063-1.1645 4.076-1.7468 7.57 0 11.645 1.1646 2.33 2.3292 3.494 4.6583 3.494h2.9114c5.8227-1.164 10.481-4.658 15.1392-8.152-.5823-2.329-1.7468-4.076-2.3291-6.405-.5823-.582-.5823-1.164 0-2.329 1.7468-2.329 3.4937-4.076 5.2405-6.405 4.0759-4.076 8.1514-8.734 12.2274-12.81 1.165-1.165 2.33-2.329 3.494-3.494-3.494-5.823-6.405-11.645-9.8986-17.468v-.582c1.7466-2.33 4.0756-4.076 5.8226-6.405 2.329 3.493 4.076 6.405 6.405 9.898 1.165 2.329 2.912 4.658 4.076 6.988 2.329-2.912 4.658-5.241 7.57-8.152 5.823-6.405 11.063-12.228 16.886-18.633 2.911-2.912 5.24-5.823 8.152-8.734 2.911-3.494 5.823-6.405 8.152-9.899 1.164-1.747 2.329-3.494 4.076-5.241 1.164-1.746 2.911-2.911 4.076-4.658.582-1.747 1.746-2.911 3.493-4.076 1.165-.582 2.329-1.164 3.494-2.329-.582-.582 2.329-2.329 5.24-4.076zm-8.151 12.228c4.075 4.076 8.151 7.57 12.81 10.481 3.493 2.329 6.987 4.076 11.063 5.24 1.747.583 2.911 1.165 4.658 1.165 3.494-.582 6.988-2.329 6.988-6.987 0-2.329 0-4.659-1.165-6.988-1.747-5.24-4.076-10.481-6.405-15.139-.582-1.164-1.165-1.747-1.165-2.911-8.734 5.24-17.468 9.898-26.784 15.139zm23.873 30.278c-1.165-.582-1.747-.582-2.329 0-1.747 1.747-4.076 4.076-5.823 5.823-4.076 4.658-7.57 8.734-11.646 13.393-1.746 2.329-4.075 4.076-6.405 6.405-4.076 5.24-8.734 9.316-12.81 13.974-3.493 4.076-6.987 8.735-10.481 13.393-4.076 5.24-7.569 10.481-11.645 15.139-1.747 2.329-3.494 4.076-5.241 6.405-1.164 1.747-1.164 3.494 0 4.658 1.165 1.165 3.494 1.165 4.658-.582.583-.582 1.165-1.165 1.747-2.329 2.329-2.911 4.658-6.405 6.988-9.317 4.076-5.24 7.569-9.898 11.645-15.139 2.329-2.911 4.076-5.24 6.405-7.569 2.912-3.494 5.241-6.405 8.152-9.899 1.747-2.329 3.494-4.658 5.241-6.987 2.911-3.494 6.405-7.57 9.316-11.064 3.494-4.658 6.987-9.316 10.481-13.974.582-.583 1.165-1.165 1.747-2.33zm-160.1266 0c3.4936.583 5.2405-3.493 4.6582-5.822-.5823-1.165-.5823-1.747-1.1646-2.912-2.9114-5.24-5.2405-10.481-8.1519-16.304-2.9114-5.24-5.8228-9.898-8.7342-15.139-1.1645-1.747-2.3291-3.493-4.0759-5.24-1.1646-1.747-2.9114-1.747-4.65823-1.165-1.74684.582-2.32912 2.329-1.74684 4.658 0 1.165.58228 2.912 1.16456 4.076 1.74681 4.076 3.49371 7.57 5.82281 11.646 2.9114 5.823 5.8228 11.645 8.7342 17.468 1.1645 1.747 1.7468 3.494 2.9113 5.241 1.7469 2.329 2.9114 4.076 5.2406 3.493zm136.8356-13.392c-1.165-2.329-1.747-2.329-3.494-1.165-.582.583-1.164.583-1.164 1.165-1.165 1.165-1.747 2.329-2.912 2.911-4.658 4.659-9.316 8.735-13.392 13.975-4.076 4.658-7.57 9.317-11.646 14.557-1.164 1.165-1.747 2.329-1.747 4.076s0 2.911 1.165 4.076c1.164 1.165 2.329.582 3.494 0 1.164-.582 1.746-1.165 2.911-1.747 3.494-4.076 6.987-8.152 10.481-12.228 5.241-6.987 9.899-14.557 15.139-21.544 0-1.747.583-2.911 1.165-4.076zm12.81 6.405c-1.747-.582-1.747-.582-2.911.582-2.33 2.329-4.076 4.659-5.823 6.405-3.494 4.076-6.988 7.57-9.899 11.646-2.329 2.911-4.658 5.241-6.987 8.152-4.076 4.658-8.152 9.899-12.228 14.557-1.165 1.747-2.912 3.494-4.076 5.24-1.165 1.747-1.165 2.912 0 4.076 1.164 1.165 2.911 1.165 4.076-.582.582-.582 1.164-1.165 1.747-2.329 5.822-6.987 11.645-13.975 17.468-20.962 4.076-4.658 7.57-9.899 11.063-14.557 2.329-3.494 4.659-6.405 6.988-9.899.582-.582 1.164-1.164.582-2.329zm-51.241 41.342c0-2.329-1.164-2.912-2.911-2.329-.582.582-1.165.582-1.747 1.164-2.911 3.494-6.405 6.405-9.316 10.481-2.912 4.076-6.405 7.57-9.899 11.064-1.165 1.164-2.329 2.911-2.911 4.076-.583 1.746.582 3.493 2.329 4.076 1.747.582 2.911-.583 4.076-1.747.582-.583 1.164-1.747 1.747-2.329 2.329-2.912 4.658-5.241 6.987-8.152 4.076-4.659 6.987-9.899 10.481-15.14.582 0 1.164-.582 1.164-1.164zm-12.227 37.266s1.164-.583 1.746-1.165c1.165-1.164 1.747-2.329 2.912-3.494 4.658-4.658 7.569-10.481 11.063-15.721 0-.582.582-1.165.582-1.747.583-1.164-.582-2.329-1.746-2.329-.583 0-1.747.582-2.33 1.165-2.329 2.329-4.658 4.658-6.987 6.987s-4.076 4.658-5.823 7.57c-1.164 1.164-2.329 2.329-2.911 4.075-1.165 2.912.582 4.659 3.494 4.659zm-69.8739-53.57c0-.582.0001-1.164-.5822-1.747-1.7469-2.329-3.4937-5.24-5.2405-7.569-.5823-.583-1.1646-1.165-1.7469-1.747-2.3291-1.165-4.6582.582-4.0759 2.911 0 .582 0 1.165.5823 1.747 1.1645 2.329 2.9114 5.241 4.0759 7.57.5823.582.5823 1.164 1.1646 1.164 1.1645 1.165 2.3291 1.165 4.0759.582 1.1646 0 1.7468-.582 1.7468-2.911zm11.0633 22.127s0-.583-.5822-1.165c-1.1646-1.747-1.7469-3.494-2.9114-5.24-.5823-1.165-2.9114-1.747-4.076-1.165-1.7468.582-2.3291 1.747-2.3291 3.494.5823 2.329 1.1646 5.24 2.9114 6.987 1.1646 1.165 2.9114 1.747 4.6582 1.165 1.7469-.583 2.9114-1.747 2.3291-4.076z" fill="#234e32"/><path d="m96.0737 223.59c3.4936 5.823 6.4053 11.646 9.8983 17.469-1.164 1.164-2.329 2.329-3.493 3.493-4.0762 4.076-8.1522 8.735-12.2281 12.81-1.7468 1.747-3.4937 4.076-5.2405 6.406-.5823.582-.5823 1.164 0 2.329.5823 1.746 1.7468 4.076 2.3291 6.405-4.6582 3.493-9.3165 7.569-15.1392 8.152-1.1646 0-2.3292 0-2.9114 0-2.3292 0-3.4937-1.165-4.6583-3.494-1.7468-4.076-1.1645-7.57 0-11.646 1.1646-4.076 2.9114-7.569 5.8228-11.063 0-.582.5823-.582.5823-1.164-1.1646-1.747-1.7468-3.494-2.9114-4.659-1.7468-3.493-3.4937-6.405-5.2405-9.898-2.9114-6.988-6.9873-13.975-9.8987-20.962-3.4937-6.988-6.9874-13.975-10.481-20.38-8.1519-15.722-16.8861-31.443-25.038-47.165-1.1646-1.747-1.7469-4.076-2.9114-5.823 0-.582.5823-.582.5823-.582 2.3291-.582 5.2405-1.747 7.5696-1.747 2.9114 0 5.8228-.582 8.1519-1.164h.5823c4.0759 0 8.1519 0 11.6455-.583 1.1646 0 2.9114 0 4.076-.582.5823.582.5823 1.165 1.1645 1.747 4.076 4.076 5.8228 7.57 8.1519 11.063 5.8228 11.064 12.2279 21.545 18.0507 32.608.5823 1.164 1.1645 1.747 1.7468 2.911-.5823.583-.5823 1.165-1.1646 1.165-2.9113 2.911-5.8227 5.823-9.3164 9.316-1.1646 1.165-2.3291 2.912-3.4937 4.076-1.1645 1.165-1.1645 2.912-.5823 4.076 1.1646 2.329 1.7469 4.658 4.076 5.823.5823 0 .5823.582.5823 1.165 2.3291 4.658 4.6582 8.734 5.8228 13.974.5822 1.747.5822 3.494.5822 5.241 0 1.164 0 2.329.5823 3.493v1.747c0 1.165.5823 2.329 2.3291 2.912 1.1646.582 2.3291 0 2.9114-1.165.5823-.582.5823-.582.5823-1.164.5823-.583 1.1646-1.165 2.3291-1.747 2.9114-1.747 4.6582-4.076 6.9874-5.823 2.9113-4.076 5.2405-5.823 7.5696-7.57z" fill="#ccdc97"/><path d="m80.361 236.986c0 .582-.5823 1.164-.5823 1.164-.5822 1.165-1.7468 1.747-2.9114 1.165-1.1645-.582-1.7468-1.165-2.3291-2.911 0-.583 0-1.165 0-1.747 0-1.165 0-2.329-.5823-3.494 0-1.747-.5822-3.494-.5822-5.24-1.1646-4.659-3.4937-9.317-5.8228-13.975 0-.582-.5823-.582-.5823-1.165-2.3291-1.164-2.9114-3.493-4.0759-5.822-.5823-1.165-.5823-2.912.5822-4.076 1.1646-1.165 2.3291-2.912 3.4937-4.076 2.9114-2.912 5.8228-5.823 9.3165-9.317.5822-.582.5822-.582 1.1645-1.164-.5823-1.165-1.1645-1.747-1.7468-2.912-5.8228-11.063-12.2279-21.544-18.0507-32.607-3.4936-1.747-5.2405-5.241-7.5696-9.317-.5822-.582-.5823-1.164-1.1645-1.747 1.7468-.582 3.4936 0 5.2405.583 1.1645.582 2.3291 1.746 3.4936 2.911 5.8228 9.316 11.6456 18.051 16.8861 27.367 2.3291 3.494 4.076 6.987 6.4051 10.481 0 .582.5823.582.5823 1.165 1.7468-.583 23.2914-23.291 25.0384-25.621-2.33-5.822-4.076-12.227-5.241-18.05-1.165-6.988-.582-13.975 0-20.962 0-2.329.582-5.241 1.165-7.57 0-1.164.582-2.911.582-4.076 0-1.164.582-1.747 2.329-1.164 0 .582.582 1.164.582 1.746 0 6.406 0 12.811.583 19.216 0 2.911 0 5.822.582 8.734.582 4.076 1.747 8.152 3.493 12.228.583 1.164 1.165 2.911 1.747 4.076 1.747-2.329 3.494-4.076 5.241-5.823.582-.582.582-.582 1.164-1.165 1.165-1.164 1.747-2.911 1.747-4.658 0-2.329 0-4.076 0-6.405 0-3.494 0-6.987.583-10.481 0-.582 0-1.165 0-1.747 0-1.164 0-2.329 0-3.494.582-4.658.582-8.734 1.164-13.392 0-2.329.582-4.6581.582-6.9873 0-.5822 0-1.1645 1.165-1.1645 0 .5823.582.5823.582 1.1645.582 2.3292.582 5.2403 1.165 7.5693 0 .583 0 1.747.582 2.329 0 3.494 0 7.57.582 11.064.583 4.658.583 9.899 1.747 15.139.582 0 .582-.582.582-.582 2.912-3.494 5.823-6.988 8.735-10.481 1.164-1.747 3.493-1.747 5.24-1.165s2.911 1.165 4.076 1.747c2.329 1.165 3.494 3.494 4.076 5.823 0 1.747-.582 2.911-1.747 4.658-1.164 1.165-2.911 2.911-4.076 4.658-2.329 2.329-4.076 4.658-6.405 6.988-.582.582-1.164 1.164-1.747 1.746 0 0-.582 0-.582.583-2.911 2.911-5.24 5.822-8.152 8.152l.582.582c5.241-.582 10.481-1.165 15.14-2.912 1.164-.582 2.329-.582 3.493-1.164 4.076-1.165 7.57-2.329 11.646-4.076 4.658-1.747 8.734-4.076 12.81-6.405 2.911-1.747 6.405-3.494 9.316-5.241 1.165 1.165.583 1.747-.582 2.33-1.747 2.329-4.076 4.075-6.405 5.24-3.494 2.329-6.405 4.658-10.481 6.405-3.494 1.165-6.405 2.911-9.899 4.076-6.987 2.329-13.392 4.658-20.962 5.241-2.329 0-4.076.582-6.405 1.164 0 2.911.583 5.823.583 8.734 0 2.329 0 4.659.582 6.988.582 2.911.582 6.405 1.164 9.316v4.658c0 2.329-.582 2.912-3.493 2.912-.583-.583-1.165-1.747-1.165-2.329.582-2.33 0-5.241 0-7.57s-.582-4.076-.582-6.405c-1.165-3.494-1.747-7.57-1.747-11.063 0-1.747-.582-3.494-.582-5.823-.582.582-1.165 1.164-1.747 1.747-2.329 2.329-5.241 5.24-7.57 7.569-6.405 5.823-12.8098 12.228-18.6326 18.051-.5823.582-.5823 1.164-1.1645 1.747 0 0-.5823 0-.5823.582-5.2405 5.823-11.0633 11.063-16.3038 16.886-1.7469 1.747-2.9114 3.494-4.076 4.658 2.3291 2.912 4.076 5.823 5.2405 8.735.5823 2.329 1.7469 4.075 1.7469 6.405v1.164c0 3.494 1.1645 6.405 1.7468 9.899z" fill="#234e32"/><path d="m64.052 103.646c0-3.494 0-6.9878 0-10.4815.5823-9.8987 1.1646-19.2152 4.076-28.5316.5822-1.1646.5822-2.3292 1.1645-3.4937.5823-1.1646 1.1646-2.3291 1.1646-3.4937.5823-1.7468 1.1645-2.3291 1.7468-2.3291 1.1646 0 1.7468.5823 1.7468 2.3291v4.076c-.5822 3.4936-1.1645 6.9873-1.1645 11.0633-.5823 4.6582-.5823 9.8987-1.1646 14.5569v28.5313c0 4.076 1.1646 8.735 1.7469 12.81 1.1645 7.57 2.9114 14.557 5.2405 21.545.5823 1.747.5823 2.911 0 4.658-1.1646 2.911-4.076 3.494-5.8228 1.165-.5823-1.165-1.1646-2.33-1.7469-3.494-1.7468-5.241-3.4936-10.481-4.6582-15.722-1.1645-6.405-2.3291-13.392-2.9114-19.797-.5823-3.494 0-6.987 0-11.063.5823-.583.5823-1.747.5823-2.329z" fill="#234e32"/><path d="m83.2801 61.1367c.5822 1.1646 1.1645 1.7469 1.1645 2.9114 0 1.7468.5823 3.4937.5823 5.2405 0 4.6582-.5823 9.3165-.5823 13.3924-.5823 9.8988-.5823 20.38-.5823 30.279 0 3.493-.5822 6.987-.5822 11.063 0 1.164-.5823 1.747-.5823 2.329-.5823 1.164-1.1646 1.164-1.7469.582-.5822-.582-1.1645-1.164-1.1645-1.747-1.7468-2.911-2.9114-6.405-2.9114-10.481 0-8.152 0-16.8857 0-25.0376 0-4.076.5823-8.1519.5823-12.2279.5823-5.2405 2.3291-9.8987 3.4936-14.5569.5823 0 1.1646-1.1646 2.3292-1.7469z" fill="#234e32"/><path d="m83.8594 140.33c0-1.165 0-1.747.5823-2.329.5822-1.165 1.1645-1.747 2.3291-1.747 1.1645 0 2.3291.582 2.3291 1.747 0 .582.5823 1.747.5823 2.329.5822 1.164.5822 2.911 1.1645 4.076.5823 1.747-.5823 3.493-2.3291 4.076-1.1646.582-2.9114-.583-3.4937-2.329-.5822-2.329-.5822-4.076-1.1645-5.823z" fill="#234e32"/><path d="m171.207 53.5668c.582-1.7468 0-3.4936-1.165-5.2405 1.165-.5823 1.747 0 2.329.5823 2.329 1.1646 4.076 2.3291 6.405 2.9114 1.747 0 4.076 0 6.405.5823 2.912.5822 6.405 1.7468 8.735 3.4936 1.164.5823 1.746 1.7469 2.911 2.9114 0 1.7469-.582 4.076-.582 5.8228-1.165 4.076-4.659 5.8228-8.152 6.4051-5.823 1.1645-11.646 1.7468-18.051 1.7468-1.164 0-1.747 0-2.329 1.1646-3.494 0-6.405-.5823-9.899-1.1646-3.493-.5823-6.987-1.7468-10.481-2.3291-1.747-.5823-3.493-1.1646-5.24-1.7468-3.494-1.1646-5.823-4.076-6.988-7.5697 1.165-3.4936 3.494-5.8227 6.988-6.9873 4.076-1.7468 7.569-3.4937 10.481-6.4051 2.329-1.7468 3.493-4.0759 3.493-6.9873s-1.164-4.6582-3.493-5.8228c-1.165-.5823-2.912-1.1645-4.076-1.1645-2.912 0-5.823 0-8.734 1.7468 0 0-.583 0-1.165 0 1.165-2.9114 2.912-5.2405 5.823-7.5696 3.494-2.3291 8.152-3.4937 12.228-4.6583 1.747-.5822 3.493-1.1645 5.24-1.1645 4.076-.5823 7.57-.5823 11.646-1.1646 1.164 0 2.329-.5822 3.494-.5822 2.911.5822 5.822 1.1645 8.151 1.7468 2.912.5823 5.241 2.3291 7.57 4.0759 1.165 1.1646 2.329 2.3292 2.911 4.076 1.165 2.3291 2.33 5.2405 2.912 8.7342-1.165-.5823-1.747-1.1646-2.329-1.7469-2.912-1.7468-6.405-2.9114-10.481-4.0759-1.165 0-1.747 0-2.912-.5823-1.747-.5823-3.493-.5823-5.24-.5823-.582 0-1.747-.5823-2.329 0-4.659 1.1646-7.57 2.9114-7.57 8.1519 0 1.7469 0 3.4937.582 4.6582v1.7469c-1.746-1.7469-2.911-2.3291-5.24-2.9114s-4.658.5823-5.823 3.4937c-.582 1.7468-1.747 3.4936-1.165 5.8228-.582.5822-.582 1.7468-.582 2.3291.582 2.3291 1.165 4.6582 2.912 5.8227.582.5823 1.164 1.1646 1.746 1.7469-.582 0-1.164 0-1.164.5823-.582 0-.582.5822-.582 1.1645s.582.5823 1.164 1.1646h.582c3.494 0 6.406 0 9.899-.5823.582 0 1.165 0 1.747-.5823s.582-1.1645.582-1.7468-.582-.5823-1.164-1.1646c-.583 0-1.165 0-2.329 0 1.164-2.9114 2.329-5.2405 2.329-8.1519z" fill="#ebf4ef"/><path d="m126.36 168.27c0-2.912-.583-5.823-.583-8.735 2.329-.582 4.076-1.164 6.405-1.164 7.57-.582 13.975-2.329 20.962-5.241 3.494-1.164 6.405-2.911 9.899-4.076 3.494-1.746 6.987-4.075 10.481-6.405 2.329-1.746 4.658-3.493 6.405-5.24.583-.582 1.165-1.165.583-2.329 1.746-1.747 2.911-3.494 4.658-5.241 2.329-2.911 4.658-5.24 6.987-8.152 4.658-5.24 6.987-12.227 9.317-19.215.582-2.9112 1.746-5.8226 2.329-8.1517.582 0 1.164 0 1.164 1.1646 0 4.0759 0 8.1521-1.164 12.2281-1.747 5.822-4.076 11.063-6.405 15.721-.583 1.747-2.33 2.912-3.494 4.658-1.747 3.494-4.658 5.823-6.987 8.735-1.165 1.164-2.33 2.911-3.494 4.076-1.747 1.164-2.911 2.911-4.658 4.076-3.494 2.911-7.57 5.822-11.646 8.151-6.987 4.659-14.557 8.152-22.709 10.481-4.076 1.165-8.152 2.33-12.228 3.494-2.329 1.165-4.076 1.165-5.822 1.165z" fill="#988fc1"/><path d="m135.676 145.566c.582-.582 1.164-1.164 1.747-1.746 2.329-2.329 4.076-4.659 6.405-6.988 1.164-1.747 2.329-2.911 4.076-4.658 1.164-1.165 1.746-2.911 1.746-4.658.583 0 1.165 0 1.165-.582 4.076-2.33 7.57-5.241 10.481-8.735 2.911-3.493 6.405-6.405 9.316-9.898 1.165-2.329 2.912-4.076 4.076-6.405 2.33-3.4941 4.076-6.9878 6.406-10.4814.582-.5823.582-1.1646 1.746-1.1646v1.7468c-1.164 4.6583-2.911 8.7342-5.24 12.8102-1.747 3.494-3.494 7.57-5.241 11.063-2.329 4.076-4.658 7.57-8.152 11.064-1.746 1.746-2.911 2.911-4.076 4.658-3.493 3.493-7.569 6.405-11.645 8.734-3.494 1.747-7.57 3.494-11.063 5.24-.583 0-1.165 0-1.747 0z" fill="#988fc1"/><path d="m177.018 20.3743c-1.165 0-2.329.5823-3.494.5823-4.076.5822-7.569.5822-11.645 1.1645-1.747 0-3.494.5823-5.241 1.1646-4.076 1.1645-8.734 2.3291-12.228 4.6582-2.911 1.7468-4.658 4.076-5.822 7.5696 0 0 0 .5823-.583.5823-1.746 4.076-3.493 8.1519-4.076 12.8101 0 1.1646-.582 2.3291-.582 2.9114-.582 1.1646-1.164 1.7469-2.329 1.7469s-1.747-1.1646-1.165-2.3292c0-2.9113.583-5.2405 1.165-8.1519 1.165-4.6582 2.329-9.3164 4.658-13.3924 1.165-2.3291 2.329-4.0759 4.658-5.2405 3.494-2.3291 6.988-4.6582 11.646-5.2405 2.329-.5823 5.241-.5823 7.57-1.1645 4.076 0 8.734-.5823 12.81-.5823 1.164 0 2.911 0 4.076 1.1645.582.5823.582 1.1646.582 1.7469z" fill="#234e32"/><path d="m167.129 74.5268c.582-1.1646 1.164-1.1646 2.329-1.1646 5.823 0 12.228-.5823 18.051-1.7468 3.493-.5823 6.987-2.3291 8.152-6.4051.582-1.7468.582-4.0759.582-5.8228 0-1.1645 0-2.3291 0-3.4936 0-3.4937.582-6.4051.582-9.8988 1.165-1.1645 1.165-1.7468 1.165-2.3291 1.164 0 1.746 1.1646 1.746 1.7469 1.165 2.3291 1.747 5.2405 1.747 8.1518v6.9874c0 2.9114-.582 5.8228-2.329 8.1519-.582 1.7468-2.329 2.9114-3.493 4.0759-1.165 1.1646-2.33 1.1646-4.076 1.7469-7.57 1.7468-14.557 1.7468-22.127 1.7468-.582 0-1.747 0-2.329-1.7468z" fill="#234e32"/><path d="m124.041 105.968c0-.582 0-1.747-.582-2.329-.582-2.329-.582-5.2405-1.165-7.5696 0-.5823-.582-1.1645-.582-1.1645-.582 0-1.165.5822-1.165 1.1645-.582 2.3291-.582 4.6586-.582 6.9876-.582 4.658-.582 8.734-1.164 13.392v3.494 1.747c-1.747 4.076-2.33 8.152-3.494 12.228-1.165-3.494-1.747-6.406-.582-9.899.582-1.747.582-3.494.582-5.823s0-4.076.582-6.405c.582-3.494 1.165-6.405 1.165-9.899 0-3.4935 1.164-6.9871 1.747-10.4808.582-2.3291 1.164-4.076 1.746-6.4051.583-1.1645.583-2.3291 1.165-3.4936 0-.5823.582-1.7469 1.165-1.7469l.582.5823c.582 8.1519.582 16.8861.582 25.6201z" fill="#988fc1"/><path d="m171.191 53.569c.583 2.9114-1.164 5.2405-2.329 8.1519h2.329c.583 0 1.165.5823 1.165 1.1646s0 1.1645-.582 1.7468c-.583 0-1.165.5823-1.747.5823-3.494 0-6.405.5823-9.899.5823h-.582c-.583 0-1.165-.5823-1.165-1.1646 0 0 .582-.5823.582-1.1646.583 0 .583.0001 1.165-.5822-.582-.5823-1.165-1.1646-1.747-1.7469-1.747-1.7468-2.329-4.0759-2.911-5.8227 0-.5823-.582-1.7469.582-2.3292 2.329-1.1645 5.241-1.7468 7.57-1.1645 1.747 0 2.911 0 4.658.5823 1.164-.5823 1.747.5822 2.911 1.1645z" fill="#988fc1"/><g fill="#ebf4ef"><path d="m136.851 103.648h4.658c1.747 0 2.329 1.165 2.329 2.912-.582 2.329-2.329 4.076-3.493 5.823-.583.582-1.165 1.746-1.747 2.329-1.747 1.747-3.494 1.164-5.241-.583-1.747-2.329-3.493-4.075-4.658-6.405 0-.582-.582-.582-.582-1.164-.582-1.165 0-2.329 1.747-2.329 2.329 0 4.658-.583 6.987-.583z"/><path d="m155.484 98.4043h4.658c1.747 0 2.33 1.1646 2.33 2.9117-.583 2.329-2.33 4.076-3.494 5.822-.582.583-1.165 1.747-1.747 2.33-1.747 1.746-3.494 1.746-5.24-.583-1.747-2.329-3.494-4.076-4.659-6.405 0-.582-.582-1.164-.582-1.164 0-1.165.582-2.3294 1.747-2.3294 2.329-.5823 4.658-.5823 6.987-.5823z"/><path d="m143.245 97.2337c-.582-.5823-1.164-.5823-1.746-1.1646-2.33-2.3291-4.076-4.6582-5.241-7.5696 0-.5823-.582-1.1645-.582-1.1645 0-1.1646.582-1.7469 1.164-1.7469 1.165 0 2.329-.5822 2.912-.5822h8.152c1.746 0 2.911 1.1645 2.329 3.4936-.583 2.3291-2.329 4.076-3.494 5.8228-.582.5823-1.164 1.7469-1.747 2.3291 0 0-1.164.5823-1.747.5823z"/><path d="m163.038 85.0059c2.911 0 5.24 0 8.152.5822 1.164 0 2.329 1.7469 1.746 2.9114-.582 1.1646-1.164 2.3291-1.746 3.4937-.583 1.1646-1.747 2.3291-2.912 3.4937-.582.5822-1.164 1.1645-2.329 1.7468s-1.747.5823-2.911-.5823c-2.329-2.3291-4.076-4.6582-5.241-7.5696 0-.5823-.582-1.1645-.582-1.1645 0-1.1646.582-1.7469 1.164-1.7469 1.747-1.1645 2.912-1.1645 4.659-1.1645z"/><path d="m185.171 41.3409c0 4.0759-2.329 6.405-6.405 6.405-3.494 0-7.57-2.3291-6.987-6.9873 0-3.4937 2.911-5.8228 6.987-6.4051 4.076.5823 6.987 3.4937 6.405 6.9874zm-4.658.5822c0-1.7468-1.165-3.4936-2.912-3.4936-1.164 0-2.329 1.1645-2.329 2.9114 0 1.7468.583 2.9113 1.747 3.4936 1.747.5823 2.911-.5823 3.494-2.9114z"/><path d="m145.569 49.4846c-4.658 0-6.988-3.4937-5.823-8.1519 1.165-4.0759 5.24-5.8228 8.734-4.6582 2.329.5823 3.494 2.3291 3.494 4.6582 0 1.7468-.582 3.4937-1.165 4.6582-1.164 2.3292-2.911 3.4937-5.24 3.4937zm2.911-5.8228c0-1.7468-1.164-2.9114-2.329-2.9114s-2.911 1.1646-2.911 3.4937c0 1.1646 1.164 2.3291 2.329 2.3291 1.747 0 2.911-1.7468 2.911-2.9114z"/><path d="m116.469 133.923c.582-4.076 1.165-8.152 3.494-12.228 0 3.494 0 6.988-.583 10.481v6.405c0 1.747 0 3.494-1.746 4.659-.583.582-.583.582-1.165 1.164 0-2.329-.582-4.076-.582-6.405 0-1.747 0-2.911.582-4.076z"/><path d="m218.349 135.672c1.164.582 1.164 1.747 1.747 2.329 0 4.076.582 8.152.582 12.228 0 .582.582 1.747.582 2.329 0 1.165 0 1.165-1.164 2.329-1.165-.582-1.747-1.164-1.747-2.329 0-3.494 0-6.987-.582-11.063 0-1.747-.583-2.912 0-4.659 0-.582.582-1.164.582-1.164z"/><path d="m179.942 111.211c.582.582.582 1.164.582 2.329-.582 1.747-1.165 2.911-.582 4.658 2.329.583 4.658 0 6.987-.582 0 1.165-.582 2.329-1.164 2.329-2.33 1.747-4.659 2.329-7.57 1.165-.582 0-1.165-.583-1.165-1.165-.582-2.911 0-5.823 2.329-8.152 0 0 0 0 .583-.582z"/><path d="m211.383 145.568c1.747.583 2.329.583 2.329 1.747 0 3.494.582 6.405.582 9.899 0 1.747-.582 2.329-1.746 2.329-1.165 0-1.747-1.165-1.747-2.329 0-3.494 0-6.987.582-10.481-.582 0 0-.582 0-1.165z"/><path d="m206.723 81.5147c1.164 1.1645 1.164 2.3291.582 4.0759-.582 1.1646-1.165 2.3291-2.911 2.3291-3.494 0-5.241-.5823-6.405-4.0759 0-.5823-.583-1.1646-.583-1.7469 0-.5822 0-1.1645 0-1.7468s.583-1.1646 1.165-1.1646 1.164.5823 1.164 1.1646c0 1.1646.583 2.3291 1.165 3.4937 0 .5822.582.5823.582 1.1645 1.165.5823 1.747.5823 2.329-.5822 1.747-1.1646 2.329-2.3292 2.912-2.9114z"/><path d="m188.676 85.5879c1.165.5823 1.165 1.1646 1.165 2.3291v2.9114c0 .5823 0 1.1646 1.164 1.7468.583-.5822.583-1.1645 1.165-1.7468s.582-1.1646 1.165-1.1646c.582-.5822 1.746 0 1.746.5823 0 1.7469-.582 2.9114-1.746 4.076-.583 1.1645-1.747 1.1645-2.912 1.1645-1.747 0-2.911-1.1645-2.911-2.9114 0-1.7468 0-2.9114 0-4.6582 0-1.1645 0-1.1646 1.164-2.3291z"/><path d="m206.122 65.2178c.582 1.1645 1.165 2.9114 1.747 4.0759 1.164-2.3291.582-4.6582 2.329-6.405.582.5823.582.5822.582 1.1645 0 2.3291.583 4.6583-.582 6.9874-.582 1.1645-1.165 1.7468-2.329 2.3291-1.165 0-1.747-.5823-2.329-1.1646-1.165-1.7468-1.747-2.9114-1.747-4.6582.582-1.7468 1.165-2.3291 2.329-2.3291z"/><path d="m171.771 132.178h3.493c1.165 0 1.747-1.165 3.494-1.165-.582 1.165-1.164 1.747-1.747 2.912-1.747 2.911-6.405 2.329-7.569.582 0 0-.583-.582-.583-1.164 0-1.747 0-3.494 0-5.823l1.165-.582c.582 0 1.164.582 1.164 1.164 0 1.165 0 2.329.583 4.076z"/><path d="m191.579 107.134c.583-.582 1.165-.582 1.747-1.164.582-.583 1.165-.583 1.747-1.165.582 1.747 0 3.494-1.165 4.076-1.164 1.164-3.493 1.164-4.075 0-.583-.582-1.165-1.165-1.165-1.747 0-2.329 0-4.658 1.165-6.987 0 0 0 0 .582-.5825 1.747 2.9115 0 5.2405 1.164 7.5695z"/><path d="m111.234 118.199c.583-.582 1.165-2.329 2.912-1.747v2.912c0 1.164-.583 1.746-1.747 2.329-1.747 0-2.329 0-2.912-1.747-1.164-2.329-1.164-4.076.583-5.823h.582c.582 0 .582.582 1.165.582v2.329c-.583 0-.583.583-.583 1.165z"/><path d="m110.635 131.009c.582-.582 1.164-1.165 1.746-2.329.583.582 1.165 1.164.583 1.747v1.164c0 1.747-1.165 2.911-2.329 2.911-1.747 0-2.329-.582-2.912-2.329-.582-1.746-.582-2.911 1.165-3.493 1.164 1.164 1.164 1.164 1.747 2.329z"/><path d="m115.885 104.223c-.582 1.747-1.164 1.747-2.329 2.329-1.747.582-3.494 0-3.494-2.329 0-1.165 0-1.747 0-2.912 0-.582.001-1.164.583-1.164 0 0 .582-.5825 1.164-.5825.583 0 .583.5825.583 1.1645v2.911c1.164 0 1.746 0 2.329-.582.582.582 1.164.582 1.164 1.165z"/><path d="m115.299 89.6651c-1.164-.5823-1.747-1.1646-1.164-2.3291 0-1.1646 0-2.3292.582-3.4937 0-.5823 1.165-1.1646 1.747-1.1646h1.747c0 1.7469-.583 3.4937-.583 5.2405-.582 1.1646-1.164 1.7469-2.329 1.7469z"/><path d="m218.942 163.035c.582.582 1.165 1.165 1.165 1.165.582 1.164.582 2.329.582 3.493 0 1.165-.582 1.747-1.747 2.33-1.164 0-1.747-.583-1.747-1.747 0-1.165 0-2.329.583-4.076 0-.583.582-.583 1.164-1.165z"/><path d="m162.459 143.818c-1.747 1.165-3.494 1.165-4.076 0-1.165-1.165-1.165-2.329-.583-4.076.583-1.164.583-1.164 2.33-.582 1.164 1.164 1.746 2.911 2.329 4.658z"/><path d="m125.786 68.1236c.582 1.7469.582 2.9114-.583 4.076-.582.5823-1.164 1.1645-1.746 1.1645-.583 0-1.165 0-1.165-.5822-.582-1.1646 0-2.3291.582-3.4937 1.165-1.7468 1.747-1.7468 2.912-1.1646z"/></g><path d="m135.105 146.152c0-.583.583-.583 0 0 .583-.583 0-.583 0 0z" fill="#988fc1"/><path d="m167.699 178.177c9.317-5.241 18.051-10.481 26.785-15.722.582 1.165 1.165 1.747 1.165 2.911 2.329 5.241 4.658 9.899 6.405 15.14.582 2.329 1.164 4.658 1.164 6.987 0 4.076-3.493 6.405-6.987 6.987-1.165 0-2.912-.582-4.658-1.164-4.076-1.165-7.57-2.912-11.064-5.241-4.658-1.747-8.734-5.24-12.81-9.898z" fill="#ccdc97"/><path d="m191.577 208.453c-.582 1.165-1.164 2.329-2.329 2.912-3.493 4.658-6.987 9.316-10.481 13.974-2.911 4.076-6.405 7.57-9.316 11.064-1.747 2.329-3.494 4.658-5.241 6.987-2.911 3.494-5.24 6.405-8.152 9.899-2.329 2.329-4.076 5.24-6.405 7.569-4.076 5.241-8.152 9.899-11.645 15.139-1.747 3.494-4.076 6.406-6.405 9.317-.583.582-1.165 1.164-1.747 2.329-1.165 1.747-3.494 1.165-4.658.582-1.165-1.164-1.165-2.911 0-4.658 1.746-2.329 3.493-4.076 5.24-6.405 4.076-5.241 7.57-10.481 11.646-15.139 3.493-4.658 6.987-8.734 10.481-13.393 4.076-4.658 8.734-9.316 12.81-13.974 1.747-2.329 4.076-4.076 6.405-6.405 4.076-4.659 7.57-8.735 11.645-13.393 1.747-2.329 4.076-4.076 5.823-5.823.583-1.164 1.165-1.746 2.329-.582z" fill="#ccdc97"/><path d="m31.4385 208.454c-2.3292 0-4.076-1.165-5.2406-3.494-1.1645-1.747-1.7468-3.493-2.9113-5.24-2.9114-5.823-5.8228-11.646-8.7342-17.469-1.7469-4.076-4.076-7.569-5.82281-11.645-.58228-1.165-1.16456-2.912-1.16456-4.076-.58227-2.329.58228-3.494 1.74684-4.658 1.16453-.583 2.91143-.583 4.65823 1.164 1.7468 2.329 3.4937 4.076 4.6582 5.823 2.9114 5.241 5.8228 9.899 8.7342 15.139 2.9114 5.241 5.2405 10.481 8.1519 16.304.5823.582.5823 1.747 1.1646 2.911.5822 1.747-1.7469 5.823-5.2405 5.241z" fill="#ccdc97"/><path d="m101.31 200.303c2.33 1.747 4.659 2.911 6.988 4.658 0 1.165-.583 2.329-1.165 2.911-1.747 2.912-3.493 5.241-5.24 8.152-1.747 2.329-4.0762 4.076-5.8231 6.405v.583c-2.3291 1.746-4.6582 4.076-6.405 5.822-2.3292 2.329-4.6583 4.659-6.9874 5.823-.5823.582-1.1645 1.165-2.3291 1.747-.5823-3.494-1.1646-6.405-1.7468-9.899 0-.582 0-.582 0-1.164h.5822c1.1646-1.165 2.3292-2.329 3.4937-2.912 2.3291-2.329 5.2405-5.24 7.5696-7.569 3.4937-3.494 6.4051-7.57 9.3165-11.064 0-1.164 1.7464-2.329 1.7464-3.493z" fill="#988fc1"/><path d="m168.284 195.061c-.582 1.164-1.164 2.329-1.746 3.493-5.241 6.988-9.899 14.557-15.14 21.545-2.911 4.075-6.987 8.151-10.481 12.227-.582.583-1.747 1.747-2.911 1.747-1.165.582-2.329.582-3.494 0-1.164-1.164-1.164-2.329-1.164-4.076s1.164-2.911 1.746-4.076c4.076-4.658 7.57-9.316 11.646-14.557 4.076-5.24 8.734-9.316 13.392-13.974 1.165-1.165 1.747-2.329 2.912-2.912.582-.582.582-.582 1.164-1.164 1.747-.583 2.33-.583 4.076 1.747z" fill="#ccdc97"/><path d="m181.087 201.465c.582 1.165 0 1.747-.583 2.329-2.329 3.494-4.658 6.405-6.987 9.899-3.494 4.658-7.57 9.899-11.063 14.557-5.823 6.987-11.064 14.557-17.469 20.962-.582.582-1.164 1.164-1.747 2.329-1.164 1.165-2.911 1.165-4.076.582-1.164-1.164-1.164-2.911 0-4.076 1.165-1.746 2.912-3.493 4.076-5.24 4.076-4.658 8.152-9.899 12.228-14.557 2.329-2.911 4.659-5.241 6.988-8.152 3.493-4.076 6.987-7.57 9.898-11.646 1.747-2.329 4.076-4.658 5.823-6.405 1.165-1.746 1.165-1.164 2.912-.582z" fill="#ccdc97"/><path d="m129.866 242.813c0 .583-.583 1.165-.583 1.747-3.493 5.241-6.405 10.481-10.481 15.14-2.329 2.329-4.658 5.24-6.987 8.151-.582.583-1.164 1.747-1.747 2.33-1.164 1.164-2.329 1.746-4.076 1.746-1.747-.582-2.911-2.329-2.329-4.076.582-1.746 1.747-2.911 2.912-4.075 2.911-3.494 6.405-6.988 9.898-11.064 2.912-3.493 6.405-6.987 9.317-10.481.582-.582 1.164-1.164 1.747-1.164 1.164-1.165 2.329-.583 2.329 1.746z" fill="#ccdc97"/><path d="m117.628 280.073c-2.911 0-4.658-2.329-3.494-4.076.583-1.747 1.747-2.912 2.912-4.076 1.747-2.329 4.076-4.658 5.822-7.57 2.33-2.329 4.659-4.658 6.988-6.987.582-.582 1.164-.583 2.329-1.165 1.165 0 1.747 1.165 1.747 2.329 0 .583-.583 1.165-.583 1.747-3.493 5.823-6.405 11.063-11.063 15.722-1.164 1.164-1.747 2.329-2.911 3.493-.582 0-1.747.583-1.747.583z" fill="#ccdc97"/><path d="m47.7628 226.506c0 1.747-.5823 2.911-1.7469 3.493-1.1645.583-2.9114.583-4.0759-.582-.5823 0-1.1646-.582-1.1646-.582-1.1645-2.329-2.9114-5.241-4.0759-7.57-.5823-.582-.5823-1.164-.5823-1.747 0-2.329 1.7468-4.076 4.0759-2.911.5823.582 1.1646 1.165 1.7469 1.747 1.7468 2.329 3.4936 5.24 5.2405 7.569.5823 0 .5823.583.5823.583z" fill="#ccdc97"/><path d="m58.8167 248.634c0 2.329-1.1646 3.494-2.3291 4.076-1.7468.582-3.4937 0-4.6582-1.165-1.7469-1.746-2.3292-4.658-2.9114-6.987 0-1.747.5823-2.911 2.3291-3.494 1.1645-.582 3.4937 0 4.0759 1.165 1.1646 1.747 1.7469 3.494 2.9114 5.24.5823.583.5823 1.165.5823 1.165z" fill="#ccdc97"/><path d="m101.333 200.306c0 1.747-1.7467 2.329-2.3289 3.494-2.9114 4.076-6.4051 7.569-9.3165 11.063-2.3291 2.911-4.6582 5.24-7.5696 7.57-1.1646 1.164-2.3291 2.329-3.4937 2.911h-.5823c0-2.329-1.1645-4.076-1.7468-6.405-1.1646-2.912-2.9114-5.823-5.2405-8.734 1.7468-1.747 2.9114-3.494 4.0759-4.659 5.2405-5.822 11.0633-11.063 16.3038-16.886 0 0 .5823 0 .5823-.582.5823.582 1.1646 1.165 1.7469 2.329 1.7468 3.494 4.0759 6.405 6.9874 8.734.582.583.582.583.582 1.165z" fill="#b8b8cc"/><path d="m180.505 41.9195c0 1.7468-1.747 3.4936-3.494 2.9113-1.164-.5822-2.329-1.7468-1.747-3.4936 0-1.7469 1.165-2.9114 2.329-2.9114 1.165 0 2.912 1.7468 2.912 3.4937z" fill="#234e32"/><path d="m148.487 43.6692c0 1.1646-1.165 2.9114-2.912 2.9114-1.164 0-2.329-1.1646-2.329-2.3291 0-1.7469 1.165-3.4937 2.911-3.4937 1.165 0 2.33 1.1646 2.33 2.9114z" fill="#234e32"/></g></svg>