<svg fill="none" height="300" viewBox="0 0 178 300" width="178" xmlns="http://www.w3.org/2000/svg" xmlns:xlink="http://www.w3.org/1999/xlink"><clipPath id="a"><path d="m0 0h177.8v300h-177.8z"/></clipPath><g clip-path="url(#a)"><path d="m138.701 17.5664h12.067c.153-.3055.305-.4582.458-.7637.764-1.3748 1.375-2.7495 2.139-4.277.611-1.3748 1.527-2.444 2.596-3.51327.153-.15275.306-.3055.611-.45824.153.30549.306.61099.611.76374.764.3055 1.222.91647 1.681 1.52747.916 1.3748 1.374 2.9023 1.985 4.4298.459 1.0692.917 2.2912 1.528 3.3605.153.1527.153.3055.305.4582.306.3055.764.611 1.222.4582.459-.1527.764-.4582.917-.9164 0-.1528 0-.3055 0-.611.764 0 1.527-.4583 1.986-1.0693 1.527-2.2912 3.055-4.5825 4.277-7.17922.152.15275.305.45822.458.61102.458.7637.764 1.6802 1.069 2.444.764 2.2912 1.528 4.5825 1.986 7.0264.458 2.1385.764 4.4298 1.069 6.721.153 1.5275.306 3.2078.458 4.7353 0 .4582.306 1.0692.764 1.222.153.7637 0 1.5275.153 2.1385-.153.6109-.153 1.2219-.458 1.8329-.306.4583-.611.611-1.07.611-.611 0-1.069 0-1.68 0-1.222 0-2.597 0-3.819 0-.152 0-.152 0-.305 0-7.027 0-14.053 0-21.08 0-.152 0-.305 0-.458 0-4.277 0-8.706 0-12.983 0-.306 0-.764 0-1.07 0-4.124 0-8.401 0-12.525 0-.153 0-.458 0-.611 0-.764 0-1.528 0-2.291 0-.153 0-.459 0-.611 0-.459-.1527-.917-.1527-1.222-.1527-2.139 0-4.125 0-6.263 0-.306 0-.611 0-.917 0-1.069-.1528-2.138-.4583-3.207-.4583-.306 0-.611 0-.917 0-.916-.3055-1.833-.4582-2.749-.7637-.764-.3055-1.681-.611-2.444-.611-.4586-.1528-.9169-.3055-1.3751 0-.4583.1527-.9165.1527-1.222.611-.7638.1527-1.222.7637-1.5275 1.3747-.4583 1.0693-.611 2.1385-.611 3.2078 0 .9165 0 1.833.1527 2.7495.1528 1.3747.3055 2.5967.4583 3.8187.3055 1.222.4582 2.444.9165 3.666.4582 1.0692.9165 1.9857 1.3747 3.055.611 1.222 1.222 2.444 1.9854 3.666.764 1.3747 1.833 2.7495 3.055 3.8187.306.3055.459.611.917.611 0 .1528.153.1528.153.3055.611.3055 1.069.7638 1.68 1.0693 1.833.9165 3.666 1.3747 5.804 1.3747h46.894 1.07 6.873c.764 0 1.222.1527 1.681.9165-.306.7637-.459 1.5275-.917 2.1385-1.222 2.5967-2.444 5.3462-3.666 7.943 0 .1527-.153.3055-.305.4582-.459 0-.917 0-1.375 0-18.788 0-37.729 0-56.517 0-1.07 0-1.986-.1527-2.903-.4582-2.291-.7638-4.4294-1.6803-6.7206-2.5968-.7638-.3055-1.6802-.7637-2.444-1.0692-1.3747-.611-2.9022-1.222-4.277-1.833-1.0692-.4583-1.9857-.9165-3.055-1.222-.1527 0-.3055 0-.611 0 0-.1528-.1527-.3055-.3055-.1528-.4582-.4582-1.0692-1.0692-1.5275-1.5275-.1527-.1527-.4582-.4582-.611-.611-.3055-.1527-.611-.1527-.9165 0-.3055.1528-.4582.4583-.3055.9165 0 .3055.1528.4583.3055.611.1528.3055.3055.4583.611.7638.9165 1.222 1.833 2.444 2.7495 3.666.9165 1.0692 1.833 2.2912 2.5968 3.3605.7637.9165 1.5275 1.9857 2.444 2.9022 1.5275 1.6802 3.2077 3.2077 4.7352 4.7352.611.611 1.3747 1.222 2.1385 1.9858v1.833c0 .4582-.1528.9165-.1528 1.3747v20.4681 20.469c0 6.874-.1527 13.747.1528 20.468.1527 1.986 0 3.819 0 5.805 0 .916.3055 1.833.611 2.749.1527.306.3055.458.4582.764v.916c0 .611 0 1.07-.3055 1.528-.4582.611-.7637 1.222-1.222 1.986-.3055.458-.611.916-1.0692 1.222-.611.458-1.0692.916-1.6802 1.374-.4583.306-.9165.611-1.3748 1.07-1.222.916-2.5967 1.374-3.8187 2.291-1.222.764-2.5968 1.527-3.8188 2.444-1.222.764-2.444 1.68-3.5132 2.444-1.0693.764-2.1385 1.375-3.055 2.138-1.0692.917-2.2912 1.681-3.3605 2.444-.7637.459-1.3747 1.07-1.9857 1.681s-1.222 1.374-1.9858 1.985c-.7637.764-1.3747 1.528-1.9857 2.292-.611.916-1.0693 1.985-1.0693 3.207v9.013c0 .763 0 1.68-.1527 2.291-.1528.764-.1528 1.527-.1528 2.291-.3055 1.375-.3055 2.902-.3055 4.43v5.652c0 .763.1528 1.527.3055 2.291.3055 1.374 1.3748 1.986 2.5968 2.291.7637.153 1.5275.153 2.444.153h51.935 1.68c.764 0 1.528.153 2.291.305 1.222.306 2.292.611 3.514.764 1.985.153 3.666 1.069 5.499 1.68.611.306 1.221.764 1.832 1.222.764.611 1.528 1.222 2.292 1.833.763.611 1.374 1.528 1.985 2.291.611.764 1.07 1.528 1.375 2.444.153.306.306.764.458 1.07.917 1.68 1.528 3.513 1.986 5.346.306 1.375.611 2.597.917 3.971.152.459.152.917.152 1.222v.917 25.356 1.681h-.152c-.306.916-.764 1.833-1.222 2.596-.459.764-.764 1.528-1.375 2.292-.458.611-.917 1.069-1.528 1.527-1.069.764-2.291 1.375-3.666 1.68-.458.153-.916.306-1.374.306-.459.153-.917 0-1.375.153-.458.152-.916 0-1.375 0-12.525 0-25.051 0-37.5761 0-1.833 0-3.666 0-5.499 0-.3055 0-.611 0-.9165 0-1.0692-.306-2.2912-.153-3.3605-.153-.611.305-1.3747.153-1.9857.153-.9165 0-1.833.305-2.7495.305-.7638.153-1.5275.306-2.1385.611-1.0693.306-1.9858.458-2.9022 1.069-.1528.153-.4583.153-.611.306-.9165.611-1.833 1.069-2.7495 1.833-1.3748 1.222-2.5968 2.444-3.666 3.819-.7638 1.069-1.3748 2.138-1.833 3.36-.4583 1.68-1.0693 3.36-1.3748 5.041-.1527.916-.4582 1.68-.4582 2.596 0 0-.1528 0-.1528-.152-.611-1.07-1.222-2.139-1.5275-3.361s-.611-2.291-.7637-3.513c-.1528-.916-.3055-1.68-.3055-2.597 0-.305-.1528-.763-.1528-1.069 0-.305-.1527-.611 0-.916.1528-.459.1528-.764.1528-1.222.1527-1.681.3055-3.361.7637-5.041.1528-.764.3055-1.375.4583-2.139.3055-1.374 1.0692-2.749 1.833-3.971.1527-.458.611-.764.7637-1.222.4583-.917 1.222-1.68 1.9858-2.291 1.0692-.917 2.1385-1.833 3.3605-2.444s2.2912-1.222 3.666-1.222h.1527c1.6802-.611 3.5132-.611 5.3462-1.07.7638-.152 1.5275-.152 2.1385 0 .4583 0 .9165.153 1.222.153h34.2156 1.222c.459.153.764.153 1.222 0h4.43c.458 0 .764-.153 1.069-.458.764-.764 1.681-1.528 2.139-2.597.153-.305.153-.764.305-1.069.306-.917.459-1.833.459-2.75 0-2.902 0-5.651 0-8.554 0-.916-.153-1.833-.459-2.749 0-.153-.152-.306-.152-.458.152-.611-.306-1.07-.611-1.528-.306-.458-.611-.916-.917-1.375-.916-.916-1.833-1.985-3.055-2.596-.305-.153-.458-.306-.764-.459-.458-.152-.916-.458-1.222-.611-1.527-.611-3.055-.916-4.582-1.374-1.375-.306-2.597-.459-3.972-.459-15.733 0-31.4661 0-47.1993 0-.611 0-1.0692 0-1.5275-.305-.4582-.153-.7637-.153-1.222-.153-1.3747 0-2.7495 0-4.1242 0-.3055 0-.611 0-.7637 0-.4583-.305-1.0693-.153-1.6803-.153-.4582 0-.9165.153-1.3747 0-.611-.152-1.222-.152-1.6803-.152-.1527 0-.4582 0-.611 0-.4582-.153-.9165-.306-1.3747-.153-.4583 0-.9165-.306-1.3748-.153-.611 0-1.0692-.153-1.5275-.458-.3055-.153-.611-.153-.7637-.306-1.5275-.763-2.9022-1.374-4.1242-2.596-.611-.611-1.0693-1.222-1.5275-1.986 0-.306 0-.764 0-1.069 0-13.9 0-27.953 0-41.854 0-13.9 0-27.953 0-41.853s.1527-27.953-.1528-41.853c-.1527-7.9433 0-15.8863 0-23.8293s0-15.8859-.1527-23.8289c0-1.9858 0-3.9715 0-5.9572 0-.3055 0-.611 0-.9165 0-.611-.3055-1.0693-.9165-1.222 0-.1528 0-.1528 0-.3055-.1528-1.9858.4582-3.8188 1.222-5.6518.3055-.7637.4582-1.6802.7637-2.444.4583-1.5275 1.0693-3.055 1.833-4.5824 1.222-2.9023 2.444-5.6518 3.5132-8.554.7638-1.9858 1.5275-3.9715 2.444-5.9572.7638-1.833 1.5275-3.666 2.1385-5.499.7638-2.444 1.833-4.73527 2.9023-7.02651.4582-.76375.7637-1.68024 1.0692-2.44399 0-.15275.1528-.3055.3055-.45825.4583-.611 1.0693-1.06924 1.9858-1.06924h.6109 6.8738c.4582 0 .7637 0 1.222.15275 0 .15274-.1528.30549-.1528.45824 0 .45825.1528.76375.611.76375h.3055 2.2913c1.222 0 2.444 0 3.666.15275 1.8329.3055 3.5132.611 5.3462 1.222.1527 0 .4582.15275.611.3055.7637.45824 1.5275.76374 2.2912 1.22199 1.222.611 2.444 1.37475 3.5133 2.29124.4582.45825.9165.9165 1.6802.9165.1528-.15275.4583-.3055.611-.45825l.1528-.15275h.7637c.4582-.45825.9165-.76374 1.0692-1.37474.1528-.611.4583-1.06925.4583-1.68025.4582-1.52749.611-3.05499 1.0692-4.42973 1.833-.15275 3.5134-.3055 5.3464-.15275.153.15275.305.3055.611.3055.916.3055 1.833.76374 2.597 1.22199.152.15275.458.3055.611.45825.916.45825 1.527 1.222 2.138 1.98575.458.61099.764 1.06924 1.222 1.68024.611.45825 1.375 1.83299 2.291 3.20771-.458 0-.916 0-1.374 0-1.681-.1527-3.208.1528-4.736.611-.916.3055-1.985.4583-2.902.7638-1.069.3055-2.138.611-3.0549 1.222-.9165.611-1.222 1.222-1.0692 2.2912.3055 1.0693.7637 1.9858 1.222 2.9023.6111.9164 1.3751 1.8329 2.1381 2.7494.459.611 1.07 1.222 1.681 1.6803 1.374 1.0692 3.055 1.5275 4.582 2.1385h.458c.306 0 .764.1527 1.07.1527.763.3055 1.527.3055 2.291.1528.611-.1528 1.375-.1528 1.986-.3055.763-.1528 1.68-.4583 2.444-.7638 1.069-.4582 1.985-.9165 3.055-1.3747.458-.1528.763-.4583 1.222-.7638.458-.4582 1.069-.7637 1.68-1.222.611-.4582 1.069-1.0692 1.375-1.8329.152-.3055 0-.611-.153-.7638h1.069 11.915c.916-.3055 1.68-.3055 2.291-.611zm-44.9086-.9165c0-.4582.1528-.7637.1528-1.222.1527-.611 0-1.222-.4583-1.5275-.4582-.3055-.9165-.611-1.5275-.9165-1.9857-.7637-3.9715-.9165-5.9572-1.3747-1.0693-.1528-1.9858-.3055-3.055-.611-1.222-.1528-2.2913-.4583-3.5132-.3055-.3055 0-.611.1527-.9165.1527-1.0693-.1527-1.9858.3055-3.055.4583-1.222.3055-2.2913.7637-3.2078 1.5275-.4582.4582-1.0692.9165-1.5275 1.3747-.9165.611-1.5275 1.3748-2.1385 2.2913-.3055.4582-.7637 1.0692-1.0692 1.6802-.3055.4583-.4583 1.0693 0 1.6802.3055.4583.611 1.0693 1.0692 1.5275.3055.4583.611.9165 1.222 1.222.4583.3055.7638.611 1.222.9165.611.4583 1.3748.9165 2.1385 1.222.9165.3055 1.833.611 2.7495.9165.611.1528 1.0693.3055 1.6803.3055 1.8329.1528 3.5132.1528 5.3462-.4582.9165-.3055 1.833-.611 2.5967-.9165.4583-.1528 1.0693-.611 1.5275-.7638.611-.3055 1.0693-.611 1.5275-1.0692.4583-.4583 1.0693-.7638 1.5275-1.222.4583-.4583 1.0693-.7638 1.5275-1.3748.611-1.0692 1.5275-2.1384 2.1385-3.5132zm-34.9796 100.2041c.3055-.306.4582-.611.4582-.917 0-.916.1528-1.986 0-2.902-.1527-.764-.1527-1.375-.1527-2.139 0-1.222 0-2.444 0-3.666 0-2.749 0-5.499 0-8.2481 0-.7638-.1528-1.222-.7638-1.6803-.4582.1528-.9165.4583-1.222.7638-1.5275 1.5275-2.7495 3.2076-4.1242 4.8876-.611.764-1.0693 1.833-1.9858 2.444-.4582.459-.611 1.07-.4582 1.681.1527.458.3055.763.4582 1.069.7638 1.222 1.6803 2.444 2.444 3.666.611.916 1.3748 1.68 1.9858 2.597.4582.611 1.0692 1.069 1.5275 1.68.611.764 1.0692.916 1.833.764zm0 80.04c.4582-.763.4582-.763.4582-1.374 0-.917.1528-1.681 0-2.597-.1527-.611-.1527-1.222-.1527-1.833 0-1.222 0-2.444 0-3.666 0-2.902 0-5.652 0-8.554 0-.764-.1528-1.222-.7638-1.68-.4582.152-.7637.305-1.0692.763-.7638.764-1.5275 1.528-2.1385 2.292-.611.916-1.3748 1.833-2.1385 2.596-.611.764-1.222 1.833-1.9858 2.444-.4582.459-.611 1.07-.4582 1.681.1527.458.3055.763.4582 1.069.7638 1.222 1.6803 2.444 2.444 3.666.611.916 1.3748 1.68 1.9858 2.597.4582.611 1.0692 1.069 1.5275 1.68.611.916 1.0692 1.069 1.833.916zm-.4583 25.968c.1528-.153.4583-.153.611-.306.1528-.153.1528-.305.1528-.305 0-.153.1527-.306.1527-.459 0-.916.1528-1.833 0-2.596-.1527-.764-.1527-1.375-.1527-2.139 0-1.222 0-2.444 0-3.666 0-2.749 0-5.346 0-8.095 0-.459-.1528-.917-.3055-1.375-.1528-.306-.4583-.458-.7638-.306-.3055.153-.611.153-.9165.459-.4582.458-.9165.916-1.3747 1.374-.9165 1.07-1.6803 2.139-2.5968 3.208-.3055.458-.7637.764-1.0692 1.222-.3055.611-.7638 1.069-1.222 1.528-.7638.611-.9165 1.68-.4583 2.596.1528.459.4583.764.7638 1.222.7637 1.069 1.3747 2.139 2.1385 3.208 1.0692 1.375 2.1385 2.749 3.5132 3.971.7638.153 1.0693.306 1.5275.459zm.1528-156.263c.611-.4583.9165-.7638.9165-1.222 0-.9165.1527-1.833 0-2.5967-.1528-.7638-.1528-1.5275-.1528-2.2913 0-1.222 0-2.2912 0-3.5132 0-2.5968 0-5.3463 0-7.943 0-.4582 0-.9165-.1527-1.3747-.1528-.4583-.4583-.611-.9165-.4583-.3055.1528-.611.3055-.9165.611-.4583.4583-.9165 1.0693-1.3748 1.5275-.9165.9165-1.6802 2.1385-2.5967 3.2077-.7638.9165-1.222 1.833-2.1385 2.5968-.611.611-.611 1.3747-.3055 2.1385.1527.4582.4582.9165.7637 1.3747.7638 1.0693 1.3748 2.1385 2.1385 3.2078 1.0693 1.5275 2.2913 2.9022 3.666 4.1242.1528.3055.4583.4582 1.0693.611zm0 76.68c.611-.305.9165-.764.9165-1.222 0-.916.1527-1.833 0-2.596-.1528-.764-.1528-1.375-.1528-1.986 0-3.972 0-7.79 0-11.762 0-.458-.1527-.916-.1527-1.375-.1528-.458-.4583-.611-.9165-.458-.3055.153-.611.306-.9165.611-.4583.458-.7638 1.069-1.3748 1.528-1.0692.916-1.6802 2.138-2.5967 3.207-.7638.764-1.222 1.833-1.9858 2.597-.7637.764-.9165 1.528-.4582 2.444.1527.458.4582.917.7637 1.375.7638 1.069 1.3748 2.138 2.1385 3.208 1.0693 1.527 2.2913 2.902 3.666 4.124.1528 0 .611.305 1.0693.305zm.3055-52.0873c.3055-.3055.4582-.611.4582-.9165 0-.9165.1528-1.833 0-2.5968-.1527-.7637-.1527-1.3747-.1527-2.1385 0-1.222 0-2.5967 0-3.8187 0-2.7495 0-5.499 0-8.2485 0-.7637-.1528-1.222-.7638-1.6802-.3055 0-.4582 0-.611.1527-.1527.1528-.3055.3055-.4582.4583-.611.611-1.3748 1.3747-1.833 2.1385-.7638.9165-1.5275 1.833-2.2913 2.7495-.611.9164-1.222 1.833-1.9857 2.5967-.4583.4582-.611 1.222-.3055 1.833.3055.9165.7637 1.6802 1.222 2.444.611.9165 1.222 1.833 1.9857 2.7495 1.0693 1.3747 1.9858 2.5967 3.2078 3.666.3055.4582.7637.7637 1.5275.611zm-8.2485 69.1953c-.1528.764 0 1.375.4582 1.986.3055.611.7638 1.222 1.0693 1.833.4582.611.9165 1.222 1.222 1.833 1.0692 1.68 2.5967 3.208 3.9715 4.582.3055.306.611.611 1.0692.459.4583-.306.7638-.611.7638-1.07 0-.916 0-1.833 0-2.902-.3055-.458-.1528-1.069-.1528-1.527 0-3.972 0-7.943 0-11.915 0-.305 0-.611 0-.916-.1527-.459 0-1.07-.7637-1.222-.611.152-1.0693.305-1.3748.763-.7637.917-1.5275 1.833-2.2912 2.75-.7638.916-1.3748 1.68-1.9858 2.597-.4582 1.069-1.222 1.833-1.9857 2.749zm14.9694 67.057c.1528.917.7638 1.222 1.5275 1.222h.611 12.5255.9165c.9165.306 1.833.153 2.7495.153.3055 0 .611 0 .9165-.153s.4582-.611.3055-.916c-.1528-.306-.3055-.764-.611-.917-1.3748-1.375-2.7495-2.444-4.1243-3.666-.6109-.458-1.2219-.916-1.8329-1.527-.3055-.306-.611-.611-1.0693-.764-.3055-.153-.4582-.458-.7637-.611-.3055 0-.7638 0-1.0693 0-.1527 0-.3055 0-.4582.153-.7638.458-1.6803.763-2.444 1.222-1.3748.763-2.7495 1.833-4.1243 2.902-.9165.611-1.6802 1.375-2.444 2.138-.1527.153-.4582.459-.611.764zm44.7553 1.069c-.152-.305-.305-.611-.458-.916-.764-.764-1.527-1.68-2.444-2.444-.764-.764-1.68-1.375-2.444-1.986-.916-.764-1.986-1.375-2.749-2.291-.459-.458-.917-.611-1.681-.306-.9161.306-1.6799.764-2.5964 1.222-1.3747.917-2.7495 1.986-4.2769 2.903-1.222.763-2.1385 1.833-3.055 2.902 0 1.069.3055 1.375 1.222 1.375h.611 4.1242c2.7495 0 5.6521-.153 8.4011.152 1.375.153 2.597 0 3.972 0 .611.153.916 0 1.374-.611zm16.039-7.484c-1.375 0-1.375-.153-2.444.458-1.527.764-3.055 1.833-4.43 2.902-.916.611-1.68 1.222-2.444 1.986-.763.611-1.222 1.222-1.68 1.833.306.916.458 1.069 1.375 1.069h.611 7.179c.458 0 .917 0 1.222.153.153.153.458 0 .764 0h7.026.764c.153-.153.306-.458.611-.764-.153-.305-.305-.611-.458-.916-.764-.764-1.528-1.528-2.291-2.292-.917-.763-1.986-1.527-2.903-2.444-1.069-.458-1.985-1.222-2.902-1.985zm19.399 39.104c-.153-.459-.305-.917-.458-1.222-.153-.459-.458-.764-.611-1.07-.611-1.069-1.375-1.985-1.986-3.055-.611-.916-1.374-1.833-2.291-2.749-.305-.306-.611-.611-1.222-.611-.153.153-.305.305-.611.458-.153.306-.153.611-.153.917v5.957c0 1.986.153 4.124-.152 6.11-.153.611 0 1.375 0 1.986 0 0 0 .152.152.305.153.153.306.306.611.458.459-.152.764-.305 1.069-.458 1.07-1.069 1.986-2.138 2.903-3.208.763-.916 1.374-1.985 2.291-2.902.153-.305.305-.611.458-.916zm-5.957-28.565c-.611-.152-.916 0-1.069.459-.153.305-.153.611-.153.916v9.929.916c-.305.917-.153 1.833-.153 2.903 0 .458.153.916.611 1.069.459-.153.917-.306 1.222-.611.764-.764 1.528-1.528 2.139-2.444 1.069-1.222 1.985-2.597 3.055-3.819v-.153c.152-.916 0-1.68-.459-2.444-.152-.152-.152-.305-.305-.611-.764-1.069-1.528-2.138-2.139-3.207-.916-1.07-1.832-1.986-2.749-2.903zm-22.76 39.715h10.998c.459 0 .764 0 1.222.153.459.153 1.07.153 1.681 0 .305 0 .763-.153.916-.611-.153-.305-.305-.611-.458-.916-.917-1.07-1.986-1.833-3.055-2.75-.764-.611-1.528-1.222-2.291-1.833-.764-.764-1.681-.764-2.444-.305-.459.305-.917.458-1.375.763-1.069.611-2.139 1.375-3.055 2.139-.917.764-1.833 1.375-2.597 2.291-.305.458-.153.764.458 1.069zm-24.5923-.458c-.1528-.305-.4583-.611-.611-.916-.9165-1.07-1.9858-1.833-3.055-2.75-.7638-.611-1.5275-1.222-2.2913-1.986-.7637-.611-1.5275-.763-2.444-.305-.4582.153-.9165.458-1.3747.764-1.0693.763-2.1385 1.374-3.2077 2.138-.7638.458-1.3748 1.069-1.9858 1.68-.3055.306-.611.611-.611 1.222.1528.153.4583.459.611.611h1.0693 9.9287c.4582 0 .9165 0 1.222.153.4582.153 1.0692.153 1.5275 0 .4582 0 .9165-.153 1.222-.611zm19.2463.306c0-.306-.153-.459-.153-.764-.152-.153-.305-.458-.458-.611-.305-.306-.611-.458-.916-.764-.306-.305-.764-.764-1.07-1.069-.763-.611-1.527-1.222-2.138-1.833-.611-.458-1.222-.917-1.833-1.528-.306 0-.458 0-.764 0-.458 0-.764.153-1.069.306-1.528 1.069-3.055 1.833-4.4299 3.055-.7637.611-1.5275 1.375-2.1385 1.986 0 1.222 0 1.222 1.0693 1.222h.611 10.3871c.458 0 .764 0 1.222.152.458.306 1.069.306 1.68-.152zm57.892-256.7723c-.458 0-.764.3055-.764.611-.458.9165-.916 1.833-1.069 2.9022-.305 1.3747-.611 2.9022-.764 4.277-.152 1.833-.458 3.5132-.305 5.3462 0 .3055 0 .611.153.9165.152.3055.305.4583.611.4583.916.1527 1.985.3055 2.902.1527.916-.1527 1.222-.4582 1.222-1.3747 0-1.0693 0-2.1385-.153-3.2078-.153-.9165-.153-1.9857-.305-2.9022-.153-1.222-.459-2.5967-.611-3.8187-.153-.611-.153-1.0693-.306-1.6803 0-.7637-.305-1.222-.611-1.6802zm-10.081 12.0672c0-1.5275-.153-2.9023-.459-4.277-.305-1.833-.458-3.666-.916-5.3462-.153-.611-.458-1.222-.764-1.6803-.153-.3055-.611-.3055-.916 0-.306.3055-.459.611-.459 1.0693-.152.4582-.305.9165-.305 1.5275-.153 1.0692-.458 2.1384-.458 3.0549-.153 1.3748-.306 2.5968-.306 3.9715 0 1.0693-.153 2.1385-.153 3.3605 0 .611.153.9165.917 1.0693.305 0 .458.1527.764.1527h2.138c.764 0 1.069-.4582 1.069-1.222-.152-.7637-.152-1.222-.152-1.6802zm-70.4178 83.7071c.9165-.611 1.222-.764 1.5275-1.528.4582-1.069 1.0692-2.291 1.5275-3.36.1527-.306.1527-.611.1527-.917 0-.305-.1527-.458-.4582-.611s-.4583-.153-.7638.153c-.1527.153-.4582.458-.4582.764-.4583 1.069-.9165 2.138-1.5275 3.207-.1528.306-.1528.459-.611.459-.1528-.306-.3055-.611-.4583-.917-.4582-.916-.7637-1.68-1.0692-2.597-.1528-.305-.3055-.458-.4583-.763-.3055-.153-.7637 0-.7637.305 0 .306-.1528.458 0 .764.4582 1.375.9165 2.749 1.6802 3.971.3055.764.7638 1.07 1.6803 1.07zm-16.3442-21.5381c-.4583.3055-.611.7638-.7638 1.222-.3055.9165-.7637 1.6803-1.222 2.444-.1527.3055-.3055.611-.7637.611-.1528-.1527-.4583-.3055-.611-.611-.4583-.7637-1.0693-1.5275-1.5275-2.2912-.3055-.4583-.4583-1.0693-1.0693-1.3748-.1527.1528-.3055.1528-.3055.3055-.1527.1528-.1527.1528-.3055.3055.7638 1.833 1.6803 3.666 3.2078 5.1935.1527 0 .4582.1527.7637.3055.9165-.1528 1.3748-.611 1.833-1.3747.1528-.3055.3055-.4583.4583-.7638.4582-1.0692 1.0692-1.9857 1.3747-3.055.3055-.7637-.1527-1.0692-.9165-1.0692 0 .1527-.1527.1527-.1527.1527zm13.5947-.3055c-.611.3055-.7638.7638-.611 1.3748.3055.9165.611 1.9857 1.0692 2.9022.3055.7638.7638 1.3748 1.3748 1.833 1.0692.1527 1.833-.3055 2.2912-1.222 0-.1527.1528-.3055.1528-.4582.4582-.9165.7637-1.6803 1.222-2.5968.3055-.611.4582-1.0692.3055-1.6802 0 0 0-.1528-.1528-.3055-.1527-.1528-.4582-.1528-.7637-.3055-.3055.1527-.611.4582-.7638.7637-.1527.3055-.3055.611-.4582 1.0693-.3055.9165-.7638 1.6802-1.222 2.5967 0 .1528-.1528.3055-.4583.3055-.1527-.3055-.4582-.611-.611-1.0692-.4582-.9165-.7637-1.833-1.222-2.7495.1528 0 0-.1528-.1527-.4583zm-15.4277 21.9956c.3055-.305.4582-.611.7637-.916.9165-1.222 1.5275-2.597 2.1385-3.972 0-.152.1528-.305.1528-.458 0-.611-.1528-.916-.7638-.916-.1527 0-.3055 0-.4582 0-.4583.305-.611.763-.7638 1.222-.3055.916-.7637 1.68-1.222 2.444-.1527.305-.3055.611-.7637.611-.1528-.153-.4583-.459-.611-.764-.611-.764-1.0693-1.68-1.5275-2.444-.1528-.306-.4583-.611-.7638-.917-.1527-.152-.4582-.152-.611 0-.1527.153-.3055.306-.1527.611 0 .153.1527.306.1527.459.4583.916.9165 1.833 1.5275 2.749.4583.764 1.0693 1.375 1.833 1.986h.4583c0 .305.3055.305.611.305zm15.5804 40.784c-.3055-.152-.611-.152-.7637.153-.1528.306-.1528.458-.1528.764 0 .153.1528.153.1528.305.1527.611.4582 1.375.611 1.986.1527.611.4582 1.069.7637 1.528.3055.611.9165 1.222 1.5275 1.374 1.0693-.305 1.3748-.611 1.833-1.527.4583-.611.611-1.375.9165-1.986.1528-.458.4583-.916.611-1.375.1528-.305.1528-.763 0-1.222-.3055-.305-.7637-.305-1.0692-.152-.3055.152-.3055.611-.4583.916-.4582 1.069-.9165 1.986-1.3747 3.055-.1528.153-.1528.306-.4583.458-1.0692-1.374-1.222-3.055-2.1385-4.277zm-16.1914 4.736c-.3055-.459-.611-.611-.7638-.917-.3055-.458-.611-.916-.9165-1.375-.4582-.611-.7637-1.222-1.222-1.833-.1527-.305-.611-.458-.9165-.152-.3055.152-.3055.458-.1527.763v.153c.611 1.069 1.0692 2.139 1.6802 3.055.3055.458.7638 1.069 1.222 1.375.7638.764 1.6803.611 2.2913-.306 1.0692-1.374 1.6802-2.902 2.2912-4.429.3055-.611 0-1.07-.9165-1.222-.4582.305-.7637.611-.9165 1.222-.3055 1.069-.9165 2.138-1.5275 3.055 0 .305 0 .458-.1527.611zm-3.2078-20.163c-.9165 0-1.0692.305-.7637.916.611 1.222 1.222 2.292 1.833 3.361.4582.611.9165 1.069 1.3747 1.527h.611c.4583 0 .7638-.153 1.0693-.611s.7637-1.069 1.0692-1.527c.611-.917.9165-1.986 1.3748-2.902.1527-.459.1527-.917-.3055-1.222-.1528 0-.1528-.153-.3055-.153-.611.153-.9165.458-1.0693.916-.1527.306-.3055.611-.4582.917-.3055.916-.7638 1.68-1.222 2.444 0 .152-.1528.153-.3055.305-1.0693-.916-1.833-2.596-2.9023-3.971zm-.1527-15.886c-.1528.153-.4583.153-.4583.305-.1527.153-.1527.459 0 .611.611 1.222 1.222 2.292 1.833 3.361.4583.611.9165 1.222 1.3748 1.527 1.3747 0 1.5275 0 2.1385-1.069.3055-.305.4582-.764.611-1.069.611-.917.9165-1.986 1.3747-2.902 0-.153 0-.153 0-.306 0-.305-.1527-.611-.611-.611-.1527 0-.4582 0-.7637 0-.3055.458-.4583.764-.611 1.222-.3055 1.069-.9165 1.986-1.3748 2.75-.1527.152-.3055.305-.4582.458-.1528-.153-.3055-.306-.4583-.458-.611-.917-1.3747-1.833-1.9857-2.903 0-.305-.3055-.611-.611-.916zm10.0815-31.1611c-.4583.611-.611.611-.3055 1.3748.3055.9165.7637 1.833 1.222 2.7495.3055.9165.9165 1.5274 1.9857 1.6802h.1528c.7637-.3055 1.0692-.611 1.5274-1.222.7638-1.0692 1.3748-2.2912 1.9858-3.5132-.1528-.4583-.4583-.7638-.9165-.9165-.3055.1527-.4583.1527-.611.4582-.3055.4583-.4583.9165-.7638 1.3748-.3055.611-.611 1.0692-.9165 1.6802-.1527.3055-.3055.3055-.7637.1528-.4582-.9165-.9165-1.833-1.5275-2.7495-.3055-.4583-.611-.7638-1.0692-1.0693zm-.3055 62.7801c0 .153-.1528.153-.1528.153-.1527.458 0 .916.1528 1.374.4582.917.9165 1.986 1.3747 2.903.3055.458.7638.763 1.222.916h.7638c1.6802-1.222 2.4439-3.208 3.2077-4.888-.1528-.153-.3055-.305-.4583-.458-.3055-.306-.7637-.153-.9165 0-.1527.153-.3055.305-.3055.458-.1527.306-.3055.764-.611 1.069-.4582.764-.7637 1.528-1.5274 2.139-.3055-.458-.7638-1.069-.9165-1.528-.3055-.611-.7638-1.374-1.0693-1.985 0-.306-.3055-.306-.7637-.153zm3.055-27.8c-.1528-.306-.3055-.459-.4583-.611-.3055-.459-.4582-.917-.7637-1.375-.3055-.611-.611-1.222-1.0693-1.833-.1527-.153-.3055-.306-.611-.153-.1527 0-.4582.306-.4582.458 0 .306 0 .611.1527.917.1528.611.4583 1.069.7638 1.527.1527.459.4582.917.7637 1.528.1528.153.3055.458.4583.611.4582.458.9165.611 1.5275.458.4582 0 .7637-.305 1.0692-.764.9165-1.069 1.3747-2.138 1.9857-3.36.1528-.306.1528-.458.1528-.764 0-.305-.1528-.458-.3055-.611-.3055-.153-.4583-.153-.7638 0-.1527.153-.3055.306-.4582.611-.3055.458-.4583.917-.7638 1.375-.3055.764-.6109 1.375-1.2219 1.986zm.7637-13.901c.7637-.611 1.222-1.222 1.5275-1.985.3055-.611.7637-1.222 1.0692-1.833.1528-.306.3055-.611.3055-1.07 0-.305-.1527-.458-.3055-.611-.3055-.152-.4582 0-.7637.153-.1528.153-.3055.306-.3055.306-.3055.458-.611 1.069-.9165 1.527-.3055.611-.7638 1.375-1.222 1.833-.3055 0-.4582 0-.4582-.153-.4583-.916-1.0693-1.985-1.5275-2.902-.1528-.153-.1528-.458-.4583-.611-.1527-.153-.3055-.153-.4582-.153-.1528 0-.3055.153-.3055.306-.1528.305 0 .611.1527.916.4583.917.7638 1.833 1.222 2.75.3055.611.7638 1.069 1.3748 1.527h.611zm3.055 26.426c-.1528-.153-.1528-.305-.1528-.305-.4582-.459-.9165-.459-1.3747.152-.1528.153-.3055.459-.3055.611-.3055.611-.7638 1.375-1.0693 1.986-.1527.305-.4582.611-.9164.917-.1528-.306-.3055-.459-.4583-.764-.3055-.611-.611-1.069-.9165-1.68-.3055-.459-.4582-.917-.7637-1.375-.1528-.153-.3055-.306-.611-.153-.1528 0-.4583.306-.3055.458 0 .306 0 .459.1527.764.4583 1.222.9165 2.291 1.6803 3.36.3055.459.7637.764 1.222.764h.7637c1.5275-1.222 2.1385-3.055 3.055-4.735zm5.499-12.067c-.1528-.153-.3055-.306-.3055-.458-.7638-1.222-1.5275-2.444-1.833-3.972 0-.153-.1528-.458-.611-.305 0 .305-.1528.763 0 1.069.1527.611.4582 1.375.611 1.986.1527.458.3055.916.4582 1.374.3055.764.9165 1.375 1.6803 1.528.3055-.153.611-.153.9165-.458.4582-.459.9165-.917 1.222-1.375.4582-.764.7637-1.68 1.0692-2.597.1528-.458.1528-.916.3055-1.375 0-.305-.3055-.611-.611-.611s-.611.153-.611.459c-.3055.916-.611 1.68-.9165 2.596-.3055.917-.7637 1.681-1.3747 2.139zm2.1385 11.456c-.4583.458-.7638 1.069-.9165 1.68-.1528.611-.4583 1.222-.7638 1.833-.1527.459-.4582.764-.9165 1.069-.9165-1.374-1.222-2.902-1.833-4.429-.1527 0-.3055 0-.4582.153 0 .305-.1528.611 0 .916.3055 1.069.4582 2.138.9165 3.055.3055.611.611 1.222 1.222 1.527h.7637c.7638-.611 1.5275-1.374 1.833-2.291.3055-.611.611-1.374.9165-1.985.1528-.306.1528-.459.1528-.764 0-.306-.1528-.458-.3055-.611-.3055-.306-.4583-.153-.611-.153z" fill="#f6c168"/><path d="m27.3477 169.4c-.3055-.153-.4582-.306-.7637-.459-.9165-.916-1.833-1.833-2.7495-2.749-.4582-.611-1.0692-1.222-1.5275-1.68-.1527-.153-.3055-.306-.4582-.459-.1528.153-.4583.153-.611.306-.4583.611-.7638 1.069-1.0693 1.68-.7637 1.222-1.3747 2.444-2.1385 3.666-.3055.458-.611.611-1.0692.764-.4583-.153-.7638-.611-1.0693-1.069-.4582-1.07-1.0692-1.986-1.5275-3.055-.4582-.917-.9165-1.681-1.5275-2.597 0-.153-.1527-.153-.3055-.306-1.3747 1.986-2.5967 4.125-4.27694 5.958-.3055 0-.611 0-.9165 0 0-.153-.15275-.153-.15275-.306 0-1.527 0-3.055 0-4.582 0-.459 0-.917-.15275-1.375-.15275-.153 0-.458 0-.764 0-.916 0-1.68 0-2.596 0-.459.15275-.764.3055-1.07 1.06925-1.833 1.83299-3.818 2.90224-5.804.7637-1.222 1.0692-2.597 1.5275-3.972.4582-1.222.7637-2.444.611-3.666 0-.152 0-.458 0-.611.1527-.458.1527-.916.1527-1.374 0-1.07-.1527-2.139-.1527-3.208 0-.764-.1528-1.375-.3055-2.139-.1528-.763-.4583-1.527-.7638-2.444-.7637-2.444-1.6802-4.888-2.74944-7.332-.611-1.374-1.06925-2.749-1.5275-4.124-.15275-.458-.15275-.916-.3055-1.222 0-2.597 0-5.346 0-7.943 0-.458 0-.764 0-1.222.15275-.153.3055-.458.45825-.458.3055-.153.3055-.153.45825-.153.76375 0 1.37475.153 2.13849.306 2.13845.763 4.27695 1.374 6.26275 2.138 3.055 1.222 6.2627 2.139 9.3177 3.361 3.2077 1.222 6.5682 2.444 9.776 3.818.611.153 1.0692.459 1.6802.764v4.277 20.316c-1.222-.458-2.2912-.917-3.5132-1.68-1.0693-.764-2.2913-1.222-3.3605-1.986 0-1.069 0-1.986 0-3.055 0-.306 0-.611 0-.917 0-.458-.611-.916-.9165-.916-.4583 0-.9165.305-1.222.764-.3055.458-.3055.763-.3055 1.222 0 3.055 0 6.11-.1528 9.165 0 2.138-.1527 4.277-.1527 6.415.1527 4.277.1527 8.401.1527 12.373z" fill="#f6c168"/><path d="m11.0022 67.2069c-.4583-.3055-.7638-.7637-1.22202-1.0692-.61099-.611-.91649-1.5275-1.06924-2.2913 0-.3055 0-.611 0-.9165 0-3.8187 0-7.6374 0-11.4562 0-.4582 0-1.0692.15275-1.5275.15275-.3055 0-.611 0-.9165 0-5.4989 0-10.9979 0-16.6497 0-1.8329 0-3.6659 0-5.4989 0-.7638.15275-1.6803.15275-2.5968.15275-.1527.3055-.3055.611-.611.15274.1528.30549.1528.30549.3055.61097.9165 1.22197 1.6803 1.68027 2.5968 1.0692 1.6802 1.9857 3.3605 3.055 5.0407.611.9165 1.222 1.833 1.833 2.7495.1527.1527.3055.3055.4582.611.4583 0 .611-.3055.7638-.4583.4582-.611.7637-1.222 1.222-1.833.7637-1.3747 1.5274-2.7494 2.2912-4.1242.4582-.9165 1.0692-1.9857 1.5275-2.9022.1527-.3055.3055-.611.611-.9165.1527-.1528.4582-.4583.7637-.4583.1528-.1527.4583 0 .611-.1527.1528.3055.3055.611.4583.9165.3055.611.611 1.0692.9165 1.6802.3055.4583.4582 1.0693.611 1.5275.9165 1.9858 1.9857 3.9715 2.9022 5.8045 0 .1527.1528.3055.3055.3055.1528.1527.3055.1527.4583.1527.4582-.9165.9165-1.833 1.3747-2.7495.7638-1.6802 1.5275-3.3604 2.2913-5.0407.4582-.9165.9164-1.9857 1.3747-2.9022.3055-.4583.4582-.611.9165-.4583-.1528.3055-.3055.4583-.3055.7638-.1528 1.222-.3055 2.5967-.3055 3.8187v6.4155c0 6.11 0 12.0672-.1528 18.1772-.1527 3.5132 0 7.0265 0 10.3869 0 .7638.1528 1.3748.1528 2.1385 0 .3055.1527.611.3055.7638.4582.611.9165.7637 1.6802.3055 0 0 .1528 0 .1528-.1528v14.664c-1.3748-1.6803-2.5968-3.3605-3.9715-4.888-1.222-1.5275-2.5967-2.7495-4.1242-3.8187-1.0693-.7638-2.2913-1.3748-3.5133-1.9858-2.9022-1.222-5.9572-1.9857-9.1649-1.9857-.611 0-1.222 0-1.6803 0-1.0692.1527-2.1385-.1528-3.2077-.3055-.1528 0-.611-.3055-1.222-.4583z" fill="#f6c168"/><path d="m106.473 145.264c.611.152 1.374.458 1.985.611.611.611 1.222 1.222 1.833 1.68s1.07 1.222 1.681 1.833c.763.916 1.374 1.833 2.291 2.597.458.305.916.763 1.222 1.069.916.764 1.833 1.375 3.055 1.986.305.152.611.305.916.458.764.458 1.528.764 2.444 1.069 1.222.458 2.444.611 3.666.611h1.375c1.069.306 2.139.306 3.208 0 .458-.153.764-.153 1.222-.305 1.375-.306 2.597-.611 3.971-.917.459-.153.917-.153 1.375-.153.917.459 1.68.917 2.291 1.833.306.764.306 1.681.306 2.597v32.078c0 .611 0 1.222.153 1.68.152.305.152.611 0 .916-.153.459-.153.917-.153 1.375s-.153.917-.611 1.069c-.306 0-.611 0-.917 0-.611-.458-1.222-1.069-1.68-1.68-.764-.916-1.527-1.986-2.138-3.055-.306-.458-.611-1.069-.917-1.527-.153-.306-.305-.306-.764-.611-.458.305-.916.763-1.222 1.374-.611 1.375-1.222 2.75-1.985 3.972-.306.458-.459 1.069-.764 1.527-.153.306-.306.611-.611.764-.306.305-.611.306-1.069.153-.611-.306-.917-.917-1.375-1.375-.764-1.222-1.375-2.444-1.833-3.666-.306-.764-.611-1.375-1.069-1.986-.153-.305-.306-.458-.611-.611-.153.153-.306.153-.459.306-.763.764-1.374 1.527-2.138 2.291-1.222 1.375-2.444 2.902-3.972 4.124 0 0-.152 0-.152.153 0-.305 0-.764 0-1.069 0-6.721 0-13.595 0-20.316 0-1.68 0-3.513-.306-5.193-.153-.917-.305-1.833-.458-2.75 0-.611-.306-.916-.917-1.069-.763.458-.763.458-.916 1.069-.153 1.069-.306 1.986-.458 3.055 0 .306-.153.611-.153.917-.917-.153-1.68-.459-2.597-.764-.916-.306-1.833-.458-2.749-1.069 0-.459 0-.917 0-1.375 0-7.943 0-15.733 0-23.676z" fill="#f6c168"/><path d="m116.856 86.7637c.611.3055 1.222.7638 1.528 1.3748 0 .1527.153.1527.305.3055.917 1.0692 1.986 1.9857 2.903 3.055.305.3055.611.611 1.069 1.0692.458-.1527.764-.611.916-.9165.459-.7637.917-1.5275 1.375-2.2912.458-.9165 1.069-1.6803 1.528-2.5968 0-.1527.152-.1527.152-.3055.459-.6109.917-.6109 1.528 0 .305.3055.458.611.764.9165.916 1.833 1.833 3.5133 2.749 5.1935 0 .1528.153.1528.306.3055.152-.1527.152-.1527.305-.3055.611-1.222 1.375-2.2912 2.139-3.3605.458-.7637 1.069-1.5275 1.68-2.1385.153-.1527.305-.3055.305-.3055.459 0 .764.1528.764.4583v.9165c0 2.5967-.153 5.1935 0 7.7902.153 3.2078.153 6.4153.153 9.4703v9.623 4.583c0 .764-.153 1.68.153 2.444v.305 6.874c0 .306 0 .764-.459.917 0-1.222-.305-1.528-1.374-1.681-.153 0-.153 0-.306 0-1.833-.458-3.819-.763-5.652-1.374-.916-.306-1.68-.459-2.596-.764-1.222-.306-2.292-.764-3.514-1.069-2.291-.764-4.429-1.681-6.873-2.292-.306 0-.611-.152-.764-.305-1.375-.611-2.75-1.069-4.124-1.68-.917-.459-1.833-.764-2.903-1.222-.458-.153-.763-.459-1.222-.611 0-8.249 0-16.345 0-24.593.611.3055 1.375.4582 1.986.7637 1.222.611 2.597 1.0693 3.819 1.6803.305.1527.611.1527.764.3055v5.0405c0 .306.152.764.305 1.069.306.459 1.222.764 1.68.459.459-.306.917-.764.917-1.375 0-1.68 0-3.3605-.153-4.888-.153-1.0693-.153-2.2913-.153-3.3605 0-1.0693 0-2.2913 0-3.3605 0-.611 0-1.222 0-1.6803.153-.9165.153-1.6802 0-2.444z" fill="#f6c168"/><path d="m69.6602 293.891c0-.916.3055-1.833.4582-2.596.3055-1.681.7638-3.361 1.3748-5.041.4582-1.222 1.0692-2.291 1.8329-3.361 1.0693-1.527 2.444-2.596 3.666-3.818.7638-.764 1.833-1.222 2.7495-1.833.1528-.153.4583-.153.611-.306.9165-.611 1.9858-.764 2.9023-1.069.7637-.153 1.3747-.458 2.1385-.611.9165-.153 1.833-.306 2.7494-.306.611 0 1.3748.153 1.9858-.152 1.0692.152 2.2912-.153 3.3605.152.3055.153.611 0 .9165 0h5.499 37.5764c.458 0 .916.153 1.375 0 .458-.152.916-.152 1.374-.152.459-.153.917-.306 1.375-.306 1.375-.305 2.597-.764 3.666-1.68.611-.458 1.069-.917 1.528-1.528.458-.763.916-1.527 1.374-2.291.459-.764.917-1.68 1.222-2.597h.153v3.972c0 .305 0 .764-.153 1.069-.305.764-.458 1.68-.763 2.444-.153.458-.306 1.069-.611 1.528-.153.305-.306.611-.459.916-1.069 2.139-2.596 3.972-4.429 5.499-1.222 1.069-2.597 1.833-4.125 2.291-.763.306-1.68.306-2.596.611-.459.153-1.07.153-1.528.153-2.444.306-5.041.153-7.485.153-.305-.153-.458-.458-.916-.458-1.069 0-2.139-.153-3.208-.153-1.527-.153-3.208 0-4.735-.153-1.68 0-3.208-.153-4.888-.153-7.179 0-14.3584 0-21.5377 0-1.6802 0-3.2077.153-4.888.459-1.9857.305-3.8187 1.069-5.4989 2.138-2.5968 1.375-4.4298 3.513-5.9573 5.805-.9165 1.374-1.5275 2.902-2.1385 4.582-.3055.611-.611 1.222-.611 1.986-.4582-.153-.6109-.611-.9164-.917-.9165-1.374-1.6803-2.749-2.444-4.277z" fill="#e9887e"/><path d="m27.3477 169.398c0-4.124 0-8.249 0-12.22 0-2.139 0-4.277.1527-6.416.1528-3.055 0-6.11.1528-9.165 0-.458 0-.916.1527-1.222.1528-.458.7638-.916 1.222-.763.4582 0 .9165.458.9165.916v.917 3.055c1.0692.763 2.2912 1.374 3.3605 1.985 1.0692.764 2.2912 1.222 3.5132 1.681 2.1385 1.069 5.8045 2.749 7.0265 2.596.1528-.305 0-.763 0-1.222 0-7.637 0-15.122 0-22.759 0-.153 0-.459 0-.611 0-1.833 0-3.514 0-5.347 0-5.651 0-11.15 0-16.802 0-4.1243 0-8.4013 0-12.5255 0-1.833 0-3.8187 0-5.6517 0-.611 0-1.3748-.1527-1.9858 0-.9165 0-1.9857 0-2.9022 0-4.1242-.1528-8.4012 0-12.5255.1527-2.9022.1527-5.6517.1527-8.5539 0-.9165 0-1.833 0-2.9023 0-.3055 0-.4582 0-.7637 0-2.7495.1528-5.499.1528-8.2485 0-.1528 0-.3055 0-.611 0-.7637.1527-.9165 1.0692-1.222.611.1528.7637.611.9165 1.222v.9165 5.9572c.3055 7.943.1527 15.886.1527 23.8289 0 7.943-.1527 15.886 0 23.8285.1528 13.901.1528 27.954.1528 41.854v41.853 41.854 1.069.916c0 1.07-.4583 1.528-1.5275 1.833-.7637-.152-1.222-.611-1.3747-1.374 0-.306 0-.611 0-.917 0-10.387 0-20.621 0-31.008 0-14.511 0-29.023 0-43.534 0-.305 0-.458 0-.763-1.6803-.611-3.2078-1.222-4.7353-1.986s-3.055-1.528-4.5825-2.291c-1.5275-.764-2.7495-1.986-4.4297-2.75-.1528.917 0 1.68 0 2.291 0 .764.1527 1.528.1527 2.139v17.566.611c0 .306-.1527.458-.1527.764-.4582.916-1.5275.916-2.1385.305.1528-.305 0-.611-.1527-.916z" fill="#2b3d2d"/><path d="m45.068 231.111c1.0693-.306 1.5275-.764 1.5275-1.833 0-.306 0-.611 0-.917.4583.611.9165 1.375 1.5275 1.986 1.222 1.222 2.5968 1.833 4.1243 2.597.3055.153.611.153.7637.305.4583.153 1.0693.459 1.5275.459s.9165.305 1.3747.152c.4583 0 .9165 0 1.3748.153.1527.153.4582 0 .611 0 .611 0 1.0692 0 1.6802.153.4583.153.9165 0 1.3748 0 .611 0 1.0692-.153 1.6802.153.1528.152.4583 0 .7638 0h4.1242c.4583 0 .9165 0 1.222.152.4583.306 1.0692.306 1.5275.306h47.1993c1.375 0 2.597.153 3.972.458 1.527.306 3.055.764 4.582 1.375.459.153.917.305 1.222.611.306.153.459.305.764.458 1.222.611 2.139 1.68 3.055 2.597.306.458.611.916.917 1.375.305.458.763.916.611 1.527 0 .153.152.306.152.458.306.917.458 1.833.458 2.75v8.554c0 .916 0 1.833-.458 2.749-.153.306-.153.764-.305 1.069-.459 1.07-1.375 1.833-2.139 2.597-.305.306-.611.458-1.069.458-1.527 0-3.055 0-4.43 0 .306-.458.459-.916.459-1.374 0-4.583 0-9.012 0-13.595 0-.916 0-1.833 0-2.902 0-.611 0-1.222-.306-1.833-.458-1.375-1.069-2.597-2.291-3.666s-2.597-1.375-3.972-1.833c-.458.153-.611.305-.458.764 1.069.611 2.139 1.374 3.055 2.444.764.763 1.375 1.833 1.528 2.902-.459 0-.764 0-1.222 0-2.597 0-5.347 0-7.943 0-.306 0-.611-.153-.917-.153-.611 0-1.069 0-1.68 0s-1.222-.153-1.68-.153c-.764 0-1.528 0-2.444-.152-.917-.153-1.681-.306-2.597-.611-.764-.306-1.68-.611-2.444-.917-1.9859-.611-3.9716-1.375-5.9574-2.138-.611-.306-1.222-.459-1.9857-.611-1.222-.306-2.444-.611-3.666-.764-.1528 0-.3055 0-.611 0-2.7495 0-5.499-.153-8.2485.153-.9165.152-1.833.305-2.7495.611-1.5275.458-3.055.916-4.4297 1.374-1.833.611-3.8188 1.222-5.8045 1.681-.7637.152-1.6802.458-2.444.611-1.3747.305-2.5967.458-3.9715.458-1.833 0-3.5132 0-5.3462 0-.4583-.153-1.0693-.153-1.5275-.306-1.6803-.305-3.2077-.763-4.7352-1.374-1.222-.459-2.1385-1.07-3.055-1.986-.7638-.764-1.222-1.68-1.833-2.597-.611-1.069-.7638-2.138-1.0693-3.208.7638-.611.7638-1.069.611-1.527z" fill="#e9887e"/><path d="m147.403 292.057c-1.069-.152-1.68-.611-1.833-1.527 0-.764.459-1.222 1.07-1.68.611-.459 1.374-.917 1.985-1.375 1.375-.917 2.444-1.986 3.361-3.361 1.222-1.985 2.597-4.124 3.36-6.415.306-1.069.459-2.291.764-3.36.153-.459.153-1.07.306-1.528.152-.305.458-.458.763-.916.306.305.611.458.764.611.153.458.458 1.069.306 1.527-.306 1.986-.459 3.972-.917 5.805-.764 3.054-2.138 5.804-4.124 8.095-1.222 1.375-2.597 2.597-4.124 3.513-.764.306-1.222.459-1.681.611z" fill="#f1ebdf"/><path d="m161.458 277.086c.153.611.459.916.459 1.222.152 1.986-.306 3.819-.764 5.652-.611 2.138-1.528 4.124-2.749 5.957-.917 1.375-1.986 2.749-2.903 4.124-.611.764-1.222 1.375-2.138 1.68-.611.153-1.069.306-1.68 0-.611-.305-.917-.763-1.07-1.374.306-1.07 1.07-1.833 2.139-2.292 1.069-.458 1.833-1.222 2.444-2.138.458-.764 1.069-1.528 1.527-2.291 1.681-2.903 2.903-5.958 3.361-9.165 0-.306 0-.611.153-.764.458-.153.916-.306 1.221-.611z" fill="#f1ebdf"/><path d="m165.425 287.625c.306.305.611.458.764.611 0 .305.153.458 0 .611-.458 1.069-.917 2.138-1.375 3.208-.611 1.069-1.375 2.138-2.291 2.902-.764.458-1.528.916-2.444.305-.458-1.069-.306-1.985.305-2.902.764-.916 3.819-3.971 5.041-4.735z" fill="#f1ebdf"/><path d="m109.215 252.035c0-1.375 1.222-2.291 2.597-1.986.611.153 1.222.458 1.68.917.611.458.916 1.222.764 1.985-.153.917-.764 1.375-1.681 1.528-1.527.458-3.36-.917-3.36-2.444z" fill="#f1ebdf"/><path d="m118.991 248.523c.306.153 1.069.306 1.68.611.611.306.917.917.917 1.681 0 .916-.917 1.527-1.68 1.222-.917-.306-1.681-.764-2.597-1.222-.458-.306-.764-.917-.611-1.375s.611-.764 1.222-.764c.305-.153.611-.153 1.069-.153z" fill="#f1ebdf"/><path d="m97.6133 35.591c.3055-.3055.7637-.3055 1.222-.611.4582-.1528.9165 0 1.3747 0 .917.1527 1.68.3055 2.444.611.917.3055 1.833.611 2.75.7637.305.1528.61.1528.916 0 1.069 0 2.138.1528 3.208.4583h.916 6.263c.458 0 .916 0 1.222.1527.153.1528.458 0 .611 0h2.291c0 .4583-.153.7638-.305 1.0693-.306.611-.611 1.222-.917 1.833-.611 1.0692-1.069 2.2912-1.527 3.3605-.306.611-.459 1.0692-1.07 1.5275-.305 0-.611 0-.916 0-.611-.611-1.069-1.222-1.68-1.833-.306-.3055-.611-.4583-.917-.7638 0 0 0-.3055-.153-.1527 0 0 .153 0 .153.1527v.4583c.306.4582.611.9165.917 1.3747.763 1.222 1.527 2.444 2.444 3.5133.916 1.0692 1.68 2.1384 2.596 3.0549.917 1.0693 2.139 1.833 3.361 2.444 1.833 1.0693 3.971 1.9858 5.957 2.5968.458.1527.917.3055 1.222.3055 1.069 0 1.986.3055 3.055.3055h.306c1.069.3055 2.138.1527 3.207.1527.459-.3055 1.07-.1527 1.528-.1527s1.069-.1528 1.527-.1528c1.222-.1527 2.444-.4582 3.666-.7637s2.597-.9165 3.819-1.3748c1.069-.4582 2.139-.9165 3.055-1.3747.153 0 .306-.1528.458-.3055.917-.611 1.986-1.222 2.75-2.1385.916-.9165 1.986-1.6802 2.902-2.5967.458-.4583.917-1.0693 1.375-1.5275 1.375-1.3748 2.444-2.9023 3.36-4.5825.153-.3055.306-.7638 0-1.0693-.458-.7637-.916-1.3747-1.374-1.9857-.153-.1528-.306-.1528-.459-.3055-.152.3055-.458.611-.458.9165-.305.611-.764 1.222-1.222 1.833-.153.1527-.305.3055-.305.4582-.459.9165-1.07 1.833-1.681 2.5968-.305.4582-.611.7637-1.222.9165-.305-.3055-.611-.4583-1.069-.7638-.611-.611-1.222-1.3747-1.68-1.9857-.917-1.3748-1.986-2.7495-2.75-4.1243-.152-.1527-.152-.4582-.152-.7637h21.079.306v.3055c-.153 0-.306.1527-.459.3055-.305.7637-.763 1.3747-1.069 2.1385-.611 1.5275-1.527 2.9022-2.597 4.277-.152.3055-.458.611-.763.7637-.459.3055-.764.3055-1.07 0-.305-.3055-.611-.7637-1.069-1.0692-.153-.1528-.305-.3055-.458-.611-.153 0-.153 0-.153 0 0 .1527-.153.1527-.153.3055-1.374 2.1385-3.055 3.9715-4.735 5.6517-.764.7638-1.527 1.3747-2.291 2.1385-1.68 1.5275-3.513 2.7495-5.652 3.666-1.833.7637-3.666 1.5275-5.499 2.1385-.153 0-.305.1527-.458.1527.764 1.0693 1.527 2.1385 2.291 3.2078.458.611.917 1.222 1.375 1.833.153.3055.458.611.611.9165.153.1527.305.3055.611.3055.305-.611.611-1.222 1.069-1.833 0 0 0-.1528 0-.3055.458-.3055.764-.7638 1.069-1.222.764-1.0693 1.375-2.1385 2.139-3.2078.153-.3055.458-.611.764-.9165.305-.3055.611-.3055 1.069 0 .305.1528.458.4583.611.7638s.305.611.458.7637h.306c0 .611.305 1.0693.611 1.5275.611.9165 1.069 1.833 1.374 2.7495.306.611.459 1.222.917 1.6803.305 0 .458-.1528.764-.1528 0 .1528 0 .3055.152.4583-.305 0-.763 0-1.069 0-15.58 0-31.314 0-46.894 0-1.986 0-3.972-.611-5.804-1.3748-.611-.3055-1.07-.611-1.681-1.0692-.152 0-.152-.1528-.152-.3055 0-.1528 0-.4583 0-.611.611-.9165 1.222-1.833 1.985-2.5968.611-.611 1.222-1.222 1.986-1.9857.458-.4583 1.069-.7638 1.68-.611.306.3055.764.7637 1.069 1.222.917 1.6802 1.833 3.3605 2.597 5.1935.153.1527.306.4582.458.7637.917-1.0692 1.681-2.1385 2.292-3.3605 0-.1527.152-.3055.152-.4582.153 0 .306 0 .459-.1528.305-.3055.458-.611.763-.7637.459-.611.917-1.222 1.528-1.6803.458-.4582 1.375-.611 1.833 0 .458.4583.764 1.0693 1.222 1.5275.916 1.3748 1.527 2.7495 2.138 4.1243.153.3055.306.611.459.9165.611-1.0693.916-1.9858 1.527-2.9023.458-.9165 1.222-1.6802 1.833-2.5967-1.069-.3055-1.986-.611-2.902-1.0693-3.055-1.222-5.805-2.9022-7.943-5.499-.611-.611-1.222-1.3747-1.68-2.1384-2.75-3.5133-5.041-7.332-6.721-11.4563 0-.1527 0-.3055-.306-.4582-.305.7637-.764 1.5275-1.069 2.444-.611 1.5275-1.069 2.9022-1.833 4.277-.153.1527 0 .4582 0 .611-.306.1527-.611.3055-1.069.4582-.153 0-.458 0-.764 0-.458-.3055-.764-.7637-1.069-1.222-.917-1.222-1.68-2.2912-2.444-3.666-.6112-.9165-1.0695-1.833-1.6805-2.7495-.611.3055-1.0692-.3055-1.0692-1.0692zm33.6047 22.7597c0 .1527.153.3055.153.4582.916 1.5275 1.833 3.055 2.902 4.5825.153.1528.153.3055.458.3055.153-.1527.459-.4582.459-.7637.763-1.5275 1.68-2.9023 2.749-4.1243.153-.1527.153-.3055.153-.3055-.764-.3055-1.069-.3055-1.68-.1527-.153 0-.459.1527-.611.1527-1.07 0-1.986 0-3.055-.1527-.459-.1528-.917 0-1.528 0z" fill="#f1ebdf"/><path d="m107.999 119.297c.458.153.764.458 1.222.611.917.458 1.833.764 2.902 1.222 1.375.611 2.75 1.069 4.125 1.68.305.153.611.306.763.306 2.292.458 4.583 1.527 6.874 2.291 1.222.306 2.291.764 3.513 1.069.917.306 1.833.459 2.597.764 1.833.611 3.666 1.069 5.652 1.375h.305c1.07.305 1.375.611 1.375 1.68-.458.764-1.222.917-1.986.611-1.68-.458-3.513-.611-5.193-1.222-3.972-1.222-7.943-2.444-11.915-3.971-.152 0-.305-.153-.458-.153-2.902-.764-5.499-1.986-8.248-3.055-1.681-.764-3.361-1.528-4.888-2.444-.611-.306-1.222-.764-1.833-1.222-.611-.306-1.07-.611-1.681-.917-.305.459-.305.611-.305.764v11.915 11.15 1.833c-.153 1.986 0 3.972-.153 5.958-.153 1.833-.153 3.513 0 5.346 0 1.069-.305 2.138-.458 3.208-.153.611-.4583.763-1.222.763-.1528-.305-.4583-.458-.4583-.763-.3055-.917-.611-1.833-.611-2.75 0-1.986 0-3.819 0-5.804-.3055-6.874-.1527-13.748-.1527-20.469 0-6.874 0-13.747 0-20.468 0-6.874 0-13.7477 0-20.4687 0-.4583 0-.9165.1527-1.3748 0-.611 0-1.222 0-1.833-.611-.611-1.3747-1.222-2.1385-1.9857-1.5275-1.5275-3.2077-3.055-4.7352-4.7352-.9165-.9165-1.6803-1.9858-2.444-2.9023-.9165-1.0692-1.833-2.1385-2.5967-3.3605-.9165-1.222-1.833-2.444-2.7495-3.6659-.1528-.3055-.4583-.4583-.611-.7638-.1528-.1527-.3055-.4582-.3055-.611-.1528-.3055 0-.7637.3055-.9165.3055-.1527.611-.1527.9165 0 .3055.1528.4582.4583.611.611.4582.4583 1.0692 1.0693 1.5275 1.5275.1527 0 .1527.1528.3055.1528 0 .4582.3055.6109.611.9164 1.2219 1.222 2.4439 2.5968 3.5132 3.8188 1.222 1.222 2.2912 2.5967 3.5132 3.8187.9165 1.0693 1.9858 1.9858 3.055 2.9023.611.611 1.3748 1.222 2.1385 1.833.611.4582 1.2218.7637 1.9858.611 2.291 0 4.43 0 6.721-.1528 2.597 0 5.193-.1527 7.637.1528h28.106 15.428 1.375c.153.1527.305.3055.305.4582.306.7637 0 1.3747-.763 1.5275-.306 0-.611 0-.917 0-7.026 0-13.9 0-20.927 0-7.943 0-15.886.1527-23.829.1527-4.124 0-8.248 0-12.372 0-.306 0-.611 0-.917 0 0 .1528-.153.3055-.153.4583v5.8045.4582.611 23.5235.611c.459.153.764.458 1.07.611 1.222.611 2.444 1.069 3.666 1.833 1.222.458 1.985.764 2.749 1.069z" fill="#2b3d2d"/><path d="m160.24 82.4861c-.458 0-.917 0-1.375 0-5.193 0-10.387 0-15.428 0-9.317 0-18.788 0-28.106 0-2.596-.1527-5.193-.1527-7.637-.1527-2.291 0-4.43 0-6.721.1527-.764 0-1.3748-.1527-1.9858-.611-.7637-.611-1.3747-1.222-2.1385-1.833-1.0692-.9164-2.1385-1.9857-3.055-2.9022-1.222-1.222-2.444-2.5967-3.5132-3.8187-1.222-1.222-2.444-2.5968-3.5133-3.8188-.3055-.3055-.611-.4582-.611-.9165h.611c1.0693.4583 1.9858.9165 3.055 1.222 1.3748.611 2.9023 1.222 4.277 1.833.9165.3055 1.6803.7638 2.444 1.0693 2.1385.9165 4.4298 1.833 6.7208 2.5967.917.3055 1.833.4583 2.902.4583h56.518 1.374c-.152.3055-.152.4582-.305.7637-.764 1.6803-1.528 3.3605-2.291 5.0407-.459.1528-.764.611-1.222.9165z" fill="#e9887e"/><path d="m98.9827 158.861c.7637 0 1.0693-.153 1.2223-.764.305-1.069.611-2.138.458-3.208 0-1.833-.153-3.513 0-5.346.153-1.986 0-3.971.153-5.957 1.222.305 2.291.611 3.513 1.069.611.306 1.375.458 1.986.764v23.523 1.375c-1.222-.153-2.444-.611-3.514-1.069-1.374-.458-2.749-.917-4.2766-1.222 0 .153-.1527.305-.1527.611v1.375c.1527 1.222-.1528 2.444-.4583 3.666-.1527.611-.4582 1.222-.9165 1.68-.611.611-1.0692 1.069-1.6802 1.68-.7638.611-1.5275 1.222-2.2912 1.833-.1528.153-.1528.306-.3055.458-.1528 0-.3055 0-.4583.306-.1527 0-.1527.153-.3055.153-.9165.458-1.6802.916-2.5967 1.222-1.222.305-2.444.763-3.666 1.222-2.1385.611-4.277 1.374-6.11 2.596-.9165.611-1.9857 1.222-2.9022 1.986-.611.458-1.222.917-1.833 1.528-.3055.305-.7638.611-1.0693 1.069-.3055.305-.611.764-.9165 1.222-.1527.153-.3055.305-.4582.611-.9165 1.222-1.6803 2.444-2.444 3.513-.4583.611-.7638 1.222-.9165 1.986-.1528.305 0 .611-.3055.916 0-3.055 0-5.957 0-9.012 0-1.069.4582-2.138 1.0692-3.208.611-.916 1.222-1.68 1.9858-2.291.611-.611 1.3747-1.222 1.9857-1.986.611-.611 1.3748-1.069 1.9858-1.68 1.222-.764 2.2912-1.68 3.3604-2.444 1.0693-.764 1.9858-1.527 3.055-2.138 1.222-.764 2.2913-1.681 3.5133-2.444 1.222-.764 2.5967-1.528 3.8187-2.444 1.222-.764 2.7495-1.222 3.8187-2.292.4583-.305.9165-.611 1.3748-1.069.611-.458 1.0692-.916 1.6802-1.375.4583-.305.7638-.763 1.0693-1.222.3055-.611.7637-1.374 1.222-1.985.3055-.459.4582-1.07.3055-1.528 0-1.069 0-1.375 0-1.68z" fill="#e9887e"/><path d="m101.735 177.189c-.153.153-.153.153-.153.306-.611 1.069-1.375 1.68-2.4442 2.291-.3055.153-.7637.458-1.0692.611-.9165.458-1.833.917-2.7495 1.528-.611.305-1.222.763-1.833 1.069-1.9858.764-3.8187 1.375-5.8045 2.138-1.3747.459-2.7495.917-4.1242 1.375-2.444.764-4.7353 1.68-6.721 3.361-.7638.611-1.5275 1.222-2.1385 2.138-1.0692 1.375-1.833 2.902-2.2912 4.583-.1528.458-.1528.916-.1528 1.222 0 .458.3055.611.611.763.1528-.152.1528-.152.3055-.305.3055-.917.7638-1.68 1.222-2.444.3055-.458.611-.917.9165-1.222.611-.611 1.222-1.375 1.9857-1.986 1.222-.916 2.5968-1.527 3.9715-2.138 1.6803-.611 3.3605-.917 4.888-1.528.1528-.153.4583-.153.611-.153.9165-.305 1.6803-.458 2.5968-.763.4582-.153 1.0692-.306 1.5274-.611 1.6803-.611 3.5133-1.222 5.1935-2.139 1.5275-.764 2.7495-1.833 3.9712-3.055.153-.153.306-.458.459-.611.916-1.069 1.222-2.291 1.527-3.666.153-.458.153-.611-.305-.764z" fill="#89c5ac"/><path d="m107.999 119.296c-.764-.306-1.527-.611-2.291-1.069-1.222-.611-2.444-1.222-3.666-1.833-.306-.153-.764-.306-1.069-.611 0-.153 0-.459 0-.611 0-7.791 0-15.7337 0-23.5239 0-.1527 0-.4582 0-.611.152 0 .458.1528.611.1528 2.138 1.0692 4.124 1.9857 6.262 3.055.153 0 .153.1527.306.1527-.153 8.5544-.153 16.8024-.153 24.8984z" fill="#e9887e"/><path d="m43.6905 126.021v.611 22.759 1.222c-1.222.153-4.8879-1.527-7.0264-2.597 0-6.72 0-13.594 0-20.315 0-1.375 0-2.902 0-4.277 1.0692.153 1.833.764 2.7495 1.069 1.2219.458 2.2912.917 3.5132 1.375.3055 0 .611 0 .7637.153z" fill="#e9887e"/><path d="m147.103 62.4743c-.458-.611-.916-1.222-1.374-1.833-.764-1.0692-1.528-2.1385-2.291-3.2077.152 0 .305-.1527.458-.1527 1.833-.611 3.666-1.3748 5.499-2.1385 2.138-.9165 3.971-2.1385 5.651-3.666.764-.7638 1.528-1.3748 2.292-2.1385 1.833-1.6803 3.513-3.666 4.735-5.6517 0-.1528.153-.1528.153-.3055h.152c.153.1527.306.3054.459.6109.305.4583.611.7638 1.069 1.0693.305.3055.764.3055 1.069 0 .306-.1528.611-.4583.764-.7638 1.069-1.3747 1.833-2.7494 2.597-4.2769.305-.7638.763-1.3748 1.069-2.1385.153-.1528.153-.3055.458-.3055.764.611.764 1.3747.458 2.1385-.305.7637-.611 1.5275-.916 2.2912-1.069 2.7495-2.75 5.0407-4.583 7.4847-.152.3055-.305.4583-.611.7638-.611.9165-1.374 1.6802-2.138 2.2912-1.528 1.3748-3.208 2.9023-4.888 4.1243-.458.3055-.917.611-1.375.9165-.153 0-.153 0-.305 0-.153-.3055-.306-.611-.459-.7638-.152-.3055-.458-.4582-.611-.7637-.305-.3055-.611-.3055-1.069 0-.305.3055-.611.611-.764.9165-.763 1.0692-1.374 2.1385-2.138 3.2077-.306.4582-.611.9165-1.069 1.222h-.153c-.611.4582-1.375.7637-2.139 1.0692z" fill="#2b3d2d"/><path d="m39.104 81.5695c-.3055-.3055-.611-.611-.9165-.9165 0-4.888 0-9.776 0-14.664.1527-.3055.3055-.611.4582-1.0692.1528-.7638.1528-1.5275.1528-2.2913 0-1.0692 0-2.2912 0-3.3605 0-1.5275 0-3.055 0-4.5825.7637.3055 1.5275.611 2.2912.9165.9165.3055 1.833.7638 2.7495 1.0693v2.9022c0 2.9023 0 5.6518-.1527 8.554-.1528 4.1242 0 8.4012 0 12.5255v2.9022c-.9165-.4582-1.9858-.7637-2.9023-1.222-.4582-.1527-.9165-.4582-1.5275-.611 0 0 0-.1527-.1527-.1527z" fill="#e9887e"/><path d="m73.0156 299.083c.1528-.764.4583-1.375.611-1.986.611-1.528 1.222-3.055 2.1385-4.582 1.5275-2.444 3.3605-4.43 5.9572-5.805 1.6803-.916 3.5133-1.68 5.499-2.138 1.5275-.306 3.2078-.459 4.888-.459h21.5377c1.68 0 3.208.153 4.888.153 1.527 0 3.208 0 4.735.153 1.069.153 2.139.153 3.208.153.305 0 .611.152.916.458-.152.611-.152.764-.763.916-.459 0-.917 0-1.375.153-2.291.153-4.735.306-7.027.306-8.095 0-16.191 0-24.4394.152-1.833 0-3.5133.153-5.3463.306-2.1385.153-4.1242 1.069-6.11 2.138-.6109.306-1.0692.611-1.6802 1.07-.9165.611-1.833 1.527-2.444 2.444-1.3747 1.832-2.5967 3.818-3.3605 5.957-.1527.305-.3055.763-.3055 1.222-.1527.305-.3055.611-.611.611s-.611-.153-.7637-.459c0-.458-.1528-.611-.1528-.763z" fill="#2b3d2d"/><path d="m56.0664 246.539c0-.153.1528-.153.1528-.305 0-.153 0-.306-.1528-.459.3055-.305.611-.152.9165 0 .9165.459 1.833.611 2.7495.611h2.9022c.4583 0 .7638 0 1.222-.152.4583-.153.9165 0 1.3748 0 1.6802 0 3.3605-.306 5.0407-.764 1.6803-.458 3.3605-1.069 5.0407-1.528 1.3748-.305 2.7495-.763 4.277-1.069 1.0693-.153 2.1385-.458 3.3605-.611h.1528c1.0692 0 2.2912-.153 3.3605-.153h5.1934c.3055 0 .7638 0 1.0693.153 1.3747.458 2.7495.917 3.9715 1.68.3055.153.611 0 .9165.459 0 .152-.1528.152-.1528.305.4583.611.4583 1.528.7638 2.291v.459c-.3055.152-.611.152-.9165 0-.7638-.306-1.5275-.611-2.2913-.917-.3055-.153-.4582 0-.7637 0 0-.305-.3055-.305-.4583-.458-.1527 0-.4582 0-.611-.153-1.0692-.458-2.2912-.611-3.3605-.458-.1527 0-.4582 0-.611 0-1.8329-.153-3.5132.305-5.3462.153-.1527 0-.1527 0-.3055 0-.611.152-1.3747.305-1.9857.458-1.0693.153-2.1385.458-3.2078.764-.1527 0-.3055.305-.3055.305-1.0692 0-2.1385.306-3.2077.611-1.833.611-3.666 1.069-5.499 1.528-.1527 0-.3055 0-.4582 0-.4583 0-.7638 0-1.222.152-.1528.153-.3055 0-.611 0-.611 0-1.3748 0-1.9858 0-.4582 0-.7637 0-1.222-.152-.3055-.153-.7637 0-1.222 0-.9165 0-1.6802-.153-2.444-.611-.7637-.306-1.3747-.764-2.2912-1.07-.3055-.152-.611-.305-.7637-.458-.4583-.611-.9165-.305-1.0693-.611z" fill="#f1ebdf"/><path d="m38.9569 54.6852v4.5825 3.3605c0 .7638-.1527 1.5275-.1527 2.2913 0 .3055-.3055.611-.4583 1.0692 0 0-.1527 0-.1527.1527-.7638.4583-1.222.3055-1.6803-.3055-.1527-.3055-.3055-.4582-.3055-.7637-.1527-.611-.1527-1.3747-.1527-2.1385 0-3.5132 0-7.0265 0-10.387.1527-6.1099.1527-12.0672.1527-18.1771 0-2.1385 0-4.277 0-6.4155 0-1.222.1528-2.5968.3055-3.8188 0-.3055.1528-.611.3055-.7637h.1528c.7637-.1528 1.0692 0 1.222.7637.1527.4583.1527 1.0693.1527 1.5275.3055 2.5968.1528 5.1935.3055 7.6375v10.5397c0 2.7495 0 5.499.1528 8.4012 0 .611 0 1.5275.1527 2.444z" fill="#2b3d2d"/><path d="m111.51 10.5397c-.916-1.37473-1.68-2.59673-2.596-3.97147-.306-.611-.764-1.06925-1.222-1.68025-.611-.76374-1.222-1.52749-2.139-1.98574-.153-.15275-.458-.3055-.611-.45825-.916-.45825-1.68-1.06924-2.597-1.22199-.152 0-.305-.15275-.611-.305503.306-.763747.459-.916497 1.07-.916497.916 0 1.985.152749 2.902.610998 1.68.611002 2.902 1.680242 3.971 3.207742 1.375 1.98574 2.903 4.12423 4.277 6.10998 1.07 1.52748 2.139 2.90228 3.208 4.42978.153.1527.306.3055.306.4582.611.7637 1.527 1.222 2.596 1.0692 3.514 0 6.874-.1527 10.387 0 2.292 0 4.583.1528 6.874.1528.458 0 .764 0 1.222.3055s.611.4582.306 1.0692c0 0 0 .1528-.153.1528-.611.3055-1.375.4582-1.986.4582-3.971 0-7.943 0-11.914 0-.306 0-.764 0-1.07 0-.305 0-.763 0-1.069 0-1.375 0-2.749 0-4.124 0-.306 0-.458-.1527-.764-.3055-.458-.3055-.916-.611-1.527-1.0692-.153.3055-.153.611-.306.9165-.153.7637-.611 1.0692-1.222 1.3747-1.069.611-2.444-.1527-2.749-1.0692-.459-1.222-.153-2.444.763-3.055.153-.1527.306-.1527.459-.3055h1.527c-.764-1.0692-1.527-1.9857-2.138-2.9022-.459-.3055-.764-.7638-1.07-1.0693z" fill="#2b3d2d"/><path d="m4.4378 71.9457h.3055c-.3055-.4583-.3055-.4583-.76375-.7638-.91649-.4582-1.52749-1.0692-2.13849-1.8329-.15275-.1528-.3055-.4583-.45825-.7638 0-.1527 0-.3055 0-.4582.76375.4582 1.37475.9165 2.1385 1.222 1.06924.4582 2.13849.9164 3.05499 1.3747.45824.1527 1.06924.1527 1.52749.3055.611 0 1.06925.3055 1.68025.3055.61096 0 1.06926 0 1.68026.1527.611.1528 1.222.1528 1.6802 0 .1528 0 .4583-.1527.611 0 .9165 0 1.9858-.1527 2.9023.1528h.4582c1.9858.1527 3.9715.4582 5.8045 1.0692s3.5132 1.5275 5.1935 2.5968c1.6802 1.0692 3.2077 2.5967 4.5825 4.1242.7637.9165 1.3747 1.9858 1.833 3.055.3055.611.4582 1.222.611 1.833.1527.611 0 1.0692-.4583 1.5275-1.222-.3055-1.9857-1.0693-2.444-2.1385-.4582-.9165-1.0692-1.5275-1.6802-2.2912-1.222-1.3748-2.7495-2.5968-4.277-3.5133-1.833-1.222-3.8188-1.9857-5.8045-2.5967-.7637-.1528-1.3747-.1528-2.1385-.4583-.7637-.1527-1.3747-.3055-2.1385-.3055-.3055-.1527-.4582-.3055-.7637-.1527-.611 0-1.0693 0-1.6803 0-.4582 0-.7637.1527-1.222-.1528-.1527 0-.1527 0-.3055 0-1.0692 0-1.9857-.3055-3.05496-.611-.15275 0-.15275-.1527-.3055-.1527-1.222 0-2.29124-.611-3.36049-.9165-.3055-.3055-.76375-.3055-1.06925-.611z" fill="#f1ebdf"/><path d="m111.668 171.998c0-.306.153-.611.153-.917.152-1.069.305-1.985.458-3.055.153-.611.153-.611.916-1.069.459.153.764.611.917 1.069.153.917.305 1.833.458 2.75.306 1.68.306 3.513.306 5.193v20.316 1.069c-.153.306-.153.611-.306.917-.305.458-.611.763-1.222.763-.458 0-.916-.305-1.069-.763 0-.153-.153-.306-.153-.459 0-.305-.153-.611-.153-.916 0-7.485 0-14.97-.152-22.454-.153-.917-.153-1.68-.153-2.444z" fill="#2b3d2d"/><path d="m2.90727 125.102c.3055 1.528.76375 3.055 1.5275 4.43.45825 1.069.91649 2.139 1.37474 3.208.3055.764.45825 1.375.611 2.138.3055 1.222.76375 2.444 1.06925 3.819 0 .764.15275 1.528.15275 2.444 0 .611 0 1.222.15275 1.833v.611 1.833c.15275 1.68-.3055 3.361-.9165 5.041-.3055.916-.76375 1.68-1.06925 2.444-.61099 1.222-1.52749 2.138-2.59674 3.055-.3055.305-.611.458-.9165.764-.15274.152-.30549.152-.61099.152-.15275-.152-.15275-.458-.15275-.611.3055-.611.611-1.222.91649-1.985.3055-.459.45825-1.07.45825-1.681-.15275-.611.15275-1.069.45825-1.527.611-.917.9165-1.986 1.37475-2.902.15275-.459.3055-.917.15275-1.375 0-1.069 0-1.986 0-3.055 0-.611.15275-1.069-.15275-1.68 0-.153 0-.306 0-.459.15275-.763-.15275-1.527-.3055-2.444-.15275-.763-.3055-1.527-.611-2.291-.3055-1.069-.611-2.138-.9165-3.36v-.153c-.611-1.222-.76374-2.75-1.22199-3.972-.3055-.916-.611-1.68-.76375-2.596-.458249-1.222-.610999-2.444-.91649751-3.819-.15274949-1.68.15274951-3.513 0-5.346.15274951-.611.15274951-1.222.61099851-1.68h.458249l.15275.152v1.833c0 .458 0 1.069.15275 1.528.15275.305 0 .611 0 .916 0 .611 0 1.222.3055 1.833.3055.764.3055 1.528.76374 2.291.15275.153 0 .459.15275.611 0-.152.15275 0 .3055 0z" fill="#f1ebdf"/><path d="m117.165 144.805c.305.611.916 1.07 1.374 1.528.459.305.917.611 1.375.916.306.306.611.459.917.764 1.527.917 2.902 1.68 4.582 2.291.917.306 1.68.611 2.597.459h1.68c2.139 0 2.139 0 4.124-.459.764-.152 1.375-.305 2.139-.458.458 0 .916-.305 1.375-.153.458 0 .763.153 1.069.459-.153.152-.153.305-.306.305-1.527 1.069-3.36 1.833-5.04 2.444-.306.153-.611.153-.917.306l-.153.152c-.611 0-1.069 0-1.68.153-.458.153-.916.153-1.527 0-.459-.153-.917-.153-1.375 0-.917 0-1.68-.153-2.597-.458-1.069-.306-2.138-.764-3.055-1.222-1.069-.611-1.986-1.222-2.902-1.833-.917-.611-1.528-1.222-2.444-1.833-.153 0-.153-.153-.306-.153-1.222-1.222-2.596-2.444-3.818-3.513-1.375-1.375-3.055-2.444-4.888-3.055-.458-.153-.764-.153-1.222-.153-.306 0-.458-.153-.611-.305-.153-.459.458-.459.458-.917 1.375-.153 2.597.153 3.819.764.611.305 1.222.458 1.68.611 1.375.611 2.749 1.527 3.819 2.597.152.152.305.152.458.305.305.153.764.153.916.611v.153c.306-.306.459-.306.459-.306z" fill="#f1ebdf"/><path d="m123.429 242.872c-.153-1.222-.764-2.139-1.528-2.903-.916-.916-1.985-1.833-3.055-2.444-.152-.458 0-.611.459-.763 1.374.458 2.749.916 3.971 1.833 1.222.916 1.833 2.291 2.291 3.666.153.611.306 1.222.306 1.833v2.902 13.595c0 .611-.153 1.069-.458 1.374-.459.153-.764.153-1.222 0-.153-.305-.306-.611-.306-.916 0-.764-.153-1.528-.153-2.139 0-3.207 0-6.262 0-9.47 0-1.375.153-2.902.153-4.277-.153-.764-.153-1.528-.458-2.291z" fill="#2b3d2d"/><path d="m18.64 77.5977c.3055.1527.611.3055.9165.3055 1.222.1527 2.2912.611 3.3605 1.0692 1.3747.4583 2.4439 1.0692 3.5132 1.9857.9165.7638 1.833 1.5275 2.5967 2.444.7638.7638 1.3748 1.6803 1.9858 2.5968.3055.4582.4582.9165.7637 1.3747.1528.1528.3055.3055.4583.3055 0 .4583.3055.7638.4582 1.222.3055.4583.4583 1.0693.3055 1.833-.1527.1528-.4582.4583-.611.7638-.9165.1527-1.5275-.1528-1.9857-.9165-.1528-.3055-.4583-.611-.611-1.0693-.611-1.3747-1.5275-2.444-2.2913-3.8187-.9165-.9165-1.833-1.833-2.9022-2.7495-.9165-.7638-2.1385-1.5275-3.055-2.2913-.1527-.1527-.4582-.3055-.7637-.4582-.4583-.3055-.9165-.4582-1.5275-.7637-.4583-.1528-.9165-.3055-1.3748-.4583-.3055-.1527-.4582-.3055-.4582-.4582 0-.4583.1527-.611.611-.7638.3055 0 .611.1528.611-.1527z" fill="#f1ebdf"/><path d="m92.8759 8.70624c-.3055.15275-.4582.3055-.611.45825-.7637-.15275-1.222-.611-1.6802-.9165-1.0693-.9165-2.2913-1.52749-3.5133-2.29124-.7637-.45825-1.5275-.76375-2.2912-1.222-.1528-.15275-.4583-.15275-.611-.3055-1.6803-.61099-3.5133-.91649-5.3463-1.22199-1.2219-.15275-2.4439-.15275-3.6659-.15275-.7638 0-1.5275 0-2.2913 0-.1527 0-.1527 0-.3055 0-.4582 0-.611-.3055-.611-.76375 0-.15275.1528-.3055.1528-.45825 1.5275-.45825 3.2077-.916494 4.7352-.916494 2.7495.152754 5.6517.610994 8.2485 1.527494 1.3747.45825 2.7495 1.222 3.9715 1.98574.3055.15275.611.3055.9165.45825.611.45825 1.222.9165 1.833 1.37475.7637.45825 1.222 1.22199 1.0692 2.13849z" fill="#2b3d2d"/><path d="m176.733 32.6906c-.611-.1527-.764-.611-.764-1.222-.153-1.5275-.306-3.2077-.458-4.7352-.306-2.2912-.611-4.4297-1.07-6.721-.458-2.444-1.222-4.7352-1.985-7.0265-.306-.9165-.611-1.6802-1.07-2.4439-.152-.1528-.305-.4583-.458-.61105-.153-.45825-.458-.76374-.764-1.06924 0-.15275 0-.3055-.152-.611.916-.3055 1.833 0 2.444.611.305.3055.611.76374.763 1.06924.764 1.22195 1.222 2.59675 1.528 3.97145.458 2.1385 1.069 4.4298 1.527 6.5683.459 2.2912.917 4.7352 1.222 7.0264.153.7638.306 1.3748.306 2.1385 0 .4583.153 1.0693.153 1.5275 0 .3055 0 .611-.153.7638-.458.7637-.764.7637-1.069.7637z" fill="#2b3d2d"/><path d="m116.858 86.7607c0 .7638.153 1.5275.153 2.2913v1.6802 3.3605c0 1.0693 0 2.2912.153 3.3605.152 1.6802 0 3.3608.152 4.8878 0 .611-.305 1.069-.916 1.375-.458.305-1.375.153-1.68-.458-.153-.306-.306-.611-.306-1.07 0-1.68 0-3.3601 0-5.0403 0-.4583.153-.9165.153-1.3747 0-1.6803 0-3.2078 0-4.888 0-1.5275.153-3.055.305-4.5825 0-.3055.153-.611.153-.9165.153-.3055.306-.4583.611-.4583.306 0 .611.3055.764.611.458.611.458.9165.458 1.222z" fill="#2b3d2d"/><path d="m92.5756 250.052c-.1527.305-.3055.611-.611.916-.4582 0-.7637 0-1.222 0-.3055 0-.611 0-.9165-.152-.3055-.153-.4582-.306-.7637-.459-.3055-.152-.7638-.305-1.222-.305-.9165 0-1.9858 0-2.9023 0-.4582 0-.9164.153-1.2219.153-.4583 0-.9165 0-1.3748.152-.9165 0-1.6802.459-2.5967.611-.1528 0-.3055.153-.4583.153-1.222-.153-2.1385.306-3.3605.611-.3055.153-.7637.153-1.0692.153-.1528 0-.4583-.153-.4583-.458 0-.306 0-.459.3055-.611.3055-.153.7638-.306 1.0693-.459 1.0692-.305 2.1385-.916 3.055-1.527h.1527c1.222-.458 2.444-1.069 3.666-1.222 1.9858-.458 4.1242-.153 6.2627-.153.3055 0 .7638.153 1.0693.306.611.305 1.0692.611 1.5275.916.3055.153.4582.611.611.917.3055 0 .3055.305.4582.458z" fill="#f1ebdf"/><path d="m74.5442 203.156c-.4583-.153-.4583-.611-.4583-.917.1528-.763.1528-1.68.611-2.596.3055-.611.4583-1.375.7638-1.986 0-.153.1527-.306.1527-.306.7638-1.069 1.6803-2.138 2.7495-2.902 1.6803-1.069 3.3605-1.986 5.3463-2.444.4582-.153.9165-.458 1.5275-.458h1.5274.3055c.1528.153.3055.458.4583.611 0 .764-.4583 1.069-1.0693 1.375-.7637.152-1.5275.458-2.2912.611-1.3747.305-2.5967.916-3.8187 1.68-.4583.305-.7638.611-1.0693 1.069-.3055 0-.4582 0-.611.306-.3055.305-.611.611-1.0692.916-.611.611-1.0693 1.375-1.222 2.291 0 0-.1528 0-.1528.153 0 0 .1528 0 .1528.153-.4583.764-1.0693 1.527-1.3748 2.291-.1527 0-.3055 0-.4582.153z" fill="#f1ebdf"/><path d="m122.051 144.806c0-.153 0-.459 0-.611 0-.153.153-.459.458-.459.306 0 .611 0 .917.153.458.306 1.069.611 1.68.764.305.153.611.153.764.305.763.306 1.68.459 2.596.459h1.986c1.527.152 3.055-.306 4.582-.764.611-.153 1.222-.458 1.986-.306.153.153.306.459.611.764 0 .917-.153 1.375-.916 1.528-1.222.458-2.597.763-3.819 1.069h-.153c-1.374 0-2.596.153-3.971 0-.764 0-1.528-.153-2.291-.458-.764-.306-1.528-.611-2.139-1.07-.458-.305-.916-.611-1.375-.916-.458 0-.611-.306-.916-.458z" fill="#f1ebdf"/><path d="m170.015 9.01367c.306.3055.611.611.764 1.06923-1.222 2.5968-2.75 4.888-4.277 7.1792-.458.611-1.069.9165-1.986 1.0693-.153-.1528-.153-.4583-.305-.611-.459-.9165-.917-1.9858-1.375-2.9022 1.68-1.833 3.36-3.666 5.499-5.04078.764-.3055 1.222-.611 1.68-.76375z" fill="#e9887e"/><path d="m163.139 14.6635c.458.9165.916 1.9858 1.374 2.9023.153.1527.153.4582.306.611v.611c-.153.4582-.458.9165-.917.9165-.458.1527-.916 0-1.222-.4583-.152-.1527-.152-.3055-.305-.4582-.458-1.0693-1.069-2.1385-1.528-3.3605-.611-1.5275-1.069-3.055-1.985-4.4298-.459-.611-.917-1.22196-1.681-1.52746-.305-.15275-.611-.3055-.611-.76375.153-.15274.306-.30549.459-.45824 1.527.15275 2.596.91649 3.36 1.98575.764.9165 1.375 1.833 1.833 2.9022.306.611.611 1.0693.917 1.5275z" fill="#2b3d2d"/><path d="m93.0272 8.55113c.1528-.9165-.3055-1.68024-1.0692-2.13849-.611-.45825-1.222-.9165-1.833-1.37475.1527-.15275.1528-.45825.3055-.61099.9165-1.06925 1.9857-2.1385 3.3605-2.90225.611-.30549 1.0692-.45824 1.6802-.45824h1.0693c-.4583 1.52749-.7638 3.05499-1.0693 4.42973-.1527.611-.3055 1.06925-.4582 1.68025-.1528.61099-.7638.91649-1.0693 1.37474-.4582 0-.7637 0-.9165 0z" fill="#e9887e"/><path d="m84.4727 254.635c0-.459 0-.764 0-1.07.1527-.152.3055-.458.611-.611.3055-.305.611-.458 1.0692-.458h1.833c.611.458 1.222 1.069 1.0692 2.139-.3055.305-.611.611-1.0692.916-.4583 0-1.0693 0-1.5275 0-.7637 0-1.222-.153-1.6802-.764-.1528.153-.1528 0-.3055-.152z" fill="#f1ebdf"/><path d="m24.5977 90.5793c.3055-.1527.611-.3055.9165-.4582.3055.1527.611.3055.7637.4582.611.7638 1.0692 1.5275.9165 2.5968-.1528.1527-.3055.3055-.4583.4582-.3055 0-.6109 0-.9164 0-.9165-.7637-1.222-1.6802-1.222-3.055z" fill="#f1ebdf"/><path d="m131.368 141.752c-.153-.153-.459-.458-.611-.764-.153-.305-.153-.611.152-.916.306-.306.611-.611 1.07-.611h.916c.153.153.306.305.458.458v.917c-.611.763-1.222.916-1.985.916z" fill="#f1ebdf"/><path d="m81.418 199.799c0-.306 0-.459 0-.611.1527-.153.4582-.459.7637-.764h1.0693c.1527.153.4582.458.7637.764-.3055 1.069-.611 1.374-1.6802 1.374-.4583-.305-.7638-.611-.9165-.763z" fill="#f1ebdf"/><path d="m117.161 144.805c-.153 0-.153 0-.306 0v-.153c.153 0 .306.153.306.153z" fill="#89c5ac"/><path d="m76.2241 200.407c-.1527-.153 0-.153 0-.153z" fill="#89c5ac"/><path d="m148.63 37.2707c0 .3055.153.4583.153.7638.763 1.5275 1.833 2.7495 2.749 4.1242.458.7638 1.069 1.3748 1.68 1.9858.306.3055.611.4582 1.07.7637.611-.1527.916-.4582 1.222-.9165.611-.7637 1.222-1.6802 1.68-2.5967.153-.1528.153-.3055.305-.4583.459-.611.917-1.222 1.222-1.833.153-.3055.306-.611.459-.9165.152.1528.305.3055.458.3055.458.611.916 1.3748 1.375 1.9858.152.3055.152.611 0 1.0692-.917 1.6803-1.986 3.2078-3.361 4.5825-.458.4583-.916 1.0693-1.375 1.5275-.916.9165-1.985 1.6803-2.902 2.5968-.916.7637-1.833 1.3747-2.749 2.1384-.153.1528-.306.1528-.459.3055-1.069.4583-1.985.9165-3.055 1.3748-1.222.4582-2.444 1.0692-3.818 1.3747-1.222.3055-2.444.611-3.666.7638-.459 0-1.07.1527-1.528.1527s-1.069 0-1.527.1528c-1.069 0-2.139.1527-3.208-.1528-.153 0-.153 0-.305 0-1.07.1528-1.986-.3055-3.055-.3055-.459 0-.917-.1527-1.222-.3055-2.139-.611-4.125-1.5275-5.958-2.5967-1.222-.7638-2.291-1.5275-3.36-2.444-.917-.9165-1.833-1.9857-2.597-3.055-.916-1.0692-1.68-2.2912-2.444-3.5132-.305-.4583-.611-.9165-.916-1.3748-.153-.1527 0-.3055 0-.4582.305.3055.611.4582.916.7637.611.611 1.222 1.222 1.68 1.833h.917c.611-.3055.916-.9165 1.069-1.5275.611-1.0692 1.069-2.2912 1.528-3.3605.305-.611.611-1.222.916-1.833.153-.3055.306-.611.306-1.0692h.611c.305.3055.611.7637 1.069 1.0692.611.7638 1.222 1.3748 1.833 2.1385.764 1.0693 1.68 2.2913 2.291 3.3605.458.7638.917 1.0693 1.833 1.222.611-.3055 1.222-.611 1.68-1.3747.459-.7638.917-1.3748 1.375-2.1385.458-.7638 1.069-1.6803 1.528-2.5968.305-.611.763-1.222 1.069-1.9857h1.069c1.68 2.7495 3.36 5.6517 5.652 7.943h1.374c.306-.3055.764-.7638 1.07-1.0693 1.069-1.222 1.985-2.5967 3.055-3.8187.763-.9165 1.374-1.833 1.833-2.9022.152.3054.305.3054.458.3054zm-4.124 13.2893v.7637c0 .4582.305.7638.611.9165.458.1527 1.069 0 1.374-.3055.153-.1527.306-.4582.459-.7637.305-.7638.611-1.6803.763-2.444.153-.3055.153-.611.153-.9165 0-.4583-.153-.9165-.611-1.0693-.611-.3055-1.222 0-1.527.611-.306.7638-.611 1.5275-.917 2.2913-.305.4582-.305.7637-.305.9165zm-10.998 4.2769s.153 0 .305-.1527c.764-.4583 1.07-1.0693.611-1.833 0-.1528-.152-.3055-.152-.3055-.459-.611-.917-1.222-1.375-1.6802-.306-.4583-.764-.9165-1.375-1.0693-.153 0-.305 0-.305.1528-.611.4582-.917.9165-.611 1.5275.152.3055.305.4582.458.7637.305.611.764 1.0692 1.069 1.6802.153.4583.611.9165 1.375.9165zm-12.831-12.5254c-.458 0-.611.1527-.917.4582-.305.611-.458 1.222-.611 1.833v.611c.153.4583.306.7638.611.9165.459.1528.764-.1527 1.07-.4582 0 0 .152-.1528.152-.3055.153-.4583.459-1.0693.611-1.5275.153-.3055 0-.611 0-.9165s-.305-.611-.916-.611zm4.735 10.5397c.764-.3055.917-.4583 1.069-.9165.153-.3055.153-.7637.306-1.222.153-.4582-.153-.9165-.306-1.222-.152-.3055-.458-.4582-.763-.4582-.459.1527-.764.3055-.917.7637-.153.611-.458 1.222-.611 1.6803.153.9164.611 1.3747 1.222 1.3747zm9.012-8.554c0-.1527 0-.3055 0-.4582 0-.3055-.458-.611-.763-.7638-.306 0-.764 0-.917.3055-.305.611-.611 1.222-.916 1.9858v.611c0 .4582.305.611.611.9165.305.1527.916.1527 1.069-.1528.305-.9165.764-1.6802.916-2.444zm5.957 7.943c-.305-.7637-.611-1.3747-.916-2.1385-.306-.4582-.917-.611-1.222-.1527-.153.3055-.153.4582-.153.7637 0 .4583.153.7638.153 1.222 0 .7637.305 1.222 1.069 1.3747.611-.1527.917-.4582 1.069-1.0692zm7.943-9.776c-.305.1528-.611.3055-.611.7638 0 .7637.153 1.5275.306 2.2912.153.3055.458.611.764.611.458 0 .763-.1527.916-.4582s.153-.611.153-.9165c-.153-.4583-.458-.9165-.611-1.3748 0-.611-.306-.7637-.917-.9165z" fill="#e9887e"/><g fill="#f1ebdf"><path d="m93.7958 16.65c-.7637 1.222-1.6802 2.444-2.444 3.5132-.4582.611-1.0692.9165-1.5275 1.3748-.4582.4582-1.0692.7637-1.5275 1.2219-.4582.4583-.9165.7638-1.5275 1.0693-.4582.3055-1.0692.611-1.5275.7637-.9165.3055-1.6802.611-2.5967.9165-1.6802.4583-3.5132.611-5.3462.4583-.611 0-1.0693-.1528-1.6803-.3055-.9165-.3055-1.833-.611-2.7495-.9165-.7637-.3055-1.5275-.7638-2.1385-1.222-.4582-.3055-.7637-.7638-1.222-.9165-.611-.3055-.9164-.7638-1.2219-1.222s-.611-1.0692-1.0693-1.5275c-.3055-.611-.3055-1.0692 0-1.6802s.7638-1.0693 1.0693-1.6803c.611-.9165 1.3747-1.6802 2.1384-2.2912.611-.4583 1.0693-.9165 1.5275-1.3748.9165-.7637 2.1385-1.222 3.2078-1.5275.9165-.3055 1.9857-.611 3.055-.4582.3055 0 .611-.1528.9165-.1528 1.222-.1527 2.444 0 3.5132.3055 1.0692.1528 1.9857.3055 3.055.611 1.9857.3055 4.1242.611 5.9572 1.3748.611.1527 1.0693.4582 1.5275.9165.4583.3055.7638.9165.4583 1.5275.3055.4582.3055.7637.1527 1.222zm-9.9287 7.0264s0 .1528 0 0c.611 0 1.222 0 1.6802-.1527 1.6803-.4583 2.5968-1.6803 3.055-3.2077.4583-1.222.3055-2.2913 0-3.5133-.4582-1.3747-1.222-2.444-2.444-3.2077-.9165-.611-1.9857-.7638-3.0549-.611-.611 0-1.222.1527-1.6803.4582-.611.3055-1.0692.7638-1.5275 1.222-.3055.3055-.611.7638-.7637 1.222-.3055.9165-.4583 1.833-.4583 2.7495s.1528 1.6803.611 2.444c.9165 1.6802 2.2913 2.5967 4.277 2.444.1528.1527.1528.1527.3055.1527z"/><path d="m111.514 10.5397c.305.4583.611.9165.916 1.3748-.152.3055-.305.3055-.611.3055-1.374 0-2.444.4582-3.207 1.3747-.764.9165-1.375 1.9858-1.375 3.2078v1.6802c0 .4583.153.9165.305 1.222.459.611.764 1.3747 1.375 1.9857.153.1528.306.3055.458.4583.764.4582 1.528.7637 2.292.9165 1.374.3055 2.749 0 3.666-.9165 1.222-1.222 1.833-2.5967 2.138-4.277.153.1528.458.3055.764.3055h4.124 1.069c.306.1528.306.3055.306.7638-.306.7637-.764 1.222-1.375 1.833-.458.4582-1.069.7637-1.68 1.2219-.306.3055-.764.611-1.222.7638-1.069.4582-1.986.9165-3.055 1.3747-.764.3055-1.68.4583-2.444.7638-.611.1527-1.375.1527-1.986.3055-.764.1527-1.527 0-2.291-.1528-.306-.1527-.764-.1527-1.069-.1527-.153 0-.306 0-.459 0-1.68-.611-3.207-1.0693-4.582-2.1385-.611-.4583-1.222-1.0693-1.68-1.6803-.764-.9164-1.375-1.8329-2.1387-2.7494-.611-.9165-1.0693-1.833-1.222-2.9023-.3055-1.0692-.0001-1.6802 1.0692-2.2912.9165-.4583 1.9855-.7638 3.0545-1.222.917-.3055 1.986-.4583 2.903-.7638 1.374-.4582 2.902-.7637 4.582-.611z"/><path d="m58.8095 116.854c-.7638.153-1.222 0-1.6803-.458-.4582-.611-1.0692-1.07-1.5274-1.681-.7638-.763-1.3748-1.68-1.9858-2.596-.9165-1.222-1.6802-2.444-2.444-3.666-.1527-.306-.3055-.764-.4582-1.07-.1528-.611-.1528-1.222.4582-1.68.7638-.764 1.222-1.68 1.9858-2.444 1.3747-1.68 2.5967-3.5131 4.1242-4.8878.3055-.3055.7637-.611 1.222-.7638.611.3055.7637.9165.7637 1.6803v8.2483 3.666c0 .764 0 1.375.1528 2.139.1527.916 0 1.833 0 2.902-.1528 0-.3055.305-.611.611z"/><path d="m58.8095 196.895c-.7638.153-1.222 0-1.6803-.458-.4582-.611-1.0692-1.07-1.5274-1.681-.7638-.763-1.3748-1.68-1.9858-2.596-.9165-1.222-1.6802-2.444-2.444-3.666-.1527-.306-.3055-.764-.4582-1.07-.1528-.611-.1528-1.222.4582-1.68.7638-.764 1.222-1.68 1.9858-2.444.7637-.916 1.3747-1.68 2.1385-2.597.611-.916 1.3747-1.527 2.1384-2.291.3055-.305.611-.611 1.0693-.764.611.306.7637.917.7637 1.681v8.554 3.666c0 .611 0 1.222.1528 1.833.1527.763 0 1.68 0 2.596 0 .153-.1528.153-.611.917z"/><path d="m58.3558 222.861c-.4583-.153-.7638-.458-1.0693-.764-1.222-1.222-2.444-2.596-3.5132-3.971-.7638-1.069-1.5275-2.139-2.1385-3.208-.3055-.458-.4583-.764-.7638-1.222-.4582-.916-.3055-1.986.4583-2.597.4582-.458.9165-.916 1.222-1.527.3055-.458.611-.917 1.0692-1.222.9165-1.069 1.6803-2.139 2.5968-3.208.4582-.458.9165-.916 1.3747-1.375.3055-.152.611-.305.9165-.458s.611.153.7638.306c.1527.458.3055.916.3055 1.374v8.096 3.666c0 .764 0 1.375.1527 2.139.1528.916 0 1.68 0 2.596 0 .153-.1527.306-.1527.459 0 .152-.1528.305-.1528.305-.611.458-.9165.458-1.0692.611z"/><path d="m58.5104 66.601c-.4582-.1528-.9165-.3055-1.222-.611-1.3747-1.222-2.444-2.5967-3.666-4.1242-.7637-1.0693-1.5275-2.1385-2.1385-3.2078-.3055-.4582-.611-.9165-.7637-1.3747-.3055-.7638-.3055-1.5275.3055-2.1385.9165-.7638 1.3747-1.833 2.1385-2.5968.9165-1.0692 1.5275-2.1384 2.5967-3.2077.4583-.4582.9165-1.0692 1.3748-1.5275.3055-.3055.611-.4582.9165-.611.4582-.1527.7637 0 .9165.4583.1527.4582.1527.9165.1527 1.3747v7.943 3.5132c0 .7638 0 1.5275.1528 2.2913.1527.9165 0 1.6802 0 2.5967 0 .4583-.1528.7637-.7638 1.222z"/><path d="m58.505 143.28c-.4582-.153-.9165-.306-1.222-.611-1.3747-1.222-2.444-2.597-3.666-4.125-.7637-1.069-1.3747-2.138-2.1385-3.207-.3055-.459-.611-.917-.7637-1.375-.4583-.917-.3055-1.68.4582-2.444.7638-.764 1.222-1.833 1.9858-2.597.9165-1.069 1.6802-2.291 2.5967-3.208.4583-.458.9165-1.069 1.3748-1.527.3055-.306.611-.458.9165-.611s.7637 0 .9165.458c.1527.458.1527.917.1527 1.375v11.762c0 .763 0 1.374.1528 1.985.1527.917 0 1.681 0 2.597 0 .917-.3055 1.222-.7638 1.528z"/><path d="m58.8121 91.1926c-.7638.1527-1.222-.1528-1.6803-.611-1.222-1.0693-2.1385-2.444-3.2077-3.666-.611-.9165-1.3748-1.833-1.9857-2.7495-.4583-.7638-1.0693-1.5275-1.222-2.444-.1528-.611-.1528-1.3748.3055-1.833.7637-.7638 1.3747-1.6803 1.9857-2.5967.7637-.9165 1.5275-1.833 2.2912-2.7495.611-.7638 1.222-1.3748 1.833-2.1385.1528-.1528.3055-.3055.4583-.4583.1527-.1527.4582-.1527.611-.3055.611.3055.7637.9165.7637 1.6803v8.2484 3.8188c0 .7637 0 1.3747.1528 2.1385.1527.9165 0 1.6802 0 2.5967.1527.4583 0 .7638-.3055 1.0693z"/><path d="m50.5612 160.388c.611-.916 1.3747-1.68 1.9857-2.596.611-.917 1.3748-1.681 1.9858-2.597.7637-.917 1.5275-1.833 2.2912-2.75.3055-.458.9165-.611 1.3748-.763.611.152.611.763.7637 1.222.1528.305 0 .611 0 .916v11.915c0 .458-.1527 1.069.1528 1.527v2.902c0 .459-.3055.917-.7638 1.07-.4582 0-.7637-.153-1.0692-.459-1.5275-1.374-2.9023-2.902-3.9715-4.582-.4583-.611-.9165-1.222-1.222-1.833-.4583-.611-.7638-1.222-1.0693-1.833-.4582-.764-.611-1.375-.4582-2.139z"/><path d="m65.5352 227.443c.1527-.305.4582-.611.611-.916.7637-.764 1.5274-1.528 2.4439-2.139 1.3748-.916 2.7495-1.985 4.1243-2.902.7637-.458 1.5275-.916 2.444-1.222.1527 0 .3055-.153.4582-.153h1.0693c.3055.153.4582.459.7637.611.3055.306.611.611 1.0693.764.611.458 1.222.917 1.833 1.528 1.3747 1.222 2.9022 2.444 4.1242 3.666.3055.305.4582.611.611.916.1527.458 0 .764-.3055.917-.3055.152-.611.305-.9165.152-.9165 0-1.833.153-2.7495-.152-.3055-.153-.611 0-.9165 0-4.1242 0-8.4012 0-12.5255 0-.1527 0-.3054 0-.6109 0-.7638.152-1.3748-.153-1.5275-1.07z"/><path d="m110.294 228.512c-.305.611-.764.764-1.222.764-1.375 0-2.597.153-3.971 0-2.75-.305-5.6521-.153-8.4016-.153-1.3747 0-2.7495 0-4.1242 0-.1528 0-.3055 0-.611 0-.9165 0-1.222-.305-1.222-1.374.9165-1.07 1.9857-1.986 3.055-2.903 1.3747-1.069 2.7495-1.985 4.277-2.902.7637-.458 1.6802-.916 2.5968-1.222.611-.153 1.222-.153 1.68.306.917.916 1.833 1.527 2.75 2.291.763.611 1.68 1.375 2.444 1.986.763.763 1.68 1.527 2.444 2.444 0 .152 0 .458.305.763z"/><path d="m126.33 221.029c.917.764 1.833 1.527 2.75 2.291.916.764 1.986 1.528 2.902 2.444.764.764 1.528 1.528 2.291 2.291.153.153.306.611.459.917-.153.305-.306.458-.611.764-.306 0-.611 0-.764 0-2.291 0-4.735 0-7.027 0-.305 0-.611 0-.763 0-.459-.153-.917-.153-1.222-.153-2.444 0-4.888 0-7.18 0-.152 0-.458 0-.611 0-.763 0-.916-.153-1.374-1.069.458-.764 1.069-1.375 1.68-1.833.764-.611 1.68-1.375 2.444-1.986 1.375-1.069 2.902-2.139 4.43-2.902 1.222-.917 1.222-.917 2.596-.764z"/><path d="m145.728 260.133c-.152.305-.305.611-.458.764-.916.916-1.527 1.985-2.291 2.902-.917 1.069-1.833 2.291-2.902 3.208-.306.305-.611.458-1.07.458-.152-.153-.458-.306-.611-.458 0-.153-.152-.153-.152-.306 0-.611-.153-1.375 0-1.986.305-1.985.152-4.124.152-6.11 0-1.985 0-3.971 0-5.957 0-.305 0-.611.153-.916.153-.153.306-.306.611-.459.458.153.917.306 1.222.611.764.764 1.528 1.681 2.291 2.75.764 1.069 1.528 1.986 1.986 3.055.153.458.458.764.611 1.069.306.458.306.917.458 1.375z"/><path d="m139.772 231.567c.917.917 1.833 1.833 2.75 2.902.764 1.07 1.527 2.139 2.138 3.208.153.153.153.306.306.611.458.764.764 1.528.458 2.444v.153c-1.222 1.222-2.138 2.596-3.055 3.818-.764.764-1.527 1.681-2.138 2.444-.306.306-.611.611-1.222.611-.459-.305-.611-.611-.611-1.069 0-.916-.153-1.833.152-2.902.153-.305 0-.611 0-.916 0-3.361 0-6.569 0-9.929 0-.306 0-.611.153-.917.153-.458.458-.611 1.069-.458z"/><path d="m117.01 271.282c-.611-.306-.764-.611-.611-1.222.611-.917 1.68-1.528 2.597-2.292.916-.763 1.985-1.374 3.055-2.138.458-.306.916-.458 1.374-.764.764-.458 1.833-.305 2.444.306.764.763 1.528 1.222 2.292 1.833 1.069.916 2.138 1.833 3.055 2.749.305.306.458.611.458.917-.153.458-.611.611-.917.611-.611 0-1.069 0-1.68 0-.458-.153-.764-.153-1.222-.153-3.513.153-7.179.153-10.845.153z"/><path d="m92.4156 270.823c-.3055.459-.611.611-.9165.611-.4583 0-1.0693.153-1.5275 0-.4583-.152-.9165-.152-1.222-.152-3.3605 0-6.5682 0-9.9287 0-.3055 0-.7638 0-1.0693 0-.1527-.153-.4582-.459-.611-.611 0-.459.3055-.917.611-1.222.611-.611 1.222-1.222 1.9858-1.681 1.0692-.763 2.1385-1.374 3.2077-2.138.4583-.306.9165-.611 1.3748-.764.9164-.458 1.6802-.305 2.4439.306.7638.611 1.5275 1.222 2.2913 1.985 1.0692.917 2.1385 1.681 3.055 2.75-.1528.305 0 .611.3055.916z"/><path d="m111.669 271.13c-.611.611-1.375.459-1.833.306s-.764-.153-1.222-.153c-3.513 0-7.026 0-10.3869 0-.1527 0-.4582 0-.611 0-1.0692 0-1.0692 0-1.0692-1.222.611-.611 1.3747-1.375 2.1385-1.986 1.3746-1.222 3.0546-2.138 4.4296-3.055.306-.152.764-.305 1.069-.305h.764c.611.458 1.222.916 1.833 1.527.764.611 1.528 1.222 2.139 1.833.458.306.763.764 1.069 1.07.305.305.611.458.916.763.153.153.306.306.459.611.305 0 .305.306.305.611z"/><path d="m148.167 37.2719c-.458 1.0692-1.222 1.9857-1.833 2.9022-1.069 1.222-1.985 2.5968-3.055 3.8188-.305.4582-.763.7637-1.069 1.0692-.458 0-.764 0-1.375 0-2.291-2.2912-3.818-5.1935-5.651-7.943 4.429.1528 8.706.1528 12.983.1528z"/><path d="m134.116 37.2715c-.306.7637-.611 1.222-1.07 1.9857-.458.9165-.916 1.6803-1.527 2.5968-.458.7637-.917 1.3747-1.375 2.1385-.458.7637-1.069 1.0692-1.68 1.3747-.917-.1527-1.375-.611-1.833-1.222-.764-1.222-1.528-2.2912-2.291-3.3605-.611-.7637-1.222-1.3747-1.833-2.1385-.306-.4582-.611-.7637-1.069-1.0692 4.276-.3055 8.553-.3055 12.678-.3055z"/></g><path d="m169.558 14.3581c.459.4582.611 1.0692.611 1.6802s.153 1.0693.306 1.6803c.153 1.222.458 2.444.611 3.8187.153.9165.153 1.9858.305 2.9023.153 1.0692.153 2.1385.153 3.2077 0 .9165-.305 1.222-1.222 1.3747-.916.1528-1.986 0-2.902-.1527-.306 0-.458-.1528-.611-.4582-.153-.3055-.153-.611-.153-.9165 0-1.833.153-3.5133.306-5.3463.153-1.5275.458-2.9022.764-4.277.152-1.0692.61-1.9857 1.069-2.9022 0-.4583.305-.7638.763-.611z" fill="#2b3d2d"/><path d="m159.478 26.426v1.3747c0 .7638-.306 1.222-1.069 1.222-.764 0-1.375 0-2.139 0-.305 0-.458 0-.764-.1527-.763-.1528-.916-.4583-.916-1.0693 0-1.0692 0-2.1385.153-3.3605.152-1.3747.152-2.5967.305-3.9715.153-1.0692.306-2.1384.458-3.0549.153-.4583.306-.9165.306-1.5275.153-.4583.153-.7638.458-1.0693.306-.3055.611-.3055.917 0 .305.4583.611 1.0693.763 1.6803.459 1.833.611 3.6659.917 5.3462.305 1.6802.458 3.055.611 4.5825z" fill="#2b3d2d"/><path d="m89.0577 110.132c-.9165.153-1.3748-.306-1.833-.917-.7638-1.222-1.0693-2.596-1.6802-3.971-.1528-.153 0-.458 0-.764 0-.305.4582-.458.7637-.305.3055.152.3055.458.4582.763.3055.917.7638 1.681 1.0693 2.597.1527.306.3055.611.4582.917.3055 0 .4583-.153.611-.459.4583-1.069.9165-2.138 1.5275-3.207.1528-.306.3055-.459.4583-.764.1527-.153.4582-.153.7637-.153.3055.153.4583.306.4583.611 0 .306 0 .611-.1528.917-.4582 1.069-.9165 2.291-1.5275 3.36-.1527.458-.4582.764-1.3747 1.375z" fill="#f1ebdf"/><path d="m72.7123 88.5938h.3055c.7638 0 1.0693.4582.9165 1.0692-.4582 1.0692-.9164 1.9857-1.3747 3.055-.1527.3055-.3055.4582-.4582.7637-.4583.7638-.9165 1.222-1.833 1.3748-.3055-.1528-.611-.1528-.7638-.3055-1.3747-1.5275-2.2912-3.3605-3.2077-5.1935.1527-.1528.1527-.3055.3055-.3055.1527-.1528.1527-.1528.3055-.3055.611.3055.7637.9165 1.0692 1.3747.4583.7638 1.0693 1.5275 1.5275 2.2913.1528.3055.4583.4582.611.611.4583-.1528.611-.3055.7638-.611.4582-.7638.9165-1.5275 1.222-2.444 0-.611.1527-1.0693.6109-1.3747z" fill="#f1ebdf"/><path d="m86.3114 88.2879c.1528.3055.3055.4583.4583.611.4582.9165.7637 1.833 1.222 2.7495.1527.3055.3055.611.611 1.0693.3055 0 .4582-.1528.4582-.3055.4583-.9165.7638-1.6803 1.222-2.5968.1528-.3055.3055-.611.4583-1.0692.1527-.3055.3055-.611.7637-.7638.1528.1528.4583.1528.7638.3055 0 .1528.1527.1528.1527.3055.1527.611 0 1.0693-.3055 1.6803-.4583.7637-.7637 1.6802-1.222 2.5967 0 .1528-.1527.3055-.1527.4583-.4583.9165-1.222 1.3747-2.2913 1.222-.611-.4583-1.0692-1.0693-1.3747-1.833-.4583-.9165-.7638-1.9858-1.0693-2.9023-.611-.7637-.4582-1.0692.3055-1.5275z" fill="#f1ebdf"/><path d="m70.8798 110.287c-.3055 0-.611 0-.7638 0-.1527 0-.3055 0-.4582 0-.7638-.611-1.222-1.222-1.833-1.985-.4583-.917-.9165-1.833-1.5275-2.75 0-.153-.1528-.305-.1528-.458 0-.306 0-.458.1528-.611.1527-.153.4582-.153.611 0 .3055.305.611.611.7637.916.4583.917 1.0693 1.681 1.5275 2.444.1528.306.4583.459.611.764.4583-.153.611-.305.7638-.611.4582-.764.9165-1.527 1.222-2.444.1527-.458.3055-.916.7637-1.222h.4583c.611 0 .9165.306.7637.917 0 .152 0 .305-.1527.458-.611 1.375-1.0693 2.749-2.1385 3.971 0 0-.3055.306-.611.611z" fill="#f1ebdf"/><path d="m86.459 151.07c.9165 1.222 1.0692 2.902 1.9857 4.124.3055 0 .4583-.153.4583-.458.4582-.917.9165-1.986 1.3747-3.055.1528-.306.3055-.611.4583-.917.4582-.152.7637-.152 1.0692.153.3055.306.1528.764 0 1.222-.1527.458-.3055.917-.611 1.375-.3055.611-.611 1.375-.9165 1.986-.611.916-.9165 1.222-1.833 1.527-.7637-.153-1.222-.611-1.5275-1.375-.3055-.458-.4582-1.069-.7637-1.527-.3055-.611-.4583-1.375-.611-1.986 0-.153-.1527-.153-.1527-.305 0-.306-.1528-.459.1527-.764.3055-.153.611-.153.9165 0z" fill="#f1ebdf"/><path d="m70.2706 155.806c.1528-.306.1528-.459.3055-.459.611-1.069 1.222-1.985 1.5275-3.055.1528-.458.4583-.916.9165-1.222.7638.153 1.0693.611.9165 1.222-.611 1.528-1.222 3.055-2.2912 4.43-.611.917-1.5275 1.069-2.2913.306-.4582-.459-.9165-.917-1.222-1.375-.611-1.069-1.0692-1.986-1.6802-3.055 0 0 0 0 0-.153-.1528-.305-.1528-.611.1527-.764.3055-.152.7638-.152.9165.153.4583.611.7638 1.222 1.222 1.833.3055.458.611.917.9165 1.375 0 .153.1528.458.611.764z" fill="#f1ebdf"/><path d="m67.0604 135.641c1.0693 1.375 1.6803 3.055 3.055 4.277.1528-.152.3055-.152.3055-.305.4583-.764.9165-1.528 1.222-2.444.1528-.306.3055-.611.4583-.917.1527-.458.4582-.763 1.0692-.916 0 0 .1528 0 .3055.153.4583.305.4583.611.3055 1.222-.4582.916-.7637 1.985-1.3747 2.902-.3055.611-.7638 1.069-1.0693 1.527-.1527.306-.611.459-1.0692.611-.1528 0-.4583 0-.611 0-.611-.458-1.0693-.916-1.3748-1.527-.7637-1.069-1.3747-2.291-1.833-3.361-.4582-.916-.3055-1.222.611-1.222z" fill="#f1ebdf"/><path d="m66.9091 119.756c.4583.305.611.611.9165 1.069.611.917 1.222 1.986 1.9858 2.902.1527.153.3055.306.4582.459.1528-.153.3055-.306.4583-.459.611-.916 1.0692-1.833 1.3747-2.749.1527-.458.4582-.764.611-1.222h.7637c.3055 0 .611.305.611.611v.305c-.4582.917-.7637 1.986-1.3747 2.903-.3055.305-.4583.763-.611 1.069-.7637 1.069-.9165 1.069-2.1385 1.069-.4582-.458-1.0692-.916-1.3747-1.527-.7638-1.07-1.3748-2.292-1.833-3.361-.1528-.153-.1528-.458 0-.611-.3055-.305-.1528-.305.1527-.458z" fill="#f1ebdf"/><path d="m76.9905 88.5938c.611.3054.7638.7637 1.0693 1.2219.4582.9165.9165 1.833 1.5275 2.7495.3055.1528.611 0 .7637-.1527.3055-.611.611-1.0693.9165-1.6803.3055-.4582.611-.9165.7638-1.3747.1527-.3055.4582-.4582.611-.4582.4582 0 .7637.3054.9165.9164-.611 1.222-1.0693 2.444-1.9858 3.5133-.4582.611-.7637.9165-1.5275 1.222-.1527 0-.1527 0-.1527 0-1.0693-.1528-1.5275-.7638-1.9858-1.6803-.3055-.9165-.7637-1.833-1.222-2.7495-.3055-.9165-.3055-1.0692.3055-1.5274z" fill="#f1ebdf"/><path d="m76.6849 151.377c.4582-.153.7637 0 .9165.306.3055.611.7637 1.374 1.0692 1.985s.611 1.07.9165 1.528c.7638-.611 1.0693-1.375 1.5275-2.139.1528-.305.3055-.763.611-1.069.1528-.153.1528-.305.3055-.458.3055-.306.611-.306.9165 0 .1528.153.3055.305.4582.458-.9164 1.68-1.5274 3.666-3.2077 4.888-.3055 0-.4582 0-.7637 0-.611-.153-.9165-.458-1.222-.916-.611-.917-.9165-1.986-1.3748-2.903-.3055-.458-.3055-.916-.1527-1.374-.1528-.306-.1528-.306 0-.306z" fill="#f1ebdf"/><path d="m79.739 123.574c.7637-.611 1.0692-1.222 1.3747-1.833.3055-.458.4583-.917.7638-1.375.1527-.153.3055-.458.4582-.611.1528-.153.4583-.153.7638 0s.3055.306.3055.611c0 .306 0 .458-.1528.764-.611 1.222-1.222 2.291-1.9857 3.36-.3055.459-.611.611-1.0693.764-.611 0-1.0692 0-1.5275-.458-.1527-.153-.3055-.306-.4582-.611-.3055-.458-.4583-.917-.7637-1.528-.3055-.458-.4583-1.069-.7638-1.527-.1527-.306-.1528-.611-.1528-.917 0-.305.1528-.458.4583-.458s.4582 0 .611.153c.3055.611.611 1.222 1.0692 1.833.3055.458.4583.916.7638 1.375-.1528 0 0 .152.3055.458z" fill="#f1ebdf"/><path d="m80.5027 109.674c-.3055 0-.4582 0-.611 0-.1527 0-.4582 0-.611 0-.611-.306-1.0692-.917-1.3747-1.528-.4583-.916-.7637-1.833-1.222-2.749-.1527-.306-.1528-.611-.1528-.917 0-.153.1528-.305.3056-.305.1527 0 .3054 0 .4582.152.1527.153.3055.459.4583.611.4582.917 1.0692 1.986 1.5274 2.903.1528.152.3055.305.4583.152.4582-.611.9165-1.222 1.222-1.833.3055-.458.611-1.069.9165-1.527.1527-.153.1527-.306.3055-.306.1527-.152.4582-.305.7637-.152.3055.152.3055.305.3055.611 0 .305-.1527.763-.3055 1.069-.3055.611-.611 1.222-1.0692 1.833-.3055.764-.611 1.375-1.3748 1.986z" fill="#f1ebdf"/><path d="m83.5577 136.1c-.9165 1.68-1.5275 3.513-3.2077 4.888-.1528 0-.4583 0-.7638 0-.4582 0-.9165-.306-1.222-.764-.7637-1.069-1.2219-2.291-1.6802-3.361-.1527-.152-.1528-.458-.1528-.763 0-.306.1528-.459.3056-.459.3054-.152.4582 0 .611.153.3054.458.6109.917.7637 1.375.3055.611.611 1.069.9165 1.68.1527.306.3055.458.4582.764.4583-.306.611-.458.9165-.917.3055-.611.7638-1.374 1.0693-1.985.1527-.153.1527-.459.3055-.611.4582-.611.9165-.611 1.3747-.153.1528-.153.1528 0 .3055.153z" fill="#f1ebdf"/><path d="m89.0555 124.033c.7637-.459 1.0692-1.222 1.3747-1.833.3055-.917.611-1.681.9165-2.597.1527-.306.3055-.458.611-.458.4582 0 .611.152.611.611 0 .458 0 .916-.3055 1.374-.3055.917-.611 1.833-1.0692 2.597-.3055.611-.7638 1.069-1.222 1.375-.3055.153-.611.305-.9165.458-.7638-.305-1.3748-.764-1.6803-1.527-.1527-.459-.3055-.917-.4582-1.375-.1528-.611-.4583-1.375-.611-1.986-.1528-.458-.1528-.764 0-1.069.3055-.153.4582 0 .611.305.3055 1.375 1.0692 2.597 1.833 3.972 0-.153.1527 0 .3055.153z" fill="#f1ebdf"/><path d="m91.1946 135.488h.4582c.3055.153.4583.306.3055.611 0 .306-.1527.459-.1527.764-.3055.611-.611 1.375-.9165 1.986-.4583.916-1.0693 1.68-1.833 2.291-.3055 0-.4583 0-.7638 0-.611-.305-.9165-.916-1.222-1.527-.4582-1.07-.611-2.139-.9165-3.055-.1527-.306 0-.611 0-.917.1528 0 .3055 0 .4583-.153.611 1.528.9165 3.055 1.833 4.43.4582-.305.7637-.611.9165-1.069.3055-.611.611-1.222.7637-1.833.3055-.611.7638-1.069 1.0693-1.528z" fill="#f1ebdf"/><path d="m86.0047 68.4328c-.1527 0-.1527-.1528-.3055-.1528.1528-.1527.3055-.1527.3055.1528z" fill="#e9887e"/><path d="m92.875 8.70548.1528-.15275c-.1528 0-.1528.15275-.1528.15275z" fill="#e9887e"/><path d="m116.249 59.1135c-.917-.9165-1.833-1.833-2.75-2.7495-.611-.611-1.222-1.3747-1.833-2.1385-.764-.7637-1.375-1.6802-1.986-2.5967-.763-1.0693-1.527-2.2912-2.138-3.5132s-1.375-2.444-1.986-3.8188c0-.1527-.153-.4582 0-.611.764-1.3747 1.375-2.9022 1.833-4.277.306-.7637.764-1.5275 1.069-2.444.306 0 .306.3055.306.4583 1.68 4.1242 3.819 7.943 6.721 11.4562.611.7638 1.069 1.3748 1.68 2.1385 2.139 2.444 4.888 4.277 7.943 5.499.917.3055 1.833.611 2.902 1.0692-.611.9165-1.374 1.6803-1.833 2.5968-.458.9165-.916 1.833-1.527 2.9022-.153-.4582-.306-.7637-.458-.9165-.611-1.3747-1.375-2.9022-2.139-4.1242-.305-.611-.764-1.0693-1.222-1.5275-.611-.7638-1.375-.611-1.833 0s-1.069 1.222-1.527 1.6802c-.306.3055-.459.611-.764.7638-.153.1527-.306.1527-.458.1527z" fill="#2b3d2d"/><path d="m131.219 58.3503h1.527c1.069.1528 1.986.1528 3.055.1528.153 0 .458 0 .611-.1528.611-.1527.764-.1527 1.68.1528 0 .1527-.152.3055-.152.3055-1.07 1.222-1.986 2.5967-2.75 4.1242-.153.3055-.305.4583-.458.7638-.306 0-.306-.1528-.458-.3055-.917-1.5275-1.833-3.055-2.903-4.5825 0-.1528 0-.3055-.152-.4583z" fill="#2b3d2d"/><path d="m113.5 42.4621s-.152 0-.152-.1527c.152-.1528 0 0 .152.1527z" fill="#e9887e"/><path d="m101.738 177.189c.306.153.458.306.458.611-.305 1.375-.611 2.597-1.527 3.666-.153.153-.306.459-.458.611-1.2224 1.07-2.4444 2.139-3.9719 3.055-1.6803.917-3.5133 1.528-5.1935 2.139-.4583.153-1.0693.458-1.5275.611-.9165.305-1.6802.458-2.5967.764-.1528 0-.4583.152-.611.152-1.6803.611-3.3605.917-4.888 1.528-1.3748.458-2.9023 1.222-3.9715 2.138-.7638.611-1.3748 1.222-1.9858 1.986-.3055.306-.611.917-.9165 1.222-.611.764-1.0692 1.528-1.2219 2.444 0 .153-.1528.153-.3055.306-.3055-.153-.611-.459-.611-.764 0-.458 0-.917.1527-1.222.611-1.68 1.222-3.208 2.2912-4.583.611-.763 1.3748-1.374 2.1385-2.138 1.9858-1.68 4.277-2.597 6.721-3.361 1.3748-.458 2.7495-.916 4.1243-1.374 1.9857-.611 3.9714-1.375 5.8044-2.139.611-.305 1.222-.611 1.833-1.069.9165-.458 1.833-.917 2.7495-1.528.3055-.152.7638-.458 1.0693-.611 1.0689-.611 1.8329-1.222 2.4439-2.291-.153 0 0 0 0-.153z" fill="#f1ebdf"/><path d="m117.621 17.719c-.306 1.6802-.917 3.0549-2.139 4.2769-.916.9165-2.291 1.222-3.666.9165-.763-.1527-1.527-.611-2.291-.9165-.153-.1527-.305-.3055-.458-.4582-.611-.4583-1.069-1.222-1.375-1.9858-.153-.3055-.305-.7637-.305-1.222 0-.611 0-1.0692 0-1.6802 0-1.222.458-2.2912 1.374-3.2077.917-.9165 1.986-1.5275 3.208-1.3748.153 0 .458 0 .611-.3055.458.9165 1.222 1.833 1.986 2.9023-.611 0-1.069 0-1.528 0-.152.1527-.305.1527-.458.3055-.916.611-1.222 1.833-.764 3.0549.306 1.0693 1.681 1.6803 2.75 1.0693.611-.3055 1.069-.7638 1.222-1.3747 0-.3055.153-.611.305-.9165.611.3055 1.07.611 1.528.9165z" fill="#89c5ac"/><path d="m144.504 50.5609c0-.1527.153-.4582.153-.7637.306-.7638.458-1.5275.917-2.2913.305-.611.916-.7637 1.527-.611.458.1528.611.611.611 1.0693 0 .3055 0 .611-.153.9165-.305.7637-.458 1.6802-.763 2.444-.153.3055-.306.4582-.459.7637-.305.3055-.916.4583-1.374.3055-.459-.1527-.611-.4582-.611-.9165.152-.3055.152-.4582.152-.9165z" fill="#2b3d2d"/><path d="m133.507 54.8361c-.764 0-1.222-.4583-1.527-1.0693-.306-.611-.764-1.0692-1.07-1.6802-.152-.3055-.305-.4583-.458-.7638-.305-.7637-.153-1.222.611-1.5275.153 0 .306-.1527.306-.1527.611.1527 1.069.611 1.374 1.0692.459.611.917 1.222 1.375 1.6803.153.1527.153.3055.153.3055.458.7637.305 1.5275-.611 1.833 0 .3055-.153.3055-.153.3055z" fill="#2b3d2d"/><path d="m120.676 42.3105c.611 0 .916.3055 1.069.9165v.9165c-.153.4583-.458 1.0693-.611 1.5275 0 .1528-.153.1528-.153.3055-.305.3055-.611.4583-1.069.4583-.458-.1528-.611-.4583-.611-.9165 0-.1528 0-.4583 0-.611.153-.611.305-1.222.611-1.833.153-.611.305-.7638.764-.7638z" fill="#2b3d2d"/><path d="m125.413 52.85c-.763-.1528-1.069-.611-1.222-1.3748.153-.4582.306-1.0692.611-1.6802.153-.4583.459-.611.917-.7638.305 0 .611.1528.764.4583.152.4583.305.7637.305 1.222 0 .4582-.153.7637-.305 1.222-.153.4582-.153.611-1.07.9165z" fill="#2b3d2d"/><path d="m134.425 44.2966c0 .7638-.458 1.5275-.917 2.2913-.305.3055-.763.4582-1.069.1527-.305-.1527-.611-.4582-.611-.9165 0-.1527 0-.4582 0-.611.306-.611.611-1.3747.917-1.9857.152-.3055.611-.3055.916-.3055.306 0 .764.3055.764.7637z" fill="#2b3d2d"/><path d="m140.385 52.2409c-.153.611-.458 1.0693-1.069 1.0693-.764-.1528-1.07-.611-1.07-1.3748 0-.4582-.152-.7637-.152-1.222 0-.3055 0-.611.152-.7637.306-.4583 1.07-.4583 1.222.1527.459.611.611 1.3748.917 2.1385z" fill="#2b3d2d"/><path d="m148.326 42.4648c.458.1528.764.3055.916.9165.153.4583.459.9165.611 1.3748.153.3055.153.611-.152.9165-.306.3055-.459.4582-.917.4582s-.764-.3055-.764-.611c-.152-.7637-.305-1.5275-.305-2.2912 0-.4583.305-.611.611-.7638z" fill="#2b3d2d"/><path d="m83.865 23.6745h-.1528c-1.9857.1527-3.3605-.9165-4.277-2.444-.4582-.7638-.611-1.5275-.611-2.444s0-1.833.4583-2.7495c.1527-.4582.3055-.9165.7637-1.222.4583-.4582.9165-.9165 1.5275-1.222s1.0693-.4582 1.6803-.4582c1.0692 0 2.1385 0 3.0549.611 1.222.7637 2.1385 1.833 2.444 3.2077.3055 1.222.4583 2.444 0 3.5132-.4582 1.5275-1.3747 2.7495-3.055 3.2078-.7637 0-1.3747 0-1.8329 0 0 0 0 .1527 0 0zm2.9022-6.4155c-.1528-.3055-.3055-.4582-.4583-.611-.7637-.7637-1.6802-1.0692-2.5967-.611-.1527.1528-.3055.1528-.4582.3055-1.0693.3055-1.3748 2.444-.611 3.3605.4582.4582 1.0692.7637 1.6802.7637 1.5275.1528 2.5967-1.222 2.444-2.2912.1527-.3055.1527-.611 0-.9165z" fill="#89c5ac"/><path d="m86.7719 17.2617v.7637c.1527 1.222-.9165 2.444-2.444 2.2913-.7638 0-1.222-.3055-1.6803-.7638-.9164-.9165-.4582-2.9022.611-3.3605.1528 0 .3055-.1527.4583-.3055.9165-.4582 1.9857-.3055 2.5967.611.3055.3055.3055.611.4583.7638z" fill="#2b3d2d"/></g></svg>