<svg fill="none" height="294" viewBox="0 0 229 294" width="229" xmlns="http://www.w3.org/2000/svg" xmlns:xlink="http://www.w3.org/1999/xlink"><clipPath id="a"><path d="m0 0h228.034v294h-228.034z"/></clipPath><g clip-path="url(#a)"><g fill="#bbcb7d"><path d="m169.711 273.107c0-1.244-.534-2.4-.978-3.645-.8-2.222-1.778-4.445-2.845-6.579-.356-.711-.622-1.333-.622-2.133 0-.445.089-.889.355-1.245.356-.444.889-.711 1.512-.8.978.089 1.6.622 1.955 1.245.534.8.978 1.6 1.334 2.4 1.245 2.578 2.489 5.156 3.378 7.823.089.356.356.623.534.978.177-.089.266-.089.266-.178 1.156-1.778 2.401-3.556 3.29-5.423 1.689-3.2 3.911-6.223 6.223-9.068.267-.266.533-.533.711-.711.978-.355 1.778-.355 2.578-.089.712.445 1.156 1.067.889 2.045-.978 1.067-1.511 2.578-2.222 4.001-.711 1.6-1.689 3.2-2.489 4.8-.89 1.69-1.779 3.29-2.668 4.979-.266.444-.444.978-.355 1.511-.622.356-.8.978-.978 1.512-.622 1.333-1.067 2.756-1.689 4.089-.623 1.334-1.156 2.756-1.778 4.09-.178.444-.445.978-1.156 1.244-.533.178-1.156.089-1.689 0-1.156-.444-.978-1.511-1.512-2.133-.177-.978.001-1.956-.355-2.845-.445-.889 0-1.867-.622-2.756-.178-1.067-.356-2.134-1.067-3.112z"/><path d="m189.179 277.996c.266.178.444.267.533.356.267.355.533.711.8 1.066 0 .178 0 .356-.089.445-.178.355-.266.711-.533.978-2.045 2.045-4.179 4.089-6.757 5.778-.533.356-1.067.801-1.6 1.156-1.511 1.245-3.023 2.489-4.534 3.645-.356.267-.622.534-.978.711-.444.178-.978.356-1.333.534-.356-.089-.623-.089-.801-.178-.266-.089-.622-.267-.889-.445-.355-.622-.266-1.333-.089-2.044.356-.356.801-.8 1.334-1.245 2.045-1.689 4.09-3.378 6.223-5.067 1.689-1.423 3.378-2.756 5.068-4.179.622-.533 1.244-.978 1.778-1.422.622-.178 1.244-.178 1.867-.089z"/><path d="m161.351 273.106c-.089-.711-.267-1.422-.622-2.045-.534-.889-.889-1.867-1.334-2.756-.089-.177-.178-.444-.267-.622-.177-.622.445-1.334 1.156-1.511.533-.089 1.067-.089 1.6.089.623.266 1.067.8 1.423 1.422.622 1.156 1.333 2.311 1.956 3.556.355.622.711 1.334 1.066 1.956.445 1.956 1.156 3.823 1.69 5.69.355 1.333.444 2.578.444 3.823-.178.444-.444.711-.978.889-.533.177-1.156.177-1.867 0-.266-.178-.711-.534-1.067-.801-.711-1.511-.889-3.111-1.333-4.711-.445-1.512-.8-3.112-1.6-4.623-.089-.089-.178-.267-.267-.356z"/><path d="m163.13 286.175c-.178.355-.356.711-.534.978-.444.355-.889.533-1.422.711-.178 0-.356 0-.533-.089-.356-.267-.801-.534-1.067-.978-.445-.622-.8-1.334-1.067-1.956-.8-1.956-1.778-3.912-2.845-5.867-.711-1.245-.622-1.512.8-2.579.445-.177.978-.177 1.511-.089.623.267 1.067.712 1.423 1.245 1.422 2.223 2.756 4.534 3.467 7.023.089.267.178.534.267.8z"/><path d="m102.062 274.353c0-1.244-.533-2.4-.978-3.645-.8-2.222-1.7777-4.445-2.8445-6.579-.3556-.711-.6223-1.333-.6223-2.133 0-.445.0889-.889.3556-1.245.3556-.444.889-.711 1.5113-.8.9779.089 1.5999.622 1.9559 1.245.533.8.978 1.6 1.334 2.4 1.244 2.578 2.489 5.156 3.378 7.823.089.356.355.623.533.978.178-.089.267-.088.267-.177 1.156-1.778 2.4-3.556 3.289-5.423 1.689-3.201 3.912-6.224 6.223-9.068l.712-.712c.978-.355 1.778-.355 2.578-.089.711.445 1.156 1.067.889 2.045-.978 1.067-1.511 2.578-2.223 4.001-.711 1.6-1.689 3.2-2.489 4.8-.889 1.69-1.778 3.29-2.667 4.979-.267.445-.445.978-.356 1.511-.622.356-.8.978-.978 1.512-.622 1.333-1.066 2.756-1.689 4.089-.622 1.334-1.155 2.756-1.778 4.09-.178.444-.444.978-1.155 1.244-.534.178-1.156.089-1.69 0-1.155-.444-.978-1.511-1.511-2.133-.178-.978 0-1.956-.356-2.845-.444-.889 0-1.867-.622-2.756-.178-1.067-.444-2.134-1.067-3.112z"/><path d="m121.534 279.242c.267.178.445.267.533.356.267.355.534.711.801 1.066 0 .178 0 .356-.089.445-.178.356-.267.711-.534.978-2.044 2.045-4.178 4.089-6.756 5.778-.534.356-1.067.801-1.601 1.156-1.511 1.245-3.022 2.49-4.534 3.645-.355.267-.622.534-.977.711-.445.178-.978.356-1.334.534-.356-.089-.622-.089-.8-.178-.267-.089-.622-.267-.889-.444-.356-.623-.267-1.334-.089-2.045.356-.356.8-.8 1.333-1.245 2.045-1.689 4.09-3.378 6.224-5.067 1.689-1.423 3.378-2.756 5.067-4.179.622-.533 1.245-.978 1.778-1.422.534-.178 1.156-.178 1.867-.089z"/><path d="m93.6165 274.352c-.0889-.711-.2667-1.422-.6223-2.045-.5334-.889-.889-1.867-1.3335-2.756-.0889-.177-.1778-.444-.2667-.622-.1778-.622.4445-1.333 1.1557-1.511.5334-.089 1.0668-.089 1.6002.089.6224.266 1.0669.8 1.4225 1.422.6223 1.156 1.3335 2.312 1.9558 3.556.3556.623.7112 1.334 1.0669 1.956.4445 1.956 1.1557 3.823 1.6889 5.69.356 1.333.445 2.578.445 3.823-.178.444-.445.711-.9782.889-.5334.177-1.1557.177-1.867 0-.2667-.178-.7112-.534-1.0668-.8-.7112-1.512-.889-3.112-1.3335-4.712-.4445-1.512-.8001-3.112-1.6003-4.623 0-.089-.1778-.267-.2667-.356z"/><path d="m95.3954 287.421c-.1778.355-.3556.711-.5334.978-.4445.355-.889.533-1.4225.711-.1778 0-.3556 0-.5334-.089-.3556-.267-.8001-.533-1.0668-.978-.4445-.622-.8001-1.334-1.0668-1.956-.8001-1.956-1.7781-3.912-2.8449-5.867-.7112-1.245-.6223-1.512.8001-2.579.4445-.177.9779-.177 1.5114-.088.6223.266 1.0668.711 1.4224 1.244 1.4224 2.223 2.756 4.534 3.4672 7.023l.2667.801c.0889.266 0 .533 0 .8z"/><path d="m77.3514 271.508c0-1.245-.5334-2.401-.978-3.645-.8001-2.223-1.778-4.446-2.8448-6.579-.3556-.711-.6224-1.334-.6224-2.134 0-.444.089-.889.3557-1.244.3556-.445.889-.712 1.5113-.801.9779.089 1.6002.623 1.9559 1.245.5334.8.9779 1.6 1.3335 2.4 1.2446 2.579 2.4892 5.157 3.3783 7.824.0889.355.3556.622.5334.978.1778-.089.2667-.089.2667-.178 1.1557-1.778 2.4004-3.556 3.2894-5.423 1.6891-3.201 3.9117-6.223 6.2231-9.068.2667-.267.5335-.534.7113-.711.9779-.356 1.778-.356 2.5781-.089.7112.444 1.1558 1.067.8891 2.044-.978 1.067-1.5114 2.579-2.2226 4.001-.7112 1.6-1.6892 3.201-2.4893 4.801-.889 1.689-1.778 3.289-2.667 4.978-.2667.445-.4446.978-.3557 1.512-.6223.355-.8001.978-.9779 1.511-.6223 1.334-1.0668 2.756-1.6891 4.09-.6223 1.333-1.1558 2.755-1.7781 4.089-.1778.445-.4445.978-1.1557 1.245-.5334.177-1.1557.089-1.6891 0-1.1558-.445-.978-1.512-1.5114-2.134-.1778-.978 0-1.956-.3556-2.845-.4445-.889 0-1.867-.6223-2.756-.1778-1.156-.3556-2.222-1.0668-3.111z"/><path d="m96.8192 276.396c.2667.177.4445.266.5335.355.2667.356.5334.711.8001 1.067 0 .178 0 .356-.0889.444-.1778.356-.2667.712-.5334.978-2.0448 2.045-4.1785 4.09-6.7566 5.779-.5334.356-1.0668.8-1.6003 1.156-1.5113 1.244-3.0226 2.489-4.534 3.645-.3556.267-.6223.533-.9779.711-.4445.178-.9779.356-1.3335.533-.3557-.088-.6224-.088-.8002-.177-.2667-.089-.6223-.267-.889-.445-.3556-.622-.2667-1.333-.0889-2.045.3556-.355.8001-.8 1.3335-1.244 2.0448-1.689 4.0896-3.379 6.2232-5.068 1.6892-1.422 3.3783-2.756 5.0674-4.178.6224-.534 1.2447-.978 1.7781-1.423.6223-.266 1.2446-.177 1.8669-.088z"/><path d="m68.9915 271.506c-.0889-.711-.2667-1.422-.6223-2.044-.5334-.889-.889-1.867-1.3335-2.756-.0889-.178-.1778-.445-.2667-.623-.1778-.622.4445-1.333 1.1557-1.511.5334-.089 1.0668-.089 1.6002.089.6224.267 1.0669.8 1.4225 1.422.6223 1.156 1.3335 2.312 1.9558 3.556.3556.623.7112 1.334 1.0669 1.956.4445 1.956 1.1557 3.823 1.6891 5.69.3556 1.334.4445 2.578.4445 3.823-.1778.444-.4445.711-.9779.889s-1.1557.178-1.867 0c-.2667-.178-.7112-.534-1.0668-.8-.7112-1.512-.889-3.112-1.3335-4.712-.4445-1.511-.8001-3.112-1.6003-4.623-.0889-.178-.1778-.267-.2667-.356z"/><path d="m70.7704 284.575c-.1778.356-.3556.711-.5334.978-.4445.356-.889.533-1.4224.711-.1779 0-.3557 0-.5335-.089-.3556-.266-.8001-.533-1.0668-.978-.4445-.622-.8001-1.333-1.0668-1.956-.8001-1.955-1.7781-3.911-2.8449-5.867-.7112-1.245-.6223-1.511.8001-2.578.4445-.178.978-.178 1.5114-.089.6223.267 1.0668.711 1.4224 1.244 1.4224 2.223 2.756 4.534 3.4672 7.024.0889.266.1778.533.2667.8z"/><path d="m97.0857 271.508c0-1.245-.5334-2.401-.9779-3.645-.8001-2.223-1.778-4.446-2.8449-6.579-.3556-.711-.6223-1.334-.6223-2.134 0-.444.0889-.889.3556-1.244.3556-.445.8891-.712 1.5114-.801.9779.089 1.6002.623 1.9558 1.245.5334.8.978 1.6 1.3336 2.4 1.2446 2.579 2.489 5.157 3.378 7.824.089.355.356.622.534.978.177-.089.266-.089.266-.178 1.156-1.778 2.401-3.556 3.29-5.423 1.689-3.201 3.911-6.223 6.223-9.068.267-.267.533-.534.711-.711.978-.356 1.778-.356 2.578-.089.712.444 1.156 1.067.889 2.044-.978 1.067-1.511 2.579-2.222 4.001-.711 1.6-1.689 3.201-2.489 4.801-.89 1.689-1.779 3.289-2.668 4.978-.266.445-.444.978-.355 1.512-.622.355-.8.978-.978 1.511-.622 1.334-1.067 2.756-1.689 4.09-.623 1.333-1.156 2.755-1.778 4.089-.178.445-.445.978-1.156 1.245-.533.177-1.156.089-1.689 0-1.1559-.445-.9781-1.512-1.5115-2.134-.1778-.978 0-1.956-.3556-2.845-.4445-.889 0-1.867-.6223-2.756-.1778-1.156-.3556-2.222-1.0669-3.111z"/><path d="m116.554 276.396c.266.177.444.266.533.355.267.356.533.711.8 1.067 0 .178 0 .356-.089.444-.178.356-.266.712-.533.978-2.045 2.045-4.179 4.09-6.757 5.779-.533.356-1.067.8-1.6 1.156-1.511 1.244-3.023 2.489-4.534 3.645-.356.267-.622.533-.978.711-.444.178-.978.356-1.333.533-.356-.088-.623-.088-.801-.177-.266-.089-.622-.267-.889-.445-.355-.622-.266-1.333-.089-2.045.356-.355.801-.8 1.334-1.244 2.045-1.689 4.09-3.379 6.223-5.068 1.689-1.422 3.378-2.756 5.068-4.178.622-.534 1.244-.978 1.778-1.423.533-.266 1.155-.177 1.867-.088z"/><path d="m88.6322 271.506c-.0889-.711-.2667-1.422-.6224-2.044-.5334-.889-.889-1.867-1.3335-2.756-.0889-.178-.1778-.445-.2667-.623-.1778-.622.4445-1.333 1.1557-1.511.5334-.089 1.0669-.089 1.6003.089.6223.267 1.0668.8 1.4224 1.422.6223 1.156 1.3335 2.312 1.9559 3.556.3556.623.7112 1.334 1.0668 1.956.4445 1.956 1.1557 3.823 1.6891 5.69.3556 1.334.4445 2.578.4445 3.823-.1778.444-.4445.711-.9779.889s-1.1557.178-1.8669 0c-.2667-.178-.7112-.534-1.0669-.8-.7112-1.512-.889-3.112-1.3335-4.712-.4445-1.511-.8001-3.112-1.6002-4.623 0-.178-.0889-.267-.2667-.356z"/><path d="m90.5048 284.575c-.1778.356-.3556.711-.5334.978-.4446.356-.8891.533-1.4225.711-.1778 0-.3556 0-.5334-.089-.3556-.266-.8001-.533-1.0668-.978-.4445-.622-.8001-1.333-1.0669-1.956-.8001-1.955-1.778-3.911-2.8448-5.867-.7112-1.245-.6223-1.511.8001-2.578.4445-.178.9779-.178 1.5113-.089.6224.267 1.0669.711 1.4225 1.244 1.4224 2.223 2.7559 4.534 3.4672 7.024.0889.266.1778.533.2667.8z"/><path d="m123.75 271.508c0-1.245-.534-2.401-.978-3.645-.8-2.223-1.778-4.446-2.845-6.579-.356-.711-.622-1.334-.622-2.134 0-.444.089-.889.355-1.244.356-.445.889-.712 1.512-.801.978.089 1.6.623 1.955 1.245.534.8.978 1.6 1.334 2.4 1.245 2.579 2.489 5.157 3.378 7.824.089.355.356.622.534.978.178-.089.266-.089.266-.178 1.156-1.778 2.401-3.556 3.29-5.423 1.689-3.201 3.912-6.223 6.223-9.068.267-.267.533-.534.711-.711.978-.356 1.778-.356 2.578-.089.712.444 1.156 1.067.889 2.044-.978 1.067-1.511 2.579-2.222 4.001-.711 1.6-1.689 3.201-2.489 4.801-.889 1.689-1.778 3.289-2.668 4.978-.266.445-.444.978-.355 1.512-.622.355-.8.978-.978 1.511-.622 1.334-1.067 2.756-1.689 4.09-.623 1.333-1.156 2.755-1.778 4.089-.178.445-.445.978-1.156 1.245-.533.177-1.156.089-1.689 0-1.156-.445-.978-1.512-1.511-2.134-.178-.978 0-1.956-.356-2.845-.445-.889 0-1.867-.622-2.756-.178-1.156-.356-2.222-1.067-3.111z"/><path d="m143.218 276.396c.266.177.444.266.533.355.267.356.534.711.8 1.067 0 .178 0 .356-.089.444-.177.356-.266.712-.533.978-2.045 2.045-4.179 4.09-6.757 5.779-.533.356-1.067.8-1.6 1.156-1.511 1.244-3.023 2.489-4.534 3.645-.356.267-.622.533-.978.711-.444.178-.978.356-1.333.533-.356-.088-.623-.088-.801-.177-.266-.089-.622-.267-.889-.445-.355-.622-.266-1.333-.088-2.045.355-.355.8-.8 1.333-1.244 2.045-1.689 4.09-3.379 6.223-5.068 1.689-1.422 3.379-2.756 5.068-4.178.622-.534 1.244-.978 1.778-1.423.622-.266 1.244-.177 1.867-.088z"/><path d="m115.39 271.506c-.089-.711-.267-1.422-.622-2.044-.534-.889-.889-1.867-1.334-2.756-.089-.178-.178-.445-.267-.623-.177-.622.445-1.333 1.156-1.511.534-.089 1.067-.089 1.6.089.623.267 1.067.8 1.423 1.422.622 1.156 1.333 2.312 1.956 3.556.355.623.711 1.334 1.066 1.956.445 1.956 1.156 3.823 1.69 5.69.355 1.334.444 2.578.444 3.823-.178.444-.444.711-.978.889-.533.178-1.155.178-1.867 0-.266-.178-.711-.534-1.067-.8-.711-1.512-.889-3.112-1.333-4.712-.445-1.511-.8-3.112-1.6-4.623-.089-.178-.178-.267-.267-.356z"/><path d="m117.169 284.575c-.178.356-.356.711-.534.978-.444.356-.889.533-1.422.711-.178 0-.356 0-.533-.089-.356-.266-.801-.533-1.067-.978-.445-.622-.8-1.333-1.067-1.956-.8-1.955-1.778-3.911-2.845-5.867-.711-1.245-.622-1.511.8-2.578.445-.178.978-.178 1.511-.089.623.267 1.067.711 1.423 1.244 1.422 2.223 2.756 4.534 3.467 7.024.089.266.178.533.267.8z"/><path d="m148.023 271.508c0-1.245-.533-2.401-.978-3.645-.8-2.223-1.778-4.446-2.845-6.579-.355-.711-.622-1.334-.622-2.134 0-.444.089-.889.356-1.244.355-.445.889-.712 1.511-.801.978.089 1.6.623 1.956 1.245.533.8.978 1.6 1.333 2.4 1.245 2.579 2.49 5.157 3.379 7.824.089.355.355.622.533.978.178-.089.267-.089.267-.178 1.156-1.778 2.4-3.556 3.289-5.423 1.689-3.201 3.912-6.223 6.223-9.068.267-.267.534-.534.712-.711.978-.356 1.778-.356 2.578-.089.711.444 1.156 1.067.889 2.044-.978 1.067-1.512 2.579-2.223 4.001-.711 1.6-1.689 3.201-2.489 4.801-.889 1.689-1.778 3.289-2.667 4.978-.267.445-.445.978-.356 1.512-.622.355-.8.978-.978 1.511-.622 1.334-1.066 2.756-1.689 4.09-.622 1.333-1.155 2.755-1.778 4.089-.178.445-.444.978-1.156 1.245-.533.177-1.155.089-1.689 0-1.155-.445-.978-1.512-1.511-2.134-.178-.978 0-1.956-.356-2.845-.444-.889 0-1.867-.622-2.756-.178-1.156-.356-2.222-1.067-3.111z"/><path d="m167.491 276.396c.267.177.445.266.534.355.266.356.533.711.8 1.067 0 .178 0 .356-.089.444-.178.356-.267.712-.534.978-2.044 2.045-4.178 4.09-6.756 5.779-.534.356-1.067.8-1.6 1.156-1.512 1.244-3.023 2.489-4.535 3.645-.355.267-.622.533-.977.711-.445.178-.978.356-1.334.533-.356-.088-.622-.088-.8-.177-.267-.089-.622-.267-.889-.445-.356-.622-.267-1.333-.089-2.045.356-.355.8-.8 1.334-1.244 2.044-1.689 4.089-3.379 6.223-5.068 1.689-1.422 3.378-2.756 5.067-4.178.622-.534 1.245-.978 1.778-1.423.622-.266 1.245-.177 1.867-.088z"/><path d="m139.663 271.506c-.088-.711-.266-1.422-.622-2.044-.533-.889-.889-1.867-1.333-2.756-.089-.178-.178-.445-.267-.623-.178-.622.444-1.333 1.156-1.511.533-.089 1.066-.089 1.6.089.622.267 1.067.8 1.422 1.422.623 1.156 1.334 2.312 1.956 3.556.356.623.711 1.334 1.067 1.956.444 1.956 1.156 3.823 1.689 5.69.356 1.334.445 2.578.445 3.823-.178.444-.445.711-.978.889-.534.178-1.156.178-1.867 0-.267-.178-.712-.534-1.067-.8-.711-1.512-.889-3.112-1.334-4.712-.444-1.511-.8-3.112-1.6-4.623-.089-.178-.178-.267-.267-.356z"/><path d="m141.442 284.575c-.178.356-.355.711-.533.978-.445.356-.889.533-1.423.711-.177 0-.355 0-.533-.089-.356-.266-.8-.533-1.067-.978-.444-.622-.8-1.333-1.067-1.956-.8-1.955-1.778-3.911-2.845-5.867-.711-1.245-.622-1.511.801-2.578.444-.178.978-.178 1.511-.089.622.267 1.067.711 1.422 1.244 1.423 2.223 2.756 4.534 3.468 7.024.088.266.177.533.266.8z"/></g><path d="m69.7891 165.892c-1.3336-7.824 8.0901-13.513 9.3347-14.047 6.3121-2.756 7.1122-.444 24.8922-11.557 7.113-4.445 10.669-2.667 15.114-8.001 3.823-4.534 11.735-8.802 11.379-17.425-.089-1.423.356-3.201-1.333-4.179.089-1.333.178-2.667.178-4-.267-13.2466 1.244-26.3153 4.711-39.0283 2.934-10.7572 3.468-21.5144 1.334-32.4494-1.245-6.2231-3.023-12.3574-4.178-18.5806-.712-3.9117-.889-7.91227-1.334-11.82397.178-.71122.356-1.42244.622-2.04475 1.512-3.289388 3.556-3.467193 5.957-.71122 1.422 1.68914 4.445 6.48987 5.156 6.75658.711.35561 1.423.62231 2.223.80012 5.512 1.33354 34.761-.88903 42.406 1.06684 2.134.5334 4.267.1778 6.401.2667 3.645.0889 5.512 1.8669 5.423 5.5119-.089 4.0895-.622 8.0901-1.956 12.0018-1.867 5.1564-4.623 8.0013-11.379 8.1791-5.423.0889-8.713 2.4003-11.469 6.4898-2.222 3.2894-4.267 6.5788-7.645 8.8014-.445.2667-.623.6223-.534.9779.356 2.9338 2.134 5.423 4.179 7.4678 7.912 7.8234 14.935 16.4469 20.447 26.1373 4.979 8.8013 6.49 18.492 5.957 28.449-.089 1.778.178 2.489 1.956 2.845 4.445.8 8.801 1.955 13.157 3.2 1.689.445 3.201 1.156 4.623 2.045 2.489 1.422 3.112 3.2 2.134 5.956-.267.889-1.334 1.867.355 2.49-.266.8-.533 1.689-.889 2.489-2.4 6.223-5.334 12.268-7.29 18.669-1.067 0-1.067.889-1.244 1.512-4.712 12.89-9.335 25.692-14.047 38.583-.711 1.867-2.045 3.023-3.645 4.001-1.511.8-2.934.444-3.912-.978-4.267-6.312-8.09-12.891-10.134-20.359-.978-3.556-.089-5.956 3.289-7.29 6.312-2.311 9.157-6.578 8.979-13.157-.089-1.689 1.334-3.912.267-4.979-.8-.711-3.201.267-4.89.534-4.356.711-8.712 1.511-13.068 2.222-1.245.178-2.134.711-3.023 1.689-8.179 8.891-16.447 17.692-24.626 26.493-.889.889-1.778 1.778-1.334 3.29-.8.533-1.6 1.066-2.311 1.689-8.713 7.645-16.98 15.913-24.982 24.27-.622-.356-.711-1.156-1.511-1.245-.178.178-.356.267-.445.534-3.022 8.09-7.201 15.736-9.868 24.004-.711 2.222-.355 4.356.534 6.845 1.778 5.245 2.667 10.757 2.4 16.358-.267 5.779.711 8.979 4.445 11.646 4.09 2.934 8.713 5.868 9.602 11.558-11.202-.356-22.3148-.445-33.5165.444.2667-2.4 1.3335-4.712 1.9559-7.023.7112-2.578 1.1557-5.157.0889-7.824-3.0227-7.912-5.8676-15.913-8.8014-23.914-.8001-2.223-.7112-4.623.1778-6.846 1.6892-4.178 3.0227-8.534 4.3562-12.891.3557-1.067.2668-2.222-.1778-3.2-2.3114-5.245-4.534-10.491-6.7565-15.647-.7113-1.6-1.1558-3.378-2.4004-4.712-1.778-10.846-3.5561-21.603-5.3341-32.36zm131.3089-33.161c2.4 0 3.823-.978 4.089-2.845.267-2.044-.8-3.378-2.667-4.089-1.422-.445-2.934-.623-4.267-1.156-3.467-1.422-7.023-2.756-10.668-3.556-1.156-.267-1.778-.8-2.045-1.956-1.511-6.134-3.112-12.179-5.068-18.136-1.244-3.8228-2.133-7.7345-4.711-10.9349-1.067-1.3336-2.49-1.7781-3.912-.978-1.334.8002-1.245 2.2226-.8 3.5561.711 2.0448 1.6 4.0006 2.045 6.0454 1.778 8.1794 4.178 16.1804 6.312 24.1814.622 2.4 2.044 3.645 4.178 4.445 2.045.711 4.09 1.156 6.134 1.867 3.734 1.334 7.201 3.467 11.38 3.556zm-45.074-101.7041c5.334-.2667 9.957-2.5782 13.78-6.6677.978-1.0668 1.156-2.1336 0-3.2893-2.578-2.6671-10.668-4.4452-13.957-2.9338-3.112 1.4224-5.512 3.7339-7.557 6.4009-2.045 2.5782-1.334 4.5341 1.867 5.512 1.778.5334 3.645.889 5.867.9779z" fill="#f6c168"/><path d="m163.581 281.108c-11.113-.623-22.137-1.245-33.25-1.779-.267-.355-.533-.711-.8-1.155-4.356-8.535-8.801-17.07-13.958-25.249-1.956-3.111-2.667-6.489-2.578-10.045.178-9.424.622-18.848 1.334-28.36.177-2.223.089-3.023-1.423-4.89 8.535-8.446 17.514-18.047 26.849-25.782.8-.622 1.6-1.155 2.4-1.778 2.134 5.334 4.267 10.669 6.401 15.914.267.8.622 1.511 1.067 2.222.978 1.69.978 3.379-.089 4.89-7.112 10.49-11.824 22.226-17.958 33.161-.445.889-.356 1.511.089 2.311 4.534 8.179 8.979 16.358 13.513 24.537.622 1.067 1.422 1.6 2.667 2.045 2.489.8 4.889 1.689 7.29 2.578.622.267 1.422.622 1.778 1.067 2.222 3.023 4.445 6.134 6.579 9.335.177.177.089.622.089.978z" fill="#431a18"/><path d="m129.797 111.75c-3.822.711-8.623-.622-12.446 0-.889.178-5.334.445-6.223 0 3.556-3.556 8.09-8.89 8.357-13.1573.533-10.8461-12.535-7.9123-14.58-8.179 12.446-11.5573 2.667-17.7805-8.8904-16.8914-4.0895 1.5113 16.8914-16.9804 12.8904-15.469.089-1.0669-16.891 1.8669-15.2908 1.3335 2.4893-.889 20.1808-17.8694 21.6918-22.4923.712-2.0447.889-4.1784 1.423-6.2231 2.133-6.9344 1.333-13.2465 7.823-17.5138.711-.4445 5.068-6.40097 5.423-8.35682.445 3.9117.623 7.91232 1.334 11.82402 1.156 6.2232 2.934 12.3574 4.178 18.5806 2.134 10.935 1.6 21.6032-1.333 32.4493-3.468 12.713-4.89 25.7817-4.712 39.0283 0 1.333.444 3.734.355 5.067z" fill="#431a18"/><path d="m73.701 158.957c1.6002 9.957 3.2005 41.251 2.3114 45.874-1.0668 5.423-3.2005 10.402-6.8454 14.669-4.7119 5.601-10.4016 10.135-16.447 14.224-3.2005 2.134-25.9595 9.602-34.8497 12.269-5.7786.889 10.6683-17.781-17.7804562-15.114 26.6706562-29.337 45.9624562-36.894 51.9189562-40.006 4.2673-2.222 5.6897-6.312 5.9565-10.757.4445-5.779 2.1336-11.202 5.1563-16.091 2.0447-3.201 4.8007-5.423 8.179-6.579 1.0668-.267 2.2226.356 2.4004 1.511zm-4.3562 17.959c.0889-1.778 0-3.468-.7113-5.068-.3556-.711-.8001-1.511-1.778-1.511-.889 0-1.3335.533-1.6892 1.244-.3556.712-.6223 1.512-.8001 2.312-.889 4.089-1.1557 8.179-2.1336 12.268-1.867 7.557-5.1564 14.136-11.6462 18.848-.6223.444-1.1558.978-1.6003 1.511-.9779 1.067-1.3335 2.4-.4445 3.645.889 1.334 2.1337 1.511 3.5561 1.067.8001-.267 1.5113-.622 2.2226-1.067 4.8007-3.111 8.3568-7.29 10.6682-12.446 3.0227-6.668 4.1785-13.691 4.3563-20.803zm-14.4022 46.496c1.5113 0 2.6671-.801 3.5561-1.956 1.3335-1.778 2.5781-3.556 3.8228-5.423.8001-1.156 1.5113-2.401 1.6891-3.823.0889-1.156-.2667-2.223-1.4224-2.756-1.1557-.622-2.2226-.267-2.9338.711-2.4004 3.023-4.8896 6.045-7.1122 9.335-1.4224 1.956-.0889 4 2.4004 3.912z" fill="#431a18"/><path d="m208.836 151.756c1.956-6.401 4.978-12.357 7.29-18.669.356-.8.622-1.689.889-2.489 2.045 0 4.178 0 6.223.089 3.29.177 4.712 1.511 4.801 4.8.089 2.845-.089 5.779-.089 8.624-.089 11.468-.089 22.937-.178 34.405 0 .8 0 1.689-.267 2.4-.711 1.956-2.844 2.579-4.178.978-3.467-3.911-7.379-7.467-11.202-11.024-1.333-1.333-1.333-2.933-.355-4.267 2.222-3.111 1.511-5.956-.089-9.068-1.156-1.689-2.312-3.645-2.845-5.779z" fill="#431a18"/><path d="m201.097 132.73c-4.089-.089-7.646-2.222-11.379-3.467-2.045-.711-4.09-1.245-6.135-1.867-2.133-.711-3.556-2.045-4.178-4.445-2.134-8.09-4.534-16.091-6.312-24.1815-.445-2.1337-1.334-4.0895-2.045-6.0454-.533-1.3335-.533-2.756.8-3.5561 1.423-.8001 2.845-.3556 3.912.9779 2.489 3.2005 3.467 7.1122 4.712 10.9351 1.956 5.956 3.556 12.002 5.067 18.136.267 1.156.889 1.778 2.045 1.956 3.645.8 7.201 2.222 10.668 3.556 1.334.533 2.845.622 4.268 1.156 1.866.622 2.933 2.044 2.667 4.089-.267 1.778-1.778 2.756-4.09 2.756z" fill="#efde9e"/><path d="m94.5039 216.209c.9779-3.912 11.1131-42.851 12.6241-42.585 1.6.267 2.489 1.778 2.134 3.823-1.956 10.757-3.645 21.515-6.757 32.005-.8 2.578-1.067 5.334-2.045 7.912-.622 1.689-1.7777 2.579-3.5557 2.312-1.9559-.267-2.4004-1.689-2.4004-3.467z" fill="#efde9e"/><path d="m156.022 31.0263c-2.223-.0889-4.089-.4446-5.956-1.0669-3.112-1.0668-3.823-2.9337-1.867-5.5119 2.044-2.6671 4.445-4.9785 7.556-6.401 3.379-1.5113 11.38.2667 13.958 2.9338 1.156 1.1557.978 2.3115 0 3.2894-3.734 4.1784-8.357 6.4898-13.691 6.7566zm4.89-3.645c2.489 0 3.911-1.6003 4-4.3563.089-2.0447-1.333-3.556-3.378-3.556-2.045-.0889-3.645 1.9558-3.645 4.7118-.089 2.0447 1.067 3.2005 3.023 3.2005z" fill="#fff"/><path d="m69.3437 176.916c-.1778 7.112-1.4225 14.224-4.3562 20.803-2.3115 5.156-5.9565 9.335-10.6683 12.446-.7112.445-1.4225.8-2.2226 1.067-1.4224.444-2.6671.178-3.5561-1.067-.889-1.333-.5334-2.578.4445-3.645.4445-.533.978-1.067 1.6003-1.511 6.4898-4.712 9.7792-11.291 11.6462-18.848.889-3.467 1.1557-7.023 1.778-10.49.2667-1.334.4445-2.578 1.0669-3.823.3556-.711.8001-1.422 1.778-1.422s1.4224.8 1.778 1.511c.8002 1.423.8891 3.112.7113 4.979z" fill="#4f3434"/><path d="m127.218 58.1417c-2.311 5.1563-15.558 13.6909-16.447 12.3574s11.824-10.7572 13.691-18.3139c.889-3.4672 1.156-12.713 1.778-16.1802.267-1.3335 1.956-5.2452 2.845-5.2452.978 0 1.156 20.7142-1.867 27.3819z" fill="#4f3434"/><path d="m54.9456 223.412c-2.4893.089-3.8228-1.955-2.4893-4 2.2226-3.201 4.7118-6.223 7.1122-9.335.7112-.978 1.778-1.245 2.9338-.711 1.1557.622 1.5113 1.6 1.4224 2.756-.1778 1.422-.889 2.667-1.6891 3.823-1.2447 1.867-2.4893 3.645-3.8228 5.423-.8002 1.244-1.9559 2.044-3.4672 2.044z" fill="#4f3434"/><path d="m160.912 27.3819c-2.044 0-3.111-1.1557-3.111-3.2005 0-2.756 1.6-4.8007 3.645-4.7118s3.467 1.5113 3.378 3.5561c0 2.8449-1.422 4.3562-3.912 4.3562z" fill="#431a18"/><path d="m135.486 272.308c0-.889-.356-1.689-.712-2.489-.533-1.6-1.244-3.111-2.044-4.534-.267-.444-.445-.978-.445-1.511 0-.267 0-.623.267-.889.267-.267.622-.534 1.067-.534.622.089 1.067.445 1.422.889.356.534.711 1.067.978 1.689.889 1.779 1.778 3.557 2.312 5.424.088.266.266.444.355.711.089-.089.178-.089.178-.089.8-1.245 1.689-2.489 2.311-3.823 1.156-2.223 2.667-4.356 4.357-6.401.177-.178.355-.356.444-.444.711-.267 1.245-.267 1.778-.089.534.355.8.8.622 1.422-.711.8-1.066 1.778-1.511 2.756-.533 1.156-1.156 2.223-1.778 3.378-.622 1.156-1.245 2.312-1.867 3.468-.178.355-.267.622-.267 1.066-.444.267-.533.623-.711 1.067-.444.978-.8 1.956-1.156 2.845-.444.978-.8 1.867-1.244 2.845-.178.356-.356.622-.8.889-.356.089-.8.089-1.156 0-.8-.267-.711-1.067-1.067-1.511-.178-.712 0-1.334-.267-2.045-.266-.622 0-1.334-.444-1.956 0-.711-.178-1.422-.622-2.134z" fill="#bbcb7d"/><path d="m149.089 275.775c.177.089.355.178.355.267.178.267.356.533.534.8 0 .178 0 .267-.089.356-.089.266-.178.533-.356.711-1.422 1.422-2.934 2.845-4.712 4-.355.267-.711.534-1.067.801-1.066.889-2.133 1.689-3.111 2.578-.178.178-.445.355-.711.444-.356.178-.623.267-.978.356-.267-.089-.445-.089-.623-.178-.177-.089-.444-.178-.622-.267-.267-.444-.178-.889-.089-1.422.267-.267.534-.533.889-.889 1.423-1.156 2.845-2.4 4.356-3.556 1.156-.978 2.312-1.956 3.556-2.934.445-.356.89-.711 1.245-.978.534-.178.978-.178 1.423-.089z" fill="#bbcb7d"/><path d="m129.618 272.307c-.089-.533-.178-.978-.445-1.422-.355-.622-.622-1.334-.978-1.956-.089-.178-.089-.267-.177-.444-.089-.445.266-.978.8-1.067.355-.089.711-.089 1.155.089.445.177.8.533.978.978.445.8.889 1.6 1.334 2.489.267.444.533.889.711 1.333.356 1.334.8 2.667 1.156 4.001.266.889.355 1.778.266 2.667-.177.356-.355.533-.622.622-.355.089-.8.089-1.333 0-.178-.177-.445-.355-.712-.533-.533-1.067-.622-2.223-.889-3.289-.266-1.067-.533-2.134-1.155-3.201.089-.089 0-.178-.089-.267z" fill="#bbcb7d"/><path d="m130.864 281.466c-.178.267-.267.445-.355.712-.267.266-.623.355-.978.444-.089 0-.267 0-.356-.089-.267-.178-.533-.355-.711-.622-.267-.445-.534-.889-.8-1.334-.534-1.422-1.245-2.756-1.956-4.089-.445-.889-.445-1.067.533-1.867.356-.178.711-.089 1.067-.089.445.178.8.445.978.889.978 1.6 1.867 3.2 2.4 4.89.089.177.089.355.178.622z" fill="#bbcb7d"/><path d="m151.396 271.951c0-.889-.356-1.689-.711-2.489-.534-1.601-1.245-3.112-2.045-4.534-.267-.445-.445-.978-.445-1.512 0-.266 0-.622.267-.889.267-.266.622-.533 1.067-.533.622.089 1.067.444 1.422.889.356.533.711 1.067.978 1.689.889 1.778 1.778 3.556 2.312 5.423.089.267.266.445.355.711.089-.089.178-.089.178-.089.8-1.244 1.689-2.489 2.312-3.822 1.155-2.223 2.667-4.357 4.356-6.401.178-.178.355-.356.444-.445.711-.267 1.245-.267 1.778-.089.534.356.8.8.623 1.423-.712.8-1.067 1.778-1.512 2.756-.533 1.155-1.155 2.222-1.778 3.378-.622 1.156-1.244 2.311-1.867 3.467-.178.356-.266.622-.266 1.067-.445.267-.534.622-.712 1.067-.444.978-.8 1.956-1.155 2.845-.445.978-.8 1.867-1.245 2.845-.178.355-.356.622-.8.889-.356.088-.8.088-1.156 0-.8-.267-.711-1.067-1.067-1.512-.177-.711 0-1.333-.266-2.045-.267-.622 0-1.333-.445-1.955 0-.712-.089-1.423-.622-2.134z" fill="#bbcb7d"/><path d="m164.999 275.419c.178.089.355.178.355.266l.534.801c0 .177 0 .266-.089.355-.089.267-.178.534-.356.711-1.422 1.423-2.934 2.845-4.712 4.001-.355.267-.711.533-1.066.8-1.067.889-2.134 1.689-3.112 2.578-.178.178-.445.356-.711.445-.356.178-.623.266-.978.355-.267-.089-.445-.089-.622-.177-.178-.089-.445-.178-.623-.267-.266-.445-.178-.889-.089-1.423.267-.266.534-.533.889-.889 1.423-1.155 2.845-2.4 4.357-3.556 1.155-.978 2.311-1.956 3.556-2.933.444-.356.889-.712 1.244-.978.534-.178.978-.089 1.423-.089z" fill="#bbcb7d"/><path d="m145.528 271.95c-.089-.533-.178-.978-.445-1.422-.355-.623-.622-1.334-.978-1.956-.088-.178-.088-.267-.177-.445-.089-.444.266-.978.8-1.067.355-.089.711-.089 1.156.089.444.178.8.534.977.978.445.8.889 1.6 1.334 2.489.267.445.533.889.711 1.334.356 1.334.8 2.667 1.156 4.001.267.889.356 1.778.267 2.667-.178.355-.356.533-.623.622-.355.089-.8.089-1.333 0-.178-.178-.445-.356-.711-.533-.534-1.067-.623-2.223-.889-3.29-.267-1.067-.534-2.133-1.156-3.2.089-.089 0-.178-.089-.267z" fill="#bbcb7d"/><path d="m146.774 281.109c-.178.267-.266.444-.355.711-.267.267-.623.356-.978.445-.089 0-.267 0-.356-.089-.267-.178-.533-.356-.711-.623-.267-.444-.533-.889-.8-1.333-.534-1.422-1.245-2.756-1.956-4.09-.445-.889-.445-1.066.533-1.867.356-.177.712-.088 1.067-.088.445.177.8.444.978.889.978 1.6 1.867 3.2 2.4 4.889.089.178.089.356.178.623.089.177 0 .355 0 .533z" fill="#bbcb7d"/><path d="m53.3372 270.62c0-.889-.3556-1.689-.7112-2.489-.5334-1.601-1.2446-3.112-2.0448-4.534-.2667-.445-.4445-.978-.4445-1.512 0-.266 0-.622.2667-.889.2667-.266.6223-.533 1.0669-.533.6223.089 1.0668.444 1.4224.889.3556.533.7112 1.067.9779 1.689.889 1.778 1.7781 3.556 2.3115 5.423.0889.267.2667.445.3556.711.0889-.089.1778-.089.1778-.089.8001-1.244 1.6891-2.489 2.3115-3.822 1.1557-2.223 2.667-4.357 4.3562-6.313.1778-.177.3556-.355.4445-.444.7112-.267 1.2446-.267 1.778-.089.5334.356.8001.8.6223 1.422-.7112.801-1.0668 1.779-1.5113 2.756-.5334 1.156-1.1557 2.223-1.778 3.379-.6224 1.155-1.2447 2.311-1.867 3.467-.1778.356-.2667.622-.2667 1.067-.4445.266-.5334.622-.7112 1.067-.4445.978-.8001 1.955-1.1558 2.844-.4445.978-.8001 1.867-1.2446 2.845-.1778.356-.3556.623-.8001.889-.3556.089-.8001.089-1.1557 0-.8002-.266-.7113-1.066-1.0669-1.511-.1778-.711 0-1.333-.2667-2.045-.2667-.622 0-1.333-.4445-1.956 0-.8-.1778-1.511-.6223-2.222z" fill="#bbcb7d"/><path d="m66.9401 274.088c.1778.089.3556.178.3556.266l.5334.801c0 .177 0 .266-.0889.355-.0889.267-.1778.534-.3556.711-1.4224 1.423-2.9338 2.845-4.7118 4.001-.3556.267-.7112.533-1.0668.8-1.0669.889-2.1337 1.689-3.1116 2.578-.1778.178-.4445.356-.7112.445-.3556.178-.6223.266-.9779.355-.2668-.089-.4446-.089-.6224-.177-.1778-.089-.4445-.178-.6223-.267-.2667-.445-.1778-.889-.0889-1.423.2667-.266.5334-.533.889-.889 1.4225-1.155 2.8449-2.4 4.3563-3.556 1.1557-.978 2.3114-1.956 3.556-2.933.4446-.356.8891-.712 1.2447-.978.5334-.178.9779-.178 1.4224-.089z" fill="#bbcb7d"/><path d="m47.4693 270.622c-.0889-.534-.1778-.978-.4445-1.423-.3556-.622-.6223-1.333-.9779-1.955-.0889-.178-.0889-.267-.1778-.445-.0889-.444.2667-.978.8001-1.067.3556-.089.7112-.089 1.1557.089s.8002.534.978.978c.4445.8.889 1.6 1.3335 2.489.2667.445.5334.889.7112 1.334.3556 1.333.8001 2.667 1.1557 4 .2668.889.3557 1.779.2668 2.668-.1779.355-.3557.533-.6224.622-.3556.089-.8001.089-1.3335 0-.1778-.178-.4445-.356-.7112-.534-.5334-1.066-.6223-2.222-.889-3.289s-.5335-2.134-1.1558-3.2c.0889-.089 0-.178-.0889-.267z" fill="#bbcb7d"/><path d="m48.7157 279.777c-.1778.267-.2667.444-.3556.711-.2667.267-.6223.356-.9779.445-.0889 0-.2667 0-.3556-.089-.2668-.178-.5335-.356-.7113-.623-.2667-.444-.5334-.889-.8001-1.333-.5334-1.423-1.2446-2.756-1.9558-4.09-.4445-.889-.4446-1.066.5334-1.867.3556-.177.7112-.088 1.0668-.088.4445.177.8001.444.9779.889.978 1.6 1.867 3.2 2.4004 4.889.0889.178.0889.356.1778.623z" fill="#bbcb7d"/><path d="m106.24 271.953c0-.889-.356-1.689-.712-2.489-.533-1.601-1.244-3.112-2.044-4.534-.267-.445-.445-.978-.445-1.512 0-.266 0-.622.267-.889.266-.266.622-.533 1.067-.533.622.089 1.066.444 1.422.889.356.533.711 1.067.978 1.689.889 1.778 1.778 3.556 2.311 5.423.089.267.267.445.356.711.089-.089.178-.089.178-.089.8-1.244 1.689-2.489 2.311-3.822 1.156-2.223 2.667-4.357 4.357-6.401.177-.178.355-.356.444-.445.711-.267 1.245-.267 1.778-.089.533.356.8.8.622 1.423-.711.8-1.066 1.778-1.511 2.756-.533 1.155-1.156 2.222-1.778 3.378s-1.245 2.311-1.867 3.467c-.178.356-.267.622-.267 1.067-.444.267-.533.622-.711 1.067-.444.978-.8 1.956-1.156 2.845-.444.978-.8 1.867-1.244 2.845-.178.355-.356.622-.8.889-.356.088-.8.088-1.156 0-.8-.267-.711-1.067-1.067-1.512-.178-.711 0-1.333-.267-2.045-.266-.622 0-1.333-.444-1.955 0-.712-.178-1.423-.622-2.134z" fill="#bbcb7d"/><path d="m119.842 275.421c.178.089.356.177.356.266.178.267.356.534.533.8 0 .178 0 .267-.088.356-.089.267-.178.534-.356.711-1.422 1.423-2.934 2.845-4.712 4.001-.355.267-.711.533-1.067.8-1.067.889-2.133 1.689-3.111 2.578-.178.178-.445.356-.711.445-.356.178-.623.266-.978.355-.267-.089-.445-.089-.623-.177-.178-.089-.444-.178-.622-.267-.267-.445-.178-.889-.089-1.423.267-.266.533-.533.889-.889 1.423-1.155 2.845-2.4 4.356-3.556 1.156-.978 2.312-1.956 3.556-2.934.445-.355.889-.711 1.245-.977.533-.178.978-.089 1.422-.089z" fill="#bbcb7d"/><path d="m100.372 271.952c-.089-.533-.178-.978-.4448-1.423-.3556-.622-.6224-1.333-.978-1.955-.0889-.178-.0889-.267-.1778-.445-.0889-.444.2667-.978.8001-1.067.3557-.089.7115-.089 1.1555.089.445.178.8.534.978.978.445.8.889 1.6 1.334 2.489.266.445.533.889.711 1.334.356 1.333.8 2.667 1.156 4.001.266.889.355 1.778.266 2.667-.177.355-.355.533-.622.622-.356.089-.8.089-1.333 0-.178-.178-.445-.356-.712-.533-.533-1.067-.622-2.223-.889-3.29-.266-1.067-.533-2.134-1.155-3.2.088-.089 0-.178-.089-.267z" fill="#bbcb7d"/><path d="m101.618 281.111c-.178.267-.267.444-.356.711-.266.267-.622.356-.977.445-.089 0-.267 0-.3561-.089-.2667-.178-.5334-.356-.7112-.623-.2667-.444-.5334-.889-.8001-1.333-.5335-1.423-1.2447-2.756-1.9559-4.09-.4445-.889-.4445-1.066.5334-1.867.3556-.177.7112-.088 1.0669-.088.4445.177.8001.444.9779.889.9781 1.6 1.8671 3.2 2.4001 4.889.089.178.089.356.178.622z" fill="#bbcb7d"/></g></svg>