<svg width="556" height="256" viewBox="0 0 556 256" fill="none" xmlns="http://www.w3.org/2000/svg">
<g clip-path="url(#clip0)">
<path d="M470.978 55.8926C467.542 55.6836 465.824 54.4291 464.635 52.1816C446.794 19.3575 390.103 0.384289 341.274 25.4205C340.481 25.8387 336.319 30.1768 331.958 24.7411C323.963 17.5281 315.176 11.0992 304.471 6.44734C303.017 5.97694 301.564 5.50653 300.177 5.08838C277.646 0.175218 256.237 1.11603 236.481 12.4059C229.874 16.1692 225.513 21.4481 219.698 26.3613C209.919 14.0785 197.233 5.19291 178.733 1.79551C151.576 -3.11764 128.648 1.90005 110.477 18.7303C107.504 21.5004 102.813 22.7026 98.4522 21.7618C79.291 17.6849 62.178 21.2914 48.5662 32.738C35.2192 43.9756 31.5852 57.5652 37.7301 72.1479C39.7784 77.0088 37.7962 78.629 33.237 80.9811C-8.58787 103.195 -8.38967 149.452 33.6995 171.823C37.664 173.913 37.5319 175.534 35.8799 178.513C32.2459 185.046 30.8584 191.893 32.1137 199.054C38.8533 223.933 106.729 230.607 136 228.308C202.075 223.08 236.075 253.918 262 255C287.925 256.082 298.273 242.111 331.958 234C365.661 225.885 408.392 248.325 454.393 211.703C455.252 205.744 457.631 203.288 464.899 201.458C503.487 191.684 521.392 158.546 505.006 128.283C503.487 125.513 500.249 122.691 505.403 120.6C506.459 119.816 507.98 118.614 509.036 117.829C523.506 97.7068 522.185 80.8243 505.271 67.0779C500.315 63.001 476.726 56.2062 470.978 55.8926Z" fill="#F5ACB9"/>
<path d="M508.666 161.417C508.404 161.054 508.329 160.722 508.4 160.285L509.042 156.286C509.714 152.1 511.308 148.96 513.843 146.739C516.379 144.519 519.871 142.324 524.321 140.154C527.931 138.427 530.689 136.819 532.532 135.32C534.374 133.822 535.528 131.828 535.929 129.329C536.36 126.643 535.702 124.358 533.963 122.412C532.225 120.467 529.731 119.234 526.483 118.712C522.984 118.15 520.032 118.573 517.627 119.982C515.222 121.39 513.799 123.468 513.357 126.217L513.036 128.217C512.886 129.154 512.316 129.511 511.316 129.35L496.797 126.378C496.36 126.308 496.067 126.133 495.805 125.77C495.543 125.408 495.468 125.075 495.538 124.638L495.739 123.388C496.542 118.39 498.503 114.155 501.624 110.683C504.745 107.21 508.726 104.773 513.503 103.361C518.279 101.95 523.635 101.72 529.446 102.653C535.131 103.566 539.906 105.358 543.886 108.112C547.866 110.866 550.726 114.209 552.445 118.267C554.165 122.324 554.67 126.763 553.897 131.573C553.306 135.26 552.179 138.283 550.446 140.696C548.713 143.11 546.81 144.983 544.727 146.379C542.644 147.775 539.979 149.206 536.847 150.753C533.517 152.334 531.039 153.794 529.361 155.063C527.684 156.332 526.706 158.033 526.354 160.22L525.893 163.094C525.823 163.531 525.648 163.823 525.285 164.085C524.923 164.348 524.59 164.422 524.153 164.352L509.658 162.025C509.221 161.955 508.866 161.769 508.666 161.417ZM505.303 187.153C503.73 184.977 503.174 182.453 503.625 179.641C504.077 176.83 505.395 174.606 507.498 173.085C509.6 171.565 512.125 171.009 515.061 171.48C517.998 171.952 520.169 173.197 521.69 175.3C523.211 177.403 523.714 179.855 523.243 182.791C522.791 185.603 521.473 187.826 519.36 189.41C517.247 190.993 514.723 191.549 511.911 191.098C509.037 190.636 506.876 189.328 505.303 187.153Z" fill="black" stroke="black" stroke-width="3.06234"/>
<path d="M505.961 158.911C505.699 158.549 505.624 158.216 505.695 157.779L506.337 153.781C507.009 149.595 508.603 146.454 511.138 144.233C513.674 142.013 517.166 139.818 521.616 137.649C525.226 135.921 527.984 134.313 529.826 132.815C531.669 131.316 532.823 129.322 533.224 126.823C533.655 124.137 532.997 121.852 531.258 119.907C529.52 117.961 527.026 116.728 523.778 116.206C520.279 115.644 517.327 116.068 514.922 117.476C512.517 118.884 511.094 120.963 510.652 123.712L510.331 125.711C510.181 126.648 509.611 127.005 508.611 126.845L494.092 123.872C493.655 123.802 493.362 123.627 493.1 123.264C492.838 122.902 492.763 122.569 492.833 122.132L493.034 120.883C493.836 115.885 495.798 111.649 498.919 108.177C502.04 104.705 506.021 102.268 510.797 100.856C515.574 99.4439 520.93 99.2145 526.741 100.147C532.426 101.06 537.201 102.853 541.181 105.606C545.161 108.36 548.021 111.704 549.74 115.761C551.46 119.818 551.965 124.257 551.192 129.068C550.6 132.754 549.474 135.777 547.741 138.191C546.007 140.604 544.104 142.477 542.022 143.873C539.939 145.269 537.274 146.7 534.142 148.248C530.812 149.828 528.334 151.289 526.656 152.557C524.979 153.826 524 155.527 523.649 157.714L523.188 160.588C523.118 161.025 522.943 161.318 522.58 161.58C522.217 161.842 521.885 161.917 521.448 161.847L506.953 159.519C506.516 159.449 506.161 159.264 505.961 158.911ZM502.598 184.647C501.025 182.472 500.469 179.947 500.92 177.136C501.371 174.324 502.69 172.101 504.793 170.58C506.895 169.059 509.42 168.503 512.356 168.974C515.293 169.446 517.464 170.692 518.985 172.795C520.506 174.897 521.009 177.349 520.538 180.286C520.086 183.097 518.768 185.321 516.655 186.904C514.542 188.488 512.018 189.043 509.206 188.592C506.332 188.131 504.171 186.822 502.598 184.647Z" fill="white" stroke="black" stroke-width="3.06234"/>
<path d="M477.401 155.88C481.716 157.78 485.078 160.377 487.489 163.671C489.9 166.965 491.106 170.639 491.106 174.693V217.641C491.106 218.085 490.979 218.402 490.662 218.718C490.344 219.035 490.027 219.162 489.583 219.162H474.736C474.292 219.162 473.975 219.035 473.658 218.718C473.341 218.402 473.214 218.085 473.214 217.641V213.461C473.214 213.207 473.15 213.017 472.96 212.954C472.77 212.891 472.643 212.954 472.452 213.207C468.899 217.832 463.189 220.175 455.322 220.175C448.723 220.175 443.394 218.592 439.333 215.361C435.272 212.13 433.242 207.443 433.242 201.172C433.242 194.647 435.526 189.643 440.094 186.032C444.663 182.422 451.198 180.648 459.636 180.648H472.579C473.023 180.648 473.214 180.458 473.214 180.014V177.227C473.214 174.44 472.389 172.286 470.676 170.703C468.963 169.119 466.425 168.359 463.062 168.359C460.461 168.359 458.24 168.802 456.527 169.752C454.814 170.703 453.672 171.97 453.165 173.68C452.911 174.63 452.34 175.01 451.515 174.947L436.161 172.92C435.146 172.73 434.701 172.35 434.765 171.779C435.082 168.232 436.541 165.002 439.016 162.151C441.49 159.3 444.79 157.02 448.914 155.436C453.038 153.853 457.606 153.029 462.682 153.029C468.201 153.029 473.087 153.979 477.401 155.88ZM469.407 203.959C471.945 201.995 473.214 199.525 473.214 196.484V191.923C473.214 191.48 473.023 191.29 472.579 191.29H463.443C459.636 191.29 456.654 191.987 454.497 193.444C452.34 194.901 451.261 196.928 451.261 199.525C451.261 201.805 452.086 203.579 453.672 204.909C455.258 206.239 457.415 206.873 460.144 206.873C463.76 206.873 466.869 205.923 469.407 203.959Z" fill="black" stroke="black" stroke-width="2.78428"/>
<path d="M474.612 153.095C478.927 154.996 482.289 157.593 484.7 160.887C487.111 164.181 488.317 167.855 488.317 171.909V214.857C488.317 215.3 488.19 215.617 487.873 215.934C487.555 216.251 487.238 216.377 486.794 216.377H471.947C471.503 216.377 471.186 216.251 470.869 215.934C470.552 215.617 470.425 215.3 470.425 214.857V210.676C470.425 210.423 470.361 210.233 470.171 210.17C469.981 210.106 469.854 210.17 469.663 210.423C466.11 215.047 460.4 217.391 452.533 217.391C445.934 217.391 440.605 215.807 436.544 212.577C432.483 209.346 430.453 204.658 430.453 198.387C430.453 191.863 432.737 186.858 437.305 183.248C441.874 179.637 448.409 177.863 456.847 177.863H469.79C470.234 177.863 470.425 177.673 470.425 177.23V174.443C470.425 171.656 469.6 169.502 467.887 167.918C466.174 166.335 463.636 165.574 460.273 165.574C457.672 165.574 455.451 166.018 453.738 166.968C452.025 167.918 450.883 169.185 450.375 170.895C450.122 171.846 449.551 172.226 448.726 172.162L433.372 170.135C432.357 169.945 431.912 169.565 431.976 168.995C432.293 165.448 433.752 162.217 436.227 159.367C438.701 156.516 442 154.236 446.125 152.652C450.249 151.068 454.817 150.245 459.892 150.245C465.412 150.245 470.298 151.195 474.612 153.095ZM466.618 201.174C469.156 199.211 470.425 196.74 470.425 193.7V189.139C470.425 188.695 470.234 188.505 469.79 188.505H460.654C456.847 188.505 453.865 189.202 451.708 190.659C449.551 192.116 448.472 194.143 448.472 196.74C448.472 199.021 449.297 200.794 450.883 202.125C452.469 203.455 454.626 204.088 457.355 204.088C460.971 204.088 464.08 203.138 466.618 201.174Z" fill="white" stroke="black" stroke-width="2.78428"/>
<path d="M432.069 143.488C432.702 143.776 432.932 144.351 432.759 145.214L430.343 158.331C430.286 159.252 429.71 159.539 428.732 159.137C427.582 158.734 426.258 158.561 424.705 158.561C424.072 158.561 423.267 158.619 422.174 158.792C419.412 159.022 417.054 160.057 415.155 161.841C413.256 163.624 412.278 166.04 412.278 169.032V200.444C412.278 200.847 412.163 201.134 411.876 201.422C411.588 201.71 411.3 201.825 410.898 201.825H397.435C397.033 201.825 396.745 201.71 396.457 201.422C396.17 201.134 396.055 200.847 396.055 200.444V144.064C396.055 143.661 396.17 143.373 396.457 143.086C396.745 142.798 397.033 142.683 397.435 142.683H410.898C411.3 142.683 411.588 142.798 411.876 143.086C412.163 143.373 412.278 143.661 412.278 144.064V148.436C412.278 148.666 412.336 148.839 412.509 148.896C412.681 148.954 412.796 148.954 412.854 148.781C416.018 144.179 420.218 141.877 425.511 141.877C428.272 141.877 430.458 142.395 432.069 143.488Z" fill="black" stroke="black" stroke-width="2.78428"/>
<path d="M429.28 141.629C429.913 141.917 430.143 142.492 429.97 143.355L427.554 156.472C427.497 157.392 426.921 157.68 425.943 157.277C424.793 156.875 423.469 156.702 421.916 156.702C421.283 156.702 420.478 156.76 419.385 156.932C416.623 157.162 414.264 158.198 412.366 159.981C410.467 161.765 409.489 164.181 409.489 167.173V198.585C409.489 198.987 409.374 199.275 409.087 199.563C408.799 199.85 408.511 199.965 408.109 199.965H394.646C394.244 199.965 393.956 199.85 393.668 199.563C393.381 199.275 393.266 198.987 393.266 198.585V142.204C393.266 141.802 393.381 141.514 393.668 141.226C393.956 140.939 394.244 140.824 394.646 140.824H408.109C408.511 140.824 408.799 140.939 409.087 141.226C409.374 141.514 409.489 141.802 409.489 142.204V146.577C409.489 146.807 409.547 146.979 409.719 147.037C409.892 147.094 410.007 147.094 410.065 146.922C413.229 142.319 417.429 140.018 422.721 140.018C425.483 140.018 427.669 140.536 429.28 141.629Z" fill="white" stroke="black" stroke-width="2.78428"/>
<path d="M343.88 203.376C339.277 199.982 336.113 195.379 334.445 189.569C333.352 185.944 332.834 182.032 332.834 177.832C332.834 173.287 333.352 169.26 334.445 165.636C336.228 159.94 339.392 155.51 343.995 152.288C348.597 149.067 354.12 147.456 360.564 147.456C366.835 147.456 372.243 149.067 376.673 152.231C381.103 155.395 384.267 159.825 386.108 165.521C387.316 169.375 387.949 173.402 387.949 177.602C387.949 181.744 387.431 185.599 386.338 189.223C384.669 195.207 381.505 199.924 376.96 203.318C372.415 206.713 366.892 208.439 360.449 208.439C354.005 208.439 348.482 206.77 343.88 203.376ZM366.892 192.215C368.676 190.662 369.941 188.59 370.689 185.887C371.322 183.413 371.61 180.766 371.61 177.832C371.61 174.61 371.322 171.906 370.689 169.663C369.826 167.074 368.561 165.003 366.777 163.564C364.994 162.126 362.865 161.378 360.334 161.378C357.745 161.378 355.559 162.126 353.833 163.564C352.107 165.003 350.841 167.074 350.093 169.663C349.46 171.504 349.173 174.208 349.173 177.832C349.173 181.284 349.46 183.988 349.978 185.887C350.726 188.59 352.049 190.662 353.833 192.215C355.616 193.768 357.86 194.516 360.449 194.516C362.98 194.516 365.109 193.768 366.892 192.215Z" fill="black" stroke="black" stroke-width="2.78428"/>
<path d="M341.091 201.517C336.488 198.122 333.324 193.52 331.656 187.709C330.563 184.085 330.045 180.173 330.045 175.973C330.045 171.428 330.563 167.401 331.656 163.776C333.439 158.081 336.603 153.651 341.206 150.429C345.808 147.207 351.331 145.596 357.775 145.596C364.046 145.596 369.454 147.207 373.884 150.372C378.313 153.536 381.478 157.966 383.319 163.661C384.527 167.516 385.16 171.543 385.16 175.743C385.16 179.885 384.642 183.739 383.549 187.364C381.88 193.347 378.716 198.065 374.171 201.459C369.626 204.853 364.103 206.579 357.66 206.579C351.216 206.579 345.693 204.911 341.091 201.517ZM364.103 190.356C365.887 188.802 367.152 186.731 367.9 184.027C368.533 181.553 368.821 178.907 368.821 175.973C368.821 172.751 368.533 170.047 367.9 167.803C367.037 165.215 365.772 163.143 363.988 161.705C362.205 160.267 360.076 159.519 357.545 159.519C354.956 159.519 352.77 160.267 351.044 161.705C349.318 163.143 348.052 165.215 347.304 167.803C346.671 169.644 346.384 172.348 346.384 175.973C346.384 179.425 346.671 182.129 347.189 184.027C347.937 186.731 349.26 188.802 351.044 190.356C352.827 191.909 355.071 192.657 357.66 192.657C360.191 192.657 362.32 191.909 364.103 190.356Z" fill="white" stroke="black" stroke-width="2.78428"/>
<path d="M315.944 170.992C323.34 174.753 327.009 181.06 327.009 189.854C327.009 197.318 324.446 202.988 319.321 206.807C314.196 210.626 307.499 212.535 299.171 212.535H269.004C268.596 212.535 268.305 212.419 268.014 212.13C267.723 211.841 267.606 211.551 267.606 211.146V132.921C267.606 132.516 267.723 132.226 268.014 131.937C268.305 131.648 268.596 131.532 269.004 131.532H298.239C316.642 131.532 325.844 138.938 325.844 153.75C325.844 161.445 322.524 167 315.944 170.298C315.478 170.529 315.478 170.761 315.944 170.992ZM284.029 146.113V164.165C284.029 164.57 284.204 164.743 284.612 164.743H298.239C301.908 164.743 304.704 163.875 306.742 162.197C308.78 160.52 309.77 158.205 309.77 155.254C309.77 152.246 308.78 149.873 306.742 148.138C304.704 146.402 301.908 145.534 298.239 145.534H284.612C284.204 145.534 284.029 145.708 284.029 146.113ZM307.557 195.698C309.596 193.904 310.586 191.416 310.586 188.234C310.586 185.052 309.596 182.564 307.557 180.77C305.519 178.977 302.724 178.051 299.055 178.051H284.612C284.204 178.051 284.029 178.224 284.029 178.629V197.839C284.029 198.244 284.204 198.417 284.612 198.417H299.171C302.724 198.417 305.519 197.492 307.557 195.698Z" fill="black"/>
<path d="M311.444 167.392C318.84 171.153 322.509 177.459 322.509 186.254C322.509 193.718 319.946 199.388 314.821 203.207C309.696 207.026 302.999 208.935 294.671 208.935H264.504C264.096 208.935 263.805 208.819 263.514 208.53C263.223 208.241 263.106 207.951 263.106 207.546V129.321C263.106 128.915 263.223 128.626 263.514 128.337C263.805 128.048 264.096 127.932 264.504 127.932H293.739C312.142 127.932 321.344 135.338 321.344 150.15C321.344 157.845 318.024 163.4 311.444 166.698C310.978 166.929 310.978 167.161 311.444 167.392ZM279.529 142.512V160.565C279.529 160.97 279.704 161.143 280.112 161.143H293.739C297.408 161.143 300.204 160.275 302.242 158.597C304.28 156.919 305.27 154.605 305.27 151.654C305.27 148.646 304.28 146.273 302.242 144.538C300.204 142.802 297.408 141.934 293.739 141.934H280.112C279.704 141.934 279.529 142.107 279.529 142.512ZM303.057 192.098C305.096 190.304 306.086 187.816 306.086 184.634C306.086 181.452 305.096 178.964 303.057 177.17C301.019 175.377 298.224 174.451 294.555 174.451H280.112C279.704 174.451 279.529 174.624 279.529 175.029V194.239C279.529 194.644 279.704 194.817 280.112 194.817H294.671C298.224 194.817 301.019 193.892 303.057 192.098Z" fill="white" stroke="black" stroke-width="2.69542"/>
<path d="M225.451 144.723C229.765 146.624 233.128 149.221 235.539 152.515C237.95 155.809 239.156 159.483 239.156 163.537V206.485C239.156 206.928 239.029 207.245 238.711 207.562C238.394 207.879 238.077 208.005 237.633 208.005H222.786C222.342 208.005 222.025 207.879 221.708 207.562C221.39 207.245 221.264 206.928 221.264 206.485V202.304C221.264 202.051 221.2 201.861 221.01 201.797C220.819 201.734 220.693 201.797 220.502 202.051C216.949 206.675 211.239 209.019 203.372 209.019C196.773 209.019 191.443 207.435 187.383 204.205C183.322 200.974 181.292 196.286 181.292 190.015C181.292 183.491 183.576 178.486 188.144 174.876C192.712 171.265 199.247 169.491 207.686 169.491H220.629C221.073 169.491 221.264 169.301 221.264 168.858V166.071C221.264 163.284 220.439 161.13 218.726 159.546C217.013 157.962 214.475 157.202 211.112 157.202C208.511 157.202 206.29 157.646 204.577 158.596C202.864 159.546 201.722 160.813 201.214 162.523C200.961 163.474 200.39 163.854 199.565 163.79L184.211 161.763C183.195 161.573 182.751 161.193 182.815 160.623C183.132 157.076 184.591 153.845 187.066 150.995C189.54 148.144 192.839 145.864 196.963 144.28C201.087 142.696 205.656 141.873 210.731 141.873C216.251 141.873 221.137 142.823 225.451 144.723ZM217.457 192.802C219.995 190.839 221.264 188.368 221.264 185.328V180.767C221.264 180.323 221.073 180.133 220.629 180.133H211.493C207.686 180.133 204.704 180.83 202.547 182.287C200.39 183.744 199.311 185.771 199.311 188.368C199.311 190.649 200.136 192.422 201.722 193.753C203.308 195.083 205.465 195.716 208.193 195.716C211.81 195.716 214.919 194.766 217.457 192.802Z" fill="black" stroke="black" stroke-width="2.78428"/>
<path d="M222.662 141.939C226.976 143.839 230.339 146.436 232.75 149.73C235.161 153.024 236.366 156.698 236.366 160.752V203.701C236.366 204.144 236.24 204.461 235.922 204.777C235.605 205.094 235.288 205.221 234.844 205.221H219.997C219.553 205.221 219.236 205.094 218.919 204.777C218.601 204.461 218.474 204.144 218.474 203.701V199.52C218.474 199.266 218.411 199.076 218.221 199.013C218.03 198.95 217.903 199.013 217.713 199.266C214.16 203.891 208.45 206.234 200.582 206.234C193.984 206.234 188.654 204.651 184.594 201.42C180.533 198.19 178.503 193.502 178.503 187.231C178.503 180.706 180.787 175.702 185.355 172.091C189.923 168.481 196.458 166.707 204.897 166.707H217.84C218.284 166.707 218.474 166.517 218.474 166.073V163.286C218.474 160.499 217.65 158.345 215.937 156.762C214.224 155.178 211.686 154.418 208.323 154.418C205.722 154.418 203.501 154.861 201.788 155.812C200.075 156.762 198.933 158.029 198.425 159.739C198.171 160.689 197.6 161.069 196.776 161.006L181.421 158.979C180.406 158.789 179.962 158.409 180.026 157.839C180.343 154.291 181.802 151.061 184.277 148.21C186.751 145.36 190.05 143.079 194.174 141.495C198.298 139.912 202.867 139.088 207.942 139.088C213.462 139.088 218.348 140.039 222.662 141.939ZM214.668 190.018C217.206 188.054 218.474 185.584 218.474 182.543V177.982C218.474 177.539 218.284 177.349 217.84 177.349H208.704C204.897 177.349 201.915 178.046 199.758 179.503C197.6 180.96 196.522 182.987 196.522 185.584C196.522 187.864 197.347 189.638 198.933 190.968C200.519 192.298 202.676 192.932 205.404 192.932C209.021 192.932 212.13 191.982 214.668 190.018Z" fill="white" stroke="black" stroke-width="2.78428"/>
<path d="M178.26 134.191C178.892 134.479 179.122 135.054 178.95 135.917L176.534 149.034C176.476 149.955 175.901 150.243 174.923 149.84C173.772 149.437 172.449 149.265 170.896 149.265C170.263 149.265 169.457 149.322 168.364 149.495C165.603 149.725 163.244 150.76 161.345 152.544C159.447 154.327 158.469 156.744 158.469 159.735V191.147C158.469 191.55 158.354 191.838 158.066 192.125C157.778 192.413 157.491 192.528 157.088 192.528H143.626C143.223 192.528 142.935 192.413 142.648 192.125C142.36 191.838 142.245 191.55 142.245 191.147V134.767C142.245 134.364 142.36 134.076 142.648 133.789C142.935 133.501 143.223 133.386 143.626 133.386H157.088C157.491 133.386 157.778 133.501 158.066 133.789C158.354 134.076 158.469 134.364 158.469 134.767V139.139C158.469 139.369 158.526 139.542 158.699 139.599C158.872 139.657 158.987 139.657 159.044 139.484C162.208 134.882 166.408 132.581 171.701 132.581C174.462 132.581 176.649 133.098 178.26 134.191Z" fill="black" stroke="black" stroke-width="2.78428"/>
<path d="M175.47 132.332C176.103 132.62 176.333 133.195 176.161 134.058L173.745 147.175C173.687 148.096 173.112 148.383 172.134 147.98C170.983 147.578 169.66 147.405 168.106 147.405C167.474 147.405 166.668 147.463 165.575 147.635C162.814 147.865 160.455 148.901 158.556 150.684C156.658 152.468 155.68 154.884 155.68 157.876V189.288C155.68 189.69 155.565 189.978 155.277 190.266C154.989 190.553 154.702 190.669 154.299 190.669H140.837C140.434 190.669 140.146 190.553 139.859 190.266C139.571 189.978 139.456 189.69 139.456 189.288V132.907C139.456 132.505 139.571 132.217 139.859 131.929C140.146 131.642 140.434 131.527 140.837 131.527H154.299C154.702 131.527 154.989 131.642 155.277 131.929C155.565 132.217 155.68 132.505 155.68 132.907V137.28C155.68 137.51 155.737 137.682 155.91 137.74C156.083 137.798 156.198 137.798 156.255 137.625C159.419 133.022 163.619 130.721 168.912 130.721C171.673 130.721 173.86 131.239 175.47 132.332Z" fill="white" stroke="black" stroke-width="2.78428"/>
<path d="M115.336 133.913C115.623 133.625 115.911 133.51 116.314 133.51H129.776C130.179 133.51 130.466 133.625 130.754 133.913C131.042 134.201 131.157 134.488 131.157 134.891V191.271C131.157 191.674 131.042 191.962 130.754 192.249C130.466 192.537 130.179 192.652 129.776 192.652H116.314C115.911 192.652 115.623 192.537 115.336 192.249C115.048 191.962 114.933 191.674 114.933 191.271V187.359C114.933 187.129 114.875 187.014 114.703 186.957C114.53 186.899 114.415 187.014 114.243 187.244C111.193 191.386 106.418 193.458 99.9749 193.458C94.1643 193.458 89.3317 191.674 85.5921 188.165C81.8526 184.655 79.9541 179.708 79.9541 173.322V134.891C79.9541 134.488 80.0692 134.201 80.3568 133.913C80.6445 133.625 80.9321 133.51 81.3349 133.51H94.682C95.0848 133.51 95.3724 133.625 95.6601 133.913C95.9477 134.201 96.0628 134.488 96.0628 134.891V169.295C96.0628 172.344 96.8682 174.875 98.5366 176.774C100.205 178.672 102.449 179.65 105.383 179.65C107.972 179.65 110.158 178.845 111.826 177.291C113.495 175.738 114.53 173.667 114.933 171.136V134.891C114.933 134.488 115.106 134.201 115.336 133.913Z" fill="black" stroke="black" stroke-width="2.78428"/>
<path d="M112.547 132.054C112.834 131.766 113.122 131.651 113.525 131.651H126.987C127.39 131.651 127.677 131.766 127.965 132.054C128.253 132.341 128.368 132.629 128.368 133.032V189.412C128.368 189.815 128.253 190.102 127.965 190.39C127.677 190.678 127.39 190.793 126.987 190.793H113.525C113.122 190.793 112.834 190.678 112.547 190.39C112.259 190.102 112.144 189.815 112.144 189.412V185.5C112.144 185.27 112.086 185.155 111.914 185.097C111.741 185.04 111.626 185.155 111.454 185.385C108.404 189.527 103.629 191.598 97.1858 191.598C91.3752 191.598 86.5426 189.815 82.8031 186.305C79.0636 182.796 77.165 177.848 77.165 171.462V133.032C77.165 132.629 77.2801 132.341 77.5678 132.054C77.8554 131.766 78.1431 131.651 78.5458 131.651H91.893C92.2957 131.651 92.5834 131.766 92.871 132.054C93.1587 132.341 93.2737 132.629 93.2737 133.032V167.435C93.2737 170.484 94.0792 173.016 95.7476 174.914C97.416 176.813 99.6597 177.791 102.594 177.791C105.183 177.791 107.369 176.985 109.037 175.432C110.706 173.879 111.741 171.808 112.144 169.276V133.032C112.144 132.629 112.316 132.341 112.547 132.054Z" fill="white" stroke="black" stroke-width="2.78428"/>
<path d="M58.2526 191.52L54.8008 180.244C54.6282 179.956 54.4556 179.783 54.2255 179.783H25.9202C25.6901 179.783 25.5175 179.956 25.3449 180.244L22.0081 191.52C21.778 192.268 21.2602 192.67 20.5123 192.67H5.89941C5.43916 192.67 5.09398 192.555 4.86385 192.268C4.63373 191.98 4.5762 191.577 4.74879 191.059L29.6022 113.278C29.8323 112.53 30.3501 112.127 31.098 112.127H49.1627C49.9106 112.127 50.4284 112.53 50.6585 113.278L75.5119 191.059C75.5695 191.232 75.627 191.405 75.627 191.635C75.627 192.325 75.2243 192.67 74.3613 192.67H59.7484C58.943 192.67 58.4827 192.268 58.2526 191.52ZM29.9474 167.242H50.1983C50.6585 167.242 50.8311 167.012 50.6585 166.551L40.303 132.378C40.2454 132.09 40.1304 131.918 39.9578 131.975C39.7852 132.033 39.6701 132.148 39.6126 132.378L29.4871 166.551C29.3721 167.012 29.5447 167.242 29.9474 167.242Z" fill="black" stroke="black" stroke-width="2.78428"/>
<path d="M55.4636 189.66L52.0117 178.384C51.8391 178.097 51.6665 177.924 51.4364 177.924H23.1311C22.901 177.924 22.7284 178.097 22.5558 178.384L19.219 189.66C18.9889 190.408 18.4711 190.811 17.7232 190.811H3.11035C2.6501 190.811 2.30491 190.696 2.07479 190.408C1.84467 190.121 1.78714 189.718 1.95973 189.2L26.8131 111.418C27.0432 110.67 27.561 110.268 28.3089 110.268H46.3737C47.1216 110.268 47.6393 110.67 47.8695 111.418L72.7229 189.2C72.7804 189.373 72.8379 189.545 72.8379 189.775C72.8379 190.466 72.4352 190.811 71.5722 190.811H56.9594C56.1539 190.811 55.6937 190.408 55.4636 189.66ZM27.1583 165.382H47.4092C47.8695 165.382 48.0421 165.152 47.8695 164.692L37.5139 130.518C37.4564 130.231 37.3413 130.058 37.1687 130.116C36.9961 130.173 36.881 130.288 36.8235 130.518L26.6981 164.692C26.583 165.152 26.7556 165.382 27.1583 165.382Z" fill="white" stroke="black" stroke-width="2.78428"/>
<path d="M382.81 117.545C379.027 116.133 376.147 114.101 374.058 111.56C371.969 109.019 370.952 106.083 370.952 102.864V101.735C370.952 101.339 371.065 101.057 371.347 100.775C371.63 100.492 371.912 100.38 372.307 100.38H384.843C385.238 100.38 385.52 100.492 385.802 100.775C386.085 101.057 386.198 101.339 386.198 101.735V101.848C386.198 103.485 387.101 104.897 388.965 106.083C390.828 107.268 393.143 107.833 395.91 107.833C398.451 107.833 400.54 107.325 402.121 106.308C403.702 105.292 404.492 104.05 404.492 102.525C404.492 101.17 403.815 100.154 402.46 99.4762C401.105 98.7986 398.902 98.0645 395.797 97.3305C392.239 96.427 389.473 95.5801 387.44 94.7331C382.64 93.0956 378.801 91.0628 375.921 88.6348C373.041 86.2068 371.63 82.7625 371.63 78.2453C371.63 72.6552 373.775 68.2509 378.123 64.9759C382.471 61.701 388.174 60.0635 395.345 60.0635C400.145 60.0635 404.379 60.854 407.993 62.3785C411.607 63.9031 414.43 66.1052 416.407 68.872C418.383 71.6388 419.399 74.8009 419.399 78.3582C419.399 78.7534 419.286 79.0358 419.004 79.3181C418.722 79.6004 418.439 79.7133 418.044 79.7133H405.961C405.565 79.7133 405.283 79.6004 405.001 79.3181C404.718 79.0358 404.605 78.7534 404.605 78.3582C404.605 76.7207 403.758 75.3091 402.064 74.1798C400.37 73.0505 398.112 72.4858 395.345 72.4858C392.861 72.4858 390.828 72.9375 389.247 73.841C387.666 74.7444 386.875 75.9867 386.875 77.5677C386.875 79.0922 387.666 80.2215 389.19 80.9556C390.715 81.6896 393.312 82.4801 396.926 83.3271C397.773 83.553 398.677 83.7788 399.749 84.0612C400.822 84.3435 401.951 84.6258 403.137 85.0211C408.501 86.6021 412.68 88.6348 415.785 91.1193C418.891 93.6038 420.416 97.2175 420.416 101.961C420.416 107.551 418.213 111.898 413.809 115.004C409.405 118.11 403.476 119.691 396.023 119.691C390.997 119.691 386.593 118.957 382.81 117.545Z" fill="black" stroke="black" stroke-width="2.78428"/>
<path d="M380.021 114.756C376.238 113.344 373.358 111.312 371.269 108.771C369.179 106.23 368.163 103.294 368.163 100.075V98.9457C368.163 98.5504 368.276 98.2681 368.558 97.9858C368.841 97.7035 369.123 97.5905 369.518 97.5905H382.054C382.449 97.5905 382.731 97.7035 383.013 97.9858C383.296 98.2681 383.409 98.5504 383.409 98.9457V99.0586C383.409 100.696 384.312 102.108 386.175 103.294C388.039 104.479 390.354 105.044 393.121 105.044C395.662 105.044 397.751 104.536 399.332 103.519C400.913 102.503 401.703 101.261 401.703 99.7362C401.703 98.381 401.026 97.3647 399.671 96.6871C398.315 96.0095 396.113 95.2755 393.008 94.5414C389.45 93.638 386.684 92.791 384.651 91.944C379.851 90.3065 376.012 88.2738 373.132 85.8458C370.252 83.4178 368.841 79.9734 368.841 75.4562C368.841 69.8661 370.986 65.4619 375.334 62.1869C379.682 58.9119 385.385 57.2744 392.556 57.2744C397.356 57.2744 401.59 58.0649 405.204 59.5895C408.818 61.114 411.641 63.3162 413.618 66.083C415.594 68.8498 416.61 72.0118 416.61 75.5691C416.61 75.9644 416.497 76.2467 416.215 76.529C415.933 76.8114 415.65 76.9243 415.255 76.9243H403.171C402.776 76.9243 402.494 76.8114 402.212 76.529C401.929 76.2467 401.816 75.9644 401.816 75.5691C401.816 73.9316 400.969 72.52 399.275 71.3907C397.581 70.2614 395.323 69.6967 392.556 69.6967C390.072 69.6967 388.039 70.1485 386.458 71.0519C384.877 71.9554 384.086 73.1976 384.086 74.7786C384.086 76.3032 384.877 77.4325 386.401 78.1665C387.926 78.9006 390.523 79.6911 394.137 80.5381C394.984 80.7639 395.887 80.9898 396.96 81.2721C398.033 81.5544 399.162 81.8368 400.348 82.232C405.712 83.813 409.891 85.8458 412.996 88.3302C416.102 90.8147 417.627 94.4285 417.627 99.1716C417.627 104.762 415.424 109.109 411.02 112.215C406.616 115.321 400.687 116.902 393.234 116.902C388.208 116.902 383.804 116.168 380.021 114.756Z" fill="white" stroke="black" stroke-width="2.78428"/>
<path d="M392.923 23.327C393.092 23.6093 393.092 24.0045 392.923 24.4563L383.662 47.3811C383.436 48.0587 382.928 48.3975 382.081 48.3975H372.143C371.183 48.3975 370.788 47.8893 371.014 46.9294L377.112 24.0045C377.338 23.2705 377.846 22.8752 378.693 22.8752H391.906C392.414 22.8752 392.753 23.0446 392.923 23.327Z" fill="black" stroke="black" stroke-width="2.78428"/>
<path d="M391.063 20.5379C391.233 20.8202 391.233 21.2155 391.063 21.6672L381.803 44.5921C381.577 45.2696 381.069 45.6084 380.222 45.6084H370.284C369.324 45.6084 368.929 45.1002 369.155 44.1403L375.253 21.2155C375.479 20.4814 375.987 20.0862 376.834 20.0862H390.047C390.555 20.0862 390.894 20.2556 391.063 20.5379Z" fill="white" stroke="black" stroke-width="2.78428"/>
<path d="M359.618 68.2639C359.336 68.5463 359.054 68.6591 358.658 68.6591H347.817C347.422 68.6591 347.252 68.8286 347.252 69.2238V93.1651C347.252 95.6495 347.761 97.5129 348.777 98.6987C349.793 99.8843 351.431 100.505 353.69 100.505H357.416C357.811 100.505 358.094 100.618 358.376 100.901C358.658 101.183 358.771 101.465 358.771 101.861V112.589C358.771 113.436 358.32 113.888 357.416 114.057C354.254 114.227 351.996 114.283 350.64 114.283C344.373 114.283 339.743 113.267 336.637 111.177C333.531 109.088 331.95 105.192 331.894 99.4891V69.2238C331.894 68.8286 331.725 68.6591 331.329 68.6591H324.892C324.497 68.6591 324.215 68.5463 323.932 68.2639C323.65 67.9816 323.537 67.6993 323.537 67.304V57.2532C323.537 56.858 323.65 56.5757 323.932 56.2933C324.215 56.011 324.497 55.8981 324.892 55.8981H331.329C331.725 55.8981 331.894 55.7287 331.894 55.3334V41.8946C331.894 41.4994 332.007 41.217 332.289 40.9347C332.572 40.6524 332.854 40.5396 333.249 40.5396H345.897C346.293 40.5396 346.575 40.6524 346.857 40.9347C347.14 41.217 347.252 41.4994 347.252 41.8946V55.3334C347.252 55.7287 347.422 55.8981 347.817 55.8981H358.658C359.054 55.8981 359.336 56.011 359.618 56.2933C359.901 56.5757 360.014 56.858 360.014 57.2532V67.304C360.014 67.6993 359.901 67.9816 359.618 68.2639Z" fill="black" stroke="black" stroke-width="2.78428"/>
<path d="M356.829 66.4046C356.547 66.6869 356.265 66.7998 355.869 66.7998H345.028C344.633 66.7998 344.463 66.9692 344.463 67.3645V91.3057C344.463 93.7902 344.972 95.6535 345.988 96.8393C347.004 98.025 348.642 98.6462 350.9 98.6462H354.627C355.022 98.6462 355.305 98.7591 355.587 99.0414C355.869 99.3237 355.982 99.6061 355.982 100.001V110.73C355.982 111.577 355.531 112.028 354.627 112.198C351.465 112.367 349.206 112.424 347.851 112.424C341.584 112.424 336.954 111.407 333.848 109.318C330.742 107.229 329.161 103.333 329.105 97.6298V67.3645C329.105 66.9692 328.935 66.7998 328.54 66.7998H322.103C321.708 66.7998 321.426 66.6869 321.143 66.4046C320.861 66.1222 320.748 65.8399 320.748 65.4447V55.3939C320.748 54.9986 320.861 54.7163 321.143 54.434C321.426 54.1516 321.708 54.0387 322.103 54.0387H328.54C328.935 54.0387 329.105 53.8693 329.105 53.474V40.0353C329.105 39.6401 329.218 39.3578 329.5 39.0754C329.782 38.7931 330.065 38.6802 330.46 38.6802H343.108C343.503 38.6802 343.786 38.7931 344.068 39.0754C344.35 39.3578 344.463 39.6401 344.463 40.0353V53.474C344.463 53.8693 344.633 54.0387 345.028 54.0387H355.869C356.265 54.0387 356.547 54.1516 356.829 54.434C357.112 54.7163 357.225 54.9986 357.225 55.3939V65.4447C357.225 65.8399 357.112 66.1222 356.829 66.4046Z" fill="white" stroke="black" stroke-width="2.78428"/>
<path d="M302.617 52.6826C306.931 54.5829 310.294 57.1801 312.705 60.474C315.116 63.768 316.322 67.442 316.322 71.4961V114.444C316.322 114.888 316.195 115.204 315.877 115.521C315.56 115.838 315.243 115.965 314.799 115.965H299.952C299.508 115.965 299.191 115.838 298.874 115.521C298.556 115.204 298.43 114.888 298.43 114.444V110.263C298.43 110.01 298.366 109.82 298.176 109.757C297.985 109.693 297.859 109.757 297.668 110.01C294.115 114.634 288.405 116.978 280.538 116.978C273.939 116.978 268.61 115.394 264.549 112.164C260.488 108.933 258.458 104.246 258.458 97.9744C258.458 91.4499 260.742 86.4456 265.31 82.8349C269.878 79.2242 276.413 77.4506 284.852 77.4506H297.795C298.239 77.4506 298.43 77.2605 298.43 76.8171V74.0299C298.43 71.2427 297.605 69.089 295.892 67.5054C294.179 65.9217 291.641 65.1616 288.278 65.1616C285.677 65.1616 283.456 65.605 281.743 66.5552C280.03 67.5054 278.888 68.7723 278.38 70.4826C278.127 71.4328 277.556 71.8128 276.731 71.7495L261.377 69.7224C260.361 69.5324 259.917 69.1523 259.981 68.5822C260.298 65.0349 261.757 61.8043 264.232 58.9537C266.706 56.1032 270.005 53.8228 274.129 52.2392C278.253 50.6555 282.822 49.832 287.897 49.832C293.417 49.832 298.303 50.7822 302.617 52.6826ZM294.623 100.762C297.161 98.7979 298.43 96.3275 298.43 93.2869V88.726C298.43 88.2826 298.239 88.0926 297.795 88.0926H288.659C284.852 88.0926 281.87 88.7894 279.713 90.2463C277.556 91.7033 276.477 93.7303 276.477 96.3275C276.477 98.6079 277.302 100.382 278.888 101.712C280.474 103.042 282.631 103.676 285.359 103.676C288.976 103.676 292.085 102.725 294.623 100.762Z" fill="black" stroke="black" stroke-width="2.78428"/>
<path d="M299.828 49.8981C304.142 51.7985 307.505 54.3957 309.916 57.6896C312.327 60.9836 313.532 64.6576 313.532 68.7117V111.66C313.532 112.103 313.406 112.42 313.088 112.737C312.771 113.053 312.454 113.18 312.01 113.18H297.163C296.719 113.18 296.402 113.053 296.085 112.737C295.767 112.42 295.64 112.103 295.64 111.66V107.479C295.64 107.226 295.577 107.036 295.387 106.972C295.196 106.909 295.069 106.972 294.879 107.226C291.326 111.85 285.616 114.194 277.748 114.194C271.15 114.194 265.82 112.61 261.76 109.379C257.699 106.149 255.669 101.461 255.669 95.19C255.669 88.6655 257.953 83.6612 262.521 80.0505C267.089 76.4398 273.624 74.6662 282.063 74.6662H295.006C295.45 74.6662 295.64 74.4761 295.64 74.0327V71.2455C295.64 68.4583 294.816 66.3046 293.103 64.7209C291.39 63.1373 288.852 62.3772 285.489 62.3772C282.888 62.3772 280.667 62.8206 278.954 63.7708C277.241 64.7209 276.099 65.9878 275.591 67.6982C275.337 68.6484 274.766 69.0284 273.942 68.9651L258.587 66.938C257.572 66.748 257.128 66.3679 257.192 65.7978C257.509 62.2505 258.968 59.0199 261.443 56.1693C263.917 53.3188 267.216 51.0384 271.34 49.4547C275.464 47.8711 280.033 47.0476 285.108 47.0476C290.628 47.0476 295.514 47.9978 299.828 49.8981ZM291.834 97.9772C294.372 96.0135 295.64 93.5431 295.64 90.5025V85.9416C295.64 85.4982 295.45 85.3082 295.006 85.3082H285.87C282.063 85.3082 279.081 86.005 276.924 87.4619C274.766 88.9188 273.688 90.9459 273.688 93.543C273.688 95.8235 274.513 97.5971 276.099 98.9274C277.685 100.258 279.842 100.891 282.57 100.891C286.187 100.891 289.296 99.9409 291.834 97.9772Z" fill="white" stroke="black" stroke-width="2.78428"/>
<path d="M244.72 61.5263C248.39 65.1965 250.254 70.2219 250.254 76.546V113.587C250.254 113.982 250.141 114.265 249.858 114.547C249.576 114.829 249.294 114.942 248.898 114.942H235.686C235.29 114.942 235.008 114.829 234.726 114.547C234.443 114.265 234.33 113.982 234.33 113.587V79.821C234.33 76.8283 233.483 74.3439 231.79 72.4805C230.096 70.6172 227.837 69.6573 225.07 69.6573C222.303 69.6573 220.045 70.6172 218.351 72.4805C216.657 74.3439 215.81 76.8283 215.81 79.821V113.587C215.81 113.982 215.697 114.265 215.415 114.547C215.132 114.829 214.85 114.942 214.455 114.942H201.242C200.847 114.942 200.564 114.829 200.282 114.547C200 114.265 199.887 113.982 199.887 113.587V37.2463C199.887 36.851 200 36.5687 200.282 36.2864C200.564 36.004 200.847 35.8911 201.242 35.8911H214.455C214.85 35.8911 215.132 36.004 215.415 36.2864C215.697 36.5687 215.81 36.851 215.81 37.2463V62.2039C215.81 62.4297 215.866 62.5991 216.036 62.6556C216.205 62.7121 216.318 62.7121 216.375 62.5427C219.48 58.1948 224.054 55.9927 230.152 55.9927C236.137 55.9927 240.993 57.8561 244.72 61.5263Z" fill="black" stroke="black" stroke-width="2.78428"/>
<path d="M241.931 59.6669C245.601 63.3372 247.465 68.3625 247.465 74.6866V111.728C247.465 112.123 247.352 112.405 247.069 112.688C246.787 112.97 246.505 113.083 246.109 113.083H232.897C232.501 113.083 232.219 112.97 231.937 112.688C231.654 112.405 231.541 112.123 231.541 111.728V77.9616C231.541 74.969 230.694 72.4845 229 70.6212C227.307 68.7578 225.048 67.7979 222.281 67.7979C219.514 67.7979 217.256 68.7578 215.562 70.6212C213.868 72.4845 213.021 74.969 213.021 77.9616V111.728C213.021 112.123 212.908 112.405 212.626 112.688C212.343 112.97 212.061 113.083 211.666 113.083H198.453C198.058 113.083 197.775 112.97 197.493 112.688C197.211 112.405 197.098 112.123 197.098 111.728V35.3869C197.098 34.9916 197.211 34.7093 197.493 34.427C197.775 34.1447 198.058 34.0317 198.453 34.0317H211.666C212.061 34.0317 212.343 34.1447 212.626 34.427C212.908 34.7093 213.021 34.9916 213.021 35.3869V60.3445C213.021 60.5704 213.077 60.7398 213.247 60.7962C213.416 60.8527 213.529 60.8527 213.585 60.6833C216.691 56.3355 221.265 54.1333 227.363 54.1333C233.348 54.1333 238.204 55.9967 241.931 59.6669Z" fill="white" stroke="black" stroke-width="2.78428"/>
<path d="M116.571 113.813L96.5827 37.3592L96.4697 36.9075C96.4697 36.2299 96.865 35.8911 97.712 35.8911H111.715C112.449 35.8911 112.958 36.2864 113.183 37.0204L123.912 82.983C123.968 83.2654 124.081 83.4348 124.251 83.4348C124.42 83.4348 124.533 83.2654 124.589 82.983L134.979 37.1333C135.205 36.2864 135.713 35.8911 136.447 35.8911H150.112C150.959 35.8911 151.467 36.2864 151.693 37.0204L162.986 82.983C163.042 83.2089 163.155 83.3218 163.324 83.3783C163.494 83.4348 163.607 83.2654 163.663 82.983L174.053 37.1333C174.279 36.2864 174.787 35.8911 175.521 35.8911H188.847C189.92 35.8911 190.315 36.3993 190.089 37.3592L171.568 113.813C171.343 114.547 170.834 114.942 169.987 114.942H156.549C155.815 114.942 155.306 114.547 155.081 113.813L143.562 64.9142C143.505 64.6319 143.392 64.4625 143.223 64.4625C143.053 64.4625 142.941 64.6319 142.884 64.9142L132.156 113.7C131.986 114.547 131.535 114.942 130.688 114.942H118.152C117.305 114.942 116.797 114.547 116.571 113.813Z" fill="black" stroke="black" stroke-width="2.78428"/>
<path d="M114.002 111.024L94.0133 34.5701L93.9004 34.1184C93.9004 33.4408 94.2956 33.1021 95.1426 33.1021H109.146C109.88 33.1021 110.388 33.4972 110.614 34.2313L121.342 80.194C121.399 80.4762 121.512 80.6456 121.681 80.6456C121.851 80.6456 121.964 80.4762 122.02 80.194L132.41 34.3442C132.635 33.4972 133.144 33.1021 133.878 33.1021H147.542C148.389 33.1021 148.897 33.4972 149.123 34.2313L160.416 80.194C160.473 80.4198 160.586 80.5328 160.755 80.5892C160.925 80.6457 161.037 80.4762 161.094 80.194L171.484 34.3442C171.709 33.4972 172.218 33.1021 172.952 33.1021H186.277C187.35 33.1021 187.745 33.6102 187.52 34.5701L168.999 111.024C168.773 111.758 168.265 112.153 167.418 112.153H153.979C153.245 112.153 152.737 111.758 152.511 111.024L140.992 62.125C140.936 61.8428 140.823 61.6734 140.654 61.6734C140.484 61.6734 140.371 61.8428 140.315 62.125L129.586 110.911C129.417 111.758 128.965 112.153 128.118 112.153H115.583C114.736 112.153 114.228 111.758 114.002 111.024Z" fill="white" stroke="black" stroke-width="2.78428"/>
</g>
<defs>
<clipPath id="clip0">
<rect width="556" height="256" fill="white"/>
</clipPath>
</defs>
</svg>
