<svg width="198" height="294" viewBox="0 0 198 294" fill="none" xmlns="http://www.w3.org/2000/svg">
<g filter="url(#filter0_d)">
<path d="M44.8828 97.264C46.7863 96.0618 50.8937 79.3315 52.4966 77.1275L49.7917 75.1239C49.1906 74.7232 48.5895 74.2223 48.1888 73.6212C47.7881 73.0201 47.5877 72.2187 47.5877 71.5174C47.5877 70.8161 47.7881 70.0147 48.0886 69.4136C48.4893 68.8125 48.9902 68.2114 49.5913 67.9109C51.1942 66.909 52.8973 66.2078 54.7006 65.7069C58.0066 65.206 61.1122 64.2042 64.0174 62.6013C62.4145 61.3991 60.8116 60.0967 59.4091 58.594C58.2069 56.6906 58.4073 55.5886 60.4109 54.2862C61.2124 53.7853 62.2142 53.3846 63.216 53.2844C64.2178 53.1842 65.2196 53.2844 66.2214 53.5849C70.429 54.3864 74.837 54.0858 78.8443 52.6833C80.347 52.1824 81.7495 51.5813 83.1521 50.88C81.2486 50.3791 80.347 50.1788 79.245 49.778C78.2432 49.4775 77.2414 49.0768 76.3397 48.5759C75.4381 48.1751 74.6367 47.5741 74.0356 46.6724C73.5347 45.7708 73.2341 44.769 73.3343 43.7672C73.6348 42.7654 74.1358 41.9639 74.9372 41.2626C75.7387 40.5614 76.6403 40.2608 77.6421 40.1606C80.9481 39.7599 84.2541 39.1588 87.56 38.4576C92.0682 37.055 96.4762 35.2518 100.984 33.5487C105.492 31.8456 107.396 30.8438 110.602 29.7418C112.305 29.1407 114.108 28.8402 115.911 28.9403C117.715 29.0405 119.418 29.5414 121.021 30.4431C121.321 30.3429 121.722 30.1425 122.022 29.9422C119.318 25.2336 117.915 19.8239 118.115 14.4141C119.518 15.1153 120.419 15.3157 120.92 15.9168C121.722 16.7182 122.323 17.6199 122.623 18.7219C125.328 24.2318 130.137 28.5396 135.948 30.5432C139.354 32.6471 142.459 35.1516 145.264 37.9567L146.166 39.3592C146.066 37.1552 145.465 35.0514 144.563 33.0478C143.561 31.0442 142.259 29.3411 140.556 27.8384C139.654 26.7364 138.853 25.434 138.252 24.1316C138.252 23.8311 138.352 23.4304 138.552 23.1298C138.753 22.8293 138.953 22.6289 139.254 22.4286C139.554 22.2282 139.855 22.128 140.255 22.128C140.556 22.128 140.957 22.128 141.257 22.2282C142.059 22.5287 142.76 22.8293 143.361 23.3302C146.266 24.8329 148.871 26.9367 150.875 29.5414C152.878 32.1461 154.381 35.1516 155.082 38.3574L157.487 50.9802L158.388 53.8855C161.293 50.4793 163.397 47.5741 162.496 43.4666C161.694 39.4594 160.893 37.8565 160.191 34.9512C159.891 34.25 159.791 33.4485 159.791 32.6471C159.791 32.2463 159.791 31.9458 159.991 31.5451C160.191 31.2445 160.392 30.944 160.692 30.7436C160.993 30.5432 161.394 30.4431 161.694 30.4431C162.095 30.4431 162.395 30.5432 162.796 30.7436C163.798 31.1443 164.7 31.8456 165.401 32.6471C166.102 33.4485 166.703 34.4503 167.004 35.4521C170.71 43.0659 172.614 51.4811 172.514 59.9965C172.514 61.4993 172.814 63.002 173.015 65.6067C175.82 61.9 177.823 59.0949 177.523 55.288C177.322 53.5849 177.623 52.2826 179.426 51.6815C180.027 51.7817 180.628 52.0822 181.129 52.5831C181.63 52.9839 181.931 53.5849 182.231 54.0858C183.734 57.3918 184.335 60.8982 184.035 64.5047C183.734 68.011 182.532 71.5174 180.528 74.4226L179.627 75.725C177.623 79.1312 177.523 80.7341 180.428 83.2386C183.834 86.6448 185.938 91.3533 186.138 96.162C186.84 101.271 187.04 106.38 186.539 111.49C186.539 116.198 186.94 120.807 187.741 125.415C188.042 127.118 188.042 128.821 187.942 130.524C187.441 132.929 185.938 133.53 183.734 132.428L180.328 130.624C180.128 131.225 179.927 131.927 179.827 132.528C179.126 138.038 179.627 143.548 181.53 148.757C181.831 149.659 182.031 150.56 182.031 151.462C182.131 152.163 182.031 152.865 181.73 153.466C181.43 154.067 180.929 154.568 180.328 154.868C179.627 155.169 178.825 155.269 178.124 155.069C177.423 154.868 176.721 154.467 176.321 153.766L173.015 148.557C172.614 149.258 172.213 150.06 172.013 150.961L170.811 163.885L170.31 165.387C167.905 166.189 165.501 167.09 163.297 164.886C165.201 160.478 166.703 155.87 167.905 151.161C166.803 150.761 165.601 150.861 164.499 151.362C163.397 151.863 162.596 152.764 162.195 153.866C159.691 157.974 157.487 162.282 154.882 166.389C145.465 181.116 152.878 254.048 45.0832 251.743V223.693C45.0832 226.197 44.8828 125.315 44.8828 97.264Z" fill="#F6C168"/>
<path d="M135.948 69.4135C142.459 75.8251 149.372 82.0363 155.383 88.8487C160.091 94.0581 164.099 99.8686 167.304 106.18C168.807 108.885 169.609 111.89 169.809 114.996C169.909 118.102 169.408 121.207 168.206 124.012C167.906 125.014 167.405 126.016 166.703 126.717C166.002 127.519 165.1 128.12 164.099 128.42C162.796 124.914 161.394 121.608 160.292 118.302C158.388 112.992 154.682 108.384 149.873 105.379C148.671 104.577 147.268 104.176 145.866 104.176C144.463 104.176 143.061 104.577 141.858 105.278C138.052 107.583 135.246 111.289 133.944 115.597C132.642 119.905 132.942 124.513 134.746 128.621C137.851 133.429 140.055 138.639 142.56 143.948C143.361 146.052 143.962 148.256 144.563 150.46C141.959 154.968 138.152 158.775 133.543 161.28C131.74 162.282 129.736 163.083 127.733 163.484C126.13 163.784 124.527 163.684 122.924 163.283C121.321 162.883 119.819 162.181 118.516 161.28C109.901 156.17 101.285 150.961 92.7696 145.752C91.4672 144.95 90.4654 143.748 88.7623 144.549C84.9555 140.542 80.5475 136.435 77.0411 132.528C71.9319 127.619 67.5239 122.009 64.0176 115.797C62.0139 112.391 61.0121 108.584 61.1123 104.677C61.2125 100.77 62.5148 96.9633 64.7188 93.7575C65.4201 92.7557 66.3217 91.9543 67.4237 91.4534C68.5257 90.9525 69.7279 90.6519 70.9301 90.7521C76.5402 90.7521 82.0502 92.2548 86.9591 95.1601C93.0701 98.8668 100.083 100.87 107.196 100.971C110.201 101.271 113.106 100.67 115.711 99.2675C118.316 97.865 120.42 95.661 121.722 92.9561C122.423 91.5536 122.724 89.9507 122.624 88.3478C122.223 85.2421 121.221 82.2367 119.518 79.632C117.815 77.0273 115.611 74.7231 112.906 73.02C110.101 71.2168 107.096 69.6139 104.19 68.011L101.586 66.2077C101.986 65.807 102.387 65.5064 102.888 65.4062C108.198 65.5064 113.607 65.4063 118.817 66.0073C123.926 66.4081 130.037 68.5119 135.948 69.4135ZM105.092 111.289C100.283 113.493 99.2814 114.996 100.383 121.508C101.185 125.315 102.287 129.122 103.589 132.828L98.0792 129.923L96.877 133.229C97.8788 134.331 98.9808 135.433 100.083 136.435C103.99 139.24 107.897 142.045 111.904 144.549C112.305 144.75 112.806 144.95 113.307 144.95C113.808 144.95 114.309 144.85 114.809 144.75C115.811 144.049 115.611 142.947 115.01 141.945L113.507 139.54C114.809 138.739 116.412 139.14 117.715 138.839C119.017 138.539 122.323 138.038 124.727 137.336C125.529 137.136 126.23 136.835 126.831 136.335C127.432 135.834 127.933 135.233 128.234 134.431C128.534 133.73 128.735 132.928 128.634 132.127C128.634 131.326 128.434 130.524 128.033 129.823C128.835 126.918 128.935 123.812 128.334 120.806C127.733 117.801 126.431 114.996 124.527 112.592C123.625 111.189 122.423 109.987 120.921 109.185C119.418 108.384 117.815 107.883 116.112 107.883C112.205 107.883 108.298 108.985 105.092 111.289Z" fill="#EBF4EF"/>
<path d="M135.949 69.4139C130.138 68.6124 124.228 67.5104 118.517 67.1097C112.707 66.8092 107.898 66.6088 102.588 66.5086C102.087 66.709 101.687 67.0095 101.286 67.3101C99.2824 68.0113 97.3789 68.913 95.4755 69.8146C88.563 73.6215 82.0512 78.2298 76.3408 83.6396C75.2389 84.3409 74.0367 85.0422 72.9347 85.7434C72.3336 86.1442 71.6323 86.4447 70.8309 86.4447C70.1296 86.4447 69.3282 86.1442 68.7271 85.7434C67.9256 85.4429 67.3245 84.8418 66.8236 84.1405C66.4229 83.4393 66.1224 82.6378 66.2225 81.8364C66.6233 79.9329 67.5249 78.2298 68.8273 76.8273C76.5412 69.4139 85.3572 63.2026 95.0748 58.5943C100.985 56.3903 107.397 55.6891 113.708 56.4905C119.319 56.6909 124.829 58.2938 129.838 60.9987C132.242 62.2008 134.346 64.0041 135.849 66.3083C136.149 66.709 136.349 67.2099 136.45 67.811C136.349 68.5123 136.249 69.0132 135.949 69.4139Z" fill="#234E32"/>
<path d="M86.457 144.849C88.0599 143.847 89.2621 145.25 90.6646 146.051C99.3804 151.461 108.297 156.871 117.113 162.08C118.515 163.082 120.018 163.783 121.621 164.184C123.224 164.585 124.927 164.585 126.53 164.384C128.633 163.884 130.637 163.082 132.54 162.08C137.249 159.476 141.156 155.569 143.861 150.96C147.067 147.855 150.373 144.649 153.478 141.443C155.282 140.241 155.282 140.241 157.886 140.742C158.187 142.244 158.187 143.847 157.786 145.35C157.385 146.853 156.684 148.255 155.682 149.457C150.172 158.574 142.458 166.088 133.141 171.297C131.138 172.399 128.834 173 126.63 173.1C124.326 173.2 122.021 172.8 119.918 171.898C110.801 168.091 102.185 162.882 94.4715 156.57C90.5645 153.665 87.7594 149.558 86.457 144.849Z" fill="#234E32"/>
<path d="M128.031 129.522C128.432 130.223 128.632 131.025 128.632 131.826C128.632 132.627 128.532 133.429 128.232 134.13C127.931 134.831 127.43 135.533 126.829 136.034C126.228 136.535 125.527 136.935 124.725 137.035C122.421 137.737 120.017 138.037 117.713 138.538C115.409 139.039 115.108 138.839 113.505 139.239L115.008 141.644C115.609 142.646 116.31 143.647 114.807 144.449C114.307 144.649 113.806 144.749 113.305 144.649C112.804 144.649 112.303 144.449 111.902 144.248C107.895 141.744 103.988 138.839 100.081 136.134C98.9788 135.132 97.8768 134.13 96.875 132.928L98.0772 129.622L103.587 132.527C102.285 128.821 101.283 125.014 100.381 121.207C99.4797 115.096 100.281 113.292 105.09 110.988C110.9 114.695 116.31 119.003 121.119 123.912L128.031 129.522Z" fill="#988FC1"/>
<path d="M128.031 129.523L120.818 123.412C116.01 118.803 110.8 114.796 105.09 111.39C108.296 109.086 112.203 107.884 116.21 108.084C117.913 108.084 119.516 108.485 121.019 109.386C122.521 110.188 123.724 111.39 124.625 112.793C126.428 115.197 127.731 117.902 128.232 120.807C128.933 123.612 128.833 126.618 128.031 129.523Z" fill="#F6C168"/>
<path d="M65.5202 200.049C58.808 191.534 51.8955 183.219 44.8828 175.004V211.169C49.8919 212.171 55.1013 212.472 60.2105 212.171C68.3252 211.47 70.5292 206.361 65.5202 200.049Z" fill="#EBF4EF"/>
<path d="M102.126 197.361L108.411 196.438C110.584 196.059 110.871 196.568 111.883 198.64C111.537 199.25 111.016 199.761 110.371 200.086C109.726 200.411 109.043 200.599 108.322 200.65C106.446 200.506 104.571 201.169 102.633 201.336C102.049 201.35 101.465 201.364 100.98 201.204C100.408 200.994 99.9723 200.747 99.4991 200.363C99.0259 199.979 98.7388 199.47 98.5388 199.011C98.2517 198.502 98.2377 197.918 98.2238 197.334C98.3541 194.873 99.3297 192.547 100.903 190.791C101.139 190.579 101.424 190.28 101.784 190.254C102.107 190.092 102.418 190.153 102.815 190.264C103.35 190.337 103.651 191.43 103.703 192.15C103.618 192.909 103.445 193.617 103.186 194.277L102.126 197.361Z" fill="#EBF4EF"/>
<path d="M68.4272 150.859C69.3288 151.561 70.531 152.062 71.2322 152.963C77.1429 160.076 83.1538 167.189 88.8641 174.402C93.0718 179.712 91.2685 183.919 84.4562 184.62C77.5437 185.021 70.6312 184.019 64.0192 181.715C62.4163 181.314 60.9136 180.313 60.0119 178.91C59.1103 177.508 58.7096 175.805 58.9099 174.101C59.511 166.187 62.2159 158.573 66.7241 152.162C67.225 151.561 67.7259 151.16 68.4272 150.859Z" fill="#EBF4EF"/>
<path d="M82.4512 215.677C84.555 215.277 86.3583 214.776 88.2617 214.575C88.5623 214.575 88.963 214.676 89.2635 214.776C89.5641 214.976 89.8646 215.177 90.065 215.477C90.065 215.477 89.8646 216.679 89.4639 217.08C88.0614 218.983 85.9576 220.286 83.5532 220.686C82.6516 220.987 81.6498 220.987 80.7481 220.787C79.8465 220.486 78.9449 219.985 78.3438 219.284C77.7427 218.583 77.2418 217.681 77.1416 216.679C77.0414 215.677 77.1416 214.776 77.5423 213.874C78.1434 211.871 79.2454 209.967 80.7481 208.565C81.249 208.164 81.7499 207.863 82.4512 207.863C83.0523 207.863 83.6534 208.064 84.1543 208.464C85.0559 209.266 84.9557 210.167 84.2545 211.269C83.5532 212.572 82.1507 213.774 82.4512 215.677Z" fill="#EBF4EF"/>
<path d="M60.3125 141.343L60.7132 142.245C58.8098 143.848 56.8062 145.25 54.7024 146.452C51.5967 147.855 49.4929 146.352 49.1924 142.946C49.0922 141.544 49.1924 140.141 49.5931 138.839C49.9938 137.536 50.6951 136.234 51.5967 135.232C52.9993 133.429 53.4 133.529 55.8044 134.631C57.0065 137.436 53.8007 139.239 54.1013 142.044L60.3125 141.343Z" fill="#EBF4EF"/>
</g>
<path d="M108.696 93.5565C107.294 94.5584 105.691 95.1594 103.988 95.3598C102.284 95.5602 100.581 95.46 98.8783 94.8589C97.2754 94.2578 95.7727 93.3562 94.5705 92.154C93.3683 90.9518 92.4667 89.4491 91.8656 87.8462C91.2645 86.3435 91.1644 84.8408 91.4649 83.2379C91.7654 81.7352 92.4667 80.3326 93.5687 79.1304C94.9712 77.7279 96.7745 76.7261 98.6779 76.2252C100.581 75.7243 102.585 75.7243 104.589 76.125C106.492 76.6259 108.295 77.5275 109.798 78.9301C111.301 80.2324 112.403 81.9355 113.104 83.839C113.805 85.6422 113.705 87.746 112.904 89.5493C112.002 91.3526 110.499 92.8553 108.696 93.5565ZM99.0787 83.2379C96.2736 85.0411 95.4721 87.1449 96.9749 89.5493C97.3756 90.1504 97.8765 90.7515 98.4776 91.1522C99.0787 91.5529 99.7799 91.8535 100.481 91.9536C101.182 92.0538 101.984 92.0538 102.685 91.9536C103.386 91.7533 104.088 91.4527 104.689 91.052C107.193 89.4491 107.895 87.3453 106.692 85.0411C106.392 84.3399 105.891 83.839 105.29 83.3381C104.689 82.8371 103.988 82.5366 103.286 82.4364C102.585 82.2361 101.784 82.2361 101.082 82.4364C100.381 82.4364 99.6798 82.737 99.0787 83.2379Z" fill="#EBF4EF"/>
<path d="M98.7793 82.7373C99.4806 82.1362 100.182 81.7355 101.083 81.5351C101.885 81.3348 102.787 81.3348 103.588 81.4349C104.389 81.6353 105.191 81.9359 105.892 82.5369C106.593 83.0378 107.094 83.7391 107.495 84.5406C109.098 87.0451 108.096 89.5496 105.291 91.3529C104.59 91.8538 103.889 92.1543 103.087 92.3547C102.286 92.5551 101.484 92.5551 100.583 92.3547C99.7811 92.1543 98.9796 91.8538 98.2784 91.3529C97.5771 90.852 96.976 90.2509 96.5753 89.5496C94.1709 87.0451 95.4733 84.6407 98.7793 82.7373Z" fill="#234E32"/>
<path d="M139.852 128.521C139.05 127.52 138.549 126.317 138.249 125.115C137.948 123.913 137.948 122.611 138.249 121.308C138.549 120.106 139.05 118.904 139.852 117.902C140.653 116.9 141.655 116.099 142.757 115.498C143.859 114.696 145.161 114.095 146.464 113.795C147.866 113.494 149.169 113.594 150.571 113.895C151.874 114.195 153.176 114.897 154.278 115.798C155.38 116.7 156.181 117.802 156.782 119.004C159.487 123.312 159.487 127.72 152.975 131.928C151.974 132.729 150.772 133.23 149.469 133.43C148.167 133.631 146.864 133.631 145.662 133.33C144.46 133.03 143.258 132.428 142.256 131.627C141.154 130.725 140.353 129.724 139.852 128.521ZM146.664 121.008C145.762 121.609 145.161 122.01 144.56 122.31C143.959 122.811 143.458 123.412 143.158 124.214C142.857 124.915 142.857 125.817 142.957 126.518C143.158 127.319 143.558 128.02 144.16 128.521C144.761 129.022 145.462 129.423 146.263 129.523C147.365 129.824 148.568 129.824 149.67 129.523C150.771 129.223 151.873 128.722 152.675 128.02C153.476 127.419 154.077 126.518 154.278 125.516C154.478 124.514 154.378 123.512 153.877 122.611C153.476 121.609 152.775 120.807 151.874 120.307C150.972 119.806 149.97 119.605 148.968 119.806C148.267 120.206 147.365 120.607 146.664 121.008Z" fill="#EBF4EF"/>
<path d="M146.668 121.007C147.369 120.406 148.171 120.005 148.972 119.604C149.974 119.404 150.976 119.604 151.877 120.105C152.779 120.606 153.48 121.407 153.881 122.409C154.382 123.311 154.582 124.313 154.282 125.314C154.081 126.316 153.48 127.218 152.679 127.819C151.777 128.52 150.775 129.121 149.673 129.322C148.571 129.622 147.369 129.622 146.267 129.322C145.466 129.222 144.764 128.821 144.163 128.32C143.562 127.819 143.162 127.118 142.961 126.316C142.861 125.615 142.961 125.014 143.162 124.313C143.362 123.712 143.763 123.11 144.264 122.71C145.165 122.008 145.766 121.608 146.668 121.007Z" fill="#234E32"/>
<g filter="url(#filter1_d)">
<path d="M45.4844 234.012C45.4844 234.012 72.4332 234.613 74.3366 250.642C76.2401 266.671 73.0343 274.385 68.5261 276.889C63.2165 279.895 63.1163 279.694 49.2913 283.301L44.7831 284.804L33.5628 271.78C29.3552 264.166 29.4554 254.95 33.7632 247.336L45.4844 234.012Z" fill="#F6C168"/>
</g>
<path d="M64.2144 272.181C57.2018 273.684 50.0889 274.184 42.8758 273.684C39.67 273.483 36.4642 273.082 33.2584 272.381C29.3514 271.58 25.6446 270.077 21.7376 269.175C16.9289 267.973 12.4207 266.07 8.2131 263.465C5.50821 261.862 5.60839 261.161 7.7122 257.955C8.91437 258.155 10.2167 258.656 11.6193 259.057C15.7267 260.359 19.8341 261.962 23.8414 263.265C29.7521 264.467 35.763 264.968 41.7738 264.767C44.5789 264.767 47.4842 264.667 50.2892 264.367C53.0943 264.266 55.9996 264.367 58.5041 263.866C61.0086 263.465 63.6134 262.664 66.2181 262.163C67.2199 261.862 68.2217 261.962 69.2235 262.263C70.1251 262.664 71.0268 263.265 71.5277 264.166C72.83 266.27 71.9284 267.873 70.7262 269.476C68.7226 270.478 66.5186 271.379 64.2144 272.181Z" fill="#988FC1"/>
<path d="M33.3604 256.754C27.65 255.552 22.2402 253.548 17.131 250.743L3.70671 242.829L0 240.224L0.701269 237.619C3.30598 237.82 5.81051 238.621 8.0145 240.024C14.2257 243.53 20.7375 246.435 27.5498 248.439C30.5553 249.14 33.6609 251.444 36.9669 249.941C38.0689 250.342 39.1709 251.544 40.0725 251.144C45.2819 251.444 50.3912 251.745 55.5004 251.544C57.6042 251.444 59.6079 252.145 61.3109 253.348C61.7117 257.154 61.1106 257.455 58.5059 258.557C56.4021 259.058 54.2982 259.358 52.1944 259.459C49.7901 259.559 47.3857 259.559 44.9814 259.559C41.0743 258.757 36.9669 257.956 33.3604 256.754Z" fill="#988FC1"/>
<path d="M33.8619 244.531C26.8492 242.126 20.3374 238.62 14.5269 234.012C11.6216 231.708 8.51601 229.303 5.71093 226.799C4.90948 226.298 4.30839 225.396 4.10803 224.495C3.90767 223.493 4.10803 222.491 4.60894 221.689C5.10984 221.79 5.61075 221.89 6.11166 222.09C12.7236 226.198 19.6361 229.604 26.749 232.409C28.1515 232.91 29.4539 233.511 30.6561 234.312C33.0604 235.715 35.7653 236.616 38.5704 237.017C41.9766 238.72 45.6833 239.722 49.4902 239.922C50.5921 239.922 51.594 240.223 52.5958 240.624C53.5976 241.125 54.399 241.726 55.2005 242.527C55.2005 246.935 53.6978 248.438 49.4902 248.338C47.5867 248.237 45.6833 248.037 43.7798 247.737L35.7653 246.234C35.1642 245.633 34.5631 245.032 33.8619 244.531Z" fill="#988FC1"/>
<path d="M73.0313 273.883C71.9293 273.182 72.33 272.08 72.2298 270.978C72.2298 264.165 72.0295 257.353 71.8291 250.541C71.9293 249.439 71.7289 248.337 71.4284 247.235C71.1278 246.133 70.5267 245.131 69.8255 244.129C68.8237 243.027 67.7217 241.925 66.6197 241.124C63.6142 238.92 60.3082 237.617 56.9021 237.217C54.1972 236.115 51.3921 234.912 48.587 233.911C47.3849 233.109 47.3849 233.109 46.6836 231.406C47.3849 230.805 48.2865 230.404 49.1881 230.204C50.0898 230.003 51.0916 230.104 52.0934 230.404C58.8055 231.306 65.3173 234.011 71.228 238.319C72.4302 239.22 73.5322 240.422 74.3336 241.825C75.1351 243.227 75.7362 244.73 75.9365 246.233C76.9383 252.845 77.1387 259.457 76.3372 265.868C76.2371 268.974 75.0349 271.779 73.0313 273.883Z" fill="#234E32"/>
<g filter="url(#filter2_d)">
<path d="M44.2805 7.00002C44.2805 7.00002 69.5262 6.89984 71.7302 21.927C73.9342 36.9542 71.0289 44.0671 66.9215 46.6718C62.7139 49.1763 49.0892 53.0834 49.0892 53.0834L44.8816 54.5861L36.8671 45.2693C32.96 36.1528 32.8598 25.9343 36.3662 16.8178L44.2805 7.00002Z" fill="#F6C168"/>
</g>
<path d="M33.6612 44.9696C26.6485 49.9786 20.0365 55.3884 13.2242 60.698C12.9236 61.1989 12.4227 61.5997 11.9218 61.8C11.3207 62.0004 10.7197 62.1006 10.2188 61.9002C10.3189 60.8984 10.0184 59.6962 10.5193 58.6944C11.7215 56.0897 13.3244 53.6853 15.2278 51.4813C20.6376 46.0716 26.5483 41.2629 33.0601 37.1554C38.9708 33.3485 45.2822 30.0425 51.6938 27.2375L53.3969 27.3377C55.1 27.1373 56.7029 27.0371 58.4059 27.0371C59.2074 27.0371 59.9087 27.3377 60.5098 27.9387C61.1108 28.4396 61.4114 29.2411 61.5116 30.0425C61.6117 30.844 61.5116 31.6454 61.0107 32.2465C60.6099 32.9478 59.9087 33.3485 59.2074 33.6491C58.4059 33.8494 57.6045 34.0498 56.803 34.15C52.9962 34.6509 49.3896 36.1536 46.3842 38.558C41.9762 40.3612 37.7686 42.5652 33.6612 44.9696Z" fill="#988FC1"/>
<path d="M44.3813 26.4352C41.0753 27.9379 38.3704 29.7412 35.365 30.9434C32.6601 32.2457 30.0554 33.7485 27.4506 35.3514C22.5418 38.7575 17.8332 42.2639 12.9244 45.7702C12.2231 46.1709 11.5218 46.4715 10.8206 46.6718C9.61838 44.3677 11.1211 43.1655 12.1229 41.9633C17.8332 35.2512 24.4452 29.5408 31.7584 24.8323C35.6655 22.1274 39.9733 20.0236 44.4815 18.4207C49.6909 16.7176 55.2009 16.7176 60.4103 18.2204L60.811 19.2222C62.3137 23.1292 61.0114 24.8323 57.3047 25.233L52.5961 25.5336C49.8912 25.0327 46.986 25.3332 44.3813 26.4352Z" fill="#988FC1"/>
<path d="M40.9732 54.9872C36.0643 57.7923 31.0552 60.7977 26.2465 63.9033C25.6454 64.4042 24.9442 64.7048 24.2429 64.9051C23.5416 65.0053 22.7402 65.0053 22.0389 64.7048C21.8385 63.9033 21.9387 63.0017 22.1391 62.2002C22.4396 61.3988 22.9405 60.6975 23.5416 60.0964C25.6454 58.193 27.7492 56.4899 29.853 54.6866L40.9732 45.7705C43.077 44.2678 45.281 42.7651 47.3848 41.2624C48.7873 40.5611 50.1898 39.8598 51.4922 38.9582C54.698 36.7542 57.0022 36.9546 60.208 39.8598C60.4083 40.7614 60.4083 41.7633 60.1078 42.6649C59.8072 43.5665 59.3063 44.368 58.6051 45.0692C56.8018 46.3716 54.9985 47.4736 52.9949 48.3752C48.8875 50.5792 45.882 52.1821 40.9732 54.9872Z" fill="#988FC1"/>
<defs>
<filter id="filter0_d" x="37.8828" y="7.41406" width="159.119" height="253.383" filterUnits="userSpaceOnUse" color-interpolation-filters="sRGB">
<feFlood flood-opacity="0" result="BackgroundImageFix"/>
<feColorMatrix in="SourceAlpha" type="matrix" values="0 0 0 0 0 0 0 0 0 0 0 0 0 0 0 0 0 0 127 0"/>
<feOffset dx="1" dy="1"/>
<feGaussianBlur stdDeviation="4"/>
<feColorMatrix type="matrix" values="0 0 0 0 0 0 0 0 0 0 0 0 0 0 0 0 0 0 0.15 0"/>
<feBlend mode="normal" in2="BackgroundImageFix" result="effect1_dropShadow"/>
<feBlend mode="normal" in="SourceGraphic" in2="effect1_dropShadow" result="shape"/>
</filter>
<filter id="filter1_d" x="23.4688" y="227.012" width="60.4273" height="66.7919" filterUnits="userSpaceOnUse" color-interpolation-filters="sRGB">
<feFlood flood-opacity="0" result="BackgroundImageFix"/>
<feColorMatrix in="SourceAlpha" type="matrix" values="0 0 0 0 0 0 0 0 0 0 0 0 0 0 0 0 0 0 127 0"/>
<feOffset dx="1" dy="1"/>
<feGaussianBlur stdDeviation="4"/>
<feColorMatrix type="matrix" values="0 0 0 0 0 0 0 0 0 0 0 0 0 0 0 0 0 0 0.15 0"/>
<feBlend mode="normal" in2="BackgroundImageFix" result="effect1_dropShadow"/>
<feBlend mode="normal" in="SourceGraphic" in2="effect1_dropShadow" result="shape"/>
</filter>
<filter id="filter2_d" x="26.832" y="0" width="54.6562" height="63.5861" filterUnits="userSpaceOnUse" color-interpolation-filters="sRGB">
<feFlood flood-opacity="0" result="BackgroundImageFix"/>
<feColorMatrix in="SourceAlpha" type="matrix" values="0 0 0 0 0 0 0 0 0 0 0 0 0 0 0 0 0 0 127 0"/>
<feOffset dx="1" dy="1"/>
<feGaussianBlur stdDeviation="4"/>
<feColorMatrix type="matrix" values="0 0 0 0 0 0 0 0 0 0 0 0 0 0 0 0 0 0 0.15 0"/>
<feBlend mode="normal" in2="BackgroundImageFix" result="effect1_dropShadow"/>
<feBlend mode="normal" in="SourceGraphic" in2="effect1_dropShadow" result="shape"/>
</filter>
</defs>
</svg>
