<svg width="144" height="244" viewBox="10 0 144 244" fill="none" xmlns="http://www.w3.org/2000/svg">
<g filter="url(#filter0_d)">
<path d="M7.00013 90.5001C7.00013 90.5001 12.9513 71.9176 14.5542 69.7136L11.8493 67.71C11.2482 67.3092 10.6471 66.8083 10.2464 66.2073C9.84565 65.6062 9.64529 64.8047 9.64529 64.1034C9.64529 63.4022 9.84565 62.6007 10.1462 61.9996C10.5469 61.3985 11.0478 60.7975 11.6489 60.4969C13.2518 59.4951 14.9549 58.7938 16.7582 58.2929C20.0641 57.792 23.1698 56.7902 26.075 55.1873C24.4721 53.9851 22.8692 52.6828 21.4667 51.1801C20.2645 49.2766 20.4649 48.1746 22.4685 46.8723C23.2699 46.3714 24.2718 45.9706 25.2736 45.8705C26.2754 45.7703 27.2772 45.8705 28.279 46.171C32.4866 46.9724 36.8946 46.6719 40.9018 45.2694C42.4046 44.7685 43.8071 44.1674 45.2096 43.4661C43.3062 42.9652 42.4046 42.7648 41.3026 42.3641C40.3008 42.0636 39.2989 41.6628 38.3973 41.1619C37.4957 40.7612 36.6942 40.1601 36.0932 39.2585C35.5922 38.3569 35.2917 37.355 35.3919 36.3532C35.6924 35.3514 36.1933 34.55 36.9948 33.8487C37.7962 33.1474 38.6979 32.8469 39.6997 32.7467C43.0057 32.346 46.3116 31.7449 49.6176 31.0436C54.1258 29.6411 58.5338 27.8378 63.0419 26.1347C67.5501 24.4317 69.4535 23.4299 72.6593 22.3279C74.3624 21.7268 76.1657 21.4262 77.9689 21.5264C79.7722 21.6266 81.4753 22.1275 83.0782 23.0291C83.3787 22.9289 83.7795 22.7286 84.08 22.5282C81.3751 17.8197 79.9726 12.4099 80.1729 7.00012C81.5755 7.70139 82.4771 7.90175 82.978 8.50284C83.7795 9.30429 84.3806 10.2059 84.6811 11.3079C87.386 16.8179 92.1947 21.1257 98.0052 23.1293C101.411 25.2331 104.517 27.7376 107.322 30.5427L108.224 31.9453C108.124 29.7413 107.522 27.6375 106.621 25.6338C105.619 23.6302 104.317 21.9271 102.614 20.4244C101.712 19.3224 100.91 18.0201 100.309 16.7177C100.309 16.4172 100.41 16.0164 100.61 15.7159C100.81 15.4153 101.011 15.215 101.311 15.0146C101.612 14.8143 101.912 14.7141 102.313 14.7141C102.614 14.7141 103.014 14.7141 103.315 14.8143C104.116 15.1148 104.818 15.4153 105.419 15.9163C108.324 17.419 110.929 19.5228 112.932 22.1275C114.936 24.7322 116.439 27.7376 117.14 30.9434L119.544 43.5663L120.446 46.4715C123.351 43.0654 125.455 40.1601 124.553 36.0527C123.752 32.0454 122.95 30.4425 122.249 27.5373C121.949 26.836 121.848 26.0346 121.848 25.2331C121.848 24.8324 121.848 24.5318 122.049 24.1311C122.249 23.8306 122.449 23.53 122.75 23.3297C123.051 23.1293 123.451 23.0291 123.752 23.0291C124.153 23.0291 124.453 23.1293 124.854 23.3297C125.856 23.7304 126.757 24.4317 127.458 25.2331C128.16 26.0346 128.761 27.0364 129.061 28.0382C132.768 35.652 134.671 44.0672 134.571 52.5826C134.571 54.0853 134.872 55.588 135.072 58.1927C137.877 54.486 139.881 51.681 139.58 47.8741C139.38 46.171 139.681 44.8686 141.484 44.2676C142.085 44.3677 142.686 44.6683 143.187 45.1692C143.688 45.5699 143.988 46.171 144.289 46.6719C145.792 49.9779 146.393 53.4842 146.092 57.0908C145.792 60.5971 144.589 64.1034 142.586 67.0087L141.684 68.3111C139.681 71.7172 139.58 73.3201 142.486 75.8247C145.892 79.2308 147.996 83.9393 148.196 88.748C148.897 93.8573 149.098 98.9665 148.597 104.076C148.597 108.784 148.997 113.393 149.799 118.001C150.099 119.704 150.099 121.407 149.999 123.11C149.498 125.515 147.996 126.116 145.792 125.014L142.385 123.21C142.185 123.811 141.985 124.513 141.885 125.114C141.183 130.624 141.684 136.134 143.588 141.343C143.888 142.245 144.089 143.146 144.089 144.048C144.189 144.749 144.089 145.451 143.788 146.052C143.487 146.653 142.987 147.154 142.385 147.454C141.684 147.755 140.883 147.855 140.181 147.655C139.48 147.454 138.779 147.054 138.378 146.352L135.072 141.143C134.671 141.844 134.271 142.646 134.07 143.547L132.868 156.471L132.367 157.973C129.963 158.775 127.559 159.676 125.355 157.472C127.258 153.064 128.761 148.456 129.963 143.748C128.861 143.347 127.659 143.447 126.557 143.948C125.455 144.449 124.653 145.35 124.253 146.452C121.748 150.56 114 160.5 108 166.5C72.0608 190.025 61.0001 201.5 7.00013 204V90.5001Z" fill="#F6C168"/>
<path d="M102.725 53.2437C109.237 59.6553 116.149 65.8665 122.16 72.6789C126.869 77.8883 130.876 83.6988 134.082 90.0102C135.585 92.7151 136.386 95.7206 136.586 98.8262C136.687 101.932 136.186 105.037 134.984 107.842C134.683 108.844 134.182 109.846 133.481 110.547C132.78 111.349 131.878 111.95 130.876 112.25C129.574 108.744 128.171 105.438 127.069 102.132C125.166 96.8226 121.459 92.2142 116.65 89.2088C115.448 88.4073 114.046 88.0066 112.643 88.0066C111.241 88.0066 109.838 88.4073 108.636 89.1086C104.829 91.4128 102.024 95.1195 100.722 99.4273C99.4192 103.735 99.7198 108.343 101.523 112.451C104.629 117.26 106.833 122.469 109.337 127.779C110.139 129.882 110.74 132.086 111.341 134.29C108.736 138.798 104.929 142.605 100.321 145.11C98.5176 146.112 96.514 146.913 94.5103 147.314C92.9074 147.614 91.3045 147.514 89.7016 147.114C88.0987 146.713 86.596 146.012 85.2937 145.11C76.6781 140.001 68.0625 134.791 59.5471 129.582C58.2447 128.78 57.2429 127.578 55.5398 128.38C51.7329 124.372 47.325 120.265 43.8186 116.358C38.7094 111.449 34.3014 105.839 30.795 99.6276C28.7914 96.2215 27.7896 92.4146 27.8898 88.5075C27.99 84.6004 29.2923 80.7935 31.4963 77.5877C32.1976 76.5859 33.0992 75.7845 34.2012 75.2836C35.3032 74.7827 36.5054 74.4821 37.7076 74.5823C43.3177 74.5823 48.8277 76.085 53.7366 78.9903C59.8476 82.697 66.8603 84.7006 73.9732 84.8008C76.9786 85.1013 79.8839 84.5003 82.4886 83.0977C85.0933 81.6952 87.1971 79.4912 88.4995 76.7863C89.2007 75.3838 89.5013 73.7809 89.4011 72.178C89.0004 69.0723 87.9986 66.0669 86.2955 63.4622C84.5924 60.8575 82.3884 58.5533 79.6835 56.8502C76.8784 55.047 73.873 53.4441 70.9677 51.8412L68.363 50.0379C68.7637 49.6372 69.1645 49.3366 69.6654 49.2365C74.975 49.3366 80.3848 49.2365 85.5942 49.8375C90.7034 50.2383 96.8145 52.3421 102.725 53.2437ZM71.8694 95.1195C67.0607 97.3235 66.0588 98.8262 67.1608 105.338C67.9623 109.145 69.0643 112.952 70.3666 116.658L64.8567 113.753L63.6545 117.059C64.6563 118.161 65.7583 119.263 66.8603 120.265C70.7674 123.07 74.6744 125.875 78.6817 128.38C79.0824 128.58 79.5833 128.78 80.0842 128.78C80.5851 128.78 81.086 128.68 81.5869 128.58C82.5888 127.879 82.3884 126.777 81.7873 125.775L80.2846 123.371C81.587 122.569 83.1898 122.97 84.4922 122.669C85.7946 122.369 89.1005 121.868 91.5049 121.167C92.3063 120.966 93.0076 120.666 93.6087 120.165C94.2098 119.664 94.7107 119.063 95.0112 118.261C95.3118 117.56 95.5121 116.759 95.412 115.957C95.412 115.156 95.2116 114.354 94.8109 113.653C95.6123 110.748 95.7125 107.642 95.1114 104.637C94.5103 101.631 93.208 98.8262 91.3045 96.4218C90.4029 95.0193 89.2007 93.8171 87.698 93.0157C86.1953 92.2142 84.5924 91.7133 82.8893 91.7133C78.9822 91.7133 75.0752 92.8153 71.8694 95.1195Z" fill="#EBF4EF"/>
<path d="M102.726 53.2441C96.9157 52.4426 91.005 51.3406 85.2946 50.9399C79.4841 50.6394 74.6754 50.439 69.3658 50.3388C68.8649 50.5392 68.4642 50.8397 68.0635 51.1403C66.0598 51.8415 64.1564 52.7432 62.253 53.6448C55.3404 57.4517 48.8287 62.06 43.1183 67.4698C42.0163 68.1711 40.8142 68.8724 39.7122 69.5736C39.1111 69.9744 38.4098 70.2749 37.6084 70.2749C36.9071 70.2749 36.1056 69.9744 35.5046 69.5736C34.7031 69.2731 34.102 68.672 33.6011 67.9707C33.2004 67.2695 32.8998 66.468 33 65.6666C33.4007 63.7631 34.3024 62.06 35.6047 60.6575C43.3187 53.2441 52.1346 47.0328 61.8522 42.4245C67.7629 40.2205 74.1745 39.5193 80.4859 40.3207C86.0961 40.5211 91.6061 42.124 96.6151 44.8289C99.0195 46.031 101.123 47.8343 102.626 50.1385C102.927 50.5392 103.127 51.0401 103.227 51.6412C103.127 52.3425 103.027 52.8434 102.726 53.2441Z" fill="#234E32"/>
<path d="M53.2384 128.679C54.8413 127.678 56.0435 129.08 57.446 129.882C66.1618 135.291 75.0779 140.701 83.8939 145.911C85.2964 146.912 86.7991 147.614 88.402 148.014C90.0049 148.415 91.708 148.415 93.3109 148.215C95.4147 147.714 97.4184 146.912 99.3218 145.911C104.03 143.306 107.937 139.399 110.642 134.79C113.848 131.685 117.154 128.479 120.26 125.273C122.063 124.071 122.063 124.071 124.668 124.572C124.968 126.075 124.968 127.678 124.567 129.18C124.167 130.683 123.465 132.085 122.464 133.288C116.954 142.404 109.24 149.918 99.9229 155.127C97.9193 156.229 95.6151 156.83 93.4111 156.93C91.1069 157.031 88.8028 156.63 86.699 155.728C77.5825 151.921 68.9669 146.712 61.2529 140.401C57.3458 137.495 54.5408 133.388 53.2384 128.679Z" fill="#234E32"/>
<path d="M94.8128 113.352C95.2135 114.053 95.4138 114.855 95.4138 115.656C95.4138 116.458 95.3137 117.259 95.0131 117.96C94.7126 118.662 94.2117 119.363 93.6106 119.864C93.0095 120.365 92.3082 120.765 91.5068 120.866C89.2026 121.567 86.7983 121.867 84.4941 122.368C82.1899 122.869 81.8894 122.669 80.2865 123.07L81.7892 125.474C82.3903 126.476 83.0916 127.478 81.5888 128.279C81.0879 128.479 80.587 128.58 80.0861 128.479C79.5852 128.479 79.0843 128.279 78.6836 128.079C74.6763 125.574 70.7693 122.669 66.8622 119.964C65.7602 118.962 64.6582 117.96 63.6564 116.758L64.8586 113.452L70.3685 116.357C69.0662 112.651 68.0644 108.844 67.1627 105.037C66.2611 98.9259 67.0626 97.1227 71.8713 94.8185C77.6818 98.5252 83.0916 102.833 87.9003 107.742L94.8128 113.352Z" fill="#988FC1"/>
<path d="M94.8127 113.353L87.5997 107.242C82.791 102.634 77.5816 98.6264 71.8712 95.2203C75.077 92.9161 78.9841 91.7139 82.9913 91.9143C84.6944 91.9143 86.2973 92.315 87.8001 93.2166C89.3028 94.0181 90.5049 95.2203 91.4066 96.6228C93.2098 99.0271 94.5122 101.732 95.0131 104.637C95.7144 107.442 95.6142 110.448 94.8127 113.353Z" fill="#F6C168"/>
<path d="M27.6375 174.876C20.9253 166.36 14.0128 158.045 7.00013 149.83V185.996C12.0092 186.997 17.2186 187.298 22.3279 186.997C30.4426 186.296 32.6465 181.187 27.6375 174.876Z" fill="#EBF4EF"/>
<path d="M67.6941 164.763L73.9793 163.84C76.1529 163.461 76.44 163.97 77.4519 166.043C77.1055 166.652 76.585 167.163 75.9397 167.488C75.2943 167.813 74.6114 168.001 73.8908 168.052C72.0141 167.908 70.1395 168.572 68.2015 168.738C67.6175 168.752 67.0335 168.766 66.5485 168.606C65.9764 168.396 65.5408 168.149 65.0676 167.765C64.5944 167.381 64.3073 166.872 64.1073 166.413C63.8202 165.904 63.8062 165.32 63.7923 164.736C63.9226 162.275 64.8982 159.949 66.4717 158.193C66.7073 157.981 66.9923 157.682 67.3526 157.656C67.6752 157.494 67.986 157.555 68.384 157.666C68.9185 157.739 69.2195 158.832 69.2711 159.553C69.1861 160.311 69.014 161.02 68.7547 161.679L67.6941 164.763Z" fill="#EBF4EF"/>
<path d="M35.2027 125.856C36.1043 126.557 37.3065 127.058 38.0078 127.959C43.9185 135.072 49.9293 142.185 55.6397 149.398C59.8473 154.708 58.044 158.915 51.2317 159.617C44.3192 160.017 37.4067 159.016 30.7947 156.711C29.1918 156.311 27.6891 155.309 26.7875 153.906C25.8858 152.504 25.4851 150.801 25.6855 149.098C26.2866 141.183 28.9914 133.57 33.4996 127.158C34.0005 126.557 34.5014 126.156 35.2027 125.856Z" fill="#EBF4EF"/>
<path d="M49.1232 181.644C51.227 181.244 53.0303 180.743 54.9337 180.542C55.2343 180.542 55.635 180.643 55.9355 180.743C56.2361 180.943 56.5366 181.143 56.737 181.444C56.737 181.444 56.5366 182.646 56.1359 183.047C54.7334 184.95 52.6296 186.253 50.2252 186.653C49.3236 186.954 48.3218 186.954 47.4201 186.754C46.5185 186.453 45.6169 185.952 45.0158 185.251C44.4147 184.55 43.9138 183.648 43.8136 182.646C43.7134 181.644 43.8136 180.743 44.2143 179.841C44.8154 177.837 45.9174 175.934 47.4201 174.531C47.921 174.131 48.422 173.83 49.1232 173.83C49.7243 173.83 50.3254 174.031 50.8263 174.431C51.7279 175.233 51.6277 176.134 50.9265 177.236C50.2252 178.539 48.8227 179.741 49.1232 181.644Z" fill="#EBF4EF"/>
<path d="M27.088 116.339L27.4888 117.241C25.5853 118.844 23.5817 120.247 21.4779 121.449C18.3723 122.851 16.2685 121.349 15.9679 117.942C15.8677 116.54 15.9679 115.137 16.3686 113.835C16.7694 112.533 17.4706 111.23 18.3723 110.228C19.7748 108.425 20.1755 108.525 22.5799 109.627C23.782 112.432 20.5762 114.236 20.8768 117.041L27.088 116.339Z" fill="#EBF4EF"/>
</g>
<path d="M75.4773 77.3866C74.0748 78.3884 72.4719 78.9895 70.7688 79.1899C69.0657 79.3902 67.3626 79.2901 65.6596 78.689C64.0567 78.0879 62.5539 77.1863 61.3518 75.9841C60.1496 74.7819 59.248 73.2792 58.6469 71.6763C58.0458 70.1736 57.9456 68.6709 58.2461 67.068C58.5467 65.5652 59.248 64.1627 60.35 62.9605C61.7525 61.558 63.5558 60.5562 65.4592 60.0553C67.3626 59.5544 69.3663 59.5544 71.3699 59.9551C73.2733 60.456 75.0766 61.3576 76.5793 62.7602C78.082 64.0625 79.184 65.7656 79.8853 67.669C80.5866 69.4723 80.4864 71.5761 79.6849 73.3794C78.7833 75.1826 77.2806 76.6854 75.4773 77.3866ZM65.8599 67.068C63.0548 68.8712 62.2534 70.975 63.7561 73.3794C64.1568 73.9805 64.6577 74.5816 65.2588 74.9823C65.8599 75.383 66.5612 75.6835 67.2625 75.7837C67.9637 75.8839 68.7652 75.8839 69.4664 75.7837C70.1677 75.5834 70.869 75.2828 71.4701 74.8821C73.9746 73.2792 74.6759 71.1754 73.4737 68.8712C73.1732 68.1699 72.6722 67.669 72.0712 67.1681C71.4701 66.6672 70.7688 66.3667 70.0675 66.2665C69.3663 66.0661 68.5648 66.0661 67.8635 66.2665C67.1623 66.2665 66.461 66.567 65.8599 67.068Z" fill="#EBF4EF"/>
<path d="M65.5605 66.5674C66.2618 65.9663 66.9631 65.5656 67.8647 65.3652C68.6662 65.1648 69.5678 65.1648 70.3692 65.265C71.1707 65.4654 71.9721 65.7659 72.6734 66.367C73.3747 66.8679 73.8756 67.5692 74.2763 68.3706C75.8792 70.8752 74.8774 73.3797 72.0723 75.183C71.371 75.6839 70.6698 75.9844 69.8683 76.1848C69.0669 76.3851 68.2654 76.3851 67.3638 76.1848C66.5623 75.9844 65.7609 75.6839 65.0596 75.183C64.3584 74.6821 63.7573 74.081 63.3565 73.3797C60.9522 70.8752 62.2546 68.4708 65.5605 66.5674Z" fill="#234E32"/>
<path d="M106.633 112.351C105.832 111.35 105.331 110.147 105.03 108.945C104.73 107.743 104.73 106.441 105.03 105.138C105.331 103.936 105.832 102.734 106.633 101.732C107.434 100.73 108.436 99.929 109.538 99.3279C110.64 98.5265 111.943 97.9254 113.245 97.6248C114.647 97.3243 115.95 97.4245 117.352 97.725C118.655 98.0256 119.957 98.7268 121.059 99.6285C122.161 100.53 122.963 101.632 123.564 102.834C126.269 107.142 126.269 111.55 119.757 115.758C118.755 116.559 117.553 117.06 116.25 117.26C114.948 117.461 113.646 117.461 112.443 117.16C111.241 116.86 110.039 116.259 109.037 115.457C107.935 114.555 107.134 113.554 106.633 112.351ZM113.445 104.838C112.544 105.439 111.943 105.84 111.342 106.14C110.74 106.641 110.24 107.242 109.939 108.044C109.638 108.745 109.638 109.647 109.739 110.348C109.939 111.149 110.34 111.851 110.941 112.351C111.542 112.852 112.243 113.253 113.045 113.353C114.147 113.654 115.349 113.654 116.451 113.353C117.553 113.053 118.655 112.552 119.456 111.851C120.258 111.249 120.859 110.348 121.059 109.346C121.259 108.344 121.159 107.342 120.658 106.441C120.258 105.439 119.556 104.638 118.655 104.137C117.753 103.636 116.751 103.435 115.749 103.636C115.048 104.036 114.147 104.437 113.445 104.838Z" fill="#EBF4EF"/>
<path d="M113.447 104.837C114.148 104.236 114.95 103.835 115.751 103.434C116.753 103.234 117.755 103.434 118.657 103.935C119.558 104.436 120.26 105.237 120.66 106.239C121.161 107.141 121.362 108.143 121.061 109.145C120.861 110.146 120.26 111.048 119.458 111.649C118.556 112.35 117.555 112.951 116.453 113.152C115.351 113.452 114.148 113.452 113.046 113.152C112.245 113.052 111.544 112.651 110.943 112.15C110.342 111.649 109.941 110.948 109.74 110.146C109.64 109.445 109.74 108.844 109.941 108.143C110.141 107.542 110.542 106.941 111.043 106.54C111.944 105.839 112.546 105.438 113.447 104.837Z" fill="#234E32"/>
<g filter="url(#filter1_d)">
<path d="M64.9456 187.006C71.3676 173.291 86.7886 160.215 98.6456 168.557C110.503 176.898 112.625 184.56 110.298 190.115C107.594 196.693 104.067 205.823 97.6534 211.145C91.2399 216.467 90.5342 214.918 90.5342 214.918L76.6439 217.857C68.1393 216.817 62.3603 210.964 61.2604 202.39C61.2604 202.39 61.6813 193.978 64.9456 187.006Z" fill="#F6C168"/>
</g>
<path d="M97.5725 205.462C93.8948 211.117 89.5134 216.213 84.4281 220.75C82.1822 222.78 79.8087 224.685 77.244 226.403C74.152 228.528 70.7462 230.081 67.5905 232.144C63.6477 234.626 59.4572 236.467 55.019 237.667C52.2114 238.483 51.8313 237.977 51.1811 234.557C52.103 233.874 53.2825 233.312 54.4643 232.619C58.0074 230.672 61.7419 228.913 65.2188 227.033C69.8898 223.81 74.1806 220.082 78.0251 215.914C79.8788 214.028 81.7348 212.012 83.3972 209.938C85.187 207.989 87.1706 206.098 88.5068 204.101C89.9068 202.166 91.1179 199.913 92.5203 197.848C92.9911 196.987 93.7168 196.376 94.5701 195.89C95.421 195.535 96.3994 195.304 97.3042 195.531C99.5038 195.971 99.9282 197.58 100.154 199.391C99.4676 201.365 98.585 203.411 97.5725 205.462Z" fill="#988FC1"/>
<path d="M67.3611 216.56C62.8225 219.648 57.9724 222.032 52.8109 223.713L38.9028 227.79L34.7956 228.653L33.6012 226.552C35.4499 224.926 37.615 223.743 39.9641 223.139C46.3002 221.155 52.4523 218.594 58.2292 215.266C60.6616 213.684 64.1803 213.037 65.4085 209.874C66.3918 209.384 67.8851 209.394 68.2259 208.538C71.8596 205.223 75.4271 201.975 78.6759 198.414C80.0023 196.937 81.7726 196.028 83.6632 195.635C86.3509 197.747 86.145 198.339 85.1252 200.779C84.0538 202.507 82.8548 204.11 81.5284 205.587C80.0033 207.267 78.4145 208.883 76.8257 210.5C73.7338 212.626 70.5094 214.887 67.3611 216.56Z" fill="#988FC1"/>
<path d="M59.9131 208.579C53.7487 211.791 47.214 213.976 40.4414 215.001C37.055 215.513 33.4725 216.098 30.0249 216.418C29.1765 216.643 28.2054 216.483 27.4992 216.054C26.7291 215.562 26.2239 214.801 26.0448 213.963C26.4396 213.689 26.8344 213.415 27.2929 213.203C34.2764 211.326 41.0121 208.808 47.4977 205.78C48.7433 205.15 49.9865 204.651 51.291 204.343C53.7725 203.604 56.1337 202.349 58.2424 200.714C61.5772 199.488 64.6642 197.623 67.3074 195.188C68.0356 194.447 68.8889 193.961 69.8059 193.538C70.7867 193.178 71.6989 193.015 72.7386 192.977C75.5441 195.735 75.5075 197.685 72.6633 200.452C71.3417 201.669 69.9564 202.823 68.5073 203.915L62.2548 208.365C61.4751 208.393 60.6953 208.421 59.9131 208.579Z" fill="#988FC1"/>
<path d="M114.504 186.079C113.329 186.382 112.893 185.423 112.125 184.801C107.789 180.54 103.321 176.414 98.8529 172.288C98.2177 171.531 97.3839 170.977 96.4839 170.489C95.584 170.002 94.5491 169.78 93.4481 169.625C92.0847 169.609 90.6552 169.661 89.4169 169.901C86.0281 170.543 83.0146 171.951 80.5087 173.991C78.0199 175.121 75.4011 176.255 72.9099 177.515C71.6054 177.822 71.6054 177.822 70.058 177.228C70.1389 176.38 70.4796 175.524 70.9479 174.792C71.4162 174.06 72.142 173.449 72.9953 172.964C78.0046 169.014 84.0292 166.327 90.6768 165.047C92.045 164.803 93.5384 164.814 94.9606 165.152C96.3829 165.491 97.7365 166.026 98.8254 166.831C103.696 170.293 108.036 174.294 111.587 178.843C113.498 180.853 114.489 183.416 114.504 186.079Z" fill="#234E32"/>
<defs>
<filter id="filter0_d" x="0.000133514" y="0.00012207" width="159.059" height="213" filterUnits="userSpaceOnUse" color-interpolation-filters="sRGB">
<feFlood flood-opacity="0" result="BackgroundImageFix"/>
<feColorMatrix in="SourceAlpha" type="matrix" values="0 0 0 0 0 0 0 0 0 0 0 0 0 0 0 0 0 0 127 0"/>
<feOffset dx="1" dy="1"/>
<feGaussianBlur stdDeviation="4"/>
<feColorMatrix type="matrix" values="0 0 0 0 0 0 0 0 0 0 0 0 0 0 0 0 0 0 0.15 0"/>
<feBlend mode="normal" in2="BackgroundImageFix" result="effect1_dropShadow"/>
<feBlend mode="normal" in="SourceGraphic" in2="effect1_dropShadow" result="shape"/>
</filter>
<filter id="filter1_d" x="54.2604" y="158.94" width="65.8729" height="67.9167" filterUnits="userSpaceOnUse" color-interpolation-filters="sRGB">
<feFlood flood-opacity="0" result="BackgroundImageFix"/>
<feColorMatrix in="SourceAlpha" type="matrix" values="0 0 0 0 0 0 0 0 0 0 0 0 0 0 0 0 0 0 127 0"/>
<feOffset dx="1" dy="1"/>
<feGaussianBlur stdDeviation="4"/>
<feColorMatrix type="matrix" values="0 0 0 0 0 0 0 0 0 0 0 0 0 0 0 0 0 0 0.15 0"/>
<feBlend mode="normal" in2="BackgroundImageFix" result="effect1_dropShadow"/>
<feBlend mode="normal" in="SourceGraphic" in2="effect1_dropShadow" result="shape"/>
</filter>
</defs>
</svg>
