<svg width="225" height="189" viewBox="0 0 225 189" fill="none" xmlns="http://www.w3.org/2000/svg">
<path d="M169.891 95.6925C163.835 109.401 144 119.416 126.536 120.781C105.5 123 87 120.781 83.946 119.416C62.8507 114.492 53.4343 97.4893 53.4343 97.4893C53.4343 97.4893 112.062 13.6071 169.891 95.6925Z" fill="white"/>
<path d="M136.573 101.77C131 122 94.5728 125.27 89.2581 100.838C84.6331 61.1097 143.793 55.42 136.573 101.77Z" fill="#CA5769"/>
<path class='lash lash-12' d="M122.687 15.1264C122.388 22.513 122.288 30.1326 120.757 36.022C119.826 39.6821 118.761 41.8116 117.297 40.6803C115.567 39.3494 114.469 35.5229 114.136 29.7001C113.504 17.7882 115.134 6.442 117.829 1.3179C120.092 -3.00764 122.854 4.04631 122.687 11.8656C122.654 12.9636 122.687 14.0616 122.687 15.1264Z" fill="#F6C168"/>
<path class='lash lash-11' d="M80.1861 16.4019C82.0494 16.8677 83.2806 18.2319 84.0458 20.0619C86.3084 25.3524 88.5045 30.7094 90.634 36.0997C91.2994 37.8299 91.6987 39.6932 91.3993 41.7894C90.8003 46.2481 87.4065 47.4792 84.8777 45.6159C83.1142 44.285 81.7833 42.5215 80.6852 40.4585C78.4559 36.2661 76.1601 32.1402 73.9973 27.8812C73.3318 26.6168 72.8327 25.0862 72.6996 23.5889C72.2671 18.9639 76.2931 15.1707 80.1861 16.4019Z" fill="#F6C168"/>
<path class='lash lash-10' d="M56.4622 70.3048C54.4658 67.7428 52.4694 65.1807 50.5063 62.6187C48.5765 60.0899 46.6466 57.5611 44.7833 54.9658C43.5189 53.169 42.2212 51.3723 41.4559 49.2428C40.7239 47.1133 40.7572 45.1834 42.4209 43.4199C43.4191 42.3552 44.5836 42.0224 45.9479 42.2554C47.911 42.5881 49.4748 43.5863 50.5729 45.2832C53.3345 49.642 56.1628 53.9343 58.8247 58.3264C60.1223 60.4892 61.1205 62.8183 62.152 65.1142C62.4847 65.8795 62.6511 66.7778 62.7509 67.6097C62.9506 69.3066 62.2518 70.6708 60.9541 71.303C59.4568 72.035 58.1925 71.5692 57.0944 70.4712C56.9613 70.3381 56.8282 70.2383 56.6619 70.1052C56.5953 70.205 56.5288 70.2715 56.4622 70.3048Z" fill="#F6C168"/>
<path class='lash lash-9' d="M25.1234 87.7523C28.6522 87.802 32.2049 87.8285 35.7098 87.9014C36.4388 87.9352 37.1903 88.0399 37.8695 88.2612C39.228 88.7039 39.9901 89.7264 40.02 90.9504C40.0683 92.5276 39.4182 93.5773 37.9285 94.0975C36.8881 94.4594 35.8019 94.7264 34.7178 94.8523C33.2559 95.067 31.796 95.1406 30.3122 95.2373C27.627 95.4348 24.9418 95.6323 22.2095 95.8291C22.1624 95.8285 22.0915 95.851 22.0213 95.8265C16.4673 95.8894 10.8888 96.0226 5.33608 95.9915C2.98287 96.0054 1.2274 93.6747 1.68334 91.3752C1.93781 90.014 2.84569 89.0385 4.10017 88.515C4.92853 88.1737 5.85033 87.8808 6.74497 87.8463C12.8649 87.6972 18.9835 87.6422 25.1028 87.5402C25.1247 87.6582 25.124 87.7052 25.1234 87.7523Z" fill="#F6C168"/>
<path class='lash lash-8' d="M53.4622 124.08C51.4658 126.642 49.4694 129.204 47.5063 131.766C45.5765 134.295 43.6466 136.823 41.7833 139.419C40.5189 141.215 39.2212 143.012 38.4559 145.142C37.7239 147.271 37.7572 149.201 39.4209 150.965C40.4191 152.029 41.5836 152.362 42.9479 152.129C44.911 151.796 46.4748 150.798 47.5729 149.101C50.3345 144.742 53.1628 140.45 55.8247 136.058C57.1223 133.895 58.1205 131.566 59.152 129.27C59.4847 128.505 59.6511 127.607 59.7509 126.775C59.9506 125.078 59.2518 123.714 57.9542 123.082C56.4568 122.349 55.1925 122.815 54.0944 123.913C53.9613 124.046 53.8283 124.146 53.6619 124.279C53.5953 124.18 53.5288 124.113 53.4622 124.08Z" fill="#F6C168"/>
<path class='lash lash-7' d="M72.5752 180.949C75.2606 181.946 80.6934 168.139 81.2806 166.314C83.0166 161.039 84.7015 155.698 86.3353 150.324C86.8459 148.598 87.1523 146.741 86.9225 144.651C86.463 140.205 83.859 138.978 81.9188 140.835C80.5658 142.162 79.5446 143.921 78.7022 145.978C75.4172 154.006 76.2582 157.019 72.5752 168.78C71.2711 174.966 69.8034 179.919 72.5752 180.949Z" fill="#F6C168"/>
<path class='lash lash-6' d="M108.629 173.278C108.928 165.892 109.028 158.272 110.559 152.383C111.49 148.723 112.555 146.593 114.019 147.724C115.749 149.055 116.847 152.882 117.18 158.705C117.812 170.617 116.182 181.963 113.487 187.087C111.224 191.412 108.463 184.358 108.629 176.539C108.662 175.441 108.629 174.343 108.629 173.278Z" fill="#F6C168"/>
<path class='lash lash-5' d="M149.82 172.983C147.956 172.517 146.725 171.153 145.96 169.323C143.697 164.032 141.501 158.675 139.372 153.285C138.706 151.555 138.307 149.691 138.606 147.595C139.205 143.136 142.599 141.905 145.128 143.769C146.892 145.1 148.222 146.863 149.321 148.926C151.55 153.118 153.846 157.244 156.008 161.503C156.674 162.768 157.173 164.298 157.306 165.796C157.739 170.421 153.713 174.214 149.82 172.983Z" fill="#F6C168"/>
<path class='lash lash-4' d="M175.46 124.129C178.028 126.118 180.595 128.108 183.13 130.106C185.625 132.08 188.119 134.053 190.566 136.108C192.235 137.537 193.936 138.958 195.204 140.832C196.439 142.715 196.883 144.593 195.707 146.713C195.002 147.991 193.956 148.601 192.577 148.712C190.592 148.875 188.83 148.294 187.347 146.921C183.594 143.379 179.794 139.918 176.13 136.32C174.338 134.544 172.795 132.534 171.229 130.564C170.717 129.904 170.334 129.075 170.032 128.294C169.42 126.699 169.76 125.204 170.861 124.271C172.131 123.192 173.472 123.331 174.807 124.124C174.969 124.22 175.122 124.284 175.316 124.372C175.356 124.258 175.404 124.177 175.46 124.129Z" fill="#F6C168"/>
<path class='lash lash-3' d="M192.853 90.6298C196.012 89.8762 199.172 89.1226 202.317 88.3992C205.419 87.6923 208.52 86.9854 211.655 86.3667C213.814 85.9617 215.987 85.5263 218.242 85.7134C220.484 85.9308 222.226 86.7617 223.14 89.007C223.695 90.357 223.515 91.5546 222.737 92.6993C221.62 94.3475 220.063 95.3563 218.063 95.6514C212.951 96.356 207.872 97.1487 202.772 97.7486C200.266 98.0321 197.732 97.9741 195.215 97.9602C194.381 97.9455 193.495 97.7242 192.696 97.4699C191.069 96.9476 190.118 95.7459 190.081 94.3029C190.036 92.6368 190.985 91.6796 192.439 91.136C192.616 91.0702 192.762 90.9905 192.952 90.8943C192.889 90.7924 192.856 90.7042 192.853 90.6298Z" fill="#F6C168"/>
<path class='lash lash-2' d="M175.182 53.3686C177.677 50.8731 180.173 48.3443 182.668 45.8821C183.201 45.383 183.8 44.9172 184.432 44.5845C185.696 43.919 186.961 44.0854 187.859 44.9172C189.023 45.9819 189.323 47.1798 188.657 48.6105C188.192 49.6087 187.626 50.5737 186.961 51.4388C186.095 52.6366 185.13 53.7346 184.166 54.8659C182.435 56.9289 180.705 58.9918 178.942 61.0881C178.908 61.1213 178.875 61.1879 178.809 61.2211C174.982 65.2472 171.189 69.3398 167.296 73.2994C165.666 74.9963 162.771 74.6303 161.44 72.7005C160.641 71.5692 160.575 70.2382 161.074 68.9738C161.407 68.142 161.839 67.2769 162.438 66.6114C166.597 62.1195 170.823 57.6942 175.015 53.2355C175.115 53.3021 175.148 53.3353 175.182 53.3686Z" fill="#F6C168"/>
<path class='lash lash-1' d="M159.51 21.3928C160.042 23.4891 158.811 25.2193 158.046 26.9828C156.116 31.4414 154.086 35.8668 151.924 40.2588C150.826 42.5214 149.561 44.784 148.064 46.7804C146.101 49.3757 142.541 50.1743 140.112 47.9117C138.614 46.5475 138.082 44.8506 138.481 42.8874C138.648 42.1221 138.914 41.3236 139.313 40.6248C142.241 35.3344 145.901 30.5097 149.927 26.0178C151.358 24.4207 152.988 22.99 154.585 21.5592C155.184 21.0268 155.95 20.6941 156.682 20.3614C157.88 19.829 158.778 20.3614 159.51 21.3928Z" fill="#F6C168"/>
</svg>
