<svg width="288" height="135" viewBox="0 0 288 135" fill="none" xmlns="http://www.w3.org/2000/svg">
<path d="M26.9873 46.6905C26.3136 52.6471 24.9662 57.9294 25.5277 63.6613C34.6224 26.2356 56.9663 2.63373 95.9277 0.161162C131.184 -2.08663 151.507 19.3798 163.409 51.9728C163.521 49.9498 163.633 49.3878 163.633 48.8259C163.409 38.5984 163.296 38.3736 173.065 35.6763C190.805 30.7311 207.535 32.6418 222.244 44.6675C223.816 46.0161 225.388 46.4657 227.296 46.3533C236.279 46.0161 244.7 48.2639 252.335 52.9843C254.581 54.4454 257.051 54.1082 259.409 54.2206C267.605 54.5578 274.791 57.1427 280.967 62.5374C286.244 67.2578 288.938 73.2144 287.703 80.6322C287.479 81.7561 287.367 82.88 287.479 84.0039C287.816 98.1649 281.865 106.257 268.167 110.078C266.595 110.528 264.798 111.315 263.226 111.09C248.967 109.516 235.268 115.248 221.121 113.899C219.324 113.675 217.865 114.012 216.405 115.136C197.766 129.859 175.759 134.13 152.742 134.916C136.012 135.478 119.507 133.231 103.675 127.499C101.429 126.712 99.5207 126.6 97.1628 127.161C78.9733 131.545 61.5698 129.971 45.0645 120.755C42.4821 119.294 40.0119 119.969 37.4294 119.856C18.7908 119.856 3.18377 106.482 0.376745 88.0499C-2.20571 69.8428 8.68553 52.4223 26.9873 46.6905Z" fill="#BBB9D1"/>
<path d="M63.5052 43.0523C67.1468 34.8368 78.732 28.695 89.5769 28.017C84.8748 49.892 116.629 53.9798 115.188 28.8346C127.874 31.7858 133.537 41.9755 133.537 41.9755C133.537 41.9755 98.2808 92.2461 63.5052 43.0523Z" fill="white"/>
<path d="M86.7156 28.2763C94.8593 26.8605 104.844 26.1028 115.168 28.8347C117.95 52.6439 82.3736 56.0537 86.7156 28.2763Z" fill="#234E32"/>
</svg>
