<svg width="267" height="124" viewBox="0 0 267 124" fill="none" xmlns="http://www.w3.org/2000/svg">
<path d="M215.255 71.6711C216.216 71.9913 223.499 74.1122 230.942 76.8735C233.103 77.3537 237.545 83.8366 239.426 84.3568C242.067 85.1172 244.108 87.3182 246.229 89.3991C246.83 89.9594 258.355 95.2017 262.637 99.2436C263.037 99.6437 263.397 100.084 263.717 100.524C272.961 114.771 252.472 114.09 242.107 112.97C240.387 112.77 228.541 117.212 222.899 116.171C221.618 115.931 220.258 116.051 219.017 116.491C207.972 120.493 200.048 122.414 185.402 112.93C180.8 109.968 174.397 114.13 168.034 116.411C154.868 121.253 151.106 116.171 142.262 115.691C135.94 115.331 130.177 117.292 128.856 118.492C122.293 124.535 113.85 124.615 105.166 119.453C99.163 115.891 51.7816 115.491 41.577 117.212C33.5734 118.412 26.4502 117.572 18.7267 115.051C17.9263 114.771 17.0459 114.651 16.2055 114.651C11.4434 114.731 6.8413 115.011 2.3993 111.809C1.47889 111.169 0.718543 110.329 0.198308 109.328C-2.56294 104.006 24.3292 95.0417 30.0118 93.8011C31.4524 93.481 32.733 92.7606 33.7334 91.6802C40.0563 84.9971 64.2272 75.5129 65.3877 73.592C66.6283 71.5511 67.8688 69.3101 69.6696 68.1095C69.9098 67.9494 70.1098 67.7894 70.3099 67.6293C78.9939 60.1059 92.2398 71.8312 98.2826 59.8258C98.4426 59.4656 104.565 50.7017 105.006 39.3766C105.326 30.3725 108.767 16.2461 122.774 12.2843C123.494 12.0842 130.497 4.56085 136.14 2.59997C160.791 -5.88386 172.476 9.08289 174.317 9.40303C175.677 9.68316 203.89 36.8154 200.729 48.7808C199.808 52.4625 209.693 69.7903 215.255 71.6711Z" fill="#BBB9D1"/>
<path d="M166.89 35.2384C164.64 40.2344 157.48 43.9692 150.778 44.3815C153.684 31.0792 134.061 28.5933 134.951 43.8844C127.112 42.0897 123.612 35.8933 123.612 35.8933C123.612 35.8933 145.4 5.32333 166.89 35.2384Z" fill="white"/>
<path d="M152.547 44.2239C147.514 45.0848 141.344 45.5456 134.963 43.8843C133.245 29.4058 155.23 27.3322 152.547 44.2239Z" fill="#234E32"/>
</svg>
