<svg width="118" height="66" viewBox="0 0 118 66" fill="none" xmlns="http://www.w3.org/2000/svg">
<path d="M67.6415 9.72764C68.2444 7.97189 69.7515 8.12238 71.0075 8.02206C78.7441 7.57058 84.9234 10.5303 89.2941 16.851C90.3491 18.3559 91.0524 18.4562 92.66 17.8543C100.748 14.6438 109.992 17.4028 114.564 24.6265C118.784 31.3485 119.688 38.6223 114.011 46.2473C108.987 53.0195 100.196 55.2769 92.1577 52.1166C90.4496 51.4142 89.495 51.5647 88.1386 52.9693C80.3015 61.0458 70.8065 63.253 60.1058 59.9422C58.2972 59.3904 57.192 59.4406 55.7351 60.8452C47.6468 68.721 34.0323 67.3665 27.5516 58.1864C26.6975 57.0327 25.944 56.1799 24.3866 56.1297C13.1333 56.0795 0.573789 45.4447 0.0211711 30.1947C-0.732399 9.57715 18.7599 -2.26164 37.9006 6.06564C40.0106 6.9686 41.0154 6.71778 42.4723 5.11252C48.9027 -1.86033 59.6034 -1.65967 65.7827 5.46367C66.7875 6.66762 67.7922 7.87156 67.6415 9.72764Z" fill="#BBB9D1"/>
<path d="M42.2157 26.2022C40.3324 30.4653 34.164 33.5798 28.7331 34.0041C22.1913 34.6942 16.4382 34.0041 15.4885 33.5798C8.92829 32.0484 6 26.761 6 26.761C6 26.761 24.232 0.675339 42.2157 26.2022Z" fill="white"/>
<path d="M26.6024 29.614C24.9715 35.4285 14.3107 36.3683 12.7553 29.3462C11.4017 17.9276 28.7155 16.2922 26.6024 29.614Z" fill="#234E32"/>
</svg>
