<svg width="101" height="66" viewBox="0 0 101 66" fill="none" xmlns="http://www.w3.org/2000/svg">
<path d="M64.533 64.9089C57.733 62.9089 48.633 64.3089 39.333 64.9089C30.633 65.5089 22.533 63.2089 15.333 58.1089C13.633 56.9089 11.733 55.5089 10.533 53.8089C5.23302 45.9089 1.93302 37.0089 0.233019 27.8089C-1.06698 20.9089 3.23302 15.1089 9.13302 11.7089C23.533 3.60892 38.533 -2.49108 55.633 1.00892C66.133 3.20892 75.933 6.80892 80.733 17.6089C81.633 19.6089 83.633 19.6089 85.233 20.4089C92.633 24.1089 98.833 29.0089 100.533 37.6089C102.333 46.8089 96.733 55.7089 86.633 60.6089C80.433 63.7089 73.833 65.2089 64.533 64.9089Z" fill="#BBB9D1"/>
<path d="M50.2157 25.2022C48.3324 29.4653 42.164 32.5798 36.7331 33.0041C30.1913 33.6942 24.4382 33.0041 23.4885 32.5798C16.9283 31.0484 14 25.761 14 25.761C14 25.761 32.232 -0.324661 50.2157 25.2022Z" fill="white"/>
<path d="M34.6024 28.614C32.9715 34.4285 22.3107 35.3683 20.7553 28.3462C19.4017 16.9276 36.7155 15.2922 34.6024 28.614Z" fill="#234E32"/>
</svg>
