<svg width="397" height="140" viewBox="0 0 397 140" fill="none" xmlns="http://www.w3.org/2000/svg">
<path d="M351.668 137.38C296.314 130.492 241.056 142.834 184.84 138.815C157.929 135.18 133.509 139.677 106.981 130.205C73.4619 129.631 35.9208 131.831 7.38185 123.029C-23.5513 106.86 52.4887 112.122 56.4152 105.042C69.9185 95.0916 66.6624 88.0115 85.7202 85.7153C104.299 54.1423 146.916 51.9417 179.094 61.7964C187.713 68.5893 181.967 23.3347 222.669 24.2914C236.076 10.3227 243.355 -2.01945 262.413 0.276775C335.484 12.0449 297.176 20.0817 327.726 31.7541C392.274 35.1028 433.071 129.152 351.668 137.38Z" fill="#BBB9D1"/>
<path d="M273.913 83.408C268.363 92.2016 253.732 97.0601 241.607 96.2219C226.943 95.6076 214.471 92.2046 212.514 90.958C198.535 85.4346 193.8 72.8079 193.8 72.8079C193.8 72.8079 242.562 21.1924 273.913 83.408Z" fill="white"/>
<mask id="mask0" mask-type="alpha" maskUnits="userSpaceOnUse" x="191" y="46" width="87" height="56">
<path d="M273.913 83.408C268.363 92.2016 253.732 97.0601 241.607 96.2219C226.943 95.6076 214.471 92.2046 212.514 90.958C198.535 85.4346 193.8 72.8079 193.8 72.8079C193.8 72.8079 242.562 21.1924 273.913 83.408Z" fill="white"/>
</mask>
<g mask="url(#mask0)">
<path d="M230.641 94.032C221.945 113.482 184.253 111.254 182.453 85.943C183.629 45.3926 244.899 48.6309 230.641 94.032Z" fill="#234E32"/>
</g>
</svg>
