<svg width="1024" height="202" viewBox="0 0 1024 202" fill="none" xmlns="http://www.w3.org/2000/svg">
<path d="M904.113 22.8889C905.254 20.0339 905.434 17.1507 904.796 14.6274C904.165 12.0995 902.72 9.93667 900.78 8.33048C900.756 8.30922 900.435 8.4986 900.434 8.52865C900.57 11.152 899.671 14.0192 898.706 16.5272C897.745 19.0704 896.776 21.2474 896.7 23.3638C896.685 23.8794 903.818 23.641 904.113 22.8889Z" fill="#3E6F17"/>
<path d="M138.135 178.328C136.994 181.183 136.815 184.066 137.452 186.59C138.083 189.118 139.528 191.28 141.468 192.887C141.492 192.908 141.813 192.718 141.814 192.688C141.678 190.065 142.578 187.198 143.542 184.69C144.503 182.147 145.472 179.97 145.548 177.853C145.564 177.338 138.431 177.576 138.135 178.328Z" fill="#3E6F17"/>
<path d="M821.113 23.8889C822.254 21.0339 822.434 18.1507 821.796 15.6274C821.165 13.0995 819.72 10.9367 817.78 9.33048C817.756 9.30922 817.435 9.4986 817.434 9.52865C817.57 12.152 816.671 15.0192 815.706 17.5272C814.745 20.0704 813.776 22.2474 813.7 24.3638C813.685 24.8794 820.818 24.641 821.113 23.8889Z" fill="#3E6F17"/>
<path d="M221.135 177.328C219.994 180.183 219.815 183.066 220.452 185.59C221.083 188.118 222.528 190.28 224.468 191.887C224.492 191.908 224.813 191.718 224.814 191.688C224.678 189.065 225.578 186.198 226.542 183.69C227.503 181.147 228.472 178.97 228.548 176.853C228.564 176.338 221.431 176.576 221.135 177.328Z" fill="#3E6F17"/>
<path d="M987.113 23.8889C988.254 21.0339 988.434 18.1507 987.796 15.6274C987.165 13.0995 985.72 10.9367 983.78 9.33048C983.756 9.30922 983.435 9.4986 983.434 9.52865C983.57 12.152 982.671 15.0192 981.706 17.5272C980.745 20.0704 979.776 22.2474 979.7 24.3638C979.685 24.8794 986.818 24.641 987.113 23.8889Z" fill="#3E6F17"/>
<path d="M55.1351 177.328C53.994 180.183 53.8145 183.066 54.4524 185.59C55.0831 188.118 56.5279 190.28 58.4679 191.887C58.492 191.908 58.8134 191.718 58.8139 191.688C58.6779 189.065 59.5778 186.198 60.5418 183.69C61.503 181.147 62.4722 178.97 62.5484 176.853C62.5637 176.338 55.4306 176.576 55.1351 177.328Z" fill="#3E6F17"/>
<path d="M145.291 27.7582C144.986 18.6423 147.365 10.3543 151.055 3.0938C151.076 3.04586 151.402 3.20435 151.398 3.25924C151.352 7.76923 151.99 12.5392 152.463 17.1492C152.933 21.7637 153.245 26.2242 152.531 30.3095C152.342 31.3359 145.327 28.9163 145.291 27.7582Z" fill="#3E6F17"/>
<path d="M896.957 173.459C897.262 182.575 894.883 190.863 891.194 198.123C891.172 198.171 890.846 198.013 890.85 197.958C890.896 193.448 890.259 188.678 889.785 184.068C889.316 179.453 889.003 174.993 889.717 170.908C889.906 169.881 896.922 172.301 896.957 173.459Z" fill="#3E6F17"/>
<path d="M371.291 27.7582C370.986 18.6423 373.365 10.3543 377.055 3.0938C377.076 3.04586 377.402 3.20435 377.398 3.25924C377.352 7.76923 377.99 12.5392 378.463 17.1492C378.933 21.7637 379.245 26.2242 378.531 30.3095C378.342 31.3359 371.327 28.9163 371.291 27.7582Z" fill="#3E6F17"/>
<path d="M670.957 173.459C671.262 182.575 668.883 190.863 665.194 198.123C665.172 198.171 664.846 198.013 664.85 197.958C664.896 193.448 664.259 188.678 663.785 184.068C663.316 179.453 663.003 174.993 663.717 170.908C663.906 169.881 670.922 172.301 670.957 173.459Z" fill="#3E6F17"/>
<path d="M0 20.0001H1024V182H0V20.0001Z" fill="#B3CF9C"/>
<path d="M20.6209 31.5125C23.4159 22.595 23.6761 13.6795 22.6819 5.11296C22.6797 5.06054 22.3201 5.09409 22.2964 5.14995C20.7885 9.62843 18.6269 14.1552 16.7368 18.6093C14.8491 23.0693 13.2295 27.4714 12.7946 31.8115C12.6954 32.9094 20.2626 32.6448 20.6209 31.5125Z" fill="#3E6F17"/>
<path d="M69.6209 31.5125C72.4159 22.595 72.6761 13.6795 71.6819 5.11296C71.6797 5.06054 71.3201 5.09408 71.2964 5.14995C69.7885 9.62843 67.6269 14.1552 65.7368 18.6093C63.8491 23.0693 62.2295 27.4714 61.7946 31.8115C61.6954 32.9094 69.2626 32.6448 69.6209 31.5125Z" fill="#3E6F17"/>
<path d="M972.627 169.705C969.832 178.622 969.572 187.538 970.566 196.104C970.569 196.156 970.928 196.123 970.952 196.067C972.46 191.589 974.621 187.062 976.511 182.608C978.399 178.148 980.019 173.746 980.454 169.406C980.553 168.308 972.986 168.572 972.627 169.705Z" fill="#3E6F17"/>
<path d="M286.621 31.5125C289.416 22.595 289.676 13.6795 288.682 5.11296C288.68 5.06054 288.32 5.09408 288.296 5.14995C286.788 9.62843 284.627 14.1552 282.737 18.6093C280.849 23.0693 279.23 27.4714 278.795 31.8115C278.695 32.9094 286.263 32.6448 286.621 31.5125Z" fill="#3E6F17"/>
<path d="M755.627 169.705C752.832 178.622 752.572 187.538 753.566 196.104C753.569 196.156 753.928 196.123 753.952 196.067C755.46 191.589 757.621 187.062 759.511 182.608C761.399 178.148 763.019 173.746 763.454 169.406C763.553 168.308 755.986 168.572 755.627 169.705Z" fill="#3E6F17"/>
<path d="M427.621 31.5125C430.416 22.595 430.676 13.6795 429.682 5.11296C429.68 5.06054 429.32 5.09409 429.296 5.14995C427.788 9.62843 425.627 14.1552 423.737 18.6093C421.849 23.0693 420.23 27.4714 419.795 31.8115C419.695 32.9094 427.263 32.6448 427.621 31.5125Z" fill="#3E6F17"/>
<path d="M614.627 169.705C611.832 178.622 611.572 187.538 612.566 196.104C612.569 196.156 612.928 196.123 612.952 196.067C614.46 191.589 616.621 187.062 618.511 182.608C620.399 178.148 622.019 173.746 622.454 169.406C622.553 168.308 614.986 168.572 614.627 169.705Z" fill="#3E6F17"/>
<path d="M718.621 31.5125C721.416 22.595 721.676 13.6795 720.682 5.11296C720.68 5.06054 720.32 5.09409 720.296 5.14995C718.788 9.62843 716.627 14.1552 714.737 18.6093C712.849 23.0693 711.23 27.4714 710.795 31.8115C710.695 32.9094 718.263 32.6448 718.621 31.5125Z" fill="#3E6F17"/>
<path d="M323.627 169.705C320.832 178.622 320.572 187.538 321.566 196.104C321.569 196.156 321.928 196.123 321.952 196.067C323.46 191.589 325.621 187.062 327.511 182.608C329.399 178.148 331.019 173.746 331.454 169.406C331.553 168.308 323.986 168.572 323.627 169.705Z" fill="#3E6F17"/>
<path d="M229.978 31.8328C231.705 24.7521 230.622 17.9213 228.09 11.8485C228.073 11.815 227.721 11.9046 227.712 11.9437C226.999 15.4931 225.578 19.1548 224.35 22.6732C223.128 26.2027 222.102 29.5944 222.203 32.842C222.232 33.6506 229.757 32.729 229.978 31.8328Z" fill="#3E6F17"/>
<path d="M812.27 169.384C810.543 176.465 811.627 183.296 814.158 189.369C814.175 189.402 814.527 189.312 814.536 189.273C815.249 185.724 816.67 182.062 817.898 178.544C819.12 175.014 820.146 171.623 820.045 168.375C820.017 167.566 812.491 168.488 812.27 169.384Z" fill="#3E6F17"/>
<path d="M510.978 31.8328C512.705 24.7521 511.622 17.9213 509.09 11.8485C509.073 11.815 508.721 11.9046 508.712 11.9437C507.999 15.4931 506.578 19.1548 505.35 22.6732C504.128 26.2027 503.102 29.5944 503.203 32.842C503.232 33.6506 510.757 32.729 510.978 31.8328Z" fill="#3E6F17"/>
<path d="M531.27 169.384C529.543 176.465 530.627 183.296 533.158 189.369C533.175 189.402 533.527 189.312 533.536 189.273C534.249 185.724 535.67 182.062 536.898 178.544C538.12 175.014 539.146 171.623 539.045 168.375C539.017 167.566 531.491 168.488 531.27 169.384Z" fill="#3E6F17"/>
<path d="M681.978 31.8328C683.705 24.7521 682.622 17.9213 680.09 11.8485C680.073 11.815 679.721 11.9046 679.712 11.9437C678.999 15.4931 677.578 19.1548 676.35 22.6732C675.128 26.2027 674.102 29.5944 674.203 32.842C674.232 33.6506 681.757 32.729 681.978 31.8328Z" fill="#3E6F17"/>
<path d="M360.27 169.384C358.543 176.465 359.627 183.296 362.158 189.369C362.175 189.402 362.527 189.312 362.536 189.273C363.249 185.724 364.67 182.062 365.898 178.544C367.12 175.014 368.146 171.623 368.045 168.375C368.017 167.566 360.491 168.488 360.27 169.384Z" fill="#3E6F17"/>
<path d="M864.978 28.0638C866.705 20.9831 865.622 14.1523 863.09 8.07945C863.073 8.046 862.721 8.13557 862.712 8.17461C861.999 11.7241 860.578 15.3858 859.35 18.9041C858.128 22.4336 857.102 25.8254 857.203 29.073C857.232 29.8816 864.757 28.96 864.978 28.0638Z" fill="#3E6F17"/>
<path d="M177.27 173.153C175.543 180.234 176.627 187.065 179.158 193.138C179.175 193.171 179.527 193.081 179.536 193.042C180.249 189.493 181.67 185.831 182.898 182.313C184.12 178.783 185.146 175.392 185.045 172.144C185.017 171.335 177.491 172.257 177.27 173.153Z" fill="#3E6F17"/>
<path d="M597.291 27.7582C596.986 18.6423 599.365 10.3543 603.055 3.0938C603.076 3.04586 603.402 3.20435 603.398 3.25924C603.352 7.76923 603.99 12.5392 604.463 17.1492C604.933 21.7637 605.245 26.2242 604.531 30.3095C604.342 31.3359 597.327 28.9163 597.291 27.7582Z" fill="#3E6F17"/>
<path d="M444.957 173.459C445.262 182.575 442.883 190.863 439.194 198.123C439.172 198.171 438.846 198.013 438.85 197.958C438.896 193.448 438.259 188.678 437.785 184.068C437.316 179.453 437.003 174.993 437.717 170.908C437.906 169.881 444.922 172.301 444.957 173.459Z" fill="#3E6F17"/>
<path d="M756.291 24.7582C755.986 15.6423 758.365 7.35425 762.055 0.0937972C762.076 0.045857 762.402 0.204349 762.398 0.259244C762.352 4.76923 762.99 9.53916 763.463 14.1492C763.933 18.7637 764.245 23.2242 763.531 27.3095C763.342 28.3359 756.327 25.9163 756.291 24.7582Z" fill="#3E6F17"/>
<path d="M285.957 176.459C286.262 185.575 283.883 193.863 280.194 201.123C280.172 201.171 279.846 201.013 279.85 200.958C279.896 196.448 279.259 191.678 278.785 187.068C278.316 182.453 278.003 177.993 278.717 173.908C278.906 172.881 285.922 175.301 285.957 176.459Z" fill="#3E6F17"/>
<path d="M29.957 176.463C30.2621 185.579 27.883 193.867 24.1935 201.127C24.1722 201.175 23.8458 201.017 23.8505 200.962C23.8959 196.452 23.2587 191.682 22.785 187.072C22.3156 182.457 22.0034 177.997 22.7173 173.911C22.9063 172.885 29.9216 175.305 29.957 176.463Z" fill="#3E6F17"/>
</svg>
