<svg width="50" height="60" viewBox="0 0 50 60" fill="none" xmlns="http://www.w3.org/2000/svg">
<g clip-path="url(#clip0)">
<path d="M49.7436 29.9959C49.6787 30.435 49.6221 30.8757 49.5472 31.313C49.0125 34.4329 47.6387 37.131 45.4386 39.4021C43.057 41.8603 40.1569 43.3487 36.7974 43.9579C36.6676 43.9813 36.5364 43.9958 36.3859 44.0172C36.378 43.9454 36.3652 43.8833 36.3652 43.8212C36.3642 42.5444 36.3666 41.2681 36.3614 39.9913C36.3607 39.8429 36.3983 39.7818 36.5533 39.7432C40.9666 38.6407 43.8529 35.906 44.9996 31.5108C45.9526 27.858 45.1649 24.4824 42.7743 21.5503C40.9801 19.3499 38.6271 18.0463 35.8081 17.6569C32.4034 17.1868 29.3845 18.0766 26.8344 20.4002C24.7876 22.2651 23.6468 24.6222 23.2806 27.3517C22.8443 30.6027 23.7062 33.4927 25.8151 35.9958C27.3415 37.8072 29.2689 39.0131 31.5556 39.6403C31.6115 39.6555 31.6675 39.6707 31.723 39.6862C31.7544 39.6948 31.7859 39.7042 31.8269 39.7162C31.8269 41.1321 31.8269 42.5469 31.8269 44.0086C31.3257 43.8944 30.8387 43.8063 30.3648 43.6721C26.0388 42.4488 22.7055 39.9468 20.5406 35.9709C19.5659 34.1803 19.0436 32.2488 18.8462 30.222C18.5021 26.6921 19.279 23.4276 21.2475 20.4869C23.759 16.735 27.2379 14.351 31.7072 13.5913C36.7076 12.7415 41.1151 14.1108 44.8429 17.533C47.5373 20.0067 49.1078 23.1087 49.6342 26.7328C49.6742 27.0076 49.7073 27.283 49.7436 27.5584C49.7436 28.3709 49.7436 29.1834 49.7436 29.9959Z" fill="white"/>
<path d="M32.6339 0C32.9994 0.0576412 33.3732 0.0842183 33.7295 0.177411C36.3886 0.871521 38.003 2.5766 38.5991 5.25432C38.606 5.2847 38.6122 5.31507 38.6654 5.34821C38.6692 5.26675 38.6761 5.18564 38.6761 5.10418C38.6768 3.65349 38.6764 2.20245 38.6768 0.751752C38.6768 0.407975 38.8193 0.2423 39.1597 0.228839C39.4489 0.217449 39.7399 0.226078 40.0288 0.244716C40.2818 0.260939 40.4351 0.427649 40.4454 0.681685C40.4592 1.02097 40.4661 1.36095 40.4672 1.70059C40.4741 4.50257 40.4789 7.30456 40.4844 10.1065C40.4848 10.362 40.4844 10.617 40.4844 10.8869C41.3287 10.8869 42.1436 10.8869 42.9755 10.8869C42.98 10.7979 42.9872 10.7175 42.9872 10.637C42.9934 8.15019 42.9976 5.66333 43.0045 3.17648C43.0066 2.37261 43.0145 1.56874 43.0214 0.764868C43.0245 0.422472 43.2161 0.225733 43.5612 0.225042C45.3679 0.222626 47.1741 0.221246 48.9807 0.225387C49.5019 0.226423 49.6469 0.377602 49.6521 0.889469C49.6538 1.05514 49.6507 1.22117 49.6448 1.3865C49.631 1.77928 49.4533 1.94807 49.0529 1.94807C47.9173 1.94876 46.7817 1.94841 45.6461 1.94841C45.391 1.94841 45.1362 1.94841 44.8636 1.94841C44.8636 2.98906 44.8636 3.98691 44.8636 5.01582C44.9633 5.01582 45.052 5.01582 45.1407 5.01582C46.4006 5.01582 47.6608 5.01548 48.9207 5.01582C49.3473 5.01582 49.522 5.18391 49.5358 5.6126C49.5416 5.79449 49.544 5.97743 49.5354 6.15932C49.5168 6.55591 49.3369 6.72366 48.941 6.72366C47.6812 6.724 46.421 6.72366 45.1611 6.72366C45.0714 6.72366 44.9813 6.72366 44.8684 6.72366C44.8684 8.12016 44.8684 9.49699 44.8684 10.9183C45.3689 10.9183 45.8639 10.9183 46.3588 10.9183C47.2708 10.9183 48.1824 10.9177 49.0943 10.9187C49.4671 10.919 49.6428 11.0885 49.6517 11.4585C49.6562 11.6408 49.6542 11.8233 49.6524 12.0056C49.6486 12.4519 49.4809 12.6238 49.038 12.6262C48.1927 12.631 47.347 12.6341 46.5017 12.6345C44.3465 12.6355 42.1916 12.6352 40.0364 12.6345C39.763 12.6345 39.4893 12.6334 39.2159 12.6255C38.8273 12.6141 38.6771 12.4595 38.6771 12.0777C38.6764 10.6685 38.6768 9.25883 38.6768 7.84956C38.6768 7.76085 38.6768 7.67249 38.6768 7.58379C38.3116 9.19291 37.5084 10.5166 36.204 11.5179C34.9061 12.514 33.4343 12.9879 31.7945 12.8792C29.3431 12.7166 26.4633 10.8645 25.8696 7.48369C25.8696 7.57136 25.8696 7.65903 25.8696 7.74636C25.8696 9.18877 25.8696 10.6315 25.8696 12.0739C25.8696 12.4419 25.7436 12.5913 25.3774 12.6186C25.122 12.6376 24.8631 12.6417 24.6077 12.6251C24.2315 12.6006 24.0803 12.4246 24.0796 12.047C24.0761 10.4137 24.0737 8.78079 24.071 7.14751C24.071 7.04914 24.071 6.95077 24.071 6.83376C22.2108 6.83376 20.3677 6.83376 18.4968 6.83376C18.4927 6.92592 18.4851 7.02118 18.4848 7.11644C18.4785 8.73281 18.473 10.3492 18.4672 11.9656C18.4654 12.4829 18.3443 12.6113 17.8279 12.6279C17.6046 12.6348 17.3792 12.641 17.1576 12.6189C16.8065 12.5837 16.6692 12.4149 16.6685 12.0587C16.6654 9.7707 16.6626 7.48231 16.6602 5.19427C16.6595 4.42491 16.6602 3.65556 16.6602 2.88655C16.635 2.88102 16.6098 2.8755 16.5846 2.86998C16.5308 3.00079 16.4759 3.13092 16.4238 3.26208C15.2481 6.21351 14.0728 9.1653 12.8972 12.1167C12.8544 12.2241 12.805 12.329 12.7574 12.4346C12.6676 12.6327 12.5192 12.756 12.2966 12.7546C12.0567 12.7529 11.8865 12.6248 11.7975 12.4077C11.6722 12.1015 11.5596 11.7899 11.4457 11.4792C10.6015 9.18014 9.75821 6.88105 8.91427 4.58196C8.87492 4.47496 8.83281 4.36934 8.76861 4.20332C8.63676 4.52811 8.52423 4.79872 8.41654 5.07139C7.51047 7.36461 6.60579 9.65853 5.69938 11.9517C5.64173 12.0977 5.57857 12.242 5.51126 12.3839C5.41289 12.5906 5.27171 12.7422 5.0187 12.7346C4.76224 12.7266 4.60726 12.5879 4.52097 12.3559C4.25312 11.6345 3.98009 10.9152 3.71673 10.1925C2.61737 7.17581 1.5218 4.1588 0.425893 1.14178C0.40035 1.07171 0.377224 1.00095 0.357204 0.929162C0.247441 0.533613 0.393102 0.285445 0.801436 0.248513C1.13728 0.218139 1.47831 0.230565 1.81589 0.245752C2.07442 0.257487 2.1652 0.468033 2.23941 0.676162C2.68916 1.93875 3.13788 3.20168 3.58591 4.46495C4.04774 5.76723 4.50785 7.06985 4.969 8.37213C4.99558 8.44737 5.02457 8.52158 5.07807 8.66378C5.19405 8.37213 5.28828 8.13914 5.38009 7.90513C6.30549 5.53942 7.2302 3.17372 8.15559 0.808012C8.20392 0.684791 8.25811 0.563641 8.30988 0.441801C8.39997 0.229875 8.56117 0.110795 8.79036 0.111141C9.02093 0.111141 9.18627 0.238158 9.27083 0.445943C9.42374 0.821128 9.56423 1.20149 9.70471 1.58151C10.531 3.81675 11.3556 6.05267 12.1809 8.28825C12.2206 8.39525 12.2638 8.50087 12.3259 8.65999C12.4554 8.33899 12.5675 8.06666 12.6752 7.79192C13.5927 5.45003 14.5091 3.10779 15.4269 0.766248C15.6257 0.259213 15.6816 0.224007 16.2363 0.224007C16.7824 0.224007 17.3288 0.208475 17.8738 0.229184C18.3543 0.247132 18.464 0.385195 18.4675 0.858405C18.4779 2.22592 18.4899 3.59308 18.5017 4.9606C18.502 4.98545 18.5068 5.00995 18.512 5.05448C20.3452 5.05448 22.1798 5.05448 24.071 5.05448C24.071 4.78905 24.0706 4.52017 24.071 4.25095C24.0734 3.09019 24.0761 1.92977 24.0792 0.76901C24.0803 0.442491 24.2208 0.267497 24.5425 0.245752C24.8383 0.225733 25.1375 0.226768 25.4333 0.246787C25.7447 0.267842 25.8693 0.421437 25.8693 0.732768C25.87 2.20038 25.8696 3.66764 25.8696 5.13524C25.8696 5.22291 25.8696 5.31058 25.8696 5.39825C26.0415 4.66583 26.2787 3.96344 26.668 3.32248C27.8571 1.3651 29.5729 0.237813 31.8738 0.0414188C31.9291 0.0365866 31.9826 0.0144966 32.0368 0.000345157C32.2359 0 32.4347 0 32.6339 0ZM32.2749 11.0678C34.8533 11.0695 36.8681 9.0476 36.8698 6.4572C36.8712 3.87749 34.7853 1.79413 32.2256 1.81898C29.662 1.84383 27.6669 3.89371 27.6604 6.51C27.6538 8.94819 29.7983 11.0661 32.2749 11.0678Z" fill="white"/>
<path d="M15.0386 28.037C15.6706 28.4626 16.2664 28.9986 16.7607 29.6396C17.8766 31.0862 18.4009 32.7374 18.4648 34.5529C18.5459 36.8675 17.9449 38.9647 16.4749 40.7747C15.1228 42.4398 13.3621 43.46 11.2735 43.8918C8.67716 44.4286 6.19092 44.1255 3.89969 42.7325C1.67508 41.3798 0.399339 39.382 0.0272476 36.8085C-0.00795953 36.5645 -0.00519818 36.3108 0.0130957 36.064C0.0479577 35.596 0.430749 35.1814 0.965415 35.1286C1.61433 35.0644 2.27153 35.061 2.92459 35.0672C3.80201 35.0758 4.19412 35.3627 4.32114 36.2273C4.67459 38.6306 7.21641 40.1935 9.59738 39.9708C12.0898 39.7375 14.0318 37.7815 14.1498 35.1217C14.2299 33.3128 13.6303 31.8017 12.0595 30.7776C11.3999 30.3475 10.6612 30.1501 9.88008 30.0935C9.58323 30.0721 9.28328 30.0555 8.99265 29.9979C8.50631 29.9012 8.13698 29.5043 8.11661 29.0131C8.08934 28.3525 8.08831 27.6891 8.12006 27.0288C8.14595 26.4935 8.6033 26.1166 9.21218 26.0665C9.83935 26.0151 10.4679 25.9803 11.065 25.7497C12.7633 25.0942 13.7884 23.5051 13.7322 21.6075C13.661 19.2003 11.9073 17.5087 9.49107 17.4984C8.61883 17.4946 7.79388 17.6544 7.04003 18.1034C6.13259 18.6439 5.62036 19.4675 5.37977 20.4781C5.31661 20.7435 5.26725 21.0141 5.17923 21.2713C5.00975 21.7673 4.66182 22.0558 4.12405 22.0589C3.44545 22.0627 2.76443 22.0807 2.08825 22.0348C1.36029 21.9854 0.979567 21.5222 0.992338 20.7915C1.00407 20.1095 1.22912 19.4751 1.44313 18.8396C1.99712 17.1929 2.90561 15.8016 4.36256 14.8092C5.51715 14.0226 6.80359 13.5926 8.18357 13.449C9.96085 13.264 11.6946 13.4473 13.3262 14.2204C16.1763 15.5707 17.7313 17.8446 18.0126 20.9731C18.1924 22.9732 17.7596 24.8357 16.5159 26.4472C16.0803 27.013 15.5426 27.5007 15.0386 28.037Z" fill="white"/>
<path d="M31.6329 22.0158C31.6847 22.5795 31.7375 23.1427 31.7879 23.7064C31.9073 25.0428 32.0257 26.3793 32.1445 27.7157C32.1476 27.7485 32.1455 27.7861 32.1607 27.8131C32.2207 27.9183 32.287 28.0205 32.3509 28.1237C32.4375 28.0174 32.5849 27.9194 32.6004 27.8038C32.6798 27.2132 32.7271 26.6185 32.782 26.0248C32.9025 24.7243 33.0205 23.4237 33.1945 22.1187C33.2204 22.3765 33.2466 22.634 33.2725 22.8918C33.4181 24.3335 33.5641 25.7753 33.7095 27.2173C33.7319 27.4389 33.7288 27.6671 33.784 27.88C33.8113 27.985 33.9445 28.0626 34.0298 28.1524C34.1105 28.0571 34.2465 27.9698 34.2624 27.8648C34.319 27.4893 34.3387 27.1083 34.3649 26.7286C34.4699 25.2251 34.5724 23.7216 34.6763 22.2177C34.6773 22.2019 34.6859 22.1863 34.7125 22.1024C34.7429 22.2112 34.7646 22.2619 34.7709 22.3147C34.9752 24.0581 35.1771 25.8015 35.3828 27.5445C35.3973 27.6667 35.4156 27.7975 35.4722 27.9028C35.5157 27.9836 35.6224 28.0298 35.7011 28.0916C35.757 28.0177 35.8536 27.9484 35.8623 27.8693C35.9089 27.4417 35.9372 27.012 35.9651 26.5826C36.0635 25.0787 36.1591 23.5749 36.2561 22.071C36.2582 22.0386 36.2644 22.0065 36.3089 21.9678C36.3773 22.3133 36.4491 22.6581 36.5133 23.0043C36.944 25.3172 37.3044 27.6405 37.4097 29.9938C37.4494 30.885 37.4697 31.7848 37.3924 32.6715C37.3213 33.4871 37.0155 34.2285 36.3679 34.8142C35.805 35.323 35.3318 35.9329 35.2541 36.7268C35.2085 37.1924 35.2579 37.668 35.2713 38.1388C35.3273 40.0841 35.3859 42.0294 35.4432 43.9747C35.4529 44.3085 35.4519 44.3099 35.106 44.3137C34.4681 44.3202 33.8303 44.3261 33.1921 44.3299C32.8738 44.3316 32.8704 44.3219 32.8773 44.011C32.9263 41.8582 32.9394 39.7041 33.0367 37.5534C33.0868 36.4468 32.6764 35.5922 31.8804 34.9088C31.0813 34.2226 30.7817 33.3249 30.7017 32.3408C30.557 30.5595 30.6813 28.7795 30.8825 27.0095C31.0665 25.3901 31.3174 23.7778 31.5397 22.1625C31.5466 22.1114 31.567 22.0621 31.5808 22.012C31.5991 22.0134 31.616 22.0144 31.6329 22.0158Z" fill="white"/>
<path d="M8.82289 50.3852C8.82289 51.1794 8.82289 51.9302 8.82289 52.7171C9.16875 52.7171 9.50287 52.7171 9.84908 52.7171C9.84908 52.9984 9.84908 53.2438 9.84908 53.5072C8.83532 53.5072 7.82156 53.5072 6.7933 53.5072C6.7933 53.2573 6.7933 53.0126 6.7933 52.733C7.10257 52.733 7.41219 52.733 7.73872 52.733C7.73872 50.6144 7.73872 48.5307 7.73872 46.417C7.1509 46.417 6.56066 46.417 5.95454 46.417C5.95454 47.6909 5.95454 48.9704 5.95454 50.2841C6.28452 50.2841 6.59483 50.2841 6.91618 50.2841C6.91618 50.5637 6.91618 50.8091 6.91618 51.0711C6.28625 51.0711 5.66081 51.0711 5.00533 51.0711C5.00533 50.8357 5.00533 50.6003 5.00533 50.2917C4.3074 51.0766 3.47831 51.3265 2.52737 51.2136C1.79147 51.1263 1.20261 50.7704 0.736633 50.2009C-0.161841 49.1026 -0.0468996 47.246 0.954779 46.2333C1.86602 45.3121 3.7824 45.0274 4.99256 46.341C4.99256 46.0597 4.99256 45.8216 4.99256 45.5751C6.26727 45.5751 7.49952 45.5751 8.76249 45.5751C8.76249 45.814 8.76249 46.048 8.76249 46.3548C8.87708 46.2468 8.93714 46.186 9.00169 46.1298C9.89982 45.3463 10.9143 45.269 11.9726 45.7046C12.9825 46.1201 13.4809 46.9202 13.5372 48.0067C13.5859 48.9483 13.3836 49.7933 12.6839 50.4808C11.6481 51.4987 9.983 51.5132 8.94577 50.4981C8.91574 50.4694 8.88468 50.4422 8.82289 50.3852ZM3.10242 50.3493C3.22254 50.3279 3.42204 50.311 3.6105 50.2558C4.99636 49.8509 5.26248 48.1945 4.69123 47.2177C4.07061 46.1564 2.49389 45.9945 1.73693 46.9085C1.1605 47.6043 1.10182 48.8479 1.61957 49.5872C1.95887 50.0722 2.42554 50.3335 3.10242 50.3493ZM8.73902 48.3036C8.76318 48.4834 8.77043 48.6677 8.81495 48.8424C9.00204 49.572 9.4511 50.0746 10.1798 50.2789C10.8901 50.4781 11.4952 50.2378 11.9601 49.6942C12.5286 49.0298 12.5997 48.2601 12.2936 47.4607C12.0802 46.9036 11.6643 46.5243 11.0903 46.3655C9.88739 46.0324 8.75248 46.982 8.73902 48.3036Z" fill="white"/>
<path d="M41.6712 48.6644C40.0662 48.6644 38.4698 48.6644 36.8727 48.6644C36.911 49.491 37.6141 50.2248 38.4804 50.3411C39.3075 50.4523 40.0234 50.2535 40.5653 49.5773C40.6008 49.5328 40.6716 49.4931 40.7272 49.4917C41.0395 49.4834 41.3519 49.4879 41.7054 49.4879C41.3968 50.083 40.976 50.5089 40.4396 50.8275C39.3468 51.4767 37.3117 51.4125 36.3149 50.0833C35.6373 49.1797 35.5362 48.1853 35.969 47.1729C36.4018 46.1609 37.2189 45.5942 38.3189 45.4578C39.2681 45.3401 40.131 45.532 40.8604 46.1844C41.2125 46.4992 41.4655 46.8837 41.637 47.3227C41.6688 47.4042 41.7029 47.485 41.7485 47.5968C42.0864 46.5617 42.6698 45.7909 43.7205 45.5269C44.7397 45.2708 45.6738 45.4768 46.4476 46.3169C46.4476 45.2749 46.4476 44.2947 46.4476 43.2882C46.1094 43.2882 45.7821 43.2882 45.4397 43.2882C45.4397 43.0103 45.4397 42.7587 45.4397 42.4943C46.1273 42.4943 46.8028 42.4943 47.5083 42.4943C47.5083 45.0868 47.5083 47.6751 47.5083 50.2866C47.84 50.2866 48.1431 50.2866 48.46 50.2866C48.46 50.5631 48.46 50.8161 48.46 51.078C47.8093 51.078 47.1735 51.078 46.5146 51.078C46.5146 50.8385 46.5146 50.6041 46.5146 50.3007C45.6544 51.2206 44.641 51.4518 43.5344 51.0929C42.3933 50.7225 41.8548 49.8193 41.6712 48.6644ZM42.8061 48.3506C42.8061 48.4252 42.8033 48.5001 42.8064 48.5743C42.8427 49.4289 43.3459 50.1009 44.0953 50.2969C45.3282 50.6197 46.4328 49.7733 46.5015 48.4531C46.5684 47.1678 45.6455 46.2489 44.3663 46.3691C43.4302 46.4571 42.7509 47.3303 42.8061 48.3506ZM40.694 47.8322C40.5294 46.8098 39.6772 46.2213 38.5136 46.2886C37.7073 46.3352 36.913 47.0863 36.8847 47.8322C38.1481 47.8322 39.4114 47.8322 40.694 47.8322Z" fill="white"/>
<path d="M15.4608 50.4099C15.4608 51.2124 15.4608 51.9559 15.4608 52.7242C15.8067 52.7242 16.1432 52.7242 16.4946 52.7242C16.4946 52.9937 16.4946 53.2385 16.4946 53.5042C15.4757 53.5042 14.4536 53.5042 13.4126 53.5042C13.4126 53.2606 13.4126 53.0096 13.4126 52.7328C13.7205 52.7328 14.0239 52.7328 14.3539 52.7328C14.3539 50.6094 14.3539 48.5115 14.3539 46.3899C14.0425 46.3899 13.7305 46.3899 13.4026 46.3899C13.4026 46.1079 13.4026 45.8493 13.4026 45.5791C14.0598 45.5791 14.7094 45.5791 15.3797 45.5791C15.3797 45.82 15.3797 46.0482 15.3797 46.3353C15.5081 46.2252 15.5985 46.15 15.6862 46.072C17.0679 44.8491 19.7813 45.4659 20.1171 47.6252C20.2887 48.7273 20.0961 49.7431 19.2259 50.5614C18.3178 51.4153 16.5988 51.5261 15.6265 50.5625C15.5868 50.5231 15.5444 50.4869 15.4608 50.4099ZM15.3538 48.3062C15.378 48.4777 15.387 48.6531 15.4291 48.8198C15.6124 49.5491 16.0545 50.0609 16.778 50.2753C17.4283 50.4679 18.0044 50.2722 18.4845 49.8059C19.1072 49.2012 19.2815 48.0535 18.8455 47.2993C18.5149 46.7274 18.0382 46.3305 17.342 46.3063C16.2264 46.268 15.3783 47.1333 15.3538 48.3062Z" fill="white"/>
<path d="M29.9703 48.3797C29.9658 50.0333 28.8754 51.1554 27.2086 51.2393C26.2018 51.2897 25.2954 51.0633 24.5961 50.2946C23.8236 49.4459 23.7079 48.4383 24.0579 47.3942C24.4062 46.3553 25.1815 45.7385 26.2518 45.5231C27.0088 45.3706 27.7616 45.431 28.4533 45.7889C29.4947 46.3277 29.9731 47.2182 29.9703 48.3797ZM26.9529 46.3122C25.811 46.3032 24.9464 47.1865 24.9329 48.3755C24.9202 49.5183 25.789 50.4316 26.8983 50.4409C28.1012 50.4513 28.9155 49.6019 28.9276 48.3251C28.9386 47.1309 28.1444 46.3211 26.9529 46.3122Z" fill="white"/>
<path d="M34.2987 46.3968C33.9853 46.3968 33.7151 46.3968 33.4248 46.3968C33.4248 46.1099 33.4248 45.8514 33.4248 45.5798C34.3001 45.5798 35.1603 45.5798 36.0391 45.5798C36.0391 45.8331 36.0391 46.0858 36.0391 46.3874C35.8686 46.3874 35.6911 46.3909 35.5141 46.3864C35.3581 46.3826 35.2662 46.4361 35.1969 46.5932C34.5659 48.0242 33.9194 49.4483 33.2912 50.8807C33.2049 51.0778 33.1103 51.1503 32.8929 51.1437C32.4224 51.1299 32.4224 51.1437 32.2446 50.7102C31.6855 49.3478 31.1211 47.9872 30.5723 46.6208C30.496 46.4313 30.4014 46.3653 30.2085 46.384C30.0539 46.3988 29.8968 46.3871 29.7239 46.3871C29.7239 46.1082 29.7239 45.8556 29.7239 45.5843C30.6113 45.5843 31.5087 45.5843 32.4207 45.5843C32.4207 45.8386 32.4207 46.0923 32.4207 46.3823C32.1642 46.3823 31.905 46.3823 31.5895 46.3823C32.022 47.4478 32.4338 48.4622 32.8766 49.5536C33.3644 48.4705 33.8224 47.454 34.2987 46.3968Z" fill="white"/>
<path d="M5.25871 58.4979C5.59663 57.637 5.93455 56.7762 6.27213 55.9154C6.40502 55.5765 6.53549 55.2368 6.6701 54.8986C6.73327 54.7398 7.17578 54.6269 7.27829 54.7553C7.31799 54.805 7.30038 54.9272 7.27139 55.0018C6.99284 55.719 6.70704 56.4331 6.42262 57.1479C6.07711 58.016 5.73297 58.8848 5.38263 59.7508C5.35191 59.8267 5.27908 59.8857 5.22557 59.9527C5.16448 59.8847 5.07612 59.8271 5.04643 59.7473C4.62843 58.6235 4.21837 57.4966 3.8059 56.3707C3.77587 56.2882 3.74066 56.2077 3.6844 56.0673C3.47281 56.5992 3.28158 57.0779 3.09243 57.5573C2.80663 58.2804 2.52497 59.0049 2.234 59.7259C2.20052 59.8091 2.12044 59.8737 2.0621 59.9465C1.99928 59.8695 1.91023 59.8025 1.87778 59.7145C1.30515 58.1627 0.737001 56.6095 0.177138 55.0532C0.143311 54.9593 0.145382 54.7781 0.200609 54.7405C0.366981 54.6273 0.709388 54.7367 0.764615 54.8917C1.16121 56.0058 1.5554 57.1207 1.95096 58.2352C1.9841 58.3284 2.01999 58.4209 2.07039 58.5569C2.11871 58.4488 2.15564 58.375 2.18533 58.2987C2.60989 57.2128 3.03375 56.1263 3.45728 55.0401C3.47246 55.0014 3.47937 54.9572 3.50284 54.9251C3.56635 54.8382 3.63711 54.7564 3.70476 54.6725C3.76344 54.7557 3.84317 54.8313 3.87769 54.9234C4.23425 55.8764 4.58322 56.8318 4.9346 57.7865C5.02227 58.0246 5.11167 58.2621 5.20038 58.4996C5.21936 58.4985 5.23904 58.4982 5.25871 58.4979Z" fill="white"/>
<path d="M22.0956 50.2844C22.4494 50.2844 22.778 50.2844 23.1246 50.2844C23.1246 50.5581 23.1246 50.809 23.1246 51.0738C22.1046 51.0738 21.0895 51.0738 20.0581 51.0738C20.0581 50.8173 20.0581 50.5664 20.0581 50.2951C20.3719 50.2951 20.6756 50.2951 20.9994 50.2951C20.9994 48.9894 20.9994 47.7037 20.9994 46.3921C20.6849 46.3921 20.3819 46.3921 20.0605 46.3921C20.0605 46.1142 20.0605 45.8622 20.0605 45.5889C20.6974 45.5889 21.3294 45.5889 21.9876 45.5889C21.9876 45.8843 21.9876 46.1774 21.9876 46.4701C22.5271 45.6703 23.2861 45.3942 24.217 45.4336C24.217 45.7521 24.217 46.0614 24.217 46.37C23.9488 46.401 23.6824 46.4045 23.4304 46.4666C22.8719 46.6043 22.3828 46.8594 22.1816 47.4489C22.1191 47.6322 22.1018 47.8376 22.0994 48.0333C22.0901 48.7702 22.0956 49.5075 22.0956 50.2844Z" fill="white"/>
<path d="M46.3937 58.7747C46.4945 58.5593 46.5822 58.3736 46.6685 58.1872C47.1659 57.1134 47.6629 56.0397 48.1606 54.9659C48.1813 54.921 48.1969 54.8696 48.229 54.8344C48.2704 54.7895 48.3463 54.7174 48.3722 54.7298C48.4268 54.7564 48.4851 54.8254 48.4951 54.8851C48.5686 55.3262 48.6314 55.769 48.6967 56.2112C48.8582 57.3088 49.0177 58.4071 49.1813 59.5043C49.2382 59.8868 49.1095 60.0076 48.7329 59.8878C48.6708 59.8681 48.6156 59.7428 48.6038 59.66C48.4623 58.6428 48.3294 57.6246 48.1934 56.6067C48.1848 56.5422 48.1651 56.479 48.1385 56.3606C47.8817 56.9122 47.6453 57.4182 47.4102 57.9246C47.1279 58.5324 46.8486 59.1419 46.5621 59.7477C46.5266 59.8226 46.4534 59.8799 46.3978 59.9454C46.3347 59.8774 46.2491 59.8201 46.2121 59.7404C45.732 58.7043 45.2591 57.665 44.7838 56.6268C44.751 56.555 44.7152 56.4846 44.6482 56.3462C44.5519 57.0126 44.4656 57.6053 44.381 58.1983C44.311 58.6901 44.2288 59.1809 44.1791 59.6748C44.1446 60.0176 43.9026 59.8837 43.7331 59.8951C43.5074 59.9106 43.5664 59.7308 43.5844 59.6127C43.7853 58.3032 43.9917 56.9947 44.1971 55.6859C44.2357 55.4405 44.2692 55.194 44.3179 54.9507C44.3341 54.8706 44.3917 54.7992 44.4304 54.7236C44.4974 54.784 44.5923 54.8316 44.6268 54.9069C45.1766 56.1021 45.7186 57.3009 46.2625 58.4989C46.2988 58.5803 46.3388 58.6604 46.3937 58.7747Z" fill="white"/>
<path d="M40.347 60C38.8752 60.0072 37.663 58.8119 37.6571 57.3481C37.6513 55.8622 38.8631 54.6328 40.3394 54.6276C41.8395 54.6224 43.0504 55.8187 43.0542 57.3098C43.0576 58.7988 41.8564 59.9924 40.347 60ZM42.4567 57.3112C42.457 56.1349 41.5268 55.1909 40.3532 55.1771C39.1993 55.1633 38.2546 56.137 38.2543 57.3405C38.2539 58.4871 39.2125 59.446 40.3577 59.4446C41.5202 59.4432 42.456 58.492 42.4567 57.3112Z" fill="white"/>
<path d="M14.8636 60.0001C13.368 60.0008 12.1792 58.7972 12.1834 57.2868C12.1875 55.833 13.4222 54.626 14.9036 54.6277C16.3741 54.6294 17.5998 55.8596 17.588 57.3216C17.5759 58.8124 16.3685 59.9994 14.8636 60.0001ZM14.8853 59.4444C16.041 59.4433 16.9988 58.4724 16.9905 57.3109C16.9819 56.125 16.0227 55.1658 14.8557 55.1761C13.7052 55.1865 12.7822 56.1488 12.7805 57.3399C12.7788 58.4862 13.7387 59.4457 14.8853 59.4444Z" fill="white"/>
<path d="M10.9401 57.3964C10.053 57.3964 9.19526 57.3964 8.30403 57.3964C8.30403 57.491 8.30403 57.5793 8.30403 57.6673C8.30403 58.3304 8.29472 58.9938 8.30852 59.6565C8.31404 59.9171 8.16493 59.8981 7.98924 59.9036C7.80285 59.9095 7.70172 59.8777 7.70275 59.6513C7.71104 58.0933 7.71173 56.5349 7.70241 54.9768C7.70102 54.7352 7.80975 54.7131 8.00477 54.7131C8.20083 54.7135 8.31404 54.738 8.30852 54.9786C8.29472 55.5812 8.30403 56.1842 8.30403 56.8013C9.18698 56.8013 10.0451 56.8013 10.9401 56.8013C10.9401 56.5038 10.9401 56.2087 10.9401 55.9132C10.9401 55.6064 10.9532 55.2992 10.9356 54.9934C10.9232 54.7753 10.9915 54.6845 11.2138 54.7162C11.3011 54.7287 11.3919 54.7183 11.4996 54.7183C11.5079 54.8429 11.5196 54.9402 11.52 55.0379C11.521 56.5545 11.521 58.0715 11.5207 59.5881C11.5207 59.8663 11.2563 60.0251 11.0122 59.8812C10.9632 59.8525 10.9439 59.7414 10.9435 59.6679C10.9384 59.0048 10.9404 58.3418 10.9404 57.6787C10.9401 57.5904 10.9401 57.5013 10.9401 57.3964Z" fill="white"/>
<path d="M27.6846 57.2387C27.7025 56.527 27.862 55.7939 28.397 55.1912C29.0438 54.4623 29.9827 54.4429 30.6617 55.1429C31.0821 55.5764 31.2778 56.1159 31.3579 56.701C31.4586 57.4351 31.4152 58.1585 31.0879 58.8351C30.9709 59.0767 30.8184 59.3169 30.6299 59.505C29.8957 60.2371 28.8909 60.1301 28.2541 59.2734C27.8834 58.7747 27.6856 58.0919 27.6846 57.2387ZM30.8284 57.2936C30.7721 56.4845 30.6365 56.0272 30.3631 55.6548C29.8912 55.0121 29.1747 55.0166 28.7166 55.6672C28.4208 56.0876 28.3111 56.5705 28.2762 57.071C28.2292 57.7464 28.32 58.3988 28.7249 58.9645C29.1861 59.6086 29.8857 59.6072 30.3531 58.9683C30.7379 58.443 30.8235 57.8331 30.8284 57.2936Z" fill="white"/>
<path d="M21.2507 55.2658C21.2507 55.7881 21.2507 56.2806 21.2507 56.7997C21.8426 56.7997 22.4205 56.8077 22.9976 56.7956C23.2105 56.7911 23.2937 56.8515 23.2892 57.0748C23.2851 57.2784 23.2199 57.3537 23.0134 57.3502C22.4346 57.3406 21.8554 57.3468 21.2559 57.3468C21.2559 58.0154 21.2559 58.6708 21.2559 59.3528C21.8482 59.3528 22.4339 59.3521 23.0197 59.3532C23.3217 59.3539 23.3327 59.3773 23.3365 59.6807C23.3386 59.8626 23.2606 59.9041 23.0973 59.9027C22.3604 59.8971 21.6231 59.8951 20.8862 59.9037C20.7043 59.9058 20.6363 59.8499 20.637 59.6652C20.6415 58.0996 20.6415 56.5343 20.6373 54.9687C20.6366 54.7785 20.696 54.7105 20.8962 54.7139C21.6248 54.7257 22.3538 54.7246 23.0825 54.7146C23.282 54.7119 23.3414 54.7816 23.3379 54.9738C23.3345 55.1564 23.3144 55.2731 23.0866 55.2693C22.4829 55.2589 21.8789 55.2658 21.2507 55.2658Z" fill="white"/>
<path d="M35.8136 60C34.3818 59.9889 33.22 58.8979 33.1517 57.4192C33.0837 55.9468 34.1875 54.8506 35.4412 54.6611C36.0625 54.5672 36.643 54.6787 37.1856 54.9907C37.381 55.1032 37.4884 55.4391 37.3841 55.6334C37.2951 55.7994 37.1981 55.6869 37.1052 55.6203C36.4998 55.1861 35.8423 55.057 35.1336 55.3138C34.162 55.6658 33.5893 56.7086 33.7816 57.7509C33.9576 58.7046 34.8889 59.4677 35.864 59.4419C36.3117 59.4301 36.7238 59.2917 37.0931 59.029C37.1601 58.9814 37.2519 58.9693 37.332 58.941C37.3548 59.0242 37.3817 59.106 37.399 59.1902C37.4504 59.4432 37.3254 59.5858 37.1059 59.6924C36.7407 59.8705 36.2281 60.0031 35.8136 60Z" fill="white"/>
<path d="M26.2873 57.1839C26.9836 57.5998 27.0685 58.3122 26.9297 58.8558C26.7661 59.4974 26.2183 59.9382 25.5442 59.989C24.8304 60.0428 24.2108 59.7159 23.9595 59.1513C23.9326 59.0909 23.8974 59.0291 23.8919 58.9656C23.8808 58.8406 23.8398 58.6449 23.8988 58.6035C23.9965 58.5348 24.1656 58.5472 24.3006 58.5621C24.3523 58.5679 24.4127 58.6677 24.4352 58.7357C24.5732 59.1602 24.9129 59.4274 25.353 59.4443C25.7862 59.4609 26.1627 59.2151 26.3277 58.8085C26.4941 58.3985 26.4085 57.9339 26.0727 57.6805C25.917 57.5632 25.7047 57.4952 25.509 57.4641C25.3233 57.4348 25.2991 57.3413 25.2978 57.1966C25.2964 57.0468 25.3019 56.9202 25.5111 56.9119C25.889 56.897 26.1517 56.6996 26.2746 56.3417C26.3881 56.0107 26.3346 55.6966 26.0889 55.4422C25.8286 55.1726 25.5011 55.116 25.1493 55.2234C24.8663 55.31 24.6906 55.5036 24.6202 55.796C24.5694 56.0072 24.42 56.0732 24.1566 56.0041C23.935 55.9461 24.0313 55.7881 24.0669 55.6634C24.3002 54.8489 25.0313 54.4582 25.878 54.6905C26.6367 54.8986 27.0526 55.6131 26.8658 56.3879C26.792 56.6913 26.6581 56.877 26.2873 57.1839Z" fill="white"/>
<path d="M18.8483 59.3531C19.2453 59.3531 19.616 59.3628 19.986 59.3497C20.2097 59.3417 20.2632 59.4329 20.2646 59.6431C20.2659 59.8571 20.1886 59.9092 19.9891 59.9044C19.5007 59.8926 19.0116 59.893 18.5232 59.9044C18.3254 59.9088 18.246 59.8588 18.247 59.6438C18.255 58.0864 18.2564 56.5287 18.2464 54.9714C18.2446 54.7211 18.3672 54.7187 18.5536 54.7139C18.7572 54.7087 18.8542 54.7529 18.8525 54.9852C18.8438 56.3354 18.8483 57.686 18.8483 59.0363C18.8483 59.1329 18.8483 59.2299 18.8483 59.3531Z" fill="white"/>
<path d="M32.2826 59.2047C32.5049 59.2116 32.6668 59.3869 32.6581 59.6113C32.6499 59.8201 32.479 59.9882 32.275 59.9878C32.0562 59.9871 31.8867 59.8132 31.8881 59.5909C31.8895 59.3669 32.0624 59.1978 32.2826 59.2047Z" fill="white"/>
</g>
<defs>
<clipPath id="clip0">
<rect width="49.7436" height="60" fill="white"/>
</clipPath>
</defs>
</svg>
