<svg width="82" height="60" viewBox="0 0 82 60" fill="none" xmlns="http://www.w3.org/2000/svg">
<g clip-path="url(#clip0)">
<path d="M79.0893 48.7136H2.19897V37.2961H79.0893V48.7136ZM9.72228 46.6485H10.864L13.8611 39.2301H12.4368L10.3514 44.8369L8.33004 39.2301H6.80965L9.72228 46.6485ZM17.9067 46.6485H23.0097V45.4543H19.2291V43.4417H22.6339V42.2475H19.2291V40.4242H22.8232V39.2301H17.9067V46.6485ZM27.5592 46.6485H28.8786V43.5058H29.8427L31.5611 46.6485H33.1543L31.1854 43.3689C31.7388 43.2932 32.1611 43.0718 32.4582 42.7077C32.7553 42.3437 32.9038 41.8951 32.9038 41.3563C32.9038 40.9369 32.8281 40.5903 32.6737 40.3194C32.5194 40.0456 32.3126 39.8301 32.0563 39.6699C31.797 39.5097 31.5029 39.3961 31.1708 39.3291C30.8388 39.2621 30.4951 39.2301 30.1398 39.2301H27.5621V46.6485H27.5592ZM28.8786 42.3728V40.3602H30.0203C30.1893 40.3602 30.3611 40.3718 30.5388 40.3922C30.7165 40.4126 30.8796 40.4563 31.0252 40.5233C31.1708 40.5903 31.2902 40.6893 31.3805 40.8233C31.4708 40.9572 31.5174 41.132 31.5174 41.3475C31.5174 41.5922 31.4679 41.7815 31.3718 41.9184C31.2728 42.0553 31.1475 42.1572 30.9902 42.2213C30.833 42.2883 30.6611 42.3291 30.4718 42.3466C30.2825 42.364 30.0932 42.3728 29.9067 42.3728H28.8786ZM37.3776 46.6485H38.697V39.2301H37.3776V46.6485ZM43.5728 46.6485H44.8922V43.567H48.1631V42.3728H44.8922V40.4242H48.3611V39.2301H43.5728V46.6485ZM52.8058 46.6485H54.1252V39.2301H52.8058V46.6485ZM58.998 46.6485H64.1009V45.4543H60.3174V43.4417H63.7223V42.2475H60.3174V40.4242H63.9116V39.2301H58.998V46.6485ZM68.6504 46.6485H71.4174C71.8631 46.6485 72.3203 46.5728 72.7864 46.4242C73.2495 46.2728 73.6747 46.0456 74.0534 45.7427C74.4349 45.4398 74.7466 45.0553 74.9854 44.5893C75.2271 44.1262 75.3466 43.5757 75.3466 42.9378C75.3466 42.3087 75.2417 41.7611 75.032 41.298C74.8223 40.832 74.5427 40.4475 74.1932 40.1388C73.8436 39.8301 73.4417 39.6029 72.9873 39.4514C72.533 39.3 72.0611 39.2271 71.5718 39.2271H68.6504V46.6485ZM69.9699 45.4514V40.4213H71.1757C71.5805 40.4213 71.9534 40.4679 72.2912 40.564C72.6291 40.6572 72.9233 40.8058 73.1708 41.0038C73.4184 41.2019 73.6135 41.464 73.7534 41.7844C73.8932 42.1048 73.9631 42.4893 73.9631 42.9378C73.9631 43.3922 73.8844 43.7767 73.7271 44.097C73.5699 44.4145 73.3543 44.6737 73.0835 44.8718C72.8097 45.0699 72.4922 45.2184 72.1252 45.3116C71.7582 45.4048 71.3679 45.4543 70.9572 45.4543H69.9699V45.4514Z" fill="white"/>
<path d="M81.4631 0V59.9825L0 60V0H81.4631ZM0.614563 0.602913V59.368H80.8514V0.602913H0.614563Z" fill="white"/>
<path d="M14.8923 37.4563C13.5787 31.5291 10.3749 25.6368 5.26611 19.4504C11.6185 21.8621 16.4739 26.2922 18.5389 31.6776C19.4069 29.4116 20.6681 26.831 22.1826 24.1718C22.4215 24.9291 23.2574 25.3572 23.3681 24.0582C23.3943 23.7728 23.3418 23.3563 23.2661 22.9368C23.7933 22.2495 25.6224 19.7737 26.9273 16.7592C31.104 10.9048 35.8807 5.76402 39.6321 4.03101C32.1933 13.6805 26.1234 25.4475 24.0758 37.4708L14.8923 37.4563Z" fill="white"/>
<path d="M28.1737 9.40474C29.2019 14.9096 24.2009 21.7222 23.2659 22.9368C23.3417 23.3562 23.3941 23.7727 23.3679 24.0581C23.2106 25.9018 21.5912 24.2649 22.2931 23.1494C18.5446 22.6834 15.5213 23.9824 12.2067 20.8135C9.9436 18.6523 11.93 15.2183 11.93 15.2183C7.6368 5.46397 11.764 4.18241 13.6048 5.28338C16.8611 7.22901 19.1883 10.8115 20.7407 14.2717C23.6446 7.46202 27.8388 7.61931 28.1737 9.40474ZM26.4407 12.0028C26.2863 10.1737 23.1611 10.2989 21.2708 15.3407C21.2708 15.3407 21.2533 15.364 21.2271 15.4106C22.2786 18.0086 22.8902 20.4232 23.129 21.8766C23.8193 20.7931 26.7756 15.8999 26.4407 12.0028ZM22.2902 22.5698C23.0883 22.9164 20.2805 12.7222 14.8164 9.39892C13.4329 8.55426 11.0562 9.2795 14.0096 15.9261C14.0096 15.9261 11.8019 19.4853 15.1951 21.064C17.3154 22.0543 20.0737 21.6057 22.2902 22.5698Z" fill="white"/>
<path d="M49.7476 50.0214C50.0389 50.0214 50.2806 50.2631 50.2806 50.5544C50.2806 50.8456 50.0389 51.0874 49.7476 51.0874C49.4563 51.0874 49.2146 50.8456 49.2146 50.5544C49.2146 50.266 49.4563 50.0214 49.7476 50.0214Z" fill="white"/>
<path d="M2.37378 51.9291H3.10193V52.5174H3.11941C3.30582 52.1126 3.78931 51.83 4.38057 51.83C5.12329 51.83 5.76989 52.2757 5.76989 53.2922V55.7562H5.04174V53.4931C5.04174 52.7737 4.62815 52.5087 4.16795 52.5087C3.56213 52.5087 3.10193 52.8961 3.10193 53.7844V55.7562H2.37378V51.9291ZM9.13397 51.833C7.99514 51.833 7.09805 52.73 7.09805 53.8456C7.09805 54.9611 7.99514 55.8582 9.13397 55.8582C10.2728 55.8582 11.1699 54.9611 11.1699 53.8456C11.1699 52.7271 10.2728 51.833 9.13397 51.833ZM7.87281 53.8427C7.87281 53.0679 8.3563 52.5087 9.13397 52.5087C9.90873 52.5087 10.3951 53.065 10.3951 53.8427C10.3951 54.6203 9.91164 55.1766 9.13397 55.1766C8.35921 55.1766 7.87281 54.6174 7.87281 53.8427ZM12.501 55.7592H13.2291V53.7873C13.2291 52.899 13.6893 52.5116 14.2951 52.5116C14.7553 52.5116 15.166 52.7795 15.166 53.4961V55.7592H15.8942V53.2951C15.8942 52.2786 15.2476 51.833 14.5048 51.833C13.9165 51.833 13.4301 52.1155 13.2437 52.5203H13.2262V51.932H12.498V55.7592H12.501ZM21.3612 55.7242V51.9291H20.633V52.4795H20.6155C20.333 52.0689 19.8 51.833 19.2815 51.833C18.0932 51.833 17.3359 52.7126 17.3359 53.8456C17.3272 54.9611 18.1602 55.8087 19.2815 55.8087C19.8058 55.8087 20.333 55.5902 20.6068 55.13H20.6301V55.6951C20.6301 56.3417 20.3301 57.0203 19.2495 57.0203C18.6932 57.0203 18.265 56.8019 17.8835 56.397L17.3913 57.0116C17.933 57.5126 18.5388 57.699 19.2641 57.699C20.5223 57.6961 21.3612 56.8805 21.3612 55.7242ZM19.3747 52.5087C20.1495 52.5087 20.6359 53.065 20.6359 53.8427C20.6359 54.6174 20.1524 55.1271 19.3747 55.1271C18.6 55.1271 18.1136 54.6174 18.1136 53.8427C18.1136 53.0679 18.6 52.5087 19.3747 52.5087ZM23.033 55.7592H23.7612V53.7728C23.7612 52.9077 24.2301 52.5116 24.7544 52.5116C25.4563 52.5116 25.5612 53.03 25.5612 53.7553V55.7592H26.2893V53.6679C26.2893 52.9893 26.5631 52.5116 27.2679 52.5116C27.9699 52.5116 28.0922 53.0446 28.0922 53.6271V55.7592H28.8204V53.531C28.8204 52.6747 28.5466 51.8359 27.367 51.8359C26.9068 51.8359 26.4058 52.0776 26.1553 52.5465C25.9136 52.0776 25.5262 51.8359 24.9612 51.8359C24.2738 51.8359 23.8048 52.3048 23.7349 52.532H23.7175V51.9349H23.0388V55.7592H23.033ZM32.1845 51.833C31.0456 51.833 30.1485 52.73 30.1485 53.8456C30.1485 54.9611 31.0456 55.8582 32.1845 55.8582C33.3233 55.8582 34.2204 54.9611 34.2204 53.8456C34.2204 52.7271 33.3233 51.833 32.1845 51.833ZM30.9233 53.8427C30.9233 53.0679 31.4068 52.5087 32.1845 52.5087C32.9592 52.5087 33.4456 53.065 33.4456 53.8427C33.4456 54.6203 32.9621 55.1766 32.1845 55.1766C31.4068 55.1766 30.9233 54.6174 30.9233 53.8427ZM35.6971 51.9291V58.0368H36.4252V55.2087H36.4427C36.7019 55.6048 37.2262 55.8553 37.7767 55.8553C38.9563 55.8553 39.7223 54.9902 39.7223 53.8427C39.7223 52.7126 38.9621 51.83 37.7767 51.83C37.2611 51.83 36.7252 52.066 36.4427 52.4766H36.4252V51.9262H35.6971V51.9291ZM37.6835 52.5087C38.4582 52.5087 38.9446 53.065 38.9446 53.8427C38.9446 54.6174 38.4612 55.1766 37.6835 55.1766C36.9087 55.1766 36.4223 54.6203 36.4223 53.8427C36.4223 53.0679 36.9087 52.5087 37.6835 52.5087ZM41.0417 55.7592H41.7699V53.8368C41.7699 52.998 42.1573 52.6077 42.8679 52.6077C42.9815 52.6077 43.101 52.631 43.2233 52.663L43.2553 51.8795C43.1592 51.8475 43.0456 51.83 42.932 51.83C42.4544 51.83 41.9709 52.1126 41.7845 52.5174H41.767V51.9291H41.0388V55.7592H41.0417ZM45.9612 51.833C44.8223 51.833 43.9252 52.73 43.9252 53.8456C43.9252 54.9611 44.8223 55.8582 45.9612 55.8582C47.1 55.8582 47.9971 54.9611 47.9971 53.8456C47.9971 52.7271 47.1 51.833 45.9612 51.833ZM44.7 53.8427C44.7 53.0679 45.1835 52.5087 45.9612 52.5087C46.7359 52.5087 47.2223 53.065 47.2223 53.8427C47.2223 54.6203 46.7388 55.1766 45.9612 55.1766C45.1864 55.1766 44.7 54.6174 44.7 53.8427ZM50.1116 51.9291H49.3835V56.2747C49.3835 56.7582 49.2466 57.0174 48.8505 57.0174C48.7544 57.0174 48.6408 56.9854 48.5505 56.9533L48.4689 57.6232C48.6233 57.6786 48.7747 57.6961 48.9378 57.6961C50.1 57.6961 50.1087 56.7029 50.1087 56.3067V51.9291H50.1116ZM49.3835 51.9291V56.2747C49.3835 56.7582 49.2466 57.0174 48.8505 57.0174C48.7544 57.0174 48.6408 56.9854 48.5505 56.9533L48.4689 57.6232C48.6233 57.6786 48.7747 57.6961 48.9378 57.6961C50.1 57.6961 50.1087 56.7029 50.1087 56.3067V51.9291H49.3835ZM52.3485 54.1106H55.4184V53.8514C55.4184 52.8669 54.9 51.833 53.5514 51.833C52.4039 51.833 51.5709 52.698 51.5709 53.8456C51.5709 54.9844 52.3311 55.8582 53.5427 55.8582C54.2767 55.8582 54.8359 55.599 55.2378 55.0747L54.6874 54.6553C54.4048 55.0019 54.0815 55.2291 53.6359 55.2291C52.9718 55.2232 52.3485 54.7805 52.3485 54.1106ZM52.3485 53.5281C52.3485 53.0184 52.8175 52.4126 53.5369 52.4126C54.2709 52.4126 54.6262 52.8902 54.6437 53.5281H52.3485ZM59.8369 52.4446C59.4582 52.031 58.9252 51.8388 58.366 51.8388C57.1718 51.8388 56.3621 52.6776 56.3621 53.8572C56.3621 55.0368 57.1864 55.8524 58.366 55.8524C58.9223 55.8524 59.4408 55.6834 59.8194 55.264L59.3039 54.7485C59.0621 55.031 58.7796 55.1766 58.3747 55.1766C57.6233 55.1766 57.1398 54.5941 57.1398 53.8747C57.1398 53.1553 57.5446 52.5174 58.334 52.5174C58.7388 52.5174 59.0213 52.663 59.2864 52.9456L59.8369 52.4446ZM62.9126 51.9291H61.8699V50.8543H61.1417V51.9291H60.3029V52.5582H61.1417V54.5533C61.1417 55.1679 61.1592 55.8553 62.2806 55.8553C62.4262 55.8553 62.7641 55.8232 62.9359 55.7271V55.066C62.7903 55.1562 62.5893 55.1795 62.4204 55.1795C61.8699 55.1795 61.8699 54.7281 61.8699 54.2999V52.564H62.9126V51.9291ZM64.8262 55.8058C65.1175 55.8058 65.3592 55.564 65.3592 55.2728C65.3592 54.9815 65.1175 54.7397 64.8262 54.7397C64.5349 54.7397 64.2932 54.9815 64.2932 55.2728C64.2932 55.564 64.5349 55.8058 64.8262 55.8058ZM68.7262 51.833C67.5874 51.833 66.6903 52.73 66.6903 53.8456C66.6903 54.9611 67.5874 55.8582 68.7262 55.8582C69.865 55.8582 70.7621 54.9611 70.7621 53.8456C70.7621 52.7271 69.8679 51.833 68.7262 51.833ZM67.4679 53.8427C67.4679 53.0679 67.9514 52.5087 68.7291 52.5087C69.5039 52.5087 69.9903 53.065 69.9903 53.8427C69.9903 54.6203 69.5068 55.1766 68.7291 55.1766C67.9514 55.1766 67.4679 54.6174 67.4679 53.8427ZM72.0961 55.7592H72.8242V53.8368C72.8242 52.998 73.2116 52.6077 73.9223 52.6077C74.0359 52.6077 74.1582 52.631 74.2776 52.663L74.3097 51.8795C74.2136 51.8475 74.1 51.83 73.9864 51.83C73.5087 51.83 73.0252 52.1126 72.8388 52.5174H72.8213V51.9291H72.0932V55.7592H72.0961ZM79.1534 55.7242V51.9291H78.4252V52.4795H78.4077C78.1252 52.0689 77.5922 51.833 77.0738 51.833C75.8854 51.833 75.1281 52.7126 75.1281 53.8456C75.1194 54.9611 75.9524 55.8087 77.0738 55.8087C77.598 55.8087 78.1252 55.5902 78.399 55.13H78.4223V55.6951C78.4223 56.3417 78.1223 57.0203 77.0417 57.0203C76.4854 57.0203 76.0573 56.8019 75.6757 56.397L75.1835 57.0116C75.7252 57.5126 76.331 57.699 77.0563 57.699C78.3145 57.6961 79.1534 56.8805 79.1534 55.7242ZM77.167 52.5087C77.9417 52.5087 78.4281 53.065 78.4281 53.8427C78.4281 54.6174 77.9446 55.1271 77.167 55.1271C76.3922 55.1271 75.9058 54.6174 75.9058 53.8427C75.9058 53.0679 76.3922 52.5087 77.167 52.5087Z" fill="white"/>
<path d="M79.1301 2.32428V36.6641H40.666V2.32428H79.1301ZM45.2854 5.57185V14.4437H47.2398V8.12913H47.266L51.1369 14.4437H53.6942V5.57185H51.7398V11.7379H51.7136L47.9417 5.57185H45.2854ZM60.2243 5.34758C57.4544 5.34758 55.4359 7.16506 55.4359 10.0078C55.4359 12.8534 57.4544 14.668 60.2243 14.668C62.9942 14.668 65.0126 12.8505 65.0126 10.0078C65.0126 7.16506 62.9942 5.34758 60.2243 5.34758ZM57.4689 10.0078C57.4689 8.35341 58.5582 7.15049 60.2272 7.15049C61.8932 7.15049 62.9825 8.35341 62.9825 10.0078C62.9825 11.6621 61.8932 12.8651 60.2272 12.8651C58.5582 12.8651 57.4689 11.6621 57.4689 10.0078ZM66.7544 5.57185V14.4437H68.7087V8.12913H68.7349L72.6058 14.4437H75.1631V5.57185H73.2087V11.7379H73.1825L69.4107 5.57185H66.7544ZM44.7728 26.6388V33.6408H45.7311V30.5534H47.2602C49.0689 30.5534 49.5262 29.4757 49.5262 28.5961C49.5262 27.7165 49.066 26.6388 47.2602 26.6388H44.7728ZM45.7311 27.4689H46.9893C47.7495 27.4689 48.5068 27.6466 48.5068 28.5961C48.5068 29.5456 47.7466 29.7233 46.9893 29.7233H45.7311V27.4689ZM50.4233 28.9515V33.6379H51.3233V31.2845C51.3233 30.2563 51.8039 29.7816 52.6806 29.7816C52.8204 29.7816 52.9689 29.8107 53.1204 29.8515L53.1612 28.8932C53.0417 28.8524 52.9019 28.835 52.7621 28.835C52.1738 28.835 51.5738 29.1816 51.3437 29.6767H51.3233V28.9515H50.4233ZM56.0155 28.832C54.6087 28.832 53.499 29.9301 53.499 31.2932C53.499 32.6563 54.6087 33.7544 56.0155 33.7544C57.4223 33.7544 58.532 32.6563 58.532 31.2932C58.532 29.9301 57.4223 28.832 56.0155 28.832ZM54.4573 31.2961C54.4573 30.3466 55.0573 29.6651 56.0155 29.6651C56.9738 29.6651 57.5738 30.3466 57.5738 31.2961C57.5738 32.2456 56.9738 32.9272 56.0155 32.9272C55.0573 32.9272 54.4573 32.2456 54.4573 31.2961ZM60.5883 28.9515H59.6883V34.2728C59.6883 34.867 59.5194 35.1816 59.0301 35.1816C58.9107 35.1816 58.7709 35.1437 58.6602 35.1029L58.5612 35.9243C58.7505 35.9942 58.9398 36.0146 59.1408 36.0146C60.5796 36.0146 60.5883 34.7971 60.5883 34.3136V28.9515ZM59.4786 27.2709C59.4786 27.6262 59.7786 27.9233 60.1369 27.9233C60.4951 27.9233 60.7951 27.6262 60.7951 27.2709C60.7951 26.9155 60.4951 26.6185 60.1369 26.6185C59.7786 26.6185 59.4786 26.9155 59.4786 27.2709ZM62.7961 31.6223H66.5913V31.3049C66.5913 30.099 65.9534 28.832 64.2845 28.832C62.866 28.832 61.8379 29.8893 61.8379 31.2932C61.8379 32.6884 62.7757 33.7544 64.2757 33.7544C65.1845 33.7544 65.8748 33.4369 66.3728 32.7961L65.6942 32.2806C65.3447 32.7058 64.9456 32.9825 64.3951 32.9825C63.565 32.9854 62.7961 32.4437 62.7961 31.6223ZM62.7961 30.9087C62.7961 30.2854 63.3757 29.5427 64.2641 29.5427C65.1728 29.5427 65.6126 30.1252 65.633 30.9087H62.7961ZM71.0417 30.1981L71.7204 29.5835C71.2515 29.0796 70.5932 28.8408 69.9029 28.8408C68.4233 28.8408 67.4272 29.8689 67.4272 31.3136C67.4272 32.7583 68.4466 33.7573 69.9029 33.7573C70.5932 33.7573 71.2311 33.5505 71.7 33.035L71.0621 32.4029C70.7621 32.7495 70.4126 32.9272 69.9146 32.9272C68.9854 32.9272 68.3854 32.2165 68.3854 31.334C68.3854 30.4515 68.8835 29.6738 69.8621 29.6738C70.3631 29.6738 70.7126 29.8515 71.0417 30.1981ZM75.667 29.7233V28.9515H74.3796V27.6379H73.4796V28.9515H72.4398V29.7233H73.4796V32.167C73.4796 32.9185 73.5 33.7602 74.8864 33.7602C75.067 33.7602 75.4864 33.7194 75.6961 33.6029V32.7932C75.5155 32.901 75.268 32.933 75.0583 32.933C74.3796 32.933 74.3796 32.3796 74.3796 31.8553V29.7291H75.667V29.7233ZM52.8874 24.5767V19.9398H49.4155V21.7456H51.0058V23.1874C50.6417 23.3884 50.0155 23.6272 49.165 23.6272C47.499 23.6272 46.4097 22.4243 46.4097 20.7699C46.4097 19.1155 47.499 17.9126 49.165 17.9126C50.1553 17.9126 50.7932 18.201 51.3204 18.7515L52.6981 17.2486C51.8097 16.4214 50.5689 16.1068 49.165 16.1068C46.3951 16.1068 44.3767 17.9243 44.3767 20.7699C44.3767 23.6155 46.3951 25.4301 49.165 25.4301C50.467 25.4301 51.734 25.1796 52.8874 24.5767ZM55.1563 16.3311V25.2029H57.1107V18.399H57.1369L59.3796 25.2029H60.8709L63.201 18.399H63.2272V25.2029H65.1815V16.3311H62.2369L60.1806 22.1214H60.1544L58.1126 16.3311H55.1563ZM71.4582 16.1068C68.6883 16.1068 66.6699 17.9243 66.6699 20.7699C66.6699 23.6155 68.6883 25.4301 71.4582 25.4301C74.2281 25.4301 76.2466 23.6126 76.2466 20.7699C76.2466 17.9243 74.2281 16.1068 71.4582 16.1068ZM68.7029 20.767C68.7029 19.1126 69.7922 17.9097 71.4612 17.9097C73.1272 17.9097 74.2165 19.1126 74.2165 20.767C74.2165 22.4214 73.1272 23.6243 71.4612 23.6243C69.7922 23.6243 68.7029 22.4214 68.7029 20.767Z" fill="white"/>
</g>
<defs>
<clipPath id="clip0">
<rect width="81.4631" height="60" fill="white"/>
</clipPath>
</defs>
</svg>
