<svg width="50" height="60" viewBox="0 0 50 60" fill="none" xmlns="http://www.w3.org/2000/svg">
<g clip-path="url(#clip0)">
<path d="M24.8481 38.3038C14.2148 38.3065 5.58005 29.634 5.69349 18.9466C5.80422 8.41591 14.4227 -0.124262 25.075 0.00267879C35.5787 0.126919 44.0649 8.70761 43.9919 19.2869C43.9217 29.815 35.3599 38.3038 24.8481 38.3038ZM28.6861 34.0445C28.6861 24 28.6861 13.977 28.6861 3.94056C28.6104 3.94056 28.551 3.94056 28.4889 3.94056C26.4119 3.94056 24.3349 3.94056 22.258 3.93786C22.1337 3.93786 22.0392 3.96757 21.9447 4.05129C20.8319 5.04792 19.7164 6.04184 18.5956 7.03306C18.5065 7.11409 18.4713 7.19782 18.4713 7.31666C18.4659 8.42672 18.4578 9.53678 18.447 10.6495C18.447 10.7225 18.447 10.7954 18.447 10.8899C19.3842 10.898 20.2998 10.9061 21.237 10.9142C21.237 18.6387 21.237 26.3362 21.237 34.0445C23.7299 34.0445 26.2013 34.0445 28.6861 34.0445ZM39.6867 13.9797C39.2141 13.9797 38.7819 13.9878 38.3525 13.9743C38.1932 13.9689 38.1067 14.0283 38.0176 14.1499C35.8785 17.0857 33.7367 20.0189 31.5976 22.952C31.5598 23.0034 31.5247 23.0601 31.468 23.1492C31.5706 23.1492 31.6381 23.1492 31.7029 23.1492C32.0595 23.1492 32.416 23.1384 32.7725 23.1546C32.9426 23.1627 33.0453 23.1033 33.1425 22.9682C35.2762 20.0378 37.4126 17.11 39.549 14.1823C39.5895 14.1283 39.6246 14.0716 39.6867 13.9797ZM38.3444 18.8386C37.1641 18.8386 36.1999 19.7974 36.1945 20.9804C36.1891 22.1715 37.1506 23.1384 38.3417 23.1438C39.5139 23.1492 40.4889 22.1769 40.4916 21.002C40.4997 19.8109 39.5355 18.8413 38.3444 18.8386ZM32.7266 18.3146C33.915 18.3146 34.8738 17.3666 34.8792 16.1836C34.8846 14.9898 33.9285 14.0229 32.7347 14.0202C31.549 14.0175 30.5848 14.9736 30.5794 16.1512C30.5767 17.3477 31.5328 18.3146 32.7266 18.3146Z" fill="white"/>
<path d="M30.8306 55.9757C30.8306 54.4767 30.8306 53.0264 30.8306 51.5625C31.6138 51.5625 32.3782 51.5625 33.1533 51.5625C33.1533 54.3687 33.1533 57.1695 33.1533 59.9865C33.0804 59.9892 33.0129 59.9973 32.948 59.9973C32.3917 59.9973 31.838 59.9946 31.2816 60C31.152 60.0027 31.0709 59.9622 30.9899 59.8569C29.8934 58.4416 28.7941 57.0318 27.6948 55.6192C27.6462 55.5571 27.5949 55.495 27.5058 55.4436C27.5058 56.9534 27.5058 58.4632 27.5058 59.9838C26.7225 59.9838 25.9663 59.9838 25.1965 59.9838C25.1965 57.1776 25.1965 54.3768 25.1965 51.5571C25.2641 51.5544 25.3316 51.5463 25.3964 51.5463C25.9852 51.5463 26.5767 51.5517 27.1655 51.5409C27.3194 51.5382 27.414 51.5895 27.5058 51.7083C28.5537 53.0642 29.6098 54.4146 30.6604 55.7677C30.7036 55.8299 30.7522 55.8839 30.8306 55.9757Z" fill="white"/>
<path d="M41.5071 59.9865C39.2221 59.9865 36.9507 59.9865 34.6658 59.9865C34.6658 57.1749 34.6658 54.3741 34.6658 51.5625C36.9264 51.5625 39.1762 51.5625 41.4423 51.5625C41.4423 52.2188 41.4423 52.8643 41.4423 53.5368C39.9595 53.5368 38.4821 53.5368 36.9912 53.5368C36.9912 53.969 36.9912 54.3768 36.9912 54.8063C38.3309 54.8063 39.6651 54.8063 40.9939 54.8063C41.0425 54.9737 41.0533 56.4052 41.0074 56.6618C39.6786 56.6618 38.3444 56.6618 36.9939 56.6618C36.9939 57.1182 36.9939 57.5503 36.9939 58.0068C38.5037 58.0068 40 58.0068 41.5071 58.0068C41.5071 58.6793 41.5071 59.3275 41.5071 59.9865Z" fill="white"/>
<path d="M16.8616 42.0959C16.9102 42.0905 16.9453 42.0851 16.9777 42.0851C18.2795 42.0851 19.5841 42.0824 20.8859 42.0905C21.3747 42.0932 21.8555 42.1823 22.3092 42.3768C23.2329 42.7765 23.7596 43.4679 23.8433 44.4835C23.8785 44.8913 23.8514 45.291 23.7245 45.6827C23.5192 46.3147 23.1006 46.7684 22.5253 47.0844C22.4416 47.1303 22.3552 47.1735 22.2444 47.2303C22.5496 47.6921 22.8629 48.1377 23.1681 48.5861C23.476 49.0371 23.7839 49.4855 24.1107 49.9662C24.0108 49.9716 23.9514 49.977 23.8947 49.977C23.1897 49.977 22.4821 49.9743 21.7772 49.9797C21.6367 49.9824 21.5557 49.9338 21.4801 49.8177C21.0263 49.1236 20.5618 48.4375 20.108 47.7434C20.0351 47.6327 19.9622 47.5814 19.8271 47.5868C19.5814 47.5976 19.3356 47.5895 19.0628 47.5895C19.0439 47.7947 19.0547 47.9892 19.052 48.1864C19.0493 48.3862 19.052 48.5834 19.052 48.7833C19.052 48.975 19.052 49.1668 19.052 49.3585C19.052 49.5557 19.052 49.7529 19.052 49.9635C18.3119 49.9635 17.5962 49.9635 16.8643 49.9635C16.8616 47.3437 16.8616 44.7292 16.8616 42.0959ZM19.0628 43.9811C19.025 44.424 19.0412 45.7043 19.0817 45.8528C19.0952 45.8582 19.106 45.8663 19.1195 45.8663C19.6138 45.869 20.1053 45.8744 20.5996 45.8663C20.8049 45.8636 21.0074 45.8177 21.1911 45.7178C21.5314 45.5341 21.6691 45.2424 21.6502 44.867C21.634 44.5051 21.4693 44.2296 21.1263 44.1053C20.9372 44.0351 20.7292 43.9973 20.5267 43.9892C20.1431 43.9703 19.7596 43.9838 19.3761 43.9838C19.2762 43.9811 19.1762 43.9811 19.0628 43.9811Z" fill="white"/>
<path d="M18.5198 51.4869C18.563 51.4842 18.6089 51.4788 18.6576 51.4788C19.3031 51.4788 19.9459 51.4815 20.5914 51.4761C20.721 51.4734 20.7831 51.522 20.8318 51.6381C21.9796 54.366 23.1329 57.0912 24.2862 59.8164C24.3078 59.865 24.3213 59.9163 24.3429 59.9838C23.5002 59.9838 22.6765 59.9838 21.8392 59.9838C21.6393 59.495 21.4395 59.0061 21.2342 58.5091C20.1511 58.5091 19.0708 58.5091 17.9688 58.5091C17.7744 58.9926 17.5745 59.4869 17.3746 59.9865C16.559 59.9865 15.7514 59.9865 14.9438 59.9865C14.9601 59.8407 18.3605 51.7516 18.5198 51.4869ZM20.5455 56.6536C20.2376 55.8677 19.9351 55.0952 19.6245 54.3066C19.4489 54.6172 18.7143 56.5132 18.7116 56.6536C19.3139 56.6536 19.9162 56.6536 20.5455 56.6536Z" fill="white"/>
<path d="M11.541 50.1418C10.096 50.1121 8.97782 49.6746 8.11895 48.678C6.42009 46.7063 6.96027 43.3275 9.79619 42.2229C10.9144 41.788 12.0514 41.8096 13.1642 42.2634C14.7577 42.9143 15.7192 44.4403 15.6598 46.1796C15.595 48.0595 14.2526 49.6422 12.3917 50.0257C12.0622 50.0932 11.7246 50.1175 11.541 50.1418ZM11.36 48.154C11.9461 48.1513 12.3998 47.9865 12.7753 47.63C13.5882 46.8495 13.653 45.4693 12.9184 44.5996C11.9839 43.495 10.2283 43.7299 9.62063 45.0426C9.42077 45.472 9.36675 45.9204 9.43697 46.3849C9.59362 47.4113 10.4093 48.1702 11.36 48.154Z" fill="white"/>
<path d="M34.6306 42.0931C35.3572 42.0931 36.0675 42.0931 36.7967 42.0931C36.7967 43.0655 36.7967 44.0297 36.7967 44.9858C36.9534 45.0425 39.2923 45.0587 39.6002 45.0101C39.6218 44.532 39.6056 44.0459 39.6083 43.5624C39.611 43.0763 39.6083 42.5901 39.6083 42.0931C40.3457 42.0931 41.0614 42.0931 41.7906 42.0931C41.7906 44.7184 41.7906 47.3355 41.7906 49.9635C41.0641 49.9635 40.3511 49.9635 39.611 49.9635C39.611 48.9696 39.611 47.9865 39.611 46.9898C38.6711 46.9898 37.7555 46.9898 36.8102 46.9898C36.7967 47.2329 36.8048 47.4787 36.8048 47.7218C36.8021 47.9676 36.8048 48.216 36.8048 48.4618C36.8048 48.7076 36.8048 48.9561 36.8048 49.2019C36.8048 49.4476 36.8048 49.6934 36.8048 49.9365C36.6482 49.9851 34.9169 49.9986 34.6306 49.9554C34.6306 47.3437 34.6306 44.7292 34.6306 42.0931Z" fill="white"/>
<path d="M2.36056 57.6042C2.36056 58.4037 2.36056 59.1897 2.36056 59.9864C1.57461 59.9864 0.810259 59.9864 0.0432092 59.9864C-4.8216e-06 59.8325 -0.0216118 52.1107 0.0216022 51.5732C0.0621154 51.5651 0.10803 51.5516 0.151244 51.5516C1.41255 51.5516 2.67386 51.5435 3.93517 51.5597C4.53747 51.5651 5.11816 51.7001 5.65833 51.9783C6.54962 52.4402 7.03578 53.1802 7.13572 54.1795C7.17893 54.6225 7.15192 55.0573 7.02228 55.4814C6.74409 56.4078 6.10128 56.983 5.21809 57.3126C4.66441 57.5205 4.08912 57.5853 3.50303 57.5934C3.19513 57.5961 2.88723 57.5934 2.57663 57.5934C2.51451 57.5934 2.44699 57.5988 2.36056 57.6042ZM2.39837 53.5205C2.34706 53.6907 2.34706 55.5597 2.39297 55.7406C2.82241 55.7406 3.25185 55.746 3.68129 55.7379C3.78933 55.7352 3.89736 55.7055 4.0027 55.6758C4.632 55.4976 4.9345 54.9682 4.75624 54.2795C4.64821 53.8716 4.34301 53.661 3.94868 53.5772C3.43551 53.4665 2.91154 53.5475 2.39837 53.5205Z" fill="white"/>
<path d="M43.2627 42.0904C45.3748 42.0904 47.468 42.0904 49.58 42.0904C49.58 42.7035 49.58 43.3085 49.58 43.9351C48.208 43.9351 46.8333 43.9351 45.4666 43.9351C45.4126 44.0944 45.4018 44.8345 45.445 45.1343C46.6901 45.1343 47.9406 45.1343 49.2019 45.1343C49.2019 45.7177 49.2019 46.2768 49.2019 46.8574C47.946 46.8574 46.6955 46.8574 45.4342 46.8574C45.4342 47.2815 45.4342 47.6812 45.4342 48.1053C46.8387 48.1053 48.2323 48.1053 49.6206 48.1053C49.6692 48.2727 49.6773 49.7069 49.6395 49.9445C49.4909 49.9851 43.5301 49.9932 43.2654 49.9527C43.2627 47.3436 43.2627 44.7292 43.2627 42.0904Z" fill="white"/>
<path d="M6.37412 42.0985C6.37412 42.7278 6.37412 43.349 6.37412 43.9999C6.10403 44.0161 5.83394 44.0053 5.56115 44.008C5.28566 44.0107 5.01287 44.008 4.73738 44.008C4.47 44.008 4.20261 44.008 3.93522 44.008C3.65973 44.008 3.38695 44.008 3.11146 44.008C2.83867 44.008 2.56588 44.008 2.29579 44.008C2.25258 44.1674 2.23907 44.9966 2.27418 45.3369C2.57668 45.3369 2.88188 45.3396 3.18708 45.3396C3.49498 45.3396 3.80288 45.3396 4.11348 45.3396C4.42408 45.3396 4.72928 45.3396 5.03988 45.3396C5.34778 45.3396 5.65298 45.3396 5.97439 45.3396C5.97439 45.95 5.97439 46.5415 5.97439 47.1519C4.74279 47.1519 3.51929 47.1519 2.27418 47.1519C2.24717 47.6326 2.26608 48.0945 2.26068 48.559C2.25798 49.0236 2.26068 49.4881 2.26068 49.9662C1.52334 49.9662 0.807606 49.9662 0.0783691 49.9662C0.0783691 47.3436 0.0783691 44.7292 0.0783691 42.1012C2.17695 42.0985 4.27013 42.0985 6.37412 42.0985Z" fill="white"/>
<path d="M44.7805 53.6043C43.9189 53.6043 43.0924 53.6043 42.2498 53.6043C42.2498 52.9183 42.2498 52.2512 42.2498 51.5814C42.401 51.5409 49.2315 51.522 49.6205 51.5598C49.6664 51.7029 49.6745 53.3505 49.6286 53.5962C48.8048 53.5962 47.9783 53.5962 47.1275 53.5962C47.1086 54.3174 47.1221 55.0196 47.1194 55.7218C47.1167 56.4349 47.1194 57.1479 47.1194 57.8609C47.1194 58.5658 47.1194 59.2681 47.1194 59.9838C46.3308 59.9838 45.5664 59.9838 44.7805 59.9838C44.7805 57.8663 44.7805 55.7515 44.7805 53.6043Z" fill="white"/>
<path d="M10.4902 57.9366C11.8595 57.9366 13.2019 57.9366 14.5361 57.9366C14.5874 58.0933 14.5982 59.6949 14.555 59.9839C12.4294 59.9839 10.2984 59.9839 8.17015 59.9839C8.12694 59.838 8.11613 51.7894 8.15935 51.5571C8.92369 51.5571 9.68804 51.5571 10.4848 51.5571C10.4902 52.2648 10.4875 52.9697 10.4875 53.6719C10.4875 54.3768 10.4875 55.0845 10.4875 55.7894C10.4902 56.497 10.4902 57.202 10.4902 57.9366Z" fill="white"/>
<path d="M33.5936 42.0958C33.5936 42.7224 33.5936 43.3463 33.5936 43.9945C33.3991 44.0188 33.2047 44.0026 33.0075 44.0053C32.8157 44.008 32.624 44.0053 32.4322 44.0053C32.2323 44.0053 32.0352 44.0053 31.8353 44.0053C31.6463 44.0053 31.4545 44.0053 31.2465 44.0053C31.2465 46.0013 31.2465 47.9729 31.2465 49.9392C31.0818 49.9851 29.3424 49.9986 29.0615 49.9554C29.0615 47.9864 29.0615 46.0175 29.0615 44.0351C28.8481 43.9783 28.651 44.0107 28.4565 44.0053C28.2648 43.9999 28.073 44.0053 27.8812 44.0053C27.6814 44.0053 27.4842 44.0053 27.2843 44.0053C27.0926 44.0053 26.9035 44.0053 26.6982 44.0053C26.6982 43.3598 26.6982 42.7332 26.6982 42.0958C28.994 42.0958 31.287 42.0958 33.5936 42.0958Z" fill="white"/>
<path d="M48.3809 59.9947C47.9649 59.992 47.6462 59.6679 47.6489 59.2465C47.6516 58.8333 47.9839 58.5038 48.3944 58.5065C48.8049 58.5092 49.1344 58.8468 49.129 59.2573C49.1236 59.6733 48.7941 59.9974 48.3809 59.9947ZM48.389 59.8704C48.7266 59.8677 48.9967 59.5976 48.9994 59.2573C49.0021 58.9197 48.7293 58.6388 48.3944 58.6361C48.0541 58.6307 47.7732 58.917 47.7759 59.2654C47.7786 59.6057 48.046 59.8704 48.389 59.8704Z" fill="white"/>
<path d="M39.2979 21.01C39.2898 21.5367 38.8549 21.9527 38.3256 21.9419C37.7935 21.931 37.383 21.5043 37.3938 20.9722C37.4046 20.4429 37.8367 20.0269 38.3634 20.035C38.8873 20.0458 39.3087 20.4834 39.2979 21.01Z" fill="white"/>
<path d="M33.6773 16.1783C33.6746 16.7131 33.2587 17.1209 32.7185 17.1155C32.1892 17.1128 31.7705 16.6861 31.7759 16.1567C31.7813 15.63 32.2054 15.2141 32.7401 15.2168C33.2722 15.2222 33.6827 15.6408 33.6773 16.1783Z" fill="white"/>
<path d="M48.6131 59.3653C48.6563 59.4355 48.6968 59.5058 48.7508 59.5976C48.6509 59.6111 48.5699 59.6408 48.4969 59.5679C48.4456 59.5112 48.3997 59.449 48.3268 59.3626C48.2998 59.4707 48.2863 59.5355 48.2674 59.603C48.2106 59.603 48.1593 59.603 48.0918 59.603C48.0918 59.3626 48.0918 59.1276 48.0918 58.8765C48.2241 58.8765 48.3457 58.8765 48.4672 58.8765C48.5753 58.8792 48.6752 58.9089 48.7184 59.0169C48.7643 59.1276 48.7454 59.2303 48.6563 59.3167C48.6428 59.3302 48.632 59.3464 48.6131 59.3653ZM48.3106 59.2141C48.3943 59.2141 48.4888 59.2546 48.5131 59.1438C48.5293 59.0763 48.4618 59.0601 48.4078 59.0547C48.3025 59.0439 48.2836 59.1006 48.3106 59.2141Z" fill="white"/>
</g>
<defs>
<clipPath id="clip0">
<rect width="49.661" height="60" fill="white"/>
</clipPath>
</defs>
</svg>
