<svg width="422" height="194" viewBox="0 0 422 194" fill="none" xmlns="http://www.w3.org/2000/svg">
<path d="M260.8 126.992C261.104 127.295 261.225 127.598 261.225 128.023V139.549C261.225 139.974 261.104 140.277 260.8 140.58C260.497 140.884 260.193 141.005 259.769 141.005H247.993C247.569 141.005 247.386 141.187 247.386 141.612V187.594C247.386 188.019 247.265 188.322 246.962 188.625C246.658 188.929 246.355 189.05 245.93 189.05H231.666C231.241 189.05 230.938 188.929 230.634 188.625C230.331 188.322 230.209 188.019 230.209 187.594V141.612C230.209 141.187 230.027 141.005 229.602 141.005H222.44C222.015 141.005 221.712 140.884 221.408 140.58C221.105 140.277 220.983 139.974 220.983 139.549V128.023C220.983 127.598 221.105 127.295 221.408 126.992C221.712 126.688 222.015 126.567 222.44 126.567H229.602C230.027 126.567 230.209 126.385 230.209 125.96V123.291C230.209 118.256 230.998 114.374 232.516 111.583C234.033 108.793 236.522 106.791 239.981 105.638C243.441 104.486 248.175 103.94 254.245 104.122H258.858C259.283 104.122 259.586 104.243 259.89 104.546C260.193 104.85 260.315 105.153 260.315 105.578V115.405C260.315 115.83 260.193 116.133 259.89 116.436C259.586 116.74 259.283 116.861 258.858 116.861H254.852C251.999 116.922 250.057 117.528 248.965 118.62C247.872 119.712 247.326 121.714 247.326 124.626V125.96C247.326 126.385 247.508 126.567 247.933 126.567H259.708C260.133 126.567 260.497 126.688 260.8 126.992ZM273.547 116.922C271.726 115.102 270.815 112.797 270.815 110.067C270.815 107.216 271.726 104.91 273.486 103.151C275.246 101.392 277.553 100.482 280.405 100.482C283.258 100.482 285.565 101.392 287.325 103.151C289.085 104.91 289.995 107.216 289.995 110.067C289.995 112.797 289.085 115.102 287.264 116.922C285.443 118.742 283.137 119.652 280.405 119.652C277.613 119.652 275.368 118.742 273.547 116.922ZM272.029 188.625C271.726 188.322 271.604 188.019 271.604 187.594V128.023C271.604 127.598 271.726 127.295 272.029 126.992C272.333 126.688 272.636 126.567 273.061 126.567H287.264C287.689 126.567 287.992 126.688 288.296 126.992C288.599 127.295 288.721 127.598 288.721 128.023V187.594C288.721 188.019 288.599 188.322 288.296 188.625C287.992 188.929 287.689 189.05 287.264 189.05H273.061C272.697 189.05 272.333 188.929 272.029 188.625Z" fill="black"/>
<path d="M348.81 132.002C352.756 135.945 354.759 141.344 354.759 148.139V187.934C354.759 188.358 354.637 188.662 354.334 188.965C354.03 189.268 353.727 189.39 353.302 189.39H339.099C338.674 189.39 338.371 189.268 338.067 188.965C337.764 188.662 337.642 188.358 337.642 187.934V151.657C337.642 148.442 336.732 145.773 334.911 143.771C333.09 141.769 330.662 140.738 327.688 140.738C324.714 140.738 322.286 141.769 320.465 143.771C318.644 145.773 317.734 148.442 317.734 151.657V187.934C317.734 188.358 317.612 188.662 317.309 188.965C317.005 189.268 316.702 189.39 316.277 189.39H302.074C301.649 189.39 301.346 189.268 301.042 188.965C300.739 188.662 300.617 188.358 300.617 187.934V128.484C300.617 128.059 300.739 127.756 301.042 127.453C301.346 127.149 301.649 127.028 302.074 127.028H316.277C316.702 127.028 317.005 127.149 317.309 127.453C317.612 127.756 317.734 128.059 317.734 128.484V132.73C317.734 132.973 317.794 133.155 317.977 133.216C318.159 133.276 318.28 133.276 318.341 133.094C321.679 128.423 326.595 126.057 333.151 126.057C339.645 126.057 344.865 128.059 348.81 132.002Z" fill="black"/>
<path d="M404.833 107.871C405.137 107.567 405.44 107.446 405.865 107.446H420.068C420.493 107.446 420.797 107.567 421.1 107.871C421.404 108.174 421.525 108.477 421.525 108.902V190.918C421.525 191.343 421.404 191.646 421.1 191.95C420.797 192.253 420.493 192.374 420.068 192.374H405.865C405.44 192.374 405.137 192.253 404.833 191.95C404.53 191.646 404.409 191.343 404.409 190.918V186.915C404.409 186.672 404.348 186.551 404.166 186.49C403.984 186.429 403.862 186.49 403.68 186.672C400.281 191.1 395.608 193.345 389.72 193.345C384.075 193.345 379.159 191.768 375.092 188.613C371.025 185.459 368.051 181.152 366.291 175.631C364.895 171.446 364.227 166.532 364.227 160.951C364.227 155.188 364.956 150.214 366.412 145.906C368.294 140.75 371.208 136.625 375.213 133.592C379.219 130.559 384.197 129.042 390.084 129.042C395.911 129.042 400.463 131.044 403.68 135.108C403.862 135.351 403.984 135.412 404.166 135.351C404.348 135.29 404.409 135.108 404.409 134.866V108.902C404.409 108.477 404.591 108.174 404.833 107.871ZM404.287 161.193C404.287 155.794 403.377 151.548 401.616 148.454C399.735 145.3 397.064 143.723 393.483 143.723C389.659 143.723 386.807 145.3 384.864 148.454C382.861 151.609 381.829 155.916 381.829 161.315C381.829 166.168 382.679 170.232 384.379 173.447C386.382 176.905 389.416 178.664 393.362 178.664C397.004 178.664 399.856 176.905 401.859 173.447C403.498 170.475 404.287 166.35 404.287 161.193Z" fill="black"/>
<path d="M119.414 143.201C119.11 143.504 118.807 143.626 118.382 143.626H106.728C106.303 143.626 106.121 143.808 106.121 144.232V169.953C106.121 172.622 106.668 174.624 107.76 175.898C108.853 177.172 110.613 177.839 113.041 177.839H117.047C117.471 177.839 117.775 177.961 118.078 178.264C118.382 178.567 118.503 178.871 118.503 179.295V190.821C118.503 191.731 118.018 192.217 117.047 192.398C113.648 192.58 111.22 192.641 109.763 192.641C103.026 192.641 98.0486 191.549 94.7103 189.305C91.372 187.06 89.6725 182.874 89.6118 176.747V144.232C89.6118 143.808 89.4297 143.626 89.0048 143.626H82.0854C81.6605 143.626 81.357 143.504 81.0535 143.201C80.7501 142.898 80.6287 142.594 80.6287 142.17V131.372C80.6287 130.947 80.7501 130.644 81.0535 130.34C81.357 130.037 81.6605 129.916 82.0854 129.916H89.0048C89.4297 129.916 89.6118 129.734 89.6118 129.309V114.871C89.6118 114.447 89.7332 114.143 90.0366 113.84C90.3401 113.537 90.6436 113.415 91.0685 113.415H104.665C105.089 113.415 105.393 113.537 105.696 113.84C106 114.143 106.121 114.447 106.121 114.871V129.309C106.121 129.734 106.303 129.916 106.728 129.916H118.382C118.807 129.916 119.11 130.037 119.414 130.34C119.717 130.644 119.839 130.947 119.839 131.372V142.17C119.839 142.594 119.717 142.898 119.414 143.201Z" fill="black"/>
<path d="M136.955 187.909C132.099 184.33 128.761 179.477 127.001 173.35C125.848 169.529 125.301 165.403 125.301 160.975C125.301 156.183 125.848 151.936 127.001 148.115C128.882 142.109 132.221 137.438 137.077 134.041C141.932 130.644 147.759 128.945 154.557 128.945C161.173 128.945 166.879 130.644 171.552 133.98C176.226 137.317 179.564 141.988 181.506 147.993C182.781 152.058 183.449 156.304 183.449 160.732C183.449 165.1 182.902 169.165 181.749 172.986C179.989 179.295 176.651 184.27 171.856 187.849C167.061 191.428 161.234 193.248 154.436 193.248C147.638 193.248 141.811 191.488 136.955 187.909ZM161.234 176.141C163.115 174.503 164.451 172.319 165.24 169.468C165.907 166.859 166.211 164.069 166.211 160.975C166.211 157.578 165.907 154.727 165.24 152.361C164.329 149.631 162.994 147.447 161.112 145.931C159.231 144.414 156.985 143.625 154.314 143.625C151.583 143.625 149.277 144.414 147.456 145.931C145.635 147.447 144.299 149.631 143.51 152.361C142.843 154.302 142.539 157.153 142.539 160.975C142.539 164.615 142.843 167.466 143.389 169.468C144.178 172.319 145.574 174.503 147.456 176.141C149.337 177.779 151.704 178.567 154.436 178.567C157.106 178.567 159.352 177.779 161.234 176.141Z" fill="black"/>
<path d="M26.5844 94.6584L5.09783 12.5208L4.97644 12.0355C4.97644 11.3076 5.40132 10.9436 6.31177 10.9436H21.3645C22.1536 10.9436 22.6998 11.3682 22.9426 12.1568L34.475 61.5365C34.5357 61.8398 34.6571 62.0218 34.8392 62.0218C35.0212 62.0218 35.1426 61.8398 35.2033 61.5365L46.3715 12.2782C46.6143 11.3682 47.1606 10.9436 47.9496 10.9436H62.6382C63.5486 10.9436 64.0949 11.3682 64.3377 12.1568L76.477 61.5365C76.5377 61.7791 76.6591 61.9004 76.8412 61.9611C77.0233 62.0218 77.1447 61.8398 77.2054 61.5365L88.3735 12.2782C88.6163 11.3682 89.1626 10.9436 89.9517 10.9436H104.276C105.429 10.9436 105.854 11.4896 105.611 12.5208L85.7029 94.6584C85.4601 95.447 84.9138 95.8717 84.0034 95.8717H69.5576C68.7685 95.8717 68.2223 95.447 67.9795 94.6584L55.5974 42.1243C55.5367 41.821 55.4153 41.639 55.2332 41.639C55.0511 41.639 54.9297 41.821 54.869 42.1243L43.3367 94.5371C43.1546 95.447 42.669 95.8717 41.7586 95.8717H28.2839C27.3735 95.8717 26.8272 95.447 26.5844 94.6584Z" fill="black"/>
<path d="M162.508 33.5102C166.454 37.4533 168.457 42.8523 168.457 49.6465V89.4414C168.457 89.866 168.335 90.1693 168.032 90.4727C167.728 90.776 167.425 90.8973 167 90.8973H152.797C152.372 90.8973 152.069 90.776 151.765 90.4727C151.462 90.1693 151.34 89.866 151.34 89.4414V53.165C151.34 49.9498 150.43 47.2807 148.609 45.2788C146.788 43.2769 144.36 42.2457 141.386 42.2457C138.412 42.2457 135.984 43.2769 134.163 45.2788C132.342 47.2807 131.432 49.9498 131.432 53.165V89.4414C131.432 89.866 131.31 90.1693 131.007 90.4727C130.703 90.776 130.4 90.8973 129.975 90.8973H115.772C115.347 90.8973 115.044 90.776 114.74 90.4727C114.437 90.1693 114.315 89.866 114.315 89.4414V7.42514C114.315 7.0005 114.437 6.69719 114.74 6.39387C115.044 6.09056 115.347 5.96923 115.772 5.96923H129.975C130.4 5.96923 130.703 6.09056 131.007 6.39387C131.31 6.69719 131.432 7.0005 131.432 7.42514V34.2381C131.432 34.4808 131.492 34.6628 131.675 34.7234C131.857 34.7841 131.978 34.7841 132.039 34.6021C135.377 29.9311 140.293 27.5652 146.849 27.5652C153.283 27.5652 158.502 29.5671 162.508 33.5102Z" fill="black"/>
<path d="M234.24 68.9859C234.179 69.9565 233.633 70.4418 232.661 70.4418H195.151C194.665 70.4418 194.483 70.6238 194.665 71.0484C194.908 72.6863 195.333 74.2635 196.001 75.9014C198.125 80.4512 202.374 82.6957 208.868 82.6957C214.028 82.635 218.155 80.5118 221.129 76.3867C221.433 75.9014 221.797 75.6588 222.222 75.6588C222.464 75.6588 222.768 75.8408 223.071 76.1441L231.812 84.7582C232.237 85.1829 232.419 85.5469 232.419 85.8502C232.419 86.0322 232.237 86.3355 231.933 86.8208C229.262 90.1572 225.803 92.7051 221.615 94.525C217.427 96.3449 212.814 97.2548 207.776 97.2548C200.796 97.2548 194.908 95.6776 190.113 92.5231C185.318 89.3686 181.858 84.9402 179.734 79.2986C178.035 75.2342 177.185 69.9565 177.185 63.4049C177.185 58.9765 177.792 55.0334 179.006 51.6363C180.887 45.8733 184.104 41.3236 188.778 37.9265C193.451 34.5293 198.975 32.8308 205.348 32.8308C213.421 32.8308 219.915 35.1966 224.832 39.8677C229.748 44.5387 232.722 50.8477 233.754 58.6732C234.24 61.767 234.422 65.1641 234.24 68.9859ZM195.394 54.7907C195.09 55.822 194.787 57.1566 194.544 58.6732C194.544 59.0978 194.726 59.2798 195.151 59.2798H216.152C216.638 59.2798 216.82 59.0978 216.638 58.6732C216.213 56.3073 216.031 55.2154 216.031 55.2761C215.302 52.8495 214.028 50.969 212.207 49.6344C210.386 48.2998 208.14 47.6325 205.469 47.6325C200.371 47.6325 197.033 49.9984 195.394 54.7907Z" fill="black"/>
<path d="M281.025 25.4056C281.692 25.7089 281.935 26.3155 281.753 27.2255L279.204 41.0566C279.143 42.0272 278.536 42.3305 277.504 41.9059C276.29 41.4813 274.894 41.2993 273.255 41.2993C272.588 41.2993 271.738 41.3599 270.585 41.5419C267.671 41.7846 265.183 42.8765 263.18 44.7571C261.177 46.6376 260.145 49.1854 260.145 52.3399V85.4619C260.145 85.8865 260.023 86.1898 259.72 86.4931C259.417 86.7965 259.113 86.9178 258.688 86.9178H244.485C244.06 86.9178 243.757 86.7965 243.453 86.4931C243.15 86.1898 243.028 85.8865 243.028 85.4619V26.0122C243.028 25.5876 243.15 25.2843 243.453 24.9809C243.757 24.6776 244.06 24.5563 244.485 24.5563H258.688C259.113 24.5563 259.417 24.6776 259.72 24.9809C260.023 25.2843 260.145 25.5876 260.145 26.0122V30.6226C260.145 30.8652 260.206 31.0472 260.388 31.1079C260.57 31.1686 260.691 31.1686 260.752 30.9866C264.09 26.1335 268.521 23.707 274.105 23.707C277.019 23.707 279.325 24.253 281.025 25.4056Z" fill="black"/>
<path d="M342.631 68.5734C342.571 69.544 342.024 70.0293 341.053 70.0293H303.543C303.057 70.0293 302.875 70.2113 303.057 70.6359C303.3 72.2738 303.725 73.8511 304.392 75.489C306.517 80.0387 310.766 82.2832 317.26 82.2832C322.419 82.2225 326.547 80.0993 329.521 75.9743C329.824 75.489 330.189 75.2463 330.613 75.2463C330.856 75.2463 331.16 75.4283 331.463 75.7316L340.203 84.3457C340.628 84.7704 340.81 85.1344 340.81 85.4377C340.81 85.6197 340.628 85.923 340.325 86.4083C337.654 89.7447 334.195 92.2926 330.006 94.1125C325.818 95.9324 321.205 96.8423 316.168 96.8423C309.188 96.8423 303.3 95.2651 298.505 92.1106C293.71 88.9561 290.25 84.5277 288.126 78.8861C286.426 74.8217 285.577 69.544 285.577 62.9924C285.577 58.564 286.184 54.6209 287.397 51.2238C289.279 45.4608 292.496 40.9111 297.17 37.514C301.843 34.1168 307.367 32.4183 313.74 32.4183C321.812 32.4183 328.307 34.7841 333.223 39.4552C338.14 44.1262 341.114 50.4352 342.146 58.2607C342.631 61.3545 342.813 64.7516 342.631 68.5734ZM303.786 54.3783C303.482 55.4095 303.179 56.7441 302.936 58.2607C302.936 58.6853 303.118 58.8673 303.543 58.8673H324.544C325.029 58.8673 325.211 58.6853 325.029 58.2607C324.604 55.8948 324.422 54.8029 324.422 54.8636C323.694 52.437 322.419 50.5565 320.598 49.2219C318.778 47.8873 316.532 47.22 313.861 47.22C308.763 47.22 305.424 49.5859 303.786 54.3783Z" fill="black"/>
<path d="M257.815 123.012C258.118 123.316 258.24 123.619 258.24 124.044V135.569C258.24 135.994 258.118 136.297 257.815 136.601C257.511 136.904 257.208 137.025 256.783 137.025H245.008C244.583 137.025 244.401 137.207 244.401 137.632V183.615C244.401 184.039 244.279 184.342 243.976 184.646C243.672 184.949 243.369 185.07 242.944 185.07H228.68C228.256 185.07 227.952 184.949 227.649 184.646C227.345 184.342 227.224 184.039 227.224 183.615V137.632C227.224 137.207 227.042 137.025 226.617 137.025H219.454C219.03 137.025 218.726 136.904 218.423 136.601C218.119 136.297 217.998 135.994 217.998 135.569V124.044C217.998 123.619 218.119 123.316 218.423 123.012C218.726 122.709 219.03 122.588 219.454 122.588H226.617C227.042 122.588 227.224 122.406 227.224 121.981V119.312C227.224 114.277 228.013 110.394 229.53 107.604C231.048 104.813 233.536 102.812 236.996 101.659C240.456 100.506 245.19 99.9603 251.26 100.142H255.872C256.297 100.142 256.601 100.264 256.904 100.567C257.208 100.87 257.329 101.174 257.329 101.598V111.426C257.329 111.85 257.208 112.154 256.904 112.457C256.601 112.76 256.297 112.882 255.872 112.882H251.866C249.014 112.942 247.071 113.549 245.979 114.641C244.886 115.733 244.34 117.735 244.34 120.646V121.981C244.34 122.406 244.522 122.588 244.947 122.588H256.722C257.147 122.588 257.511 122.709 257.815 123.012ZM270.561 112.942C268.74 111.122 267.83 108.817 267.83 106.087C267.83 103.236 268.74 100.931 270.5 99.1717C272.261 97.4125 274.567 96.5026 277.42 96.5026C280.272 96.5026 282.579 97.4125 284.339 99.1717C286.099 100.931 287.01 103.236 287.01 106.087C287.01 108.817 286.099 111.122 284.278 112.942C282.458 114.762 280.151 115.672 277.42 115.672C274.628 115.672 272.382 114.762 270.561 112.942ZM269.044 184.646C268.74 184.342 268.619 184.039 268.619 183.615V124.044C268.619 123.619 268.74 123.316 269.044 123.012C269.347 122.709 269.651 122.588 270.075 122.588H284.278C284.703 122.588 285.007 122.709 285.31 123.012C285.614 123.316 285.735 123.619 285.735 124.044V183.615C285.735 184.039 285.614 184.342 285.31 184.646C285.007 184.949 284.703 185.07 284.278 185.07H270.075C269.711 185.07 269.347 184.949 269.044 184.646Z" fill="white" stroke="black" stroke-width="3"/>
<path d="M345.825 128.023C349.77 131.966 351.773 137.365 351.773 144.159V183.954C351.773 184.379 351.652 184.682 351.348 184.985C351.045 185.289 350.741 185.41 350.316 185.41H336.113C335.688 185.41 335.385 185.289 335.081 184.985C334.778 184.682 334.657 184.379 334.657 183.954V147.678C334.657 144.463 333.746 141.793 331.925 139.792C330.104 137.79 327.676 136.758 324.702 136.758C321.728 136.758 319.3 137.79 317.479 139.792C315.659 141.793 314.748 144.463 314.748 147.678V183.954C314.748 184.379 314.627 184.682 314.323 184.985C314.02 185.289 313.716 185.41 313.291 185.41H299.088C298.664 185.41 298.36 185.289 298.057 184.985C297.753 184.682 297.632 184.379 297.632 183.954V124.504C297.632 124.08 297.753 123.777 298.057 123.473C298.36 123.17 298.664 123.049 299.088 123.049H313.291C313.716 123.049 314.02 123.17 314.323 123.473C314.627 123.777 314.748 124.08 314.748 124.504V128.751C314.748 128.994 314.809 129.176 314.991 129.236C315.173 129.297 315.294 129.297 315.355 129.115C318.693 124.444 323.61 122.078 330.165 122.078C336.66 122.078 341.88 124.08 345.825 128.023Z" fill="white" stroke="black" stroke-width="3"/>
<path d="M401.848 103.891C402.151 103.588 402.455 103.467 402.88 103.467H417.083C417.508 103.467 417.811 103.588 418.115 103.891C418.418 104.195 418.539 104.498 418.539 104.923V186.939C418.539 187.363 418.418 187.667 418.115 187.97C417.811 188.273 417.508 188.395 417.083 188.395H402.88C402.455 188.395 402.151 188.273 401.848 187.97C401.544 187.667 401.423 187.363 401.423 186.939V182.935C401.423 182.692 401.362 182.571 401.18 182.51C400.998 182.45 400.877 182.51 400.695 182.692C397.296 187.121 392.622 189.365 386.734 189.365C381.09 189.365 376.173 187.788 372.107 184.634C368.04 181.479 365.066 177.172 363.306 171.652C361.91 167.466 361.242 162.552 361.242 156.971C361.242 151.208 361.97 146.234 363.427 141.927C365.309 136.771 368.222 132.646 372.228 129.612C376.234 126.579 381.211 125.063 387.099 125.063C392.926 125.063 397.478 127.065 400.695 131.129C400.877 131.372 400.998 131.432 401.18 131.372C401.362 131.311 401.423 131.129 401.423 130.886V104.923C401.423 104.498 401.605 104.195 401.848 103.891ZM401.302 157.214C401.302 151.815 400.391 147.569 398.631 144.475C396.749 141.32 394.079 139.743 390.498 139.743C386.674 139.743 383.821 141.32 381.879 144.475C379.876 147.629 378.844 151.936 378.844 157.335C378.844 162.188 379.694 166.253 381.393 169.468C383.396 172.926 386.431 174.685 390.376 174.685C394.018 174.685 396.871 172.926 398.874 169.468C400.513 166.495 401.302 162.37 401.302 157.214Z" fill="white" stroke="black" stroke-width="3"/>
<path d="M116.428 139.221C116.125 139.525 115.821 139.646 115.396 139.646H103.743C103.318 139.646 103.136 139.828 103.136 140.253V165.974C103.136 168.643 103.682 170.645 104.774 171.919C105.867 173.193 107.627 173.86 110.055 173.86H114.061C114.486 173.86 114.789 173.981 115.093 174.285C115.396 174.588 115.518 174.891 115.518 175.316V186.842C115.518 187.752 115.032 188.237 114.061 188.419C110.662 188.601 108.234 188.662 106.777 188.662C100.04 188.662 95.063 187.57 91.7247 185.325C88.3864 183.081 86.6869 178.895 86.6262 172.768V140.253C86.6262 139.828 86.4441 139.646 86.0192 139.646H79.0998C78.6749 139.646 78.3714 139.525 78.0679 139.221C77.7645 138.918 77.6431 138.615 77.6431 138.19V127.392C77.6431 126.967 77.7645 126.664 78.0679 126.361C78.3714 126.058 78.6749 125.936 79.0998 125.936H86.0192C86.4441 125.936 86.6262 125.754 86.6262 125.33V110.892C86.6262 110.467 86.7476 110.164 87.051 109.861C87.3545 109.557 87.658 109.436 88.0829 109.436H101.679C102.104 109.436 102.407 109.557 102.711 109.861C103.014 110.164 103.136 110.467 103.136 110.892V125.33C103.136 125.754 103.318 125.936 103.743 125.936H115.396C115.821 125.936 116.125 126.058 116.428 126.361C116.732 126.664 116.853 126.967 116.853 127.392V138.19C116.853 138.615 116.732 138.918 116.428 139.221Z" fill="white" stroke="black" stroke-width="3"/>
<path d="M133.97 183.93C129.114 180.351 125.775 175.498 124.015 169.371C122.862 165.549 122.316 161.424 122.316 156.996C122.316 152.203 122.862 147.957 124.015 144.135C125.897 138.129 129.235 133.458 134.091 130.061C138.947 126.664 144.774 124.966 151.572 124.966C158.187 124.966 163.893 126.664 168.567 130.001C173.24 133.337 176.579 138.008 178.521 144.014C179.795 148.078 180.463 152.325 180.463 156.753C180.463 161.121 179.917 165.185 178.764 169.007C177.003 175.316 173.665 180.29 168.87 183.869C164.075 187.448 158.248 189.268 151.45 189.268C144.652 189.268 138.825 187.509 133.97 183.93ZM158.248 172.161C160.13 170.523 161.465 168.34 162.254 165.488C162.922 162.88 163.225 160.089 163.225 156.996C163.225 153.598 162.922 150.747 162.254 148.381C161.344 145.652 160.008 143.468 158.127 141.951C156.245 140.435 153.999 139.646 151.329 139.646C148.597 139.646 146.291 140.435 144.47 141.951C142.649 143.468 141.314 145.652 140.525 148.381C139.857 150.323 139.554 153.174 139.554 156.996C139.554 160.635 139.857 163.486 140.403 165.488C141.192 168.34 142.588 170.523 144.47 172.161C146.352 173.799 148.719 174.588 151.45 174.588C154.121 174.588 156.367 173.799 158.248 172.161Z" fill="white" stroke="black" stroke-width="3"/>
<path d="M23.5988 90.6789L2.11224 8.54134L1.99084 8.05603C1.99084 7.32808 2.41572 6.9641 3.32617 6.9641H18.3789C19.168 6.9641 19.7142 7.38874 19.957 8.17736L31.4894 57.557C31.5501 57.8603 31.6715 58.0423 31.8536 58.0423C32.0357 58.0423 32.157 57.8603 32.2177 57.557L43.3859 8.29868C43.6287 7.38874 44.175 6.9641 44.964 6.9641H59.6526C60.563 6.9641 61.1093 7.38874 61.3521 8.17736L73.4914 57.557C73.5521 57.7996 73.6735 57.9209 73.8556 57.9816C74.0377 58.0423 74.1591 57.8603 74.2198 57.557L85.3879 8.29868C85.6307 7.38874 86.177 6.9641 86.9661 6.9641H101.29C102.444 6.9641 102.869 7.51007 102.626 8.54134L82.7173 90.6789C82.4745 91.4675 81.9282 91.8922 81.0178 91.8922H66.572C65.7829 91.8922 65.2367 91.4675 64.9939 90.6789L52.6118 38.1448C52.5511 37.8415 52.4297 37.6595 52.2476 37.6595C52.0655 37.6595 51.9441 37.8415 51.8834 38.1448L40.3511 90.5576C40.169 91.4675 39.6834 91.8922 38.773 91.8922H25.2983C24.3879 91.8922 23.8416 91.4675 23.5988 90.6789Z" fill="white" stroke="black" stroke-width="3"/>
<path d="M159.523 29.5307C163.468 33.4738 165.471 38.8728 165.471 45.667V85.4619C165.471 85.8865 165.35 86.1899 165.046 86.4932C164.743 86.7965 164.439 86.9178 164.014 86.9178H149.811C149.386 86.9178 149.083 86.7965 148.78 86.4932C148.476 86.1899 148.355 85.8865 148.355 85.4619V49.1855C148.355 45.9704 147.444 43.3012 145.623 41.2993C143.802 39.2974 141.375 38.2662 138.4 38.2662C135.426 38.2662 132.998 39.2974 131.177 41.2993C129.357 43.3012 128.446 45.9704 128.446 49.1855V85.4619C128.446 85.8865 128.325 86.1899 128.021 86.4932C127.718 86.7965 127.414 86.9178 126.989 86.9178H112.786C112.362 86.9178 112.058 86.7965 111.755 86.4932C111.451 86.1899 111.33 85.8865 111.33 85.4619V3.44565C111.33 3.02101 111.451 2.7177 111.755 2.41438C112.058 2.11107 112.362 1.98974 112.786 1.98974H126.989C127.414 1.98974 127.718 2.11107 128.021 2.41438C128.325 2.7177 128.446 3.02101 128.446 3.44565V30.2587C128.446 30.5013 128.507 30.6833 128.689 30.744C128.871 30.8046 128.992 30.8046 129.053 30.6226C132.391 25.9516 137.308 23.5857 143.863 23.5857C150.297 23.5857 155.517 25.5876 159.523 29.5307Z" fill="white" stroke="black" stroke-width="3"/>
<path d="M231.254 65.0064C231.193 65.977 230.647 66.4623 229.676 66.4623H192.165C191.68 66.4623 191.498 66.6443 191.68 67.0689C191.923 68.7068 192.347 70.2841 193.015 71.922C195.14 76.4717 199.388 78.7162 205.883 78.7162C211.042 78.6555 215.169 76.5323 218.144 72.4073C218.447 71.922 218.811 71.6793 219.236 71.6793C219.479 71.6793 219.782 71.8613 220.086 72.1646L228.826 80.7787C229.251 81.2034 229.433 81.5674 229.433 81.8707C229.433 82.0527 229.251 82.356 228.948 82.8413C226.277 86.1777 222.817 88.7256 218.629 90.5455C214.441 92.3654 209.828 93.2753 204.79 93.2753C197.81 93.2753 191.923 91.6981 187.128 88.5436C182.333 85.3891 178.873 80.9607 176.748 75.3191C175.049 71.2547 174.199 65.977 174.199 59.4254C174.199 54.997 174.806 51.0539 176.02 47.6568C177.902 41.8938 181.119 37.3441 185.792 33.947C190.466 30.5498 195.989 28.8513 202.362 28.8513C210.435 28.8513 216.93 31.2171 221.846 35.8882C226.762 40.5592 229.737 46.8682 230.768 54.6937C231.254 57.7875 231.436 61.1846 231.254 65.0064ZM192.408 50.8113C192.105 51.8425 191.801 53.1771 191.558 54.6937C191.558 55.1183 191.741 55.3003 192.165 55.3003H213.166C213.652 55.3003 213.834 55.1183 213.652 54.6937C213.227 52.3278 213.045 51.2359 213.045 51.2966C212.317 48.87 211.042 46.9895 209.221 45.6549C207.4 44.3203 205.154 43.653 202.484 43.653C197.385 43.653 194.047 46.0189 192.408 50.8113Z" fill="white" stroke="black" stroke-width="3"/>
<path d="M278.039 21.4261C278.707 21.7294 278.949 22.336 278.767 23.246L276.218 37.0771C276.157 38.0477 275.55 38.3511 274.519 37.9264C273.305 37.5018 271.909 37.3198 270.27 37.3198C269.602 37.3198 268.752 37.3804 267.599 37.5624C264.686 37.8051 262.197 38.897 260.194 40.7776C258.191 42.6581 257.159 45.206 257.159 48.3604V81.4824C257.159 81.907 257.038 82.2103 256.734 82.5137C256.431 82.817 256.127 82.9383 255.703 82.9383H241.5C241.075 82.9383 240.771 82.817 240.468 82.5137C240.164 82.2103 240.043 81.907 240.043 81.4824V22.0327C240.043 21.6081 240.164 21.3048 240.468 21.0015C240.771 20.6981 241.075 20.5768 241.5 20.5768H255.703C256.127 20.5768 256.431 20.6981 256.734 21.0015C257.038 21.3048 257.159 21.6081 257.159 22.0327V26.6431C257.159 26.8858 257.22 27.0677 257.402 27.1284C257.584 27.1891 257.706 27.1891 257.766 27.0071C261.105 22.1541 265.535 19.7275 271.12 19.7275C274.033 19.7275 276.339 20.2735 278.039 21.4261Z" fill="white" stroke="black" stroke-width="3"/>
<path d="M339.646 64.5939C339.585 65.5645 339.039 66.0498 338.068 66.0498H300.557C300.072 66.0498 299.89 66.2318 300.072 66.6564C300.314 68.2943 300.739 69.8716 301.407 71.5095C303.531 76.0592 307.78 78.3037 314.275 78.3037C319.434 78.243 323.561 76.1198 326.535 71.9948C326.839 71.5095 327.203 71.2668 327.628 71.2668C327.871 71.2668 328.174 71.4488 328.478 71.7521L337.218 80.3662C337.643 80.7909 337.825 81.1549 337.825 81.4582C337.825 81.6402 337.643 81.9435 337.339 82.4288C334.669 85.7652 331.209 88.3131 327.021 90.133C322.833 91.9529 318.22 92.8628 313.182 92.8628C306.202 92.8628 300.314 91.2856 295.519 88.1311C290.724 84.9766 287.265 80.5482 285.14 74.9066C283.441 70.8422 282.591 65.5645 282.591 59.0129C282.591 54.5845 283.198 50.6414 284.412 47.2443C286.294 41.4813 289.51 36.9316 294.184 33.5345C298.858 30.1374 304.381 28.4388 310.754 28.4388C318.827 28.4388 325.321 30.8046 330.238 35.4757C335.154 40.1467 338.128 46.4557 339.16 54.2812C339.646 57.375 339.828 60.7721 339.646 64.5939ZM300.8 50.3988C300.497 51.43 300.193 52.7646 299.95 54.2812C299.95 54.7058 300.132 54.8878 300.557 54.8878H321.558C322.044 54.8878 322.226 54.7058 322.044 54.2812C321.619 51.9153 321.685 51.7102 321.437 50.8841C320.709 48.4576 319.434 46.577 317.613 45.2424C315.792 43.9078 313.546 43.2405 310.876 43.2405C305.777 43.2405 302.439 45.6064 300.8 50.3988Z" fill="white" stroke="black" stroke-width="3"/>
<path d="M213.266 51.8828C213.31 51.9963 213.364 52.0977 213.444 52.1901C213.46 52.2087 213.496 52.2712 213.49 52.2474C213.439 52.0429 213.281 51.7775 213.387 51.566C213.395 51.5495 213.428 51.5034 213.451 51.5226C213.512 51.5753 213.555 51.6631 213.598 51.7309C213.602 51.7379 213.659 51.8383 213.664 51.8325C213.723 51.7582 213.758 51.6469 213.795 51.5599C213.799 51.55 213.805 51.5126 213.805 51.5417C213.805 51.581 213.803 51.6288 213.826 51.6632C213.846 51.6928 213.911 51.5841 213.917 51.5755C213.93 51.5565 213.946 51.5042 213.961 51.5217C213.968 51.5301 213.969 51.5444 213.977 51.5538C214.012 51.5991 214.065 51.5115 214.063 51.4766C214.061 51.4543 214.056 51.3676 214.023 51.4193C213.963 51.5133 213.959 51.6559 213.978 51.763C213.986 51.8055 213.999 51.8518 214 51.895C214.001 51.9417 213.967 51.9794 213.941 52.0165C213.888 52.0922 213.844 52.1735 213.793 52.2496C213.714 52.3659 213.612 52.4324 213.482 52.4826C213.38 52.5218 213.308 52.5706 213.195 52.5373C213.118 52.5143 213.052 52.4491 213.018 52.3772C212.957 52.2454 212.914 52.1017 212.891 51.9583C212.882 51.9008 212.872 51.8452 212.881 51.7873C212.885 51.7664 212.885 51.7416 212.878 51.7214C212.851 51.6471 212.81 51.6115 212.731 51.6189C212.668 51.6248 212.615 51.6492 212.555 51.6623C212.507 51.6727 212.454 51.6533 212.407 51.668C212.37 51.6793 212.316 51.6797 212.278 51.6797C212.253 51.6797 212.211 51.6717 212.188 51.6814C212.17 51.689 212.152 51.6875 212.133 51.6875C212.127 51.6875 212.114 51.6901 212.11 51.684C212.098 51.6668 212.124 51.723 212.133 51.7418C212.16 51.7997 212.187 51.8594 212.207 51.9201C212.225 51.9719 212.237 52.0287 212.264 52.0764C212.337 52.2074 212.408 52.3538 212.53 52.4483C212.584 52.4898 212.686 52.5986 212.758 52.5625" stroke="black" stroke-linecap="round" stroke-linejoin="round"/>
</svg>
